<?xml version="1.0" encoding="utf-8"?>
<!-- Generator: Adobe Illustrator 16.0.4, SVG Export Plug-In . SVG Version: 6.00 Build 0)  -->
<!DOCTYPE svg PUBLIC "-//W3C//DTD SVG 1.1//EN" "http://www.w3.org/Graphics/SVG/1.1/DTD/svg11.dtd">
<svg version="1.1" id="レイヤー_1" xmlns="http://www.w3.org/2000/svg" xmlns:xlink="http://www.w3.org/1999/xlink" x="0px"
	 y="0px" width="473px" height="155px" viewBox="0 0 473 155" enable-background="new 0 0 473 155" xml:space="preserve">
<g>
	<path fill="#E12A16" d="M123.029,82.717c0.768-0.222,1.297,0.375,1.37-0.259c1.482,1.088-2.842,1.944-4.755,2.365
		C120.16,82.748,122.873,84.644,123.029,82.717z"/>
	<path fill="#E12A16" d="M101.84,88.266c-0.954,2.121-6.054,1.79-8.008,2.653C95.943,89.045,98.603,89.293,101.84,88.266z"/>
	<path fill="#E12A16" d="M87.445,92.169c-1.154,0.506-8,3.363-10.489,2.073C79.76,94.458,84.8,91.999,87.445,92.169z"/>
	<path fill="#E12A16" d="M20.595,106.389c1.055-1.067,4.361-1.039,6.3-1.673C25.835,105.78,22.528,105.748,20.595,106.389z"/>
	<path fill="#E12A16" d="M162.405,78.263c-0.009,0.528-1.342,0.374-1.241,0.958c-3.256,0.349-4.905,1.524-8.162,1.87
		C156.479,79.723,158.958,79.119,162.405,78.263z"/>
	<path fill="#E12A16" d="M195.134,73.776c-6.244,0.389-15.642,4.411-22.413,4.048C179.055,77.411,189.666,72.571,195.134,73.776z"/>
	<path fill="#E12A16" d="M117.311,87.467c0.109,1.122-2.156,1.04-3.515,1.416C114.839,87.641,115.839,88.361,117.311,87.467z"/>
	<path fill="#E12A16" d="M146.089,84.579c-1.198,0.454-3.708,0.235-4.043,1.131C141.438,84.763,146.131,83.45,146.089,84.579z"/>
	<path fill="#E12A16" d="M109.575,91.535c-1.449,0.86-3.816,1.259-5.794,1.852C104.127,92.064,108.887,91.67,109.575,91.535z"/>
	<path fill="#E12A16" d="M100.132,94.094c-0.289,1.449-3.776,1.283-5.265,2.123C95.538,94.965,98.589,94.912,100.132,94.094z"/>
	<path fill="#E12A16" d="M92.448,95.952c-3.21,1.978-8.65,2.942-11.324,2.604C84.314,97.568,89.313,97.095,92.448,95.952z"/>
	<path fill="#E12A16" d="M180.872,81.081c-0.989,0.878-3.602,0.915-4.895,1.635C176.866,81.053,179.002,81.292,180.872,81.081z"/>
	<path fill="#E12A16" d="M88.97,99.94c-0.087,0.593-1.373,0.585-0.633,1.594c-3.277,0.477-5.779,1.346-8.06,2.323
		C82.468,101.65,85.064,100.699,88.97,99.94z"/>
	<path fill="#E12A16" d="M134.392,95.222c-0.254,2.198-7.179,1.869-8.528,2.348c-1.141,1.651-4.944,1.936-7.478,2.893
		C119.948,96.69,128.081,97.079,134.392,95.222z"/>
	<path fill="#E12A16" d="M100.348,102.49c-4.615,2.13-14.778,4.849-19.372,4.9C86.884,105.97,93.408,104.166,100.348,102.49z"/>
	<path fill="#E12A16" d="M136.174,99.644c1.678,1.09-4.145,1.064-4.81,2.011C130.923,99.941,135.797,100.943,136.174,99.644z"/>
	<path fill="#E12A16" d="M403.665,20.978c-0.433-0.111,0.241-1.11-0.574-1.026c-1.229,0.122-2.106,1.184-3.668,1.465
		c-8.901,1.62-19.145,1.854-29.041,3.947c-4.951,1-10.14,2.035-15.272,2.994c-22.503,4.357-43.106,8.737-64.131,11.415
		c-0.611,0.098-0.327,0.687-0.813,0.853c-3.235,0.439-6.489,0.881-9.756,1.325c-3.26,0.463-6.533,0.931-9.808,1.442
		c-6.549,1.023-13.103,2.22-19.563,3.897c-9.097,2.357-18.609,3.65-28.329,5.913c-5.621,1.324-11.071,3.449-16.682,4.734
		c-8.593,1.938-17.905,3.784-26.949,5.709c-9.034,1.97-17.798,4.028-25.307,6.321c-9.278,2.813-19.735,3.377-29.739,5.596
		c-5.87,1.305-11.506,3.807-17.031,5.099c-4.89,1.146-9.028,1.816-13.111,3.277c-13.055,4.7-25.981,8.966-38.79,12.457
		c-4.78,1.292-10.777,2.028-13.844,4.269c-4.024-0.215-9.108,3.359-13.979,3.604c13.886-2.278,39.574-8.373,52.134-11.984
		c9.983,0.554,24.349-7.715,30.781-4.906c-0.209-2.211-2.662,0.095-3.08-1.235c12.613-3.764,22.253-4.331,34.25-9.1
		c0.058,0.955-0.722,1.343,1.114,0.891c1.25-1.098,0.143-0.244-0.266-1.415c11.306-2.535,22.088-5.015,35.099-7.227
		c-0.836,0.315-2.846,0.026-2.159,1.128c7.218-2.075,14.694-2.125,22.711-5.175c0.991,0.318,2.258,0.332,2.605,1.362
		c0.272,1.322-3.227,0.67-2.953,1.991c0.949,0.862,1.86-1.739,3.205-0.572c0.016,0.687,0.655,0.69,0.709,1.332
		c-9.616,2.493-21.583,4.258-28.446,7.317c8.938-1.97,19.856-4.376,27.261-6.008c-0.762,0.889-2.992,1.005-3.929,1.799
		c-0.439,1.618,2.378-0.365,2.477,0.656c-1.625,5.75-8.532,6.768-15.252,9.669c-5.684-0.976-11.422,2.471-17.219,3.9
		c-4.998,1.231-11.16,0.621-14.478,3.398c-3.022-0.27-5.077,2.143-5.854,4.033c0.099,1.221,1.94-0.412,2.155,1.425
		c-3.779-0.754-4.132,2.9-2.726,3.079c-1.125,0.065-0.868,0.834-2.211,0.785c-0.106-0.514,1.709-1.485-0.2-1.062
		c-1.96-0.031-3.951,0.394-4.356,1.925c-7.661,2.979-17.909,4.367-27.44,7.074c-1.401,0.595-1.12-0.73-2.025-0.704
		c-4.989,4.506-20.322,2.29-25.835,7.984c-11.594,3.018-17.705,5.481-29.11,8.011c1.137-0.447,1.662-0.187,1.576,0.786
		c-1.88,0.46-2.261-0.144-3.632,0.731c0.046-0.507,0.508-0.808,0.168-1.504c-2.247,0.789-6.528,0.573-7.115,2.186
		c1.722-0.468,4.469,0.153,5.897-1.203c0.758,0.766-0.007,1.15,0.739,1.319c3.771-0.88,7.402-3.504,11.137-3.342
		c-0.277,0.701-1.897,0.986-0.625,1.591c1.416-0.833,2.892-0.428,3.562-1.08c-0.771,0.264-1.867-1.05-0.212-1.059
		c1.238,1.118,1.874,0.722,4.438,0.943c-9.297,4.23-18.763,4.407-31.851,8.28c0.969,0.375,3.797-1.803,5.892-1.202
		c-0.532-0.152-1.288,0.629-1.288,0.629c4.03-0.271,8.722-1.787,13.147-2.673c11.057-2.241,28.565-5.114,37.339-9.268
		c2.518,1.257,5.27-0.874,8.182-1.596c9.759-2.41,21.28-5.059,31.044-7.803c4.462-1.265,12.505-1.396,18.593-3.887
		c0.804-0.332,1.322-1.304,2.078-1.489c0.834-0.204,1.996,0.337,2.865,0.204c1.177-0.181,2.451-1.145,3.512-1.379
		c5.934-1.318,13.078-2.191,18.677-3.443c19.285-4.25,37.888-8.972,58.322-13.24c5.678,0.497,10.287-2.521,15.179-1.874
		c1.163-0.341,1.199-1.287,2.561-1.516c7.115-1.569,12.929-2.408,17.47-2.124c0.433-0.412-0.072-1.334,1.196-1.292
		c1.699-0.298,2.947-0.111,4.226,0.043c3.152-4.143,9.17,0.262,13.479-3.619c0.056,0.355,0.112,0.71,0.168,1.068
		c2.543-1.713,4.905-1.065,7.311-1.12c1.71-0.04,2.721-1.372,4.863-1.839c0.748-0.161,2.306,0.348,3.307,0.22
		c1.344-0.165,1.26-1.088,2.286-0.351c3.646-2.62,11.597-3.723,14.52-2.919c-1.462-1.069,3.913-1.009,4.875-1.777
		c1.185-0.135,0.701,1.459,2.441,0.747c6.916-1.184,13.787-2.531,20.746-3.9c6.959-1.329,14.006-2.551,21.27-3.718
		c3.631-0.575,7.316-1.119,11.07-1.613c3.753-0.46,7.569-0.789,11.472-1.093c3.901-0.293,7.886-0.518,11.965-0.653
		c2.039-0.068,4.103-0.114,6.191-0.136c2.084,0.016,4.185,0.1,6.315,0.188c1.951-1.403,3.41-3.141,4.646-5.039
		c1.396-0.2,1.998-0.93,3.123-1.313c0.828-0.812,1.324-1.85,2.119-2.687c11.158-5.603,11.4-17.882,2.232-23.265
		c-2.617-1.54-6.391-2.724-10.542-3.481c-4.137-0.734-8.7-1.143-12.736-0.873C407.828,20.032,403.408,20.915,403.665,20.978z
		 M177.64,68.498c0.477,0.727,3.863-1.79,4.25-0.036C180.131,67.609,178.742,70.065,177.64,68.498z M225.173,78.351
		c-3.272,2.346-12.626,3.121-16.721,4.02C213.049,79.924,219.775,79.801,225.173,78.351z M168.929,93.167
		c0.818-0.063,1.152,0.418,1.172,1.246c-1.267-0.145-2.875,0.092-4.625,0.487C164.708,93.329,168.914,94.333,168.929,93.167z
		 M131.902,104.485c-1.317,1.863-5.025,2.292-7.471,2.88c-6.46,1.567-13.597,3.324-19.814,4.931
		C110.706,108.347,124.34,106.585,131.902,104.485z"/>
	<path fill="#E12A16" d="M154.955,76.341c1.046-1.132-0.904-0.424-1.569-0.809c4.115-1.868,14.12-2.9,16.667-4.537
		c1.386-0.829,2.799,1.374,2.746-0.506c0.581,2.754-5.04,1.615-6.474,3.39c3.514-0.273,9.75-1.274,12.873-2.006
		c0.006,1.742-4.724,1.236-7.254,1.703c-2.408,0.443-4.593,1.613-6.795,1.618c-0.885-0.149-1.43-0.678-2.483-0.639
		C163.234,75.119,158.81,75.315,154.955,76.341z"/>
	<path fill="#E12A16" d="M72.29,101.769c1.395-1.249,3.364-1.293,6.695-2.057C80.62,99.46,75.577,101.384,72.29,101.769z"/>
	<path fill="#E12A16" d="M100.872,102.754c2.599-1.349,8.738-2.738,4.487-1.235C103.778,102.078,103.75,102.15,100.872,102.754z"/>
	<path fill="#E12A16" d="M88.743,91.544c1.28-0.027,3.533-1.159,4.176-0.449c1.135,0.582,0.031,0.781-1.231,0.97
		c2.645,0.746,7.488-1.991,11.934-1.946c-11.261,3.243-27.528,7.751-39.253,9.925c8.062-2.295,17.907-5.188,25.178-6.826
		C89.727,92.148,88.723,92.433,88.743,91.544z"/>
</g>
<g>
	<g>
		<path fill="none" stroke="#000000" stroke-width="6" d="M61.07,97.867c-0.438,0-0.81-0.337-0.847-0.781l-0.241-2.946
			c-0.018-0.225,0.053-0.448,0.199-0.62s0.354-0.279,0.579-0.297l6.329-0.517l-2.128-26.027c-1.571,1.274-3.496,2.452-5.568,3.403
			c-0.113,0.052-0.234,0.078-0.355,0.078c-0.123,0-0.245-0.026-0.358-0.08c-0.226-0.105-0.395-0.304-0.461-0.544l-0.902-3.263
			c-0.114-0.414,0.097-0.847,0.493-1.012c2.513-1.045,4.956-2.575,7.261-4.546c0.136-0.117,0.305-0.187,0.483-0.202
			c0,0,3.802-0.31,3.825-0.31c0.201,0,0.396,0.071,0.55,0.202c0.172,0.146,0.279,0.354,0.297,0.579l2.556,31.255
			c0,0,6.041-0.493,6.064-0.493c0.438,0,0.81,0.337,0.847,0.781l0.241,2.946c0.019,0.225-0.053,0.448-0.199,0.62
			s-0.354,0.279-0.579,0.297C79.157,96.392,61.094,97.867,61.07,97.867z"/>
		<path fill="none" stroke="#000000" stroke-width="6" d="M101.064,94.598c-0.438,0-0.81-0.337-0.847-0.781l-0.401-4.907
			c-0.018-0.225,0.053-0.448,0.199-0.62s0.354-0.279,0.579-0.297c0,0,5.193-0.424,5.217-0.424c0.438,0,0.81,0.337,0.847,0.781
			l0.401,4.907c0.018,0.225-0.053,0.448-0.199,0.62s-0.354,0.279-0.579,0.297C106.281,94.174,101.088,94.598,101.064,94.598z"/>
		<path fill="none" stroke="#000000" stroke-width="6" d="M129.99,95.329c-0.067,0-0.134-0.008-0.2-0.024
			c-0.134-0.032-0.291-0.087-0.472-0.172c-1.089-0.477-2.165-1.073-3.368-1.868c-0.189-0.125-0.321-0.321-0.365-0.544
			c-0.044-0.223,0.002-0.454,0.13-0.642c0.697-1.03,1.138-1.934,1.781-3.3c1.275-2.724,2.509-6.134,3.667-10.133
			c0.08-0.274,0.291-0.49,0.563-0.576c0.083-0.026,0.168-0.039,0.253-0.039c0.193,0,0.384,0.066,0.538,0.191
			c0.621,0.507,1.256,0.982,1.838,1.374c0.468,0.295,0.786,0.508,0.962,0.688c0.167,0.171,0.255,0.405,0.242,0.645
			c-0.013,0.226-0.08,0.483-0.247,0.948c-1.104,3.478-2.413,7.504-3.828,10.91l-0.138,0.341c-0.255,0.627-0.456,1.122-0.519,1.493
			c-0.04,0.232-0.174,0.438-0.371,0.567C130.317,95.28,130.155,95.329,129.99,95.329z M141.035,95.038
			c-0.207,0-0.408-0.076-0.564-0.214c-0.174-0.154-0.277-0.372-0.286-0.604l0-0.003c-0.04-0.815-0.13-2.661-0.404-6.009
			l-1.338-16.363c-0.272-3.325-0.486-5.212-0.578-6.018c-0.027-0.236,0.042-0.51,0.196-0.69s0.373-0.325,0.61-0.333
			c0.75-0.035,2.429-0.112,5.857-0.393l2.871-0.235l-0.575-7.033c-0.192-2.347-0.372-4.12-0.677-5.711
			c-0.047-0.243,0.015-0.493,0.167-0.688c0.153-0.194,0.383-0.312,0.63-0.322c0.989-0.043,1.875-0.065,2.688-0.065
			c0.482,0,0.953,0.008,1.408,0.024c0.259,0.009,0.5,0.137,0.654,0.346s0.204,0.477,0.135,0.728
			c-0.029,0.105-0.072,0.24-0.138,0.426c-0.141,0.52-0.125,1.411,0.094,4.086l0.638,7.798l3.206-0.262
			c3.477-0.285,5.117-0.478,5.817-0.561c0.034-0.004,0.068-0.006,0.103-0.006c0.203,0,0.411,0.069,0.565,0.2
			c0.18,0.153,0.306,0.371,0.317,0.607c0.05,0.953,0.161,3.042,0.447,6.536l0.899,11.005c0.11,1.347,0.241,2.768,0.356,4.009
			l0.021,0.222c0.081,0.873,0.152,1.646,0.199,2.225c0.147,1.792,0.163,2.958-0.875,4.02c-0.748,0.726-2.067,1.276-6.126,1.657
			c-0.386,0.032-0.642,0.052-0.847,0.052c-0.012,0-0.112-0.002-0.125-0.003c-0.324-0.014-0.612-0.211-0.743-0.508
			c-0.08-0.183-0.192-0.559-0.264-0.809c-0.22-0.768-0.506-1.514-0.833-2.171c-0.128-0.259-0.117-0.566,0.032-0.814
			c0.148-0.249,0.413-0.404,0.702-0.414c0.971-0.032,1.709-0.071,2.551-0.14c0.495-0.041,0.989-0.113,1.252-0.367
			c0.202-0.195,0.268-0.487,0.225-1.005l-0.324-3.971l-14.688,1.201l0.286,3.493c0.267,3.267,0.483,5.154,0.565,5.864
			c0.026,0.229-0.042,0.458-0.188,0.637s-0.358,0.289-0.588,0.308C144.367,94.769,141.058,95.038,141.035,95.038z M143.967,80.496
			l14.688-1.201l-0.316-3.875l-14.688,1.201L143.967,80.496z M143.329,72.698l14.688-1.201l-0.309-3.78l-14.688,1.201
			L143.329,72.698z M131.092,74.03c-0.193,0-0.383-0.066-0.536-0.19c-2.121-1.72-4.656-3.379-6.957-4.55
			c-0.215-0.109-0.374-0.306-0.436-0.539s-0.022-0.482,0.11-0.685l1.668-2.547c0.162-0.247,0.433-0.385,0.712-0.385
			c0.118,0,0.238,0.025,0.351,0.076c2.326,1.057,5.052,2.708,7.292,4.418c0.342,0.261,0.435,0.736,0.217,1.106l-1.689,2.875
			c-0.125,0.214-0.338,0.362-0.582,0.406C131.193,74.025,131.143,74.03,131.092,74.03z M140.534,62.88
			c-0.088,0-0.177-0.014-0.262-0.042c-0.227-0.074-0.412-0.239-0.511-0.456c-1.107-2.423-2.421-4.507-4.136-6.56
			c-0.162-0.194-0.229-0.45-0.184-0.699c0.045-0.248,0.199-0.464,0.419-0.588c0,0,2.787-1.569,2.81-1.582
			c0.13-0.072,0.271-0.106,0.411-0.106c0.244,0,0.483,0.104,0.649,0.301c1.716,2.023,3.187,4.259,4.496,6.834
			c0.207,0.405,0.057,0.901-0.339,1.125l-2.933,1.66C140.824,62.843,140.68,62.88,140.534,62.88z M131.88,61.916
			c-0.198,0-0.391-0.069-0.545-0.198c-2.195-1.834-4.625-3.542-6.666-4.684c-0.21-0.118-0.36-0.319-0.414-0.554
			c-0.054-0.235-0.005-0.481,0.134-0.678l1.824-2.592c0.164-0.233,0.427-0.361,0.696-0.361c0.131,0,0.263,0.03,0.387,0.093
			c2.496,1.277,4.885,3.029,6.894,4.574c0.347,0.267,0.435,0.752,0.203,1.124l-1.79,2.875c-0.13,0.208-0.344,0.351-0.587,0.39
			C131.97,61.912,131.925,61.916,131.88,61.916z M158.763,61.82c-0.108,0-0.218-0.021-0.323-0.064
			c-0.189-0.078-0.455-0.205-0.667-0.307c-0.678-0.334-1.387-0.621-2.117-0.854c-0.241-0.077-0.436-0.258-0.53-0.494
			c-0.094-0.235-0.079-0.5,0.043-0.723c1.098-2.016,1.967-4.024,2.737-6.32c0.122-0.428,0.226-0.823,0.307-1.22
			c0.048-0.237,0.196-0.443,0.405-0.565c0.131-0.077,0.279-0.116,0.428-0.116c0.088,0,0.177,0.014,0.263,0.042
			c1.265,0.411,2.594,0.908,3.554,1.327c0.257,0.112,0.442,0.344,0.495,0.62c0.053,0.275-0.034,0.559-0.231,0.758
			c-0.287,0.29-0.439,0.599-0.595,0.943c-0.834,2.077-1.643,3.867-2.692,5.952c-0.151,0.271-0.264,0.474-0.353,0.617
			C159.329,61.674,159.051,61.82,158.763,61.82z"/>
		<path fill="none" stroke="#000000" stroke-width="6" d="M175.425,92.178c-0.203,0-0.4-0.073-0.556-0.207
			c-0.172-0.149-0.278-0.361-0.293-0.588l-0.006-0.089c-0.072-1.182-0.263-4.295-0.703-9.678l-1.686-20.621
			c-0.451-5.514-0.779-8.715-0.887-9.767l-0.012-0.114c-0.024-0.235,0.051-0.47,0.207-0.647c0.156-0.178,0.378-0.283,0.615-0.29
			l0.133,0.846l-0.032-0.85c0.62-0.023,1.774-0.066,3.6-0.215l7.033-0.575c0.593-0.048,0.817-0.144,0.945-0.222
			c0.141-0.085,0.298-0.171,0.525-0.187c0.02-0.001,0.04-0.002,0.059-0.002c0.046,0,0.091,0.004,0.136,0.011
			c0.333,0.054,0.668,0.251,1.778,1.274c1.124,0.954,1.366,1.374,1.396,1.768c0.021,0.258-0.078,0.501-0.25,0.671
			c-0.041,0.05-0.093,0.11-0.162,0.178c-0.337,0.348-0.589,0.878-0.78,1.653c-0.259,0.834-0.497,1.628-0.728,2.398
			c-0.773,2.577-1.438,4.798-2.52,7.356l0,0c4.018,4.1,4.76,6.974,4.964,9.468c0.378,4.64-1.568,7.225-5.952,7.904
			c-0.306,0.054-0.571,0.1-0.756,0.121c-0.032,0.003-0.064,0.005-0.096,0.005c-0.379,0-0.719-0.254-0.82-0.627
			c-0.049-0.181-0.107-0.452-0.16-0.699c-0.182-0.815-0.395-1.505-0.632-2.041c-0.107-0.244-0.095-0.523,0.034-0.756
			c0.129-0.232,0.359-0.392,0.623-0.43c1.129-0.163,1.919-0.511,2.413-1.065c0.538-0.603,0.752-1.471,0.655-2.655
			c-0.18-2.204-1.493-4.381-4.846-8.034c-0.225-0.245-0.286-0.598-0.158-0.904c1.493-3.554,2.324-6.603,3.256-10.666l-5.359,0.438
			l2.199,26.889c0.437,5.346,0.771,8.625,0.881,9.703c0.023,0.228-0.044,0.478-0.19,0.653s-0.354,0.308-0.582,0.327
			C178.713,91.912,175.448,92.178,175.425,92.178z M187.134,91.041c-0.202,0-0.403-0.072-0.562-0.212
			c-0.092-0.081-0.256-0.244-0.536-0.576c-0.528-0.63-1.224-1.263-1.96-1.784c-0.226-0.16-0.36-0.419-0.36-0.695
			c0-0.277,0.135-0.536,0.362-0.695c4.557-3.202,7.303-7.062,8.394-11.801c0.919-3.816,1.092-8.349,0.598-15.654l0,0
			c-2.879,0.236-4.417,0.422-4.996,0.493c-0.034,0.004-0.068,0.006-0.103,0.006c-0.195,0-0.385-0.067-0.538-0.191
			c-0.179-0.146-0.291-0.359-0.31-0.59l-0.248-3.02c-0.02-0.237,0.061-0.471,0.222-0.646s0.388-0.274,0.625-0.274
			c0.697-0.032,2.358-0.108,5.549-0.37l3.396-0.278l-0.258-3.158c-0.134-1.639-0.257-2.772-0.526-4.067
			c-0.051-0.246,0.009-0.501,0.164-0.699s0.39-0.316,0.641-0.324c0.513-0.017,1.024-0.025,1.544-0.025
			c0.788,0,1.549,0.02,2.322,0.049c0.264,0.01,0.507,0.142,0.66,0.357c0.153,0.215,0.197,0.489,0.121,0.741
			c-0.021,0.068-0.117,0.351-0.117,0.351c-0.195,0.543-0.136,1.271,0.022,3.214l0.26,3.166l4.976-0.407
			c3.618-0.296,5.325-0.495,6.053-0.581c0.033-0.004,0.066-0.006,0.099-0.006c0.196,0,0.387,0.068,0.54,0.193
			c0.178,0.146,0.29,0.358,0.309,0.588l0.247,3.021c0.019,0.23-0.057,0.458-0.209,0.631c-0.153,0.173-0.369,0.277-0.6,0.288
			c-0.724,0.033-2.419,0.112-6.067,0.41l-8.851,0.725c0.134,2.251,0.236,4.115,0.242,5.904l7.703-0.63
			c2.549-0.208,3.647-0.355,4.175-0.425c0.039-0.005,0.079-0.008,0.119-0.008c0.208,0,0.428,0.069,0.583,0.202
			c0.184,0.159,0.325,0.384,0.328,0.627c0.017,1.128,0.07,2.272,0.155,3.308c0.523,8.351,0.313,12.157,0.109,14.295
			c-0.496,4.581-2.267,6.254-7.019,6.643c-0.723,0.059-1.714,0.141-2.54,0.159c-0.217,0-0.398-0.001-0.522-0.009
			c-0.343-0.021-0.639-0.246-0.751-0.57c-0.065-0.189-0.153-0.542-0.238-0.894c-0.174-0.798-0.39-1.478-0.653-2.078
			c-0.117-0.265-0.09-0.571,0.069-0.812c0.158-0.238,0.424-0.381,0.709-0.381c0.004,0,0.544,0.006,0.791,0.006
			c0.956,0,1.754-0.028,2.513-0.09c1.571-0.129,2.315-0.929,2.567-2.763c0.441-2.676,0.461-6.845,0.064-12.769l-8.229,0.673
			c-0.134,2.711-0.404,4.845-0.848,6.716c-1.346,5.814-4.224,10.305-9.056,14.13c-0.272,0.191-0.547,0.379-0.715,0.474
			C187.422,91.004,187.278,91.041,187.134,91.041z"/>
		<path fill="none" stroke="#000000" stroke-width="6" d="M223.084,88.426c-0.204,0-0.401-0.073-0.556-0.207
			c-0.172-0.149-0.278-0.361-0.292-0.589c-0.22-3.42-0.685-9.491-1.384-18.043l-0.778-9.521c-0.436-5.33-0.817-9.621-1.134-12.755
			c-0.023-0.234,0.051-0.468,0.206-0.646c0.155-0.177,0.377-0.282,0.613-0.29c0.772-0.037,2.5-0.118,6.001-0.405l26.123-2.136
			c3.559-0.291,5.241-0.488,5.959-0.572c0.033-0.004,0.067-0.006,0.102-0.006c0.202,0,0.409,0.068,0.562,0.196
			c0.179,0.15,0.309,0.364,0.324,0.598c0.184,2.985,0.459,6.723,0.82,11.142l0.907,11.101c0.482,5.898,1.146,13.813,1.566,18.028
			c0.022,0.227-0.047,0.454-0.193,0.629c-0.146,0.175-0.356,0.285-0.584,0.303c0,0-3.514,0.286-3.537,0.286
			c-0.201,0-0.396-0.071-0.55-0.202c-0.172-0.146-0.279-0.354-0.297-0.579l-0.149-1.832l-29.567,2.417l0.153,1.879
			c0.038,0.468-0.31,0.878-0.778,0.917C226.62,88.139,223.107,88.426,223.084,88.426z M226.873,80.798l29.568-2.417l-2.469-30.189
			l-29.567,2.417L226.873,80.798z M240.102,78.097c-0.317-0.015-0.6-0.206-0.733-0.494c-0.08-0.173-0.197-0.533-0.307-0.884
			c-0.179-0.69-0.408-1.353-0.674-1.957c-0.116-0.262-0.091-0.565,0.065-0.805c0.156-0.241,0.423-0.386,0.709-0.388
			c0.976-0.004,1.874-0.046,3.002-0.138c0.465-0.038,1.04-0.123,1.36-0.442c0.246-0.246,0.335-0.612,0.288-1.186l-0.931-11.387
			l-8.756,0.716c-3.547,0.29-5.202,0.485-5.908,0.569c-0.033,0.004-0.066,0.006-0.1,0.006c-0.195,0-0.386-0.067-0.539-0.192
			c-0.179-0.146-0.29-0.359-0.309-0.589l-0.212-2.59c-0.019-0.23,0.057-0.458,0.209-0.631c0.153-0.173,0.369-0.277,0.6-0.288
			c0.711-0.033,2.378-0.109,5.923-0.399l8.755-0.716l-0.031-0.382c-0.156-1.906-0.325-3.258-0.55-4.386
			c-0.049-0.248,0.014-0.505,0.173-0.701c0.159-0.197,0.397-0.312,0.65-0.315c0.333-0.005,0.655-0.007,0.973-0.007
			c0.993,0,1.932,0.022,2.925,0.057c0.269,0.01,0.518,0.146,0.67,0.367c0.152,0.221,0.191,0.502,0.105,0.756l-0.151,0.416
			c-0.188,0.577-0.193,1.182-0.025,3.23l0.047,0.574c2.722-0.223,4.144-0.398,4.75-0.473c0.012-0.001,0.086-0.007,0.11-0.007
			c0.443,0,0.812,0.34,0.848,0.781l0.211,2.593c0.019,0.229-0.056,0.455-0.207,0.628c-0.15,0.173-0.364,0.277-0.593,0.291
			l-0.244,0.014c-0.713,0.042-2.104,0.122-4.539,0.287l0.493,6.028c0.114,1.395,0.241,2.485,0.364,3.551
			c0.119,1.021,0.235,2.016,0.334,3.232c0.155,1.891-0.18,2.876-1.282,3.765c-1.013,0.687-2.173,1.043-6.527,1.449
			c-0.379,0.031-0.628,0.051-0.829,0.051C240.208,78.1,240.115,78.098,240.102,78.097z M236.715,71.671
			c-0.047,0-0.095-0.004-0.142-0.012c-0.231-0.039-0.436-0.172-0.566-0.367c-1.298-1.948-2.969-3.931-4.583-5.44
			c-0.19-0.177-0.288-0.432-0.267-0.69s0.16-0.494,0.375-0.638c0,0,2.268-1.515,2.286-1.526c0.142-0.092,0.302-0.137,0.463-0.137
			c0.19,0,0.379,0.063,0.534,0.188c1.569,1.266,3.403,3.236,5.031,5.405c0.281,0.375,0.207,0.906-0.167,1.189l-2.452,1.856
			C237.08,71.611,236.899,71.671,236.715,71.671z"/>
		<path fill="none" stroke="#000000" stroke-width="6" d="M275.167,81.4c-0.318,0-0.616-0.18-0.762-0.473
			c-1.529-3.09-2.939-8.998-3.353-14.049c-0.356-4.359-0.24-9.684,0.345-15.826c0.284-3.073,0.394-4.608,0.34-6.154
			c-0.009-0.257,0.099-0.504,0.293-0.672c0.156-0.135,0.354-0.208,0.557-0.208c0.05,0,0.1,0.004,0.15,0.014
			c1.785,0.32,3.042,0.67,4.202,1.172c0.716,0.308,0.925,0.498,1.045,0.657c0.181,0.241,0.221,0.559,0.105,0.837
			c-0.039,0.094-0.258,0.507-0.539,1.027c-0.429,0.942-0.617,1.676-0.887,3.522c-0.79,5.587-1.076,11.574-0.746,15.619
			c0.179,2.196,0.396,3.811,0.745,5.574c0.26-0.721,0.512-1.378,0.768-2.05c0.43-1.125,0.836-2.186,1.309-3.562
			c0.103-0.299,0.363-0.517,0.676-0.564c0.043-0.006,0.086-0.01,0.128-0.01c0.268,0,0.523,0.127,0.685,0.347
			c0.173,0.236,0.353,0.463,0.536,0.694c0.18,0.228,0.334,0.422,0.49,0.629c0.003,0.004,0.057,0.078,0.061,0.083
			c0.066,0.092,0.163,0.228,0.215,0.313c0.087,0.144,0.129,0.311,0.122,0.479c-0.011,0.236-0.088,0.412-0.181,0.6l-0.018,0.047
			c-0.861,2.478-1.62,4.658-2.119,7.4c-0.034,0.144-0.102,0.519-0.022,1.495c0.026,0.315,0.076,0.571,0.121,0.801l0.051,0.27
			c0.067,0.403-0.162,0.797-0.545,0.938c-1.243,0.457-2.456,0.805-3.604,1.035C275.278,81.395,275.223,81.4,275.167,81.4z
			 M295.913,76.849c-4.502,0-7.119-0.905-9.032-3.125c-1.045-1.134-1.796-3.013-2.096-5.268c-0.06-0.453,0.25-0.873,0.7-0.95
			l3.111-0.531c0.048-0.008,0.097-0.012,0.144-0.012c0.401,0,0.757,0.285,0.834,0.692c0.524,2.755,2.287,3.878,6.086,3.878
			c0.626,0,1.301-0.03,2.064-0.092c3.61-0.295,6.039-0.752,8.838-1.318c0.057-0.012,0.113-0.017,0.169-0.017
			c0.392,0,0.744,0.272,0.83,0.67c0.2,0.919,0.472,2.598,0.582,3.816c0.038,0.428-0.249,0.818-0.669,0.908
			c-3.181,0.641-5.5,0.989-7.83,1.18C298.247,76.793,297.026,76.849,295.913,76.849z M285.9,53.696c-0.178,0-0.353-0.056-0.5-0.163
			c-0.205-0.148-0.333-0.38-0.349-0.632l-0.023-0.357c-0.112-1.711-0.173-2.652-0.15-3.316c0.013-0.373,0.269-0.778,0.628-0.875
			c2.73-0.741,7.999-1.516,10.287-1.703c2.477-0.202,4.498-0.297,6.361-0.297l0.742,0.005l0.323-0.007
			c0.442,0,0.811,0.339,0.848,0.78c0.101,1.216,0.194,2.406,0.216,3.598c0.004,0.226-0.082,0.444-0.238,0.606
			c-0.157,0.163-0.372,0.256-0.598,0.259c-2.847,0.047-5.249,0.157-7.558,0.345c-3.085,0.252-6.01,0.77-9.778,1.73
			C286.041,53.688,285.971,53.696,285.9,53.696z"/>
		<path fill="none" stroke="#000000" stroke-width="6" d="M335.719,73.857c-0.32-0.018-0.591-0.211-0.721-0.484
			c-0.039-0.068-0.091-0.16-0.154-0.295c-0.461-0.872-1.206-1.75-2.132-2.498c-0.25-0.201-0.364-0.525-0.297-0.839
			c0.066-0.313,0.304-0.562,0.613-0.645c5.102-1.355,8.039-2.474,10.834-4.125c4.196-2.572,6.16-5.959,5.824-10.061
			c-0.345-4.225-3.144-6.647-7.68-6.647c-0.369,0-0.75,0.016-1.143,0.048c-4.156,0.34-9.517,2.354-16.869,6.34
			c-0.399,0.242-0.774,0.464-1.119,0.668c-0.959,0.568-1.649,0.976-2.041,1.323c-0.441,0.446-0.814,0.72-1.103,0.8
			c-0.074,0.021-0.151,0.031-0.228,0.031c-0.007,0-0.014,0-0.021,0c-0.422-0.011-0.801-0.263-1.351-0.899
			c-0.834-0.863-1.876-2.222-2.828-3.692c-0.149-0.23-0.178-0.519-0.077-0.774s0.318-0.446,0.585-0.513
			c1.728-0.432,3.729-1.187,7.929-2.993c7.59-3.273,13.276-5.083,16.899-5.379c0.554-0.045,1.11-0.069,1.652-0.069
			c7.712,0,12.866,4.444,13.451,11.598c0.503,6.148-1.69,10.332-7.333,13.989c-3.715,2.496-7.287,3.583-11.423,4.841l-0.405,0.124
			c-0.39,0.111-0.617,0.153-0.807,0.153C335.759,73.859,335.719,73.857,335.719,73.857z"/>
		<path fill="none" stroke="#000000" stroke-width="6" d="M377.361,71.319c-3.333,0-7.585-3.64-9.575-11.772
			c-1.101-4.336-1.913-9.25-2.287-13.829c-0.169-2.07-0.334-3.424-0.764-5.083c-0.069-0.267-0.004-0.551,0.173-0.762
			c0.162-0.192,0.4-0.302,0.65-0.302c0.024,0,0.048,0.001,0.072,0.003c2.007,0.171,3.825,0.537,4.987,1.004
			c0.189,0.066,0.384,0.172,0.529,0.292c0.213,0.177,0.326,0.447,0.304,0.723c-0.023,0.284-0.114,0.672-0.27,1.155
			c-0.145,0.595-0.211,2.718-0.047,4.723c0.252,3.091,0.639,6.543,1.753,10.838c1.156,4.394,2.66,6.718,4.349,6.718l0.152-0.006
			c1.394-0.115,2.402-1.656,3.594-5.497c0.091-0.292,0.332-0.514,0.631-0.579c0.06-0.013,0.121-0.02,0.181-0.02
			c0.239,0,0.471,0.101,0.634,0.284c0.872,0.975,1.687,1.669,2.37,2.219c0.545,0.423,0.692,0.947,0.48,1.743
			c-1.401,4.964-4.072,7.847-7.524,8.129C377.623,71.314,377.492,71.319,377.361,71.319z M400.551,60.742
			c-0.119,0-0.237-0.025-0.348-0.075c-0.218-0.098-0.385-0.284-0.46-0.511c-2.201-6.716-4.951-11.114-9.492-15.181
			c-0.191-0.171-0.294-0.419-0.282-0.675c0.013-0.256,0.14-0.493,0.347-0.645c1.385-1.015,2.259-1.581,2.748-1.876
			c0.157-0.095,0.362-0.15,0.561-0.15c0.174,0,0.344,0.042,0.473,0.138c4.751,3.5,9.068,9.777,10.742,15.618
			c0.094,0.326,0.003,0.741-0.259,0.956c-0.055,0.045-0.129,0.101-0.178,0.137c-1.343,1.043-2.43,1.723-3.512,2.193
			C400.782,60.718,400.667,60.742,400.551,60.742z"/>
		<path fill="none" stroke="#000000" stroke-width="6" d="M443.426,67.544c-7.936,0-16.282-4.148-17.04-13.414
			c-0.518-6.342,1.933-11.251,7.947-15.918l-0.008-0.092l-0.077,0.014c-5.72,1.574-10.745,2.995-15.74,4.455l-0.869,0.281
			c-1.067,0.344-1.509,0.486-2.083,0.731c-0.087,0.046-0.171,0.097-0.256,0.149c-0.294,0.18-0.505,0.298-0.767,0.319
			c-0.023,0.002-0.046,0.003-0.068,0.003c-0.281,0-0.539-0.139-0.695-0.361c-0.058-0.065-0.134-0.161-0.203-0.285
			c-0.54-0.92-1.085-2.127-1.811-4.014c-0.093-0.242-0.071-0.513,0.061-0.736c0.131-0.223,0.357-0.375,0.614-0.411
			c1.877-0.266,3.429-0.609,6.485-1.298l2.702-0.625c6.071-1.406,15.224-3.527,25.719-5.792c0.019-0.004,0.129-0.024,0.147-0.027
			c0.042-0.006,0.084-0.009,0.126-0.009c0.373,0,0.71,0.247,0.816,0.615c0.258,0.894,0.624,2.442,0.808,3.864
			c0.029,0.23-0.036,0.463-0.183,0.644c-0.146,0.181-0.359,0.293-0.591,0.313c-2.125,0.308-3.678,0.645-5.808,1.535
			c-7.421,3.229-11.554,8.88-11.045,15.111c0.489,5.98,4.841,9.012,12.936,9.012c0.202,0,0.404-0.002,0.611-0.005
			c0.109-0.008,0.271-0.013,0.273-0.013c0.446,0,0.817,0.346,0.849,0.792c0.093,1.34,0.014,2.914-0.2,4.011
			c-0.023,0.204-0.055,0.355-0.077,0.441c-0.091,0.348-0.392,0.602-0.751,0.632C444.633,67.518,444.036,67.544,443.426,67.544z"/>
	</g>
	<g>
		<path fill="none" stroke="#000000" stroke-width="3" d="M59.653,96.45c-0.438,0-0.81-0.337-0.847-0.781l-0.241-2.946
			c-0.018-0.225,0.053-0.448,0.199-0.62s0.354-0.279,0.579-0.297l6.329-0.517l-2.128-26.027c-1.571,1.274-3.496,2.452-5.568,3.403
			c-0.113,0.052-0.234,0.078-0.355,0.078c-0.123,0-0.245-0.026-0.358-0.08c-0.226-0.105-0.395-0.304-0.461-0.544L55.9,64.856
			c-0.114-0.414,0.097-0.847,0.493-1.012c2.513-1.045,4.956-2.575,7.261-4.546c0.136-0.117,0.305-0.187,0.483-0.202
			c0,0,3.802-0.31,3.825-0.31c0.201,0,0.396,0.071,0.55,0.202c0.172,0.146,0.279,0.354,0.297,0.579l2.556,31.255
			c0,0,6.041-0.493,6.064-0.493c0.438,0,0.81,0.337,0.847,0.781l0.241,2.946c0.019,0.225-0.053,0.448-0.199,0.62
			s-0.354,0.279-0.579,0.297C77.74,94.974,59.676,96.45,59.653,96.45z"/>
		<path fill="none" stroke="#000000" stroke-width="3" d="M99.647,93.18c-0.438,0-0.81-0.337-0.847-0.781l-0.401-4.907
			c-0.018-0.225,0.053-0.448,0.199-0.62s0.354-0.279,0.579-0.297c0,0,5.193-0.424,5.217-0.424c0.438,0,0.81,0.337,0.847,0.781
			l0.401,4.907c0.018,0.225-0.053,0.448-0.199,0.62s-0.354,0.279-0.579,0.297C104.864,92.756,99.67,93.18,99.647,93.18z"/>
		<path fill="none" stroke="#000000" stroke-width="3" d="M128.572,93.911c-0.067,0-0.134-0.008-0.2-0.024
			c-0.134-0.032-0.291-0.087-0.472-0.172c-1.089-0.477-2.165-1.073-3.368-1.868c-0.189-0.125-0.321-0.321-0.365-0.544
			c-0.044-0.223,0.002-0.454,0.13-0.642c0.697-1.03,1.138-1.934,1.781-3.3c1.275-2.724,2.509-6.134,3.667-10.133
			c0.08-0.274,0.291-0.49,0.563-0.576c0.083-0.026,0.168-0.039,0.253-0.039c0.193,0,0.384,0.066,0.538,0.191
			c0.621,0.507,1.256,0.982,1.838,1.374c0.468,0.295,0.786,0.508,0.962,0.688c0.167,0.171,0.255,0.405,0.242,0.645
			c-0.013,0.226-0.08,0.483-0.247,0.948c-1.104,3.478-2.413,7.504-3.828,10.91l-0.138,0.341c-0.255,0.627-0.456,1.122-0.519,1.493
			c-0.04,0.232-0.174,0.438-0.371,0.567C128.9,93.863,128.737,93.911,128.572,93.911z M139.618,93.621
			c-0.207,0-0.408-0.076-0.564-0.214c-0.174-0.154-0.277-0.372-0.286-0.604l0-0.003c-0.04-0.815-0.13-2.661-0.404-6.009
			l-1.338-16.363c-0.272-3.325-0.486-5.212-0.578-6.018c-0.027-0.236,0.042-0.51,0.196-0.69s0.373-0.325,0.61-0.333
			c0.75-0.035,2.429-0.112,5.857-0.393l2.871-0.235l-0.575-7.033c-0.192-2.347-0.372-4.12-0.677-5.711
			c-0.047-0.243,0.015-0.493,0.167-0.688c0.153-0.194,0.383-0.312,0.63-0.322c0.989-0.043,1.875-0.065,2.688-0.065
			c0.482,0,0.953,0.008,1.408,0.024c0.259,0.009,0.5,0.137,0.654,0.346s0.204,0.477,0.135,0.728
			c-0.029,0.105-0.072,0.24-0.138,0.426c-0.141,0.52-0.125,1.411,0.094,4.086l0.638,7.798l3.206-0.262
			c3.477-0.285,5.117-0.478,5.817-0.561c0.034-0.004,0.068-0.006,0.103-0.006c0.203,0,0.411,0.069,0.565,0.2
			c0.18,0.153,0.306,0.371,0.317,0.607c0.05,0.953,0.161,3.042,0.447,6.536l0.899,11.005c0.11,1.347,0.241,2.768,0.356,4.009
			l0.021,0.222c0.081,0.873,0.152,1.646,0.199,2.225c0.147,1.792,0.163,2.958-0.875,4.02c-0.748,0.726-2.067,1.276-6.126,1.657
			c-0.386,0.032-0.642,0.052-0.847,0.052c-0.012,0-0.112-0.002-0.125-0.003c-0.324-0.014-0.612-0.211-0.743-0.508
			c-0.08-0.183-0.192-0.559-0.264-0.809c-0.22-0.768-0.506-1.514-0.833-2.171c-0.128-0.259-0.117-0.566,0.032-0.814
			c0.148-0.249,0.413-0.404,0.702-0.414c0.971-0.032,1.709-0.071,2.551-0.14c0.495-0.041,0.989-0.113,1.252-0.367
			c0.202-0.195,0.268-0.487,0.225-1.005l-0.324-3.971l-14.688,1.201l0.286,3.493c0.267,3.267,0.483,5.154,0.565,5.864
			c0.026,0.229-0.042,0.458-0.188,0.637s-0.358,0.289-0.588,0.308C142.949,93.351,139.641,93.621,139.618,93.621z M142.549,79.079
			l14.688-1.201l-0.316-3.875l-14.688,1.201L142.549,79.079z M141.912,71.28l14.688-1.201l-0.309-3.78L141.602,67.5L141.912,71.28z
			 M129.675,72.613c-0.193,0-0.383-0.066-0.536-0.19c-2.121-1.72-4.656-3.379-6.957-4.55c-0.215-0.109-0.374-0.306-0.436-0.539
			s-0.022-0.482,0.11-0.685l1.668-2.547c0.162-0.247,0.433-0.385,0.712-0.385c0.118,0,0.238,0.025,0.351,0.076
			c2.326,1.057,5.052,2.708,7.292,4.418c0.342,0.261,0.435,0.736,0.217,1.106l-1.689,2.875c-0.125,0.214-0.338,0.362-0.582,0.406
			C129.776,72.608,129.725,72.613,129.675,72.613z M139.117,61.463c-0.088,0-0.177-0.014-0.262-0.042
			c-0.227-0.074-0.412-0.239-0.511-0.456c-1.107-2.423-2.421-4.507-4.136-6.56c-0.162-0.194-0.229-0.45-0.184-0.699
			c0.045-0.248,0.199-0.464,0.419-0.588c0,0,2.787-1.569,2.81-1.582c0.13-0.072,0.271-0.106,0.411-0.106
			c0.244,0,0.483,0.104,0.649,0.301c1.716,2.023,3.187,4.259,4.496,6.834c0.207,0.405,0.057,0.901-0.339,1.125l-2.933,1.66
			C139.407,61.425,139.262,61.463,139.117,61.463z M130.463,60.498c-0.198,0-0.391-0.069-0.545-0.198
			c-2.195-1.834-4.625-3.542-6.666-4.684c-0.21-0.118-0.36-0.319-0.414-0.554c-0.054-0.235-0.005-0.481,0.134-0.678l1.824-2.592
			c0.164-0.233,0.427-0.361,0.696-0.361c0.131,0,0.263,0.03,0.387,0.093c2.496,1.277,4.885,3.029,6.894,4.574
			c0.347,0.267,0.435,0.752,0.203,1.124l-1.79,2.875c-0.13,0.208-0.344,0.351-0.587,0.39
			C130.553,60.494,130.508,60.498,130.463,60.498z M157.346,60.403c-0.108,0-0.218-0.021-0.323-0.064
			c-0.189-0.078-0.455-0.205-0.667-0.307c-0.678-0.334-1.387-0.621-2.117-0.854c-0.241-0.077-0.436-0.258-0.53-0.494
			c-0.094-0.235-0.079-0.5,0.043-0.723c1.098-2.016,1.967-4.024,2.737-6.32c0.122-0.428,0.226-0.823,0.307-1.22
			c0.048-0.237,0.196-0.443,0.405-0.565c0.131-0.077,0.279-0.116,0.428-0.116c0.088,0,0.177,0.014,0.263,0.042
			c1.265,0.411,2.594,0.908,3.554,1.327c0.257,0.112,0.442,0.344,0.495,0.62c0.053,0.275-0.034,0.559-0.231,0.758
			c-0.287,0.29-0.439,0.599-0.595,0.943c-0.834,2.077-1.643,3.867-2.692,5.952c-0.151,0.271-0.264,0.474-0.353,0.617
			C157.911,60.256,157.633,60.403,157.346,60.403z"/>
		<path fill="none" stroke="#000000" stroke-width="3" d="M174.007,90.76c-0.203,0-0.4-0.073-0.556-0.207
			c-0.172-0.149-0.278-0.361-0.293-0.588l-0.006-0.089c-0.072-1.182-0.263-4.295-0.703-9.678l-1.686-20.621
			c-0.451-5.514-0.779-8.715-0.887-9.767l-0.012-0.114c-0.024-0.235,0.051-0.47,0.207-0.647c0.156-0.178,0.378-0.283,0.615-0.29
			l0.133,0.846l-0.032-0.85c0.62-0.023,1.774-0.066,3.6-0.215l7.033-0.575c0.593-0.048,0.817-0.144,0.945-0.222
			c0.141-0.085,0.298-0.171,0.525-0.187c0.02-0.001,0.04-0.002,0.059-0.002c0.046,0,0.091,0.004,0.136,0.011
			c0.333,0.054,0.668,0.251,1.778,1.274c1.124,0.954,1.366,1.374,1.396,1.768c0.021,0.258-0.078,0.501-0.25,0.671
			c-0.041,0.05-0.093,0.11-0.162,0.178c-0.337,0.348-0.589,0.878-0.78,1.653c-0.259,0.834-0.497,1.628-0.728,2.398
			c-0.773,2.577-1.438,4.798-2.52,7.356l0,0c4.018,4.1,4.76,6.974,4.964,9.468c0.378,4.64-1.568,7.225-5.952,7.904
			c-0.306,0.054-0.571,0.1-0.756,0.121c-0.032,0.003-0.064,0.005-0.096,0.005c-0.379,0-0.719-0.254-0.82-0.627
			c-0.049-0.181-0.107-0.452-0.16-0.699c-0.182-0.815-0.395-1.505-0.632-2.041c-0.107-0.244-0.095-0.523,0.034-0.756
			c0.129-0.232,0.359-0.392,0.623-0.43c1.129-0.163,1.919-0.511,2.413-1.065c0.538-0.603,0.752-1.471,0.655-2.655
			c-0.18-2.204-1.493-4.381-4.846-8.034c-0.225-0.245-0.286-0.598-0.158-0.904c1.493-3.554,2.324-6.603,3.256-10.666l-5.359,0.438
			l2.199,26.889c0.437,5.346,0.771,8.625,0.881,9.703c0.023,0.228-0.044,0.478-0.19,0.653s-0.354,0.308-0.582,0.327
			C177.296,90.494,174.03,90.76,174.007,90.76z M185.716,89.624c-0.202,0-0.403-0.072-0.562-0.212
			c-0.092-0.081-0.256-0.244-0.536-0.576c-0.528-0.63-1.224-1.263-1.96-1.784c-0.226-0.16-0.36-0.419-0.36-0.695
			c0-0.277,0.135-0.536,0.362-0.695c4.557-3.202,7.303-7.062,8.394-11.801c0.919-3.816,1.092-8.349,0.598-15.654l0,0
			c-2.879,0.236-4.417,0.422-4.996,0.493c-0.034,0.004-0.068,0.006-0.103,0.006c-0.195,0-0.385-0.067-0.538-0.191
			c-0.179-0.146-0.291-0.359-0.31-0.59l-0.248-3.02c-0.02-0.237,0.061-0.471,0.222-0.646s0.388-0.274,0.625-0.274
			c0.697-0.032,2.358-0.108,5.549-0.37l3.396-0.278l-0.258-3.158c-0.134-1.639-0.257-2.772-0.526-4.067
			c-0.051-0.246,0.009-0.501,0.164-0.699s0.39-0.316,0.641-0.324c0.513-0.017,1.024-0.025,1.544-0.025
			c0.788,0,1.549,0.02,2.322,0.049c0.264,0.01,0.507,0.142,0.66,0.357c0.153,0.215,0.197,0.489,0.121,0.741
			c-0.021,0.068-0.117,0.351-0.117,0.351c-0.195,0.543-0.136,1.271,0.022,3.214l0.26,3.166l4.976-0.407
			c3.618-0.296,5.325-0.495,6.053-0.581c0.033-0.004,0.066-0.006,0.099-0.006c0.196,0,0.387,0.068,0.54,0.193
			c0.178,0.146,0.29,0.358,0.309,0.588l0.247,3.021c0.019,0.23-0.057,0.458-0.209,0.631c-0.153,0.173-0.369,0.277-0.6,0.288
			c-0.724,0.033-2.419,0.112-6.067,0.41l-8.851,0.725c0.134,2.251,0.236,4.115,0.242,5.904l7.703-0.63
			c2.549-0.208,3.647-0.355,4.175-0.425c0.039-0.005,0.079-0.008,0.119-0.008c0.208,0,0.428,0.069,0.583,0.202
			c0.184,0.159,0.325,0.384,0.328,0.627c0.017,1.128,0.07,2.272,0.155,3.308c0.523,8.351,0.313,12.157,0.109,14.295
			c-0.496,4.581-2.267,6.254-7.019,6.643c-0.723,0.059-1.714,0.141-2.54,0.159c-0.217,0-0.398-0.001-0.522-0.009
			c-0.343-0.021-0.639-0.246-0.751-0.57c-0.065-0.189-0.153-0.542-0.238-0.894c-0.174-0.798-0.39-1.478-0.653-2.078
			c-0.117-0.265-0.09-0.571,0.069-0.812c0.158-0.238,0.424-0.381,0.709-0.381c0.004,0,0.544,0.006,0.791,0.006
			c0.956,0,1.754-0.028,2.513-0.09c1.571-0.129,2.315-0.929,2.567-2.763c0.441-2.676,0.461-6.845,0.064-12.769l-8.229,0.673
			c-0.134,2.711-0.404,4.845-0.848,6.716c-1.346,5.814-4.224,10.305-9.056,14.13c-0.272,0.191-0.547,0.379-0.715,0.474
			C186.005,89.587,185.86,89.624,185.716,89.624z"/>
		<path fill="none" stroke="#000000" stroke-width="3" d="M221.667,87.008c-0.204,0-0.401-0.073-0.556-0.207
			c-0.172-0.149-0.278-0.361-0.292-0.589c-0.22-3.42-0.685-9.491-1.384-18.043l-0.778-9.521c-0.436-5.33-0.817-9.621-1.134-12.755
			c-0.023-0.234,0.051-0.468,0.206-0.646c0.155-0.177,0.377-0.282,0.613-0.29c0.772-0.037,2.5-0.118,6.001-0.405l26.123-2.136
			c3.559-0.291,5.241-0.488,5.959-0.572c0.033-0.004,0.067-0.006,0.102-0.006c0.202,0,0.409,0.068,0.562,0.196
			c0.179,0.15,0.309,0.364,0.324,0.598c0.184,2.985,0.459,6.723,0.82,11.142l0.907,11.101c0.482,5.898,1.146,13.813,1.566,18.028
			c0.022,0.227-0.047,0.454-0.193,0.629c-0.146,0.175-0.356,0.285-0.584,0.303c0,0-3.514,0.286-3.537,0.286
			c-0.201,0-0.396-0.071-0.55-0.202c-0.172-0.146-0.279-0.354-0.297-0.579l-0.149-1.832l-29.567,2.417l0.153,1.879
			c0.038,0.468-0.31,0.878-0.778,0.917C225.203,86.722,221.689,87.008,221.667,87.008z M225.456,79.38l29.568-2.417l-2.469-30.189
			l-29.567,2.417L225.456,79.38z M238.685,76.68c-0.317-0.015-0.6-0.206-0.733-0.494c-0.08-0.173-0.197-0.533-0.307-0.884
			c-0.179-0.69-0.408-1.353-0.674-1.957c-0.116-0.262-0.091-0.565,0.065-0.805c0.156-0.241,0.423-0.386,0.709-0.388
			c0.976-0.004,1.874-0.046,3.002-0.138c0.465-0.038,1.04-0.123,1.36-0.442c0.246-0.246,0.335-0.612,0.288-1.186l-0.931-11.387
			l-8.756,0.716c-3.547,0.29-5.202,0.485-5.908,0.569c-0.033,0.004-0.066,0.006-0.1,0.006c-0.195,0-0.386-0.067-0.539-0.192
			c-0.179-0.146-0.29-0.359-0.309-0.589l-0.212-2.59c-0.019-0.23,0.057-0.458,0.209-0.631c0.153-0.173,0.369-0.277,0.6-0.288
			c0.711-0.033,2.378-0.109,5.923-0.399l8.755-0.716l-0.031-0.382c-0.156-1.906-0.325-3.258-0.55-4.386
			c-0.049-0.248,0.014-0.505,0.173-0.701c0.159-0.197,0.397-0.312,0.65-0.315c0.333-0.005,0.655-0.007,0.973-0.007
			c0.993,0,1.932,0.022,2.925,0.057c0.269,0.01,0.518,0.146,0.67,0.367c0.152,0.221,0.191,0.502,0.105,0.756l-0.151,0.416
			c-0.188,0.577-0.193,1.182-0.025,3.23l0.047,0.574c2.722-0.223,4.144-0.398,4.75-0.473c0.012-0.001,0.086-0.007,0.11-0.007
			c0.443,0,0.812,0.34,0.848,0.781l0.211,2.593c0.019,0.229-0.056,0.455-0.207,0.628c-0.15,0.173-0.364,0.277-0.593,0.291
			l-0.244,0.014c-0.713,0.042-2.104,0.122-4.539,0.287l0.493,6.028c0.114,1.395,0.241,2.485,0.364,3.551
			c0.119,1.021,0.235,2.016,0.334,3.232c0.155,1.891-0.18,2.876-1.282,3.765c-1.013,0.687-2.173,1.043-6.527,1.449
			c-0.379,0.031-0.628,0.051-0.829,0.051C238.79,76.683,238.698,76.68,238.685,76.68z M235.297,70.253
			c-0.047,0-0.095-0.004-0.142-0.012c-0.231-0.039-0.436-0.172-0.566-0.367c-1.298-1.948-2.969-3.931-4.583-5.44
			c-0.19-0.177-0.288-0.432-0.267-0.69s0.16-0.494,0.375-0.638c0,0,2.268-1.515,2.286-1.526c0.142-0.092,0.302-0.137,0.463-0.137
			c0.19,0,0.379,0.063,0.534,0.188c1.569,1.266,3.403,3.236,5.031,5.405c0.281,0.375,0.207,0.906-0.167,1.189l-2.452,1.856
			C235.662,70.193,235.481,70.253,235.297,70.253z"/>
		<path fill="none" stroke="#000000" stroke-width="3" d="M273.75,79.983c-0.318,0-0.616-0.18-0.762-0.473
			c-1.529-3.09-2.939-8.998-3.353-14.049c-0.356-4.359-0.24-9.684,0.345-15.826c0.284-3.073,0.394-4.608,0.34-6.154
			c-0.009-0.257,0.099-0.504,0.293-0.672c0.156-0.135,0.354-0.208,0.557-0.208c0.05,0,0.1,0.004,0.15,0.014
			c1.785,0.32,3.042,0.67,4.202,1.172c0.716,0.308,0.925,0.498,1.045,0.657c0.181,0.241,0.221,0.559,0.105,0.837
			c-0.039,0.094-0.258,0.507-0.539,1.027c-0.429,0.942-0.617,1.676-0.887,3.522c-0.79,5.587-1.076,11.574-0.746,15.619
			c0.179,2.196,0.396,3.811,0.745,5.574c0.26-0.721,0.512-1.378,0.768-2.05c0.43-1.125,0.836-2.186,1.309-3.562
			c0.103-0.299,0.363-0.517,0.676-0.564c0.043-0.006,0.086-0.01,0.128-0.01c0.268,0,0.523,0.127,0.685,0.347
			c0.173,0.236,0.353,0.463,0.536,0.694c0.18,0.228,0.334,0.422,0.49,0.629c0.003,0.004,0.057,0.078,0.061,0.083
			c0.066,0.092,0.163,0.228,0.215,0.313c0.087,0.144,0.129,0.311,0.122,0.479c-0.011,0.236-0.088,0.412-0.181,0.6l-0.018,0.047
			c-0.861,2.478-1.62,4.658-2.119,7.4c-0.034,0.144-0.102,0.519-0.022,1.495c0.026,0.315,0.076,0.571,0.121,0.801l0.051,0.27
			c0.067,0.403-0.162,0.797-0.545,0.938c-1.243,0.457-2.456,0.805-3.604,1.035C273.861,79.978,273.805,79.983,273.75,79.983z
			 M294.495,75.431c-4.502,0-7.119-0.905-9.032-3.125c-1.045-1.134-1.796-3.013-2.096-5.268c-0.06-0.453,0.25-0.873,0.7-0.95
			l3.111-0.531c0.048-0.008,0.097-0.012,0.144-0.012c0.401,0,0.757,0.285,0.834,0.692c0.524,2.755,2.287,3.878,6.086,3.878
			c0.626,0,1.301-0.03,2.064-0.092c3.61-0.295,6.039-0.752,8.838-1.318c0.057-0.012,0.113-0.017,0.169-0.017
			c0.392,0,0.744,0.272,0.83,0.67c0.2,0.919,0.472,2.598,0.582,3.816c0.038,0.428-0.249,0.818-0.669,0.908
			c-3.181,0.641-5.5,0.989-7.83,1.18C296.83,75.375,295.608,75.431,294.495,75.431z M284.483,52.279c-0.178,0-0.353-0.056-0.5-0.163
			c-0.205-0.148-0.333-0.38-0.349-0.632l-0.023-0.357c-0.112-1.711-0.173-2.652-0.15-3.316c0.013-0.373,0.269-0.778,0.628-0.875
			c2.73-0.741,7.999-1.516,10.287-1.703c2.477-0.202,4.498-0.297,6.361-0.297l0.742,0.005l0.323-0.007
			c0.442,0,0.811,0.339,0.848,0.78c0.101,1.216,0.194,2.406,0.216,3.598c0.004,0.226-0.082,0.444-0.238,0.606
			c-0.157,0.163-0.372,0.256-0.598,0.259c-2.847,0.047-5.249,0.157-7.558,0.345c-3.085,0.252-6.01,0.77-9.778,1.73
			C284.624,52.27,284.553,52.279,284.483,52.279z"/>
		<path fill="none" stroke="#000000" stroke-width="3" d="M334.301,72.44c-0.32-0.018-0.591-0.211-0.721-0.484
			c-0.039-0.068-0.091-0.16-0.154-0.295c-0.461-0.872-1.206-1.75-2.132-2.498c-0.25-0.201-0.364-0.525-0.297-0.839
			c0.066-0.313,0.304-0.562,0.613-0.645c5.102-1.355,8.039-2.474,10.834-4.125c4.196-2.572,6.16-5.959,5.824-10.061
			c-0.345-4.225-3.144-6.647-7.68-6.647c-0.369,0-0.75,0.016-1.143,0.048c-4.156,0.34-9.517,2.354-16.869,6.34
			c-0.399,0.242-0.774,0.464-1.119,0.668c-0.959,0.568-1.649,0.976-2.041,1.323c-0.441,0.446-0.814,0.72-1.103,0.8
			c-0.074,0.021-0.151,0.031-0.228,0.031c-0.007,0-0.014,0-0.021,0c-0.422-0.011-0.801-0.263-1.351-0.899
			c-0.834-0.863-1.876-2.222-2.828-3.692c-0.149-0.23-0.178-0.519-0.077-0.774s0.318-0.446,0.585-0.513
			c1.728-0.432,3.729-1.187,7.929-2.993c7.59-3.273,13.276-5.083,16.899-5.379c0.554-0.045,1.11-0.069,1.652-0.069
			c7.712,0,12.866,4.444,13.451,11.598c0.503,6.148-1.69,10.332-7.333,13.989c-3.715,2.496-7.287,3.583-11.423,4.841l-0.405,0.124
			c-0.39,0.111-0.617,0.153-0.807,0.153C334.342,72.442,334.301,72.44,334.301,72.44z"/>
		<path fill="none" stroke="#000000" stroke-width="3" d="M375.943,69.902c-3.333,0-7.585-3.64-9.575-11.772
			c-1.101-4.336-1.913-9.25-2.287-13.829c-0.169-2.07-0.334-3.424-0.764-5.083c-0.069-0.267-0.004-0.551,0.173-0.762
			c0.162-0.192,0.4-0.302,0.65-0.302c0.024,0,0.048,0.001,0.072,0.003c2.007,0.171,3.825,0.537,4.987,1.004
			c0.189,0.066,0.384,0.172,0.529,0.292c0.213,0.177,0.326,0.447,0.304,0.723c-0.023,0.284-0.114,0.672-0.27,1.155
			c-0.145,0.595-0.211,2.718-0.047,4.723c0.252,3.091,0.639,6.543,1.753,10.838c1.156,4.394,2.66,6.718,4.349,6.718l0.152-0.006
			c1.394-0.115,2.402-1.656,3.594-5.497c0.091-0.292,0.332-0.514,0.631-0.579c0.06-0.013,0.121-0.02,0.181-0.02
			c0.239,0,0.471,0.101,0.634,0.284c0.872,0.975,1.687,1.669,2.37,2.219c0.545,0.423,0.692,0.947,0.48,1.743
			c-1.401,4.964-4.072,7.847-7.524,8.129C376.206,69.896,376.075,69.902,375.943,69.902z M399.134,59.324
			c-0.119,0-0.237-0.025-0.348-0.075c-0.218-0.098-0.385-0.284-0.46-0.511c-2.201-6.716-4.951-11.114-9.492-15.181
			c-0.191-0.171-0.294-0.419-0.282-0.675c0.013-0.256,0.14-0.493,0.347-0.645c1.385-1.015,2.259-1.581,2.748-1.876
			c0.157-0.095,0.362-0.15,0.561-0.15c0.174,0,0.344,0.042,0.473,0.138c4.751,3.5,9.068,9.777,10.742,15.618
			c0.094,0.326,0.003,0.741-0.259,0.956c-0.055,0.045-0.129,0.101-0.178,0.137c-1.343,1.043-2.43,1.723-3.512,2.193
			C399.365,59.3,399.249,59.324,399.134,59.324z"/>
		<path fill="none" stroke="#000000" stroke-width="3" d="M442.009,66.126c-7.936,0-16.282-4.148-17.04-13.414
			c-0.518-6.342,1.933-11.251,7.947-15.918l-0.008-0.092l-0.077,0.014c-5.72,1.574-10.745,2.995-15.74,4.455l-0.869,0.281
			c-1.067,0.344-1.509,0.486-2.083,0.731c-0.087,0.046-0.171,0.097-0.256,0.149c-0.294,0.18-0.505,0.298-0.767,0.319
			c-0.023,0.002-0.046,0.003-0.068,0.003c-0.281,0-0.539-0.139-0.695-0.361c-0.058-0.065-0.134-0.161-0.203-0.285
			c-0.54-0.92-1.085-2.127-1.811-4.014c-0.093-0.242-0.071-0.513,0.061-0.736c0.131-0.223,0.357-0.375,0.614-0.411
			c1.877-0.266,3.429-0.609,6.485-1.298l2.702-0.625c6.071-1.406,15.225-3.527,25.72-5.792c0.019-0.004,0.129-0.024,0.147-0.027
			c0.042-0.006,0.084-0.009,0.126-0.009c0.373,0,0.71,0.247,0.816,0.615c0.258,0.894,0.624,2.442,0.808,3.864
			c0.029,0.23-0.036,0.463-0.183,0.644c-0.146,0.181-0.359,0.293-0.591,0.313c-2.125,0.308-3.678,0.645-5.808,1.535
			c-7.421,3.229-11.554,8.88-11.045,15.111c0.489,5.98,4.841,9.012,12.936,9.012c0.202,0,0.404-0.002,0.611-0.005
			c0.109-0.008,0.271-0.013,0.273-0.013c0.446,0,0.817,0.346,0.849,0.792c0.093,1.34,0.014,2.914-0.2,4.011
			c-0.023,0.204-0.055,0.355-0.077,0.441c-0.091,0.348-0.392,0.602-0.751,0.632C443.216,66.101,442.619,66.126,442.009,66.126z"/>
	</g>
	<g>
		<path fill="#FFFFFF" d="M59.653,96.45c-0.438,0-0.81-0.337-0.847-0.781l-0.241-2.946c-0.018-0.225,0.053-0.448,0.199-0.62
			s0.354-0.279,0.579-0.297l6.329-0.517l-2.128-26.027c-1.571,1.274-3.496,2.452-5.568,3.403c-0.113,0.052-0.234,0.078-0.355,0.078
			c-0.123,0-0.245-0.026-0.358-0.08c-0.226-0.105-0.395-0.304-0.461-0.544L55.9,64.856c-0.114-0.414,0.097-0.847,0.493-1.012
			c2.513-1.045,4.956-2.575,7.261-4.546c0.136-0.117,0.305-0.187,0.483-0.202c0,0,3.802-0.31,3.825-0.31
			c0.201,0,0.396,0.071,0.55,0.202c0.172,0.146,0.279,0.354,0.297,0.579l2.556,31.255c0,0,6.041-0.493,6.064-0.493
			c0.438,0,0.81,0.337,0.847,0.781l0.241,2.946c0.019,0.225-0.053,0.448-0.199,0.62s-0.354,0.279-0.579,0.297
			C77.74,94.974,59.676,96.45,59.653,96.45z"/>
		<path fill="#FFFFFF" d="M99.647,93.18c-0.438,0-0.81-0.337-0.847-0.781l-0.401-4.907c-0.018-0.225,0.053-0.448,0.199-0.62
			s0.354-0.279,0.579-0.297c0,0,5.193-0.424,5.217-0.424c0.438,0,0.81,0.337,0.847,0.781l0.401,4.907
			c0.018,0.225-0.053,0.448-0.199,0.62s-0.354,0.279-0.579,0.297C104.864,92.756,99.67,93.18,99.647,93.18z"/>
		<path fill="#FFFFFF" d="M128.572,93.911c-0.067,0-0.134-0.008-0.2-0.024c-0.134-0.032-0.291-0.087-0.472-0.172
			c-1.089-0.477-2.165-1.073-3.368-1.868c-0.189-0.125-0.321-0.321-0.365-0.544c-0.044-0.223,0.002-0.454,0.13-0.642
			c0.697-1.03,1.138-1.934,1.781-3.3c1.275-2.724,2.509-6.134,3.667-10.133c0.08-0.274,0.291-0.49,0.563-0.576
			c0.083-0.026,0.168-0.039,0.253-0.039c0.193,0,0.384,0.066,0.538,0.191c0.621,0.507,1.256,0.982,1.838,1.374
			c0.468,0.295,0.786,0.508,0.962,0.688c0.167,0.171,0.255,0.405,0.242,0.645c-0.013,0.226-0.08,0.483-0.247,0.948
			c-1.104,3.478-2.413,7.504-3.828,10.91l-0.138,0.341c-0.255,0.627-0.456,1.122-0.519,1.493c-0.04,0.232-0.174,0.438-0.371,0.567
			C128.9,93.863,128.737,93.911,128.572,93.911z M139.618,93.621c-0.207,0-0.408-0.076-0.564-0.214
			c-0.174-0.154-0.277-0.372-0.286-0.604l0-0.003c-0.04-0.815-0.13-2.661-0.404-6.009l-1.338-16.363
			c-0.272-3.325-0.486-5.212-0.578-6.018c-0.027-0.236,0.042-0.51,0.196-0.69s0.373-0.325,0.61-0.333
			c0.75-0.035,2.429-0.112,5.857-0.393l2.871-0.235l-0.575-7.033c-0.192-2.347-0.372-4.12-0.677-5.711
			c-0.047-0.243,0.015-0.493,0.167-0.688c0.153-0.194,0.383-0.312,0.63-0.322c0.989-0.043,1.875-0.065,2.688-0.065
			c0.482,0,0.953,0.008,1.408,0.024c0.259,0.009,0.5,0.137,0.654,0.346s0.204,0.477,0.135,0.728
			c-0.029,0.105-0.072,0.24-0.138,0.426c-0.141,0.52-0.125,1.411,0.094,4.086l0.638,7.798l3.206-0.262
			c3.477-0.285,5.117-0.478,5.817-0.561c0.034-0.004,0.068-0.006,0.103-0.006c0.203,0,0.411,0.069,0.565,0.2
			c0.18,0.153,0.306,0.371,0.317,0.607c0.05,0.953,0.161,3.042,0.447,6.536l0.899,11.005c0.11,1.347,0.241,2.768,0.356,4.009
			l0.021,0.222c0.081,0.873,0.152,1.646,0.199,2.225c0.147,1.792,0.163,2.958-0.875,4.02c-0.748,0.726-2.067,1.276-6.126,1.657
			c-0.386,0.032-0.642,0.052-0.847,0.052c-0.012,0-0.112-0.002-0.125-0.003c-0.324-0.014-0.612-0.211-0.743-0.508
			c-0.08-0.183-0.192-0.559-0.264-0.809c-0.22-0.768-0.506-1.514-0.833-2.171c-0.128-0.259-0.117-0.566,0.032-0.814
			c0.148-0.249,0.413-0.404,0.702-0.414c0.971-0.032,1.709-0.071,2.551-0.14c0.495-0.041,0.989-0.113,1.252-0.367
			c0.202-0.195,0.268-0.487,0.225-1.005l-0.324-3.971l-14.688,1.201l0.286,3.493c0.267,3.267,0.483,5.154,0.565,5.864
			c0.026,0.229-0.042,0.458-0.188,0.637s-0.358,0.289-0.588,0.308C142.949,93.351,139.641,93.621,139.618,93.621z M142.549,79.079
			l14.688-1.201l-0.316-3.875l-14.688,1.201L142.549,79.079z M141.912,71.28l14.688-1.201l-0.309-3.78L141.602,67.5L141.912,71.28z
			 M129.675,72.613c-0.193,0-0.383-0.066-0.536-0.19c-2.121-1.72-4.656-3.379-6.957-4.55c-0.215-0.109-0.374-0.306-0.436-0.539
			s-0.022-0.482,0.11-0.685l1.668-2.547c0.162-0.247,0.433-0.385,0.712-0.385c0.118,0,0.238,0.025,0.351,0.076
			c2.326,1.057,5.052,2.708,7.292,4.418c0.342,0.261,0.435,0.736,0.217,1.106l-1.689,2.875c-0.125,0.214-0.338,0.362-0.582,0.406
			C129.776,72.608,129.725,72.613,129.675,72.613z M139.117,61.463c-0.088,0-0.177-0.014-0.262-0.042
			c-0.227-0.074-0.412-0.239-0.511-0.456c-1.107-2.423-2.421-4.507-4.136-6.56c-0.162-0.194-0.229-0.45-0.184-0.699
			c0.045-0.248,0.199-0.464,0.419-0.588c0,0,2.787-1.569,2.81-1.582c0.13-0.072,0.271-0.106,0.411-0.106
			c0.244,0,0.483,0.104,0.649,0.301c1.716,2.023,3.187,4.259,4.496,6.834c0.207,0.405,0.057,0.901-0.339,1.125l-2.933,1.66
			C139.407,61.425,139.262,61.463,139.117,61.463z M130.463,60.498c-0.198,0-0.391-0.069-0.545-0.198
			c-2.195-1.834-4.625-3.542-6.666-4.684c-0.21-0.118-0.36-0.319-0.414-0.554c-0.054-0.235-0.005-0.481,0.134-0.678l1.824-2.592
			c0.164-0.233,0.427-0.361,0.696-0.361c0.131,0,0.263,0.03,0.387,0.093c2.496,1.277,4.885,3.029,6.894,4.574
			c0.347,0.267,0.435,0.752,0.203,1.124l-1.79,2.875c-0.13,0.208-0.344,0.351-0.587,0.39
			C130.553,60.494,130.508,60.498,130.463,60.498z M157.346,60.403c-0.108,0-0.218-0.021-0.323-0.064
			c-0.189-0.078-0.455-0.205-0.667-0.307c-0.678-0.334-1.387-0.621-2.117-0.854c-0.241-0.077-0.436-0.258-0.53-0.494
			c-0.094-0.235-0.079-0.5,0.043-0.723c1.098-2.016,1.967-4.024,2.737-6.32c0.122-0.428,0.226-0.823,0.307-1.22
			c0.048-0.237,0.196-0.443,0.405-0.565c0.131-0.077,0.279-0.116,0.428-0.116c0.088,0,0.177,0.014,0.263,0.042
			c1.265,0.411,2.594,0.908,3.554,1.327c0.257,0.112,0.442,0.344,0.495,0.62c0.053,0.275-0.034,0.559-0.231,0.758
			c-0.287,0.29-0.439,0.599-0.595,0.943c-0.834,2.077-1.643,3.867-2.692,5.952c-0.151,0.271-0.264,0.474-0.353,0.617
			C157.911,60.256,157.633,60.403,157.346,60.403z"/>
		<path fill="#FFFFFF" d="M174.007,90.76c-0.203,0-0.4-0.073-0.556-0.207c-0.172-0.149-0.278-0.361-0.293-0.588l-0.006-0.089
			c-0.072-1.182-0.263-4.295-0.703-9.678l-1.686-20.621c-0.451-5.514-0.779-8.715-0.887-9.767l-0.012-0.114
			c-0.024-0.235,0.051-0.47,0.207-0.647c0.156-0.178,0.378-0.283,0.615-0.29l0.133,0.846l-0.032-0.85
			c0.62-0.023,1.774-0.066,3.6-0.215l7.033-0.575c0.593-0.048,0.817-0.144,0.945-0.222c0.141-0.085,0.298-0.171,0.525-0.187
			c0.02-0.001,0.04-0.002,0.059-0.002c0.046,0,0.091,0.004,0.136,0.011c0.333,0.054,0.668,0.251,1.778,1.274
			c1.124,0.954,1.366,1.374,1.396,1.768c0.021,0.258-0.078,0.501-0.25,0.671c-0.041,0.05-0.093,0.11-0.162,0.178
			c-0.337,0.348-0.589,0.878-0.78,1.653c-0.259,0.834-0.497,1.628-0.728,2.398c-0.773,2.577-1.438,4.798-2.52,7.356l0,0
			c4.018,4.1,4.76,6.974,4.964,9.468c0.378,4.64-1.568,7.225-5.952,7.904c-0.306,0.054-0.571,0.1-0.756,0.121
			c-0.032,0.003-0.064,0.005-0.096,0.005c-0.379,0-0.719-0.254-0.82-0.627c-0.049-0.181-0.107-0.452-0.16-0.699
			c-0.182-0.815-0.395-1.505-0.632-2.041c-0.107-0.244-0.095-0.523,0.034-0.756c0.129-0.232,0.359-0.392,0.623-0.43
			c1.129-0.163,1.919-0.511,2.413-1.065c0.538-0.603,0.752-1.471,0.655-2.655c-0.18-2.204-1.493-4.381-4.846-8.034
			c-0.225-0.245-0.286-0.598-0.158-0.904c1.493-3.554,2.324-6.603,3.256-10.666l-5.359,0.438l2.199,26.889
			c0.437,5.346,0.771,8.625,0.881,9.703c0.023,0.228-0.044,0.478-0.19,0.653s-0.354,0.308-0.582,0.327
			C177.296,90.494,174.03,90.76,174.007,90.76z M185.716,89.624c-0.202,0-0.403-0.072-0.562-0.212
			c-0.092-0.081-0.256-0.244-0.536-0.576c-0.528-0.63-1.224-1.263-1.96-1.784c-0.226-0.16-0.36-0.419-0.36-0.695
			c0-0.277,0.135-0.536,0.362-0.695c4.557-3.202,7.303-7.062,8.394-11.801c0.919-3.816,1.092-8.349,0.598-15.654l0,0
			c-2.879,0.236-4.417,0.422-4.996,0.493c-0.034,0.004-0.068,0.006-0.103,0.006c-0.195,0-0.385-0.067-0.538-0.191
			c-0.179-0.146-0.291-0.359-0.31-0.59l-0.248-3.02c-0.02-0.237,0.061-0.471,0.222-0.646s0.388-0.274,0.625-0.274
			c0.697-0.032,2.358-0.108,5.549-0.37l3.396-0.278l-0.258-3.158c-0.134-1.639-0.257-2.772-0.526-4.067
			c-0.051-0.246,0.009-0.501,0.164-0.699s0.39-0.316,0.641-0.324c0.513-0.017,1.024-0.025,1.544-0.025
			c0.788,0,1.549,0.02,2.322,0.049c0.264,0.01,0.507,0.142,0.66,0.357c0.153,0.215,0.197,0.489,0.121,0.741
			c-0.021,0.068-0.117,0.351-0.117,0.351c-0.195,0.543-0.136,1.271,0.022,3.214l0.26,3.166l4.976-0.407
			c3.618-0.296,5.325-0.495,6.053-0.581c0.033-0.004,0.066-0.006,0.099-0.006c0.196,0,0.387,0.068,0.54,0.193
			c0.178,0.146,0.29,0.358,0.309,0.588l0.247,3.021c0.019,0.23-0.057,0.458-0.209,0.631c-0.153,0.173-0.369,0.277-0.6,0.288
			c-0.724,0.033-2.419,0.112-6.067,0.41l-8.851,0.725c0.134,2.251,0.236,4.115,0.242,5.904l7.703-0.63
			c2.549-0.208,3.647-0.355,4.175-0.425c0.039-0.005,0.079-0.008,0.119-0.008c0.208,0,0.428,0.069,0.583,0.202
			c0.184,0.159,0.325,0.384,0.328,0.627c0.017,1.128,0.07,2.272,0.155,3.308c0.523,8.351,0.313,12.157,0.109,14.295
			c-0.496,4.581-2.267,6.254-7.019,6.643c-0.723,0.059-1.714,0.141-2.54,0.159c-0.217,0-0.398-0.001-0.522-0.009
			c-0.343-0.021-0.639-0.246-0.751-0.57c-0.065-0.189-0.153-0.542-0.238-0.894c-0.174-0.798-0.39-1.478-0.653-2.078
			c-0.117-0.265-0.09-0.571,0.069-0.812c0.158-0.238,0.424-0.381,0.709-0.381c0.004,0,0.544,0.006,0.791,0.006
			c0.956,0,1.754-0.028,2.513-0.09c1.571-0.129,2.315-0.929,2.567-2.763c0.441-2.676,0.461-6.845,0.064-12.769l-8.229,0.673
			c-0.134,2.711-0.404,4.845-0.848,6.716c-1.346,5.814-4.224,10.305-9.056,14.13c-0.272,0.191-0.547,0.379-0.715,0.474
			C186.005,89.587,185.86,89.624,185.716,89.624z"/>
		<path fill="#FFFFFF" d="M221.667,87.008c-0.204,0-0.401-0.073-0.556-0.207c-0.172-0.149-0.278-0.361-0.292-0.589
			c-0.22-3.42-0.685-9.491-1.384-18.043l-0.778-9.521c-0.436-5.33-0.817-9.621-1.134-12.755c-0.023-0.234,0.051-0.468,0.206-0.646
			c0.155-0.177,0.377-0.282,0.613-0.29c0.772-0.037,2.5-0.118,6.001-0.405l26.123-2.136c3.559-0.291,5.241-0.488,5.959-0.572
			c0.033-0.004,0.067-0.006,0.102-0.006c0.202,0,0.409,0.068,0.562,0.196c0.179,0.15,0.309,0.364,0.324,0.598
			c0.184,2.985,0.459,6.723,0.82,11.142l0.907,11.101c0.482,5.898,1.146,13.813,1.566,18.028c0.022,0.227-0.047,0.454-0.193,0.629
			c-0.146,0.175-0.356,0.285-0.584,0.303c0,0-3.514,0.286-3.537,0.286c-0.201,0-0.396-0.071-0.55-0.202
			c-0.172-0.146-0.279-0.354-0.297-0.579l-0.149-1.832l-29.567,2.417l0.153,1.879c0.038,0.468-0.31,0.878-0.778,0.917
			C225.203,86.722,221.689,87.008,221.667,87.008z M225.456,79.38l29.568-2.417l-2.469-30.189l-29.567,2.417L225.456,79.38z
			 M238.685,76.68c-0.317-0.015-0.6-0.206-0.733-0.494c-0.08-0.173-0.197-0.533-0.307-0.884c-0.179-0.69-0.408-1.353-0.674-1.957
			c-0.116-0.262-0.091-0.565,0.065-0.805c0.156-0.241,0.423-0.386,0.709-0.388c0.976-0.004,1.874-0.046,3.002-0.138
			c0.465-0.038,1.04-0.123,1.36-0.442c0.246-0.246,0.335-0.612,0.288-1.186l-0.931-11.387l-8.756,0.716
			c-3.547,0.29-5.202,0.485-5.908,0.569c-0.033,0.004-0.066,0.006-0.1,0.006c-0.195,0-0.386-0.067-0.539-0.192
			c-0.179-0.146-0.29-0.359-0.309-0.589l-0.212-2.59c-0.019-0.23,0.057-0.458,0.209-0.631c0.153-0.173,0.369-0.277,0.6-0.288
			c0.711-0.033,2.378-0.109,5.923-0.399l8.755-0.716l-0.031-0.382c-0.156-1.906-0.325-3.258-0.55-4.386
			c-0.049-0.248,0.014-0.505,0.173-0.701c0.159-0.197,0.397-0.312,0.65-0.315c0.333-0.005,0.655-0.007,0.973-0.007
			c0.993,0,1.932,0.022,2.925,0.057c0.269,0.01,0.518,0.146,0.67,0.367c0.152,0.221,0.191,0.502,0.105,0.756l-0.151,0.416
			c-0.188,0.577-0.193,1.182-0.025,3.23l0.047,0.574c2.722-0.223,4.144-0.398,4.75-0.473c0.012-0.001,0.086-0.007,0.11-0.007
			c0.443,0,0.812,0.34,0.848,0.781l0.211,2.593c0.019,0.229-0.056,0.455-0.207,0.628c-0.15,0.173-0.364,0.277-0.593,0.291
			l-0.244,0.014c-0.713,0.042-2.104,0.122-4.539,0.287l0.493,6.028c0.114,1.395,0.241,2.485,0.364,3.551
			c0.119,1.021,0.235,2.016,0.334,3.232c0.155,1.891-0.18,2.876-1.282,3.765c-1.013,0.687-2.173,1.043-6.527,1.449
			c-0.379,0.031-0.628,0.051-0.829,0.051C238.79,76.683,238.698,76.68,238.685,76.68z M235.297,70.253
			c-0.047,0-0.095-0.004-0.142-0.012c-0.231-0.039-0.436-0.172-0.566-0.367c-1.298-1.948-2.969-3.931-4.583-5.44
			c-0.19-0.177-0.288-0.432-0.267-0.69s0.16-0.494,0.375-0.638c0,0,2.268-1.515,2.286-1.526c0.142-0.092,0.302-0.137,0.463-0.137
			c0.19,0,0.379,0.063,0.534,0.188c1.569,1.266,3.403,3.236,5.031,5.405c0.281,0.375,0.207,0.906-0.167,1.189l-2.452,1.856
			C235.662,70.193,235.481,70.253,235.297,70.253z"/>
		<path fill="#FFFFFF" d="M273.75,79.983c-0.318,0-0.616-0.18-0.762-0.473c-1.529-3.09-2.939-8.998-3.353-14.049
			c-0.356-4.359-0.24-9.684,0.345-15.826c0.284-3.073,0.394-4.608,0.34-6.154c-0.009-0.257,0.099-0.504,0.293-0.672
			c0.156-0.135,0.354-0.208,0.557-0.208c0.05,0,0.1,0.004,0.15,0.014c1.785,0.32,3.042,0.67,4.202,1.172
			c0.716,0.308,0.925,0.498,1.045,0.657c0.181,0.241,0.221,0.559,0.105,0.837c-0.039,0.094-0.258,0.507-0.539,1.027
			c-0.429,0.942-0.617,1.676-0.887,3.522c-0.79,5.587-1.076,11.574-0.746,15.619c0.179,2.196,0.396,3.811,0.745,5.574
			c0.26-0.721,0.512-1.378,0.768-2.05c0.43-1.125,0.836-2.186,1.309-3.562c0.103-0.299,0.363-0.517,0.676-0.564
			c0.043-0.006,0.086-0.01,0.128-0.01c0.268,0,0.523,0.127,0.685,0.347c0.173,0.236,0.353,0.463,0.536,0.694
			c0.18,0.228,0.334,0.422,0.49,0.629c0.003,0.004,0.057,0.078,0.061,0.083c0.066,0.092,0.163,0.228,0.215,0.313
			c0.087,0.144,0.129,0.311,0.122,0.479c-0.011,0.236-0.088,0.412-0.181,0.6l-0.018,0.047c-0.861,2.478-1.62,4.658-2.119,7.4
			c-0.034,0.144-0.102,0.519-0.022,1.495c0.026,0.315,0.076,0.571,0.121,0.801l0.051,0.27c0.067,0.403-0.162,0.797-0.545,0.938
			c-1.243,0.457-2.456,0.805-3.604,1.035C273.861,79.978,273.805,79.983,273.75,79.983z M294.495,75.431
			c-4.502,0-7.119-0.905-9.032-3.125c-1.045-1.134-1.796-3.013-2.096-5.268c-0.06-0.453,0.25-0.873,0.7-0.95l3.111-0.531
			c0.048-0.008,0.097-0.012,0.144-0.012c0.401,0,0.757,0.285,0.834,0.692c0.524,2.755,2.287,3.878,6.086,3.878
			c0.626,0,1.301-0.03,2.064-0.092c3.61-0.295,6.039-0.752,8.838-1.318c0.057-0.012,0.113-0.017,0.169-0.017
			c0.392,0,0.744,0.272,0.83,0.67c0.2,0.919,0.472,2.598,0.582,3.816c0.038,0.428-0.249,0.818-0.669,0.908
			c-3.181,0.641-5.5,0.989-7.83,1.18C296.83,75.375,295.608,75.431,294.495,75.431z M284.483,52.279c-0.178,0-0.353-0.056-0.5-0.163
			c-0.205-0.148-0.333-0.38-0.349-0.632l-0.023-0.357c-0.112-1.711-0.173-2.652-0.15-3.316c0.013-0.373,0.269-0.778,0.628-0.875
			c2.73-0.741,7.999-1.516,10.287-1.703c2.477-0.202,4.498-0.297,6.361-0.297l0.742,0.005l0.323-0.007
			c0.442,0,0.811,0.339,0.848,0.78c0.101,1.216,0.194,2.406,0.216,3.598c0.004,0.226-0.082,0.444-0.238,0.606
			c-0.157,0.163-0.372,0.256-0.598,0.259c-2.847,0.047-5.249,0.157-7.558,0.345c-3.085,0.252-6.01,0.77-9.778,1.73
			C284.624,52.27,284.553,52.279,284.483,52.279z"/>
		<path fill="#FFFFFF" d="M334.301,72.44c-0.32-0.018-0.591-0.211-0.721-0.484c-0.039-0.068-0.091-0.16-0.154-0.295
			c-0.461-0.872-1.206-1.75-2.132-2.498c-0.25-0.201-0.364-0.525-0.297-0.839c0.066-0.313,0.304-0.562,0.613-0.645
			c5.102-1.355,8.039-2.474,10.834-4.125c4.196-2.572,6.16-5.959,5.824-10.061c-0.345-4.225-3.144-6.647-7.68-6.647
			c-0.369,0-0.75,0.016-1.143,0.048c-4.156,0.34-9.517,2.354-16.869,6.34c-0.399,0.242-0.774,0.464-1.119,0.668
			c-0.959,0.568-1.649,0.976-2.041,1.323c-0.441,0.446-0.814,0.72-1.103,0.8c-0.074,0.021-0.151,0.031-0.228,0.031
			c-0.007,0-0.014,0-0.021,0c-0.422-0.011-0.801-0.263-1.351-0.899c-0.834-0.863-1.876-2.222-2.828-3.692
			c-0.149-0.23-0.178-0.519-0.077-0.774s0.318-0.446,0.585-0.513c1.728-0.432,3.729-1.187,7.929-2.993
			c7.59-3.273,13.276-5.083,16.899-5.379c0.554-0.045,1.11-0.069,1.652-0.069c7.712,0,12.866,4.444,13.451,11.598
			c0.503,6.148-1.69,10.332-7.333,13.989c-3.715,2.496-7.287,3.583-11.423,4.841l-0.405,0.124c-0.39,0.111-0.617,0.153-0.807,0.153
			C334.342,72.442,334.301,72.44,334.301,72.44z"/>
		<path fill="#FFFFFF" d="M375.943,69.902c-3.333,0-7.585-3.64-9.575-11.772c-1.101-4.336-1.913-9.25-2.287-13.829
			c-0.169-2.07-0.334-3.424-0.764-5.083c-0.069-0.267-0.004-0.551,0.173-0.762c0.162-0.192,0.4-0.302,0.65-0.302
			c0.024,0,0.048,0.001,0.072,0.003c2.007,0.171,3.825,0.537,4.987,1.004c0.189,0.066,0.384,0.172,0.529,0.292
			c0.213,0.177,0.326,0.447,0.304,0.723c-0.023,0.284-0.114,0.672-0.27,1.155c-0.145,0.595-0.211,2.718-0.047,4.723
			c0.252,3.091,0.639,6.543,1.753,10.838c1.156,4.394,2.66,6.718,4.349,6.718l0.152-0.006c1.394-0.115,2.402-1.656,3.594-5.497
			c0.091-0.292,0.332-0.514,0.631-0.579c0.06-0.013,0.121-0.02,0.181-0.02c0.239,0,0.471,0.101,0.634,0.284
			c0.872,0.975,1.687,1.669,2.37,2.219c0.545,0.423,0.692,0.947,0.48,1.743c-1.401,4.964-4.072,7.847-7.524,8.129
			C376.206,69.896,376.075,69.902,375.943,69.902z M399.134,59.324c-0.119,0-0.237-0.025-0.348-0.075
			c-0.218-0.098-0.385-0.284-0.46-0.511c-2.201-6.716-4.951-11.114-9.492-15.181c-0.191-0.171-0.294-0.419-0.282-0.675
			c0.013-0.256,0.14-0.493,0.347-0.645c1.385-1.015,2.259-1.581,2.748-1.876c0.157-0.095,0.362-0.15,0.561-0.15
			c0.174,0,0.344,0.042,0.473,0.138c4.751,3.5,9.068,9.777,10.742,15.618c0.094,0.326,0.003,0.741-0.259,0.956
			c-0.055,0.045-0.129,0.101-0.178,0.137c-1.343,1.043-2.43,1.723-3.512,2.193C399.365,59.3,399.249,59.324,399.134,59.324z"/>
		<path fill="#FFFFFF" d="M442.009,66.126c-7.936,0-16.282-4.148-17.04-13.414c-0.518-6.342,1.933-11.251,7.947-15.918l-0.008-0.092
			l-0.077,0.014c-5.72,1.574-10.745,2.995-15.74,4.455l-0.869,0.281c-1.067,0.344-1.509,0.486-2.083,0.731
			c-0.087,0.046-0.171,0.097-0.256,0.149c-0.294,0.18-0.505,0.298-0.767,0.319c-0.023,0.002-0.046,0.003-0.068,0.003
			c-0.281,0-0.539-0.139-0.695-0.361c-0.058-0.065-0.134-0.161-0.203-0.285c-0.54-0.92-1.085-2.127-1.811-4.014
			c-0.093-0.242-0.071-0.513,0.061-0.736c0.131-0.223,0.357-0.375,0.614-0.411c1.877-0.266,3.429-0.609,6.485-1.298l2.702-0.625
			c6.071-1.406,15.225-3.527,25.72-5.792c0.019-0.004,0.129-0.024,0.147-0.027c0.042-0.006,0.084-0.009,0.126-0.009
			c0.373,0,0.71,0.247,0.816,0.615c0.258,0.894,0.624,2.442,0.808,3.864c0.029,0.23-0.036,0.463-0.183,0.644
			c-0.146,0.181-0.359,0.293-0.591,0.313c-2.125,0.308-3.678,0.645-5.808,1.535c-7.421,3.229-11.554,8.88-11.045,15.111
			c0.489,5.98,4.841,9.012,12.936,9.012c0.202,0,0.404-0.002,0.611-0.005c0.109-0.008,0.271-0.013,0.273-0.013
			c0.446,0,0.817,0.346,0.849,0.792c0.093,1.34,0.014,2.914-0.2,4.011c-0.023,0.204-0.055,0.355-0.077,0.441
			c-0.091,0.348-0.392,0.602-0.751,0.632C443.216,66.101,442.619,66.126,442.009,66.126z"/>
	</g>
</g>
</svg>
