<?xml version="1.0" encoding="utf-8"?>
<!-- Generator: Adobe Illustrator 16.0.4, SVG Export Plug-In . SVG Version: 6.00 Build 0)  -->
<!DOCTYPE svg PUBLIC "-//W3C//DTD SVG 1.1//EN" "http://www.w3.org/Graphics/SVG/1.1/DTD/svg11.dtd">
<svg version="1.1" id="レイヤー_1" xmlns="http://www.w3.org/2000/svg" xmlns:xlink="http://www.w3.org/1999/xlink" x="0px"
	 y="0px" width="455.102px" height="148.979px" viewBox="0 0 455.102 148.979" enable-background="new 0 0 455.102 148.979"
	 xml:space="preserve">
<g>
	<g>
		<g>
			<path fill="#E02A16" d="M100.439,65.998c0.67-0.229,1.195,0.602,1.208-0.229c1.42,1.557-2.387,2.326-4.067,2.723
				C97.87,65.801,100.46,68.523,100.439,65.998z"/>
			<path fill="#E02A16" d="M81.897,71.525c-0.677,2.713-5.28,1.846-6.961,2.817C76.671,72.053,79.079,72.605,81.897,71.525z"/>
			<path fill="#E02A16" d="M69.311,75.444c-0.994,0.566-6.893,3.738-9.24,1.825C62.607,77.795,66.921,74.992,69.311,75.444z"/>
			<path fill="#E02A16" d="M10.49,88.288c0.852-1.307,3.829-0.971,5.517-1.632C15.148,87.96,12.17,87.62,10.49,88.288z"/>
			<path fill="#E02A16" d="M135.367,63.355c0.035,0.697-1.171,0.385-1.035,1.163c-2.888,0.197-4.27,1.614-7.159,1.806
				C130.177,64.801,132.349,64.205,135.367,63.355z"/>
			<path fill="#E02A16" d="M164.311,60.044c-5.557,0.024-13.646,4.599-19.739,3.564C150.21,63.586,159.323,58.025,164.311,60.044z"
				/>
			<path fill="#E02A16" d="M95.709,71.78c0.192,1.487-1.848,1.187-3.034,1.568C93.506,71.8,94.463,72.833,95.709,71.78z"/>
			<path fill="#E02A16" d="M121.266,70.359c-1.036,0.5-3.304,0.004-3.53,1.156C117.112,70.216,121.211,68.875,121.266,70.359z"/>
			<path fill="#E02A16" d="M89.112,76.485c-1.228,1.011-3.316,1.335-5.041,1.949C84.27,76.72,88.507,76.604,89.112,76.485z"/>
			<path fill="#E02A16" d="M80.858,79.056c-0.136,1.885-3.278,1.37-4.542,2.351C76.812,79.815,79.543,80.002,80.858,79.056z"/>
			<path fill="#E02A16" d="M74.124,80.853c-2.711,2.329-7.511,3.129-9.939,2.453C66.962,82.281,71.409,82.089,74.124,80.853z"/>
			<path fill="#E02A16" d="M152.128,68.562c-0.815,1.078-3.151,0.915-4.25,1.76C148.541,68.2,150.472,68.688,152.128,68.562z"/>
			<path fill="#E02A16" d="M71.345,85.805c-0.028,0.773-1.182,0.652-0.432,2.044c-2.899,0.346-5.069,1.273-7.031,2.363
				C65.657,87.496,67.905,86.466,71.345,85.805z"/>
			<path fill="#E02A16" d="M111.664,83.414c-0.045,2.875-6.274,1.868-7.444,2.387c-0.884,2.081-4.266,2.144-6.457,3.187
				C98.847,84.158,106.165,85.336,111.664,83.414z"/>
			<path fill="#E02A16" d="M81.766,90.131c-3.956,2.42-12.836,5.12-16.953,4.792C69.99,93.561,75.688,91.754,81.766,90.131z"/>
			<path fill="#E02A16" d="M113.626,89.388c1.592,1.576-3.624,1.06-4.14,2.251C108.949,89.345,113.397,91.07,113.626,89.388z"/>
			<path fill="#E02A16" d="M347.077,3.806c-0.391-0.167,0.169-1.465-0.557-1.39c-1.094,0.106-1.832,1.477-3.216,1.779
				c-7.883,1.739-17.039,1.632-25.76,3.824c-4.368,1.055-8.944,2.143-13.475,3.133c-19.846,4.475-37.958,8.956-56.567,11.053
				c-0.539,0.087-0.245,0.886-0.669,1.074c-2.855,0.394-5.74,0.73-8.628,1.093c-2.883,0.378-5.777,0.762-8.669,1.203
				c-5.784,0.882-11.561,1.995-17.218,3.748c-7.965,2.463-16.385,3.431-24.915,5.696c-4.932,1.325-9.647,3.728-14.574,4.978
				c-7.547,1.885-15.743,3.594-23.693,5.428c-7.94,1.873-15.631,3.879-22.177,6.297c-8.087,2.973-17.424,2.828-26.214,4.933
				c-5.157,1.238-10.007,4.058-14.857,5.292c-4.293,1.097-7.951,1.631-11.492,3.209c-11.323,5.075-22.562,9.584-33.768,13.052
				c-4.181,1.285-9.507,1.725-12.066,4.399c-3.637-0.64-7.889,3.613-12.251,3.494c12.289-1.749,34.832-7.51,45.798-11.197
				c9.01,1.599,21.199-8.086,27.208-3.841c-0.374-2.93-2.38-0.101-2.867-1.888c11.003-3.882,19.597-3.851,29.962-9.139
				c0.13,1.264-0.537,1.711,1.072,1.266c1.031-1.343,0.108-0.31-0.354-1.887c9.93-2.408,19.39-4.826,30.872-6.688
				c-0.724,0.348-2.547-0.196-1.844,1.314c6.302-2.151,12.99-1.648,19.93-5.041c0.912,0.497,2.047,0.615,2.438,2.001
				c0.347,1.766-2.836,0.631-2.488,2.396c0.917,1.211,1.529-2.149,2.824-0.504c0.068,0.907,0.64,0.962,0.739,1.813
				c-8.411,2.533-18.981,3.941-24.885,7.408c7.861-1.795,17.417-4.251,23.927-5.773c-0.613,1.112-2.599,1.092-3.375,2.066
				c-0.267,2.1,2.099-0.295,2.268,1.059c-1.004,7.458-7.101,8.261-12.881,11.562c-5.164-1.738-10.025,2.339-15.098,3.755
				c-4.373,1.219-9.94-0.083-12.683,3.31c-2.727-0.599-4.371,2.405-4.912,4.833c0.189,1.617,1.704-0.383,2.047,2.056
				c-3.446-1.307-3.461,3.479-2.187,3.832c-1.002-0.008-0.709,1.027-1.915,0.851c-0.138-0.687,1.408-1.815-0.267-1.417
				c-1.758-0.204-3.505,0.191-3.741,2.176c-6.612,3.288-15.67,4.274-23.983,7.024c-1.205,0.666-1.065-1.058-1.874-1.099
				c-4.086,5.515-18.018,1.292-22.472,8.305c-10.133,2.977-15.398,5.678-25.405,8.006c0.981-0.489,1.475-0.101,1.483,1.172
				c-1.646,0.44-2.041-0.388-3.192,0.643c-0.003-0.662,0.384-1.018,0.018-1.963c-1.945,0.838-5.806,0.174-6.189,2.242
				c1.503-0.463,4.022,0.599,5.183-1.058c0.748,1.075,0.096,1.513,0.78,1.801c3.304-0.825,6.33-3.961,9.693-3.418
				c-0.187,0.897-1.615,1.13-0.421,2.037c1.196-0.971,2.556-0.309,3.1-1.107c-0.667,0.279-1.766-1.545-0.283-1.412
				c1.208,1.58,1.743,1.115,4.062,1.631c-7.965,4.751-16.438,4.155-27.828,8.078c0.901,0.58,3.243-2.033,5.175-1.057
				c-0.49-0.246-1.098,0.714-1.098,0.714c3.589,0,7.662-1.569,11.552-2.349c9.717-1.97,25.156-4.234,32.662-8.949
				c2.365,1.877,4.646-0.699,7.193-1.402c8.534-2.349,18.631-4.847,27.138-7.662c3.889-1.296,11.075-0.801,16.317-3.578
				c0.692-0.369,1.076-1.608,1.737-1.791c0.729-0.202,1.812,0.605,2.579,0.5c1.038-0.144,2.099-1.31,3.028-1.534
				c5.199-1.257,11.515-1.829,16.42-3.026c16.892-4.07,33.141-8.82,51.041-12.927c5.102,1.085,8.986-2.55,13.397-1.325
				c1.011-0.363,0.973-1.612,2.169-1.817c6.222-1.559,11.34-2.248,15.404-1.543c0.356-0.512-0.16-1.768,0.972-1.621
				c1.492-0.271,2.617,0.065,3.766,0.362c2.512-5.25,8.185,1.023,11.74-3.827c0.074,0.474,0.148,0.946,0.224,1.424
				c2.141-2.093,4.287-1.075,6.421-0.984c1.518,0.064,2.324-1.629,4.196-2.102c0.653-0.161,2.073,0.618,2.954,0.517
				c1.184-0.126,1.047-1.353,2.008-0.308c3.062-3.224,10.063-4.122,12.704-2.888c-1.367-1.508,3.405-1.09,4.21-2.047
				c1.042-0.104,0.715,1.978,2.212,1.144c6.058-1.133,12.066-2.486,18.152-3.862c6.084-1.34,12.238-2.59,18.598-3.724
				c3.179-0.56,6.407-1.075,9.699-1.52c3.288-0.415,6.63-0.688,10.053-0.904c3.422-0.207,6.919-0.318,10.503-0.307
				c1.791,0.005,3.604,0.041,5.441,0.11c1.827,0.103,3.665,0.278,5.532,0.469c1.653-1.8,2.868-4.063,3.887-6.546
				c1.218-0.219,1.722-1.17,2.697-1.643c0.7-1.053,1.103-2.417,1.775-3.504c9.624-7.081,9.635-23.431,1.298-30.896
				c-2.378-2.136-5.788-3.834-9.53-4.977c-3.725-1.122-7.844-1.776-11.439-1.6C350.758,2.738,346.844,3.71,347.077,3.806z
				 M148.232,51.708c0.485,1,3.318-2.054,3.804,0.29C150.394,50.736,149.345,53.864,148.232,51.708z M191.519,68.407
				c-2.741,2.854-11.035,3.164-14.627,4.02C180.812,69.565,186.811,69.918,191.519,68.407z M142.411,83.532
				c0.727-0.018,1.064,0.644,1.149,1.737c-1.145-0.294-2.565-0.111-4.097,0.268C138.648,83.404,142.492,85.068,142.411,83.532z
				 M110.204,95.414c-1.023,2.345-4.308,2.602-6.447,3.175c-5.652,1.524-11.898,3.228-17.331,4.818
				C91.544,98.722,103.612,97.561,110.204,95.414z"/>
			<path fill="#E02A16" d="M128.538,60.221c0.845-1.409-0.845-0.631-1.472-1.193c3.536-2.13,12.418-2.685,14.569-4.638
				c1.176-0.981,2.618,2.038,2.419-0.446c0.741,3.679-4.386,1.723-5.528,3.948c3.126-0.076,8.633-0.894,11.372-1.608
				c0.144,2.298-4.133,1.25-6.362,1.661c-2.122,0.39-3.985,1.756-5.958,1.584c-0.805-0.268-1.335-1.01-2.276-1.043
				C135.856,59.277,131.908,59.178,128.538,60.221z"/>
			<path fill="#E02A16" d="M56.533,86.775c1.145-1.524,2.907-1.412,5.832-2.131C63.81,84.454,59.45,86.551,56.533,86.775z"/>
			<path fill="#E02A16" d="M82.257,90.523c2.215-1.556,7.602-2.866,3.917-1.246C84.806,89.878,84.787,89.971,82.257,90.523z"/>
			<path fill="#E02A16" d="M70.422,74.731c1.147,0.077,3.073-1.222,3.71-0.234c1.068,0.862,0.095,1.031-1.022,1.173
				c2.437,1.206,6.55-1.989,10.542-1.554c-9.827,3.327-24.042,7.857-34.381,9.701c7.041-2.316,15.627-5.283,22.015-6.812
				C71.357,75.612,70.481,75.901,70.422,74.731z"/>
		</g>
	</g>
</g>
<g>
	<g>
		<polygon fill="#D22D1A" points="426.227,90.213 432.303,84.456 426.227,78.698 430.447,71.469 422.992,67.663 424.99,59.535 
			416.763,57.989 416.399,49.626 408.068,50.448 405.368,42.525 397.609,45.665 392.773,38.833 386.216,44.038 379.66,38.833 
			374.825,45.665 367.066,42.525 364.366,50.448 356.035,49.625 355.67,57.988 349.466,59.154 348.508,51.518 339.294,51.678 
			335.624,43.224 326.828,45.977 320.914,38.91 313.252,44.038 305.593,38.91 299.677,45.977 290.882,43.223 287.212,51.677 
			277.998,51.518 276.85,60.662 267.96,63.093 269.427,72.191 261.585,77.034 265.572,85.343 259.417,92.204 265.572,99.063 
			261.585,107.374 269.427,112.215 267.958,121.313 276.849,123.745 277.998,132.889 287.211,132.729 290.882,141.184 
			299.677,138.43 305.592,145.497 313.252,140.37 320.913,145.497 326.829,138.43 335.623,141.184 339.293,132.731 348.507,132.889 
			349.655,123.745 358.544,121.314 358.183,119.074 364.365,118.463 367.065,126.386 374.824,123.247 379.66,130.079 
			386.216,124.874 392.773,130.079 397.608,123.247 405.367,126.387 408.068,118.463 416.398,119.286 416.763,110.923 
			424.991,109.376 422.992,101.249 430.447,97.442 		"/>
	</g>
</g>
<g>
	<g>
		<path fill="none" stroke="#231815" stroke-width="6" d="M49.065,80.917c-0.201,0-0.396-0.071-0.55-0.202
			c-0.172-0.146-0.279-0.354-0.297-0.579l-0.263-3.217c-0.01-0.128,0.008-0.257,0.055-0.377c1.805-4.65,4.572-8.899,9.252-14.209
			c4.323-4.889,5.316-6.851,5.058-9.999c-0.241-2.944-1.987-4.702-4.671-4.702c-0.173,0-0.349,0.007-0.528,0.022
			c-3.776,0.309-4.511,3.958-4.613,6.105c-0.011,0.236-0.121,0.458-0.302,0.61c-0.154,0.13-0.349,0.2-0.548,0.2
			c-0.035,0-0.07-0.002-0.104-0.007l-4.344-0.539c-0.457-0.057-0.786-0.466-0.742-0.924c0.562-5.896,4.435-9.705,10.362-10.189
			c0.474-0.039,0.939-0.058,1.393-0.058c6.001,0,9.859,3.373,10.321,9.022c0.34,4.148-1.206,7.294-6.358,12.946
			c-4.745,5.002-6.854,7.844-8.07,10.871c0,0,15.61-1.275,15.634-1.275c0.438,0,0.81,0.337,0.847,0.781l0.253,3.089
			c0.018,0.225-0.053,0.447-0.199,0.619c-0.146,0.173-0.354,0.279-0.579,0.298C70.07,79.202,49.088,80.917,49.065,80.917z"/>
		<path fill="none" stroke="#231815" stroke-width="6" d="M90.219,65.318c-0.201,0-0.396-0.071-0.55-0.202
			c-0.172-0.146-0.279-0.354-0.297-0.579l-0.244-2.992c-0.038-0.468,0.31-0.878,0.778-0.917c0,0,12.322-1.007,12.345-1.007
			c0.201,0,0.396,0.071,0.55,0.202c0.172,0.146,0.279,0.354,0.297,0.579l0.244,2.993c0.038,0.468-0.311,0.878-0.778,0.917
			C102.563,64.312,90.242,65.318,90.219,65.318z"/>
		<path fill="none" stroke="#231815" stroke-width="6" d="M110.683,75.878c-0.201,0-0.396-0.071-0.55-0.202
			c-0.172-0.146-0.279-0.354-0.297-0.579l-0.263-3.217c-0.01-0.128,0.008-0.257,0.055-0.377c1.805-4.65,4.572-8.899,9.252-14.209
			c4.323-4.888,5.316-6.85,5.059-9.999c-0.241-2.944-1.988-4.702-4.672-4.702c-0.173,0-0.349,0.007-0.528,0.022
			c-1.992,0.163-4.41,1.354-4.615,6.101c-0.01,0.237-0.119,0.459-0.3,0.613c-0.154,0.13-0.35,0.201-0.549,0.201
			c-0.035,0-0.07-0.002-0.105-0.007l-4.341-0.539c-0.457-0.057-0.785-0.466-0.742-0.924c0.562-5.896,4.435-9.705,10.362-10.189
			c0.474-0.039,0.939-0.058,1.393-0.058c6.001,0,9.859,3.373,10.321,9.022c0.34,4.148-1.206,7.294-6.358,12.946
			c-4.745,5.002-6.854,7.843-8.07,10.871c0,0,15.61-1.275,15.634-1.275c0.438,0,0.81,0.337,0.847,0.781l0.253,3.089
			c0.018,0.225-0.053,0.448-0.199,0.62s-0.354,0.279-0.579,0.297C131.688,74.165,110.706,75.878,110.683,75.878z"/>
		<path fill="none" stroke="#231815" stroke-width="6" d="M139.146,73.552c-0.438,0-0.81-0.337-0.847-0.781l-0.401-4.907
			c-0.018-0.225,0.053-0.448,0.199-0.62s0.354-0.279,0.579-0.297c0,0,5.193-0.424,5.217-0.424c0.438,0,0.81,0.337,0.847,0.781
			l0.401,4.907c0.018,0.225-0.053,0.448-0.199,0.62s-0.354,0.279-0.579,0.297C144.363,73.128,139.17,73.552,139.146,73.552z"/>
		<path fill="none" stroke="#231815" stroke-width="6" d="M164.116,73.233c-0.195,0-0.385-0.067-0.538-0.192
			c-0.179-0.146-0.291-0.359-0.31-0.589l-0.271-3.307c-0.019-0.23,0.057-0.458,0.209-0.632c0.153-0.173,0.37-0.277,0.601-0.287
			c0.68-0.03,2.271-0.101,5.683-0.379l11.675-0.955l-0.791-9.665l-6.076,0.497c-3.748,0.306-5.562,0.518-6.245,0.597
			c-0.033,0.004-0.066,0.006-0.099,0.006c-0.196,0-0.386-0.068-0.539-0.193c-0.178-0.146-0.29-0.358-0.309-0.588l-0.263-3.214
			c-0.019-0.23,0.057-0.458,0.209-0.63c0.152-0.173,0.368-0.277,0.598-0.289c0.696-0.033,2.528-0.12,6.26-0.425l6.076-0.497
			l-0.673-8.229l-9.187,0.751c-3.597,0.294-5.314,0.494-6.047,0.579c-0.034,0.004-0.068,0.006-0.103,0.006
			c-0.2,0-0.41-0.065-0.562-0.189c-0.178-0.146-0.317-0.355-0.336-0.585l-0.271-3.31c-0.019-0.232,0.059-0.463,0.214-0.637
			c0.155-0.174,0.375-0.276,0.609-0.283c0.772-0.037,2.494-0.118,6.099-0.413l24.066-1.968c3.66-0.299,5.399-0.503,6.053-0.58
			c0.033-0.004,0.066-0.006,0.099-0.006c0.195,0,0.386,0.067,0.539,0.193c0.178,0.146,0.29,0.358,0.309,0.588l0.27,3.308
			c0.019,0.23-0.057,0.458-0.209,0.631c-0.152,0.173-0.369,0.277-0.6,0.288c-0.648,0.029-2.371,0.108-6.066,0.41l-9.521,0.779
			l0.673,8.229l6.603-0.54c3.778-0.309,5.57-0.519,6.244-0.598c0.033-0.004,0.066-0.006,0.099-0.006
			c0.195,0,0.386,0.067,0.539,0.193c0.178,0.146,0.29,0.358,0.309,0.588l0.263,3.214c0.019,0.23-0.057,0.458-0.209,0.63
			c-0.152,0.173-0.368,0.277-0.598,0.289c-0.688,0.033-2.514,0.12-6.26,0.426l-6.602,0.54l0.79,9.664l12.296-1.005
			c3.389-0.277,4.953-0.465,5.62-0.545c0.034-0.004,0.068-0.006,0.102-0.006c0.195,0,0.385,0.067,0.538,0.192
			c0.179,0.146,0.291,0.359,0.31,0.589l0.27,3.308c0.019,0.23-0.057,0.458-0.21,0.632s-0.37,0.277-0.601,0.287
			c-0.668,0.029-2.233,0.098-5.634,0.375l-29.328,2.398c-3.412,0.279-4.993,0.468-5.668,0.548
			C164.184,73.231,164.15,73.233,164.116,73.233z M184.981,38.432c-0.154,0-0.31-0.042-0.45-0.129
			c-3.126-1.951-6.342-3.433-9.83-4.53c-0.269-0.084-0.479-0.297-0.56-0.568c-0.081-0.271-0.021-0.564,0.158-0.782l2.214-2.698
			c0.164-0.199,0.406-0.31,0.657-0.31c0.065,0,0.131,0.008,0.197,0.023c2.961,0.911,6.734,2.181,10.413,4.119
			c0.219,0.115,0.376,0.32,0.432,0.562s0.003,0.495-0.143,0.694l-2.402,3.272C185.501,38.311,185.244,38.432,184.981,38.432z"/>
		<path fill="none" stroke="#231815" stroke-width="6" d="M231.498,68.701c-4.725,0-7.852-2.347-8.161-6.124
			c-0.347-4.244,2.903-7.27,8.279-7.709c0.69-0.056,1.384-0.085,2.064-0.085c0.538,0,1.122,0.018,1.74,0.063v0
			c-0.544-3.071-0.875-5.992-1.104-8.193c-0.114-0.959-0.203-1.583-0.369-2.293c-0.06-0.258,0.003-0.529,0.171-0.733
			c0.162-0.197,0.403-0.311,0.657-0.311c0.01,0,0.02,0,0.029,0c1.704,0.059,2.826,0.181,4.141,0.453
			c0.222,0.046,0.433,0.182,0.557,0.371c0.124,0.189,0.184,0.424,0.137,0.646c-0.023,0.11-0.07,0.332-0.167,0.724
			c-0.141,0.577-0.15,1.131-0.031,1.977c0.225,2.748,0.524,4.777,1.191,8.09c3.804,1.183,6.116,2.044,8.966,3.741
			c0.357,0.212,0.509,0.652,0.358,1.039c-0.565,1.455-1.091,2.602-1.705,3.718c-0.117,0.213-0.32,0.366-0.558,0.42
			c-0.062,0.014-0.125,0.021-0.188,0.021c-0.177,0-0.351-0.055-0.496-0.16c-2.261-1.624-4.155-2.535-5.988-3.416l0,0
			c0.26,3.187-0.974,7.112-8.328,7.713c-0.407,0.034-0.807,0.05-1.196,0.05H231.498z M232.722,58.954
			c-0.267,0-0.539,0.01-0.817,0.033c-1.222,0.1-2.249,0.43-2.968,0.953c-0.766,0.558-1.134,1.308-1.062,2.17
			c0.041,0.497,0.164,2.006,3.28,2.006c0.304,0,0.628-0.014,0.975-0.042c1.253-0.102,2.281-0.515,2.973-1.194
			c0.668-0.656,0.992-1.56,0.911-2.543c-0.035-0.42-0.055-0.67-0.126-0.952l0,0C235.068,59.183,233.969,58.954,232.722,58.954z
			 M216.729,62.354c-0.131,0-0.263-0.031-0.382-0.091c-1.237-0.623-2.625-1.484-3.455-2.143c-0.321-0.255-0.415-0.704-0.222-1.066
			c3.235-6.489,5.303-11.686,6.933-17.414l0,0c-1.827,0.247-3.327,0.369-4.777,0.487c-1.01,0.083-1.404,0.115-2.491,0.161
			c-0.012,0-0.024,0.001-0.037,0.001c-0.391,0-0.733-0.268-0.826-0.65c-0.225-0.652-0.45-1.678-0.678-3.11
			c-0.039-0.244,0.03-0.492,0.188-0.681c0.159-0.189,0.391-0.299,0.638-0.303c1.376-0.022,2.323-0.066,3.494-0.161
			c1.747-0.144,3.205-0.302,5.482-0.688l0,0c0.417-2.098,0.619-3.781,0.806-5.461c0.117-1.317,0.107-2.024,0.044-2.935
			c-0.017-0.244,0.073-0.483,0.245-0.657c0.16-0.162,0.378-0.252,0.604-0.252c0.017,0,0.034,0,0.051,0.001
			c1.953,0.117,3.5,0.245,4.706,0.491c0.024,0.001,0.088,0.013,0.137,0.023c0.254,0.054,0.47,0.221,0.585,0.454
			c0.116,0.233,0.118,0.506,0.007,0.741c-0.057,0.119-0.132,0.229-0.262,0.382c-0.225,0.357-0.391,0.755-0.62,1.832
			c-0.098,0.477-0.199,1.009-0.305,1.572l-0.858-0.04l0.836,0.158c-0.15,0.791-0.311,1.638-0.488,2.47
			c1.945-0.362,4.126-0.996,5.612-1.463c0.083-0.026,0.169-0.04,0.255-0.04c0.142,0,0.284,0.036,0.411,0.106
			c0.203,0.112,0.352,0.303,0.412,0.527c0.252,0.953,0.472,2.098,0.619,3.226c0.054,0.417-0.205,0.812-0.609,0.927
			c-2.46,0.705-4.647,1.207-7.416,1.843l-0.257,0.059c-2.764,9.6-4.97,15.745-7.614,21.212c-0.099,0.205-0.277,0.362-0.493,0.435
			C216.913,62.339,216.82,62.354,216.729,62.354z M247.63,43.562c-0.145,0-0.288-0.037-0.416-0.109
			c-2.229-1.252-5.605-3.033-9.181-4.047c-0.238-0.067-0.434-0.235-0.539-0.458s-0.106-0.481-0.006-0.707l0.206-0.462
			c0.439-0.986,0.848-1.905,1.227-2.532c0.16-0.265,0.463-0.448,0.769-0.448c0.046,0,0.092,0.004,0.137,0.013
			c3.291,0.62,7.325,2.397,9.781,3.73c0.37,0.202,0.537,0.645,0.393,1.041c-0.445,1.213-1.152,2.662-1.622,3.534
			c-0.108,0.201-0.293,0.35-0.512,0.414C247.79,43.55,247.709,43.562,247.63,43.562z"/>
		<path fill="none" stroke="#231815" stroke-width="6" d="M280.345,65.716c-0.206,0-0.406-0.075-0.562-0.212
			c-0.173-0.153-0.276-0.37-0.287-0.6v-0.004c-0.054-0.972-0.188-3.396-0.521-7.45l-0.191-2.344l-14.306,1.169
			c-3.317,0.271-4.928,0.463-5.615,0.544c-0.033,0.004-0.067,0.006-0.101,0.006c-0.196,0-0.388-0.067-0.541-0.191
			c-0.179-0.146-0.293-0.359-0.312-0.589l-0.251-3.069c-0.019-0.23,0.057-0.458,0.21-0.631c0.152-0.173,0.369-0.277,0.6-0.288
			c0.696-0.031,2.317-0.104,5.635-0.375l1.148-0.094l-0.548-6.699c-0.167-2.047-0.324-3.292-0.4-3.89
			c-0.029-0.235,0.038-0.492,0.189-0.674c0.152-0.181,0.37-0.312,0.606-0.324c0.71-0.034,2.51-0.118,6.25-0.424l6.124-0.5
			l-0.52-6.363l-9.808,0.802c-1.404,2.558-3.1,5.014-5.039,7.299c-0.128,0.167-0.244,0.307-0.328,0.404
			c-0.156,0.179-0.38,0.285-0.617,0.292c-0.009,0-0.017,0-0.025,0c-0.229,0-0.447-0.092-0.608-0.256
			c-0.139-0.142-0.298-0.317-0.396-0.425c-0.663-0.768-1.32-1.366-2.02-1.843c-0.205-0.139-0.339-0.361-0.366-0.607
			c-0.028-0.246,0.053-0.492,0.221-0.674c3.18-3.431,5.595-7.314,7.181-11.542c0.393-1.026,0.665-1.946,0.834-2.819
			c0.078-0.404,0.432-0.689,0.834-0.689c0.033,0,0.066,0.002,0.1,0.006c1.66,0.194,2.89,0.38,3.869,0.585
			c0.141,0.034,0.229,0.062,0.296,0.086c0.266,0.096,0.466,0.317,0.535,0.59c0.069,0.273-0.001,0.563-0.188,0.774l-0.217,0.251
			c-0.308,0.318-0.632,0.707-1.053,1.817l-0.788,2.135l19.76-1.615c3.697-0.302,5.511-0.513,6.193-0.592
			c0.033-0.004,0.065-0.006,0.099-0.006c0.195,0,0.388,0.067,0.54,0.193c0.179,0.146,0.292,0.358,0.311,0.588l0.234,2.878
			c0.019,0.229-0.057,0.457-0.209,0.63c-0.152,0.173-0.368,0.277-0.598,0.288c-0.697,0.033-2.523,0.121-6.211,0.422l-7.368,0.602
			l0.521,6.363l5.119-0.418c3.766-0.308,5.56-0.518,6.149-0.587c0.033-0.004,0.065-0.006,0.099-0.006
			c0.195,0,0.386,0.067,0.539,0.193c0.179,0.146,0.29,0.359,0.309,0.588l0.238,2.923c0.019,0.23-0.057,0.458-0.209,0.631
			c-0.152,0.173-0.368,0.277-0.599,0.288c-0.595,0.027-2.403,0.112-6.163,0.419l-5.119,0.418l0.571,6.986l10.144-0.829
			c3.316-0.271,4.927-0.463,5.615-0.544c0.033-0.004,0.066-0.006,0.101-0.006c0.195,0,0.388,0.067,0.54,0.191
			c0.179,0.146,0.294,0.359,0.312,0.589l0.251,3.069c0.019,0.23-0.057,0.458-0.21,0.632c-0.152,0.173-0.369,0.277-0.601,0.287
			c-0.681,0.03-2.276,0.1-5.634,0.375l-10.143,0.829l0.191,2.344c0.33,4.041,0.591,6.47,0.689,7.385
			c0.024,0.228-0.041,0.488-0.187,0.665c-0.146,0.176-0.354,0.318-0.583,0.337C284.063,65.414,280.369,65.716,280.345,65.716z
			 M270.323,51.174l8.086-0.661l-0.571-6.986l-8.086,0.661L270.323,51.174z"/>
		<path fill="none" stroke="#231815" stroke-width="6" d="M308.94,63.233c-0.203,0-0.4-0.073-0.555-0.206
			c-0.173-0.148-0.278-0.36-0.294-0.587l-0.01-0.145c-0.063-1.045-0.257-4.211-0.706-9.72l-1.694-20.717
			c-0.454-5.547-0.786-8.79-0.895-9.855l-0.013-0.131c-0.021-0.231,0.052-0.461,0.204-0.637c0.152-0.176,0.37-0.281,0.602-0.292
			l0.176,0.843l-0.041-0.85c0.819-0.04,2.507-0.122,5.163-0.339l6.603-0.54c2.396-0.196,3.809-0.37,4.412-0.444
			c0.034-0.004,0.069-0.006,0.104-0.006c0.197,0,0.39,0.069,0.543,0.196c0.181,0.149,0.291,0.367,0.306,0.6
			c0.001,0.01,0.005,0.118,0.005,0.128c0.027,0.655,0.082,1.987,0.257,4.122l0.484,5.933c0.185,2.255,0.351,3.579,0.422,4.144
			c0.029,0.236-0.036,0.509-0.19,0.69c-0.153,0.182-0.372,0.326-0.609,0.335c-0.665,0.028-2.051,0.085-4.426,0.28l-7.751,0.633
			l1.268,15.502c0.441,5.407,0.761,8.526,0.881,9.7l0.015,0.151c0.021,0.227-0.049,0.452-0.195,0.626
			c-0.146,0.174-0.355,0.283-0.582,0.301C312.421,62.951,308.963,63.233,308.94,63.233z M310.753,33.226l8.277-0.677l-0.234-2.871
			l-8.277,0.677L310.753,33.226z M310.253,27.102l8.276-0.677l-0.23-2.823l-8.277,0.677L310.253,27.102z M339.229,60.217
			c-0.354,0-0.672-0.22-0.796-0.552c-0.071-0.188-0.167-0.532-0.252-0.843c-0.238-0.79-0.509-1.528-0.798-2.173
			c-0.118-0.262-0.096-0.566,0.061-0.808c0.155-0.242,0.422-0.389,0.71-0.391c1.084-0.006,2.029-0.067,2.632-0.116
			c1.559-0.127,1.931-0.544,1.81-2.026l-1.562-19.09l-7.847,0.642c-2.935,0.24-4.353,0.417-4.887,0.483
			c-0.035,0.004-0.07,0.007-0.105,0.007c-0.195,0-0.386-0.067-0.538-0.192c-0.18-0.147-0.292-0.362-0.31-0.594
			c-0.021-0.579-0.06-1.758-0.236-3.928l-0.54-6.602c-0.171-2.096-0.322-3.265-0.395-3.827c-0.031-0.236,0.036-0.501,0.19-0.683
			c0.153-0.182,0.374-0.317,0.612-0.327c0.598-0.024,1.997-0.08,4.901-0.317l7.033-0.575c2.911-0.237,4.333-0.413,4.939-0.488
			c0.035-0.004,0.07-0.006,0.104-0.006c0.196,0,0.389,0.068,0.541,0.195c0.181,0.149,0.292,0.365,0.308,0.598
			c0,0.003,0.005,0.098,0.005,0.101c0.042,0.825,0.138,2.721,0.4,5.925l1.607,19.665c0.154,1.883,0.392,4.014,0.564,5.57
			l0.012,0.102c0.161,1.455,0.308,2.79,0.394,3.833c0.193,2.347-0.066,3.486-1.027,4.515c-1.015,1.08-2.588,1.512-6.736,1.852
			l-0.125,0.01c-0.321,0.026-0.509,0.041-0.666,0.042C339.233,60.217,339.231,60.217,339.229,60.217z M331.901,31.497l8.852-0.724
			l-0.234-2.871l-8.852,0.724L331.901,31.497z M331.401,25.373l8.851-0.724l-0.23-2.823l-8.852,0.724L331.401,25.373z
			 M319.629,59.036c-0.206,0-0.405-0.075-0.562-0.212c-0.173-0.152-0.277-0.368-0.288-0.598c-0.03-0.631-0.121-2.55-0.597-8.365
			l-0.345-4.21c-0.268-3.278-0.459-4.885-0.54-5.571c-0.029-0.241,0.045-0.502,0.206-0.684s0.391-0.305,0.634-0.305
			c0.622-0.025,1.938-0.076,4.727-0.304l6.459-0.528c2.793-0.229,4.097-0.391,4.724-0.469c0.036-0.004,0.071-0.007,0.107-0.007
			c0.377,0,0.729,0.246,0.835,0.614c0.021,0.076,0.034,0.165,0.034,0.244c0.022,0.535,0.085,2.048,0.307,4.763l0.388,4.737
			c0.313,3.833,0.565,6.562,0.748,8.11c0.027,0.229-0.04,0.459-0.187,0.638s-0.358,0.29-0.589,0.309c0,0-2.837,0.231-2.86,0.231
			c-0.201,0-0.396-0.071-0.551-0.202c-0.172-0.146-0.278-0.354-0.297-0.579l-0.095-1.162l-8.756,0.716l0.139,1.688
			c0.019,0.225-0.054,0.448-0.199,0.62s-0.354,0.279-0.579,0.297C322.493,58.805,319.653,59.036,319.629,59.036z M322.835,52.563
			l8.755-0.716l-0.273-3.349l-8.756,0.716L322.835,52.563z M322.28,45.77l8.756-0.716l-0.263-3.206l-8.755,0.716L322.28,45.77z"/>
		<path fill="none" stroke="#231815" stroke-width="6" d="M361.719,59.014c-0.203,0-0.4-0.073-0.555-0.207
			c-0.173-0.148-0.278-0.36-0.294-0.587c0-0.001-0.003-0.048-0.003-0.05c-0.032-0.681-0.115-2.456-0.364-5.508l-0.575-7.032
			c-0.095-1.159-0.172-2.666-0.247-4.12l-0.102-1.868c-1.31,1.48-2.362,2.59-3.411,3.598l-0.256,0.241
			c-0.159,0.148-0.367,0.229-0.581,0.229c-0.058,0-0.114-0.006-0.172-0.018c-0.271-0.056-0.497-0.239-0.607-0.493l-0.088-0.201
			c-0.458-1.045-0.887-1.899-1.485-2.664c-0.272-0.349-0.232-0.848,0.093-1.149c3.332-3.076,6.426-6.973,8.49-10.692
			c0.256-0.521,0.528-1.135,0.769-1.739c0.087-0.221,0.263-0.395,0.483-0.48c0.099-0.038,0.203-0.057,0.307-0.057
			c0.128,0,0.257,0.029,0.374,0.087c1.179,0.578,2.084,1.085,2.936,1.647l0.216,0.166c0.189,0.158,0.302,0.39,0.308,0.637
			c0.005,0.247-0.098,0.484-0.28,0.649c-0.327,0.295-0.598,0.665-0.805,1.098l-0.086,0.155c-0.595,1.041-1.21,2.118-1.86,3.135
			l1.509,18.467c0.248,3.029,0.457,4.838,0.536,5.52c0.026,0.229-0.041,0.463-0.187,0.642c-0.146,0.178-0.358,0.294-0.588,0.313
			C365.193,58.733,361.743,59.014,361.719,59.014z M380.12,56.964c-0.332-0.006-0.646-0.206-0.779-0.51
			c-0.08-0.183-0.195-0.548-0.296-0.878c-0.32-0.944-0.638-1.721-0.965-2.35c-0.135-0.26-0.127-0.571,0.022-0.823
			c0.148-0.252,0.417-0.411,0.71-0.418c1.202-0.032,2.337-0.096,3.679-0.206c1.633-0.133,2.076-0.516,1.979-1.703l-1.432-17.511
			l-7.607,0.622c-3.601,0.294-5.316,0.495-6.049,0.58c-0.034,0.004-0.068,0.006-0.103,0.006c-0.201,0-0.409-0.065-0.562-0.19
			c-0.179-0.146-0.316-0.356-0.335-0.586l-0.254-3.12c-0.019-0.232,0.059-0.462,0.214-0.635c0.154-0.174,0.374-0.276,0.607-0.284
			c0.779-0.037,2.522-0.12,6.101-0.412l13.685-1.119c3.678-0.301,5.429-0.508,6.005-0.576c0.033-0.004,0.066-0.006,0.1-0.006
			c0.195,0,0.386,0.067,0.539,0.192c0.179,0.146,0.29,0.359,0.309,0.589l0.254,3.116c0.019,0.23-0.057,0.458-0.21,0.631
			c-0.152,0.173-0.369,0.277-0.6,0.288c-0.575,0.026-2.326,0.104-6.017,0.406l-1.006,0.083l0.739,9.042
			c0.204,2.496,0.416,4.47,0.586,6.056c0.124,1.145,0.227,2.108,0.298,2.975c0.213,2.092,0.081,3.653-1.236,4.917
			c-0.925,0.939-2.463,1.306-7.466,1.767l-0.137,0.011c-0.342,0.028-0.561,0.045-0.737,0.045
			C380.151,56.965,380.125,56.964,380.12,56.964z M355.114,29.384c-0.27,0-0.532-0.127-0.697-0.362
			c-0.115-0.164-0.262-0.403-0.355-0.556c-0.489-0.808-1.031-1.5-1.678-2.146c-0.175-0.174-0.265-0.416-0.248-0.662
			c0.018-0.246,0.142-0.473,0.339-0.621c3.212-2.408,6.099-5.274,7.921-7.864c0.333-0.518,0.63-1.046,0.888-1.586
			c0.146-0.304,0.449-0.484,0.768-0.484c0.108,0,0.219,0.021,0.325,0.064c1.249,0.517,2.187,0.998,3.342,1.715l0.209,0.138
			c0.231,0.157,0.372,0.417,0.374,0.697s-0.134,0.543-0.363,0.704l-0.136,0.092c-0.324,0.276-0.676,0.696-1.181,1.444
			c-1.708,2.398-4.846,5.992-8.565,8.937c-0.218,0.181-0.387,0.296-0.502,0.366C355.416,29.344,355.264,29.384,355.114,29.384z
			 M370.752,21.756c-0.195,0-0.385-0.067-0.538-0.192c-0.179-0.146-0.291-0.359-0.31-0.589l-0.258-3.162
			c-0.019-0.23,0.057-0.459,0.21-0.632s0.37-0.277,0.602-0.287c0.534-0.023,2.16-0.093,5.537-0.369l9.952-0.813
			c3.358-0.275,4.915-0.461,5.58-0.541c0.034-0.004,0.069-0.006,0.104-0.006c0.199,0,0.403,0.065,0.555,0.189
			c0.18,0.146,0.312,0.356,0.33,0.587l0.259,3.167c0.019,0.229-0.056,0.455-0.206,0.628c-0.151,0.173-0.365,0.278-0.595,0.291
			c-0.701,0.03-2.253,0.097-5.645,0.374l-9.952,0.813c-3.387,0.277-4.995,0.472-5.523,0.536
			C370.821,21.753,370.787,21.756,370.752,21.756z"/>
		<path fill="none" stroke="#231815" stroke-width="6" d="M417.168,54.369c-0.182,0-0.312-0.015-0.425-0.048
			c-0.271-0.081-0.482-0.291-0.567-0.561c-0.017-0.036-0.151-0.333-0.281-0.62c-0.358-0.785-0.764-1.526-1.205-2.203
			c-0.169-0.259-0.185-0.59-0.039-0.863c0.145-0.273,0.427-0.447,0.736-0.452c1.005-0.017,1.953-0.081,3.173-0.214
			c2.02-0.212,2.456-0.581,2.343-1.974l-0.09-1.1l-7.846,0.642c-3.723,0.304-5.517,0.513-6.192,0.591
			c-0.032,0.004-0.065,0.006-0.099,0.006c-0.196,0-0.39-0.067-0.542-0.192c-0.179-0.146-0.293-0.358-0.312-0.588l-0.164-2.017
			c-0.019-0.23,0.057-0.458,0.209-0.63c0.152-0.173,0.368-0.277,0.599-0.288c0.669-0.031,2.444-0.114,6.211-0.422l7.846-0.642
			l-0.184-2.249l-12.822,1.048c-3.289,0.269-4.879,0.459-5.477,0.531c-0.034,0.004-0.068,0.006-0.102,0.006
			c-0.195,0-0.386-0.067-0.538-0.192c-0.179-0.146-0.291-0.359-0.31-0.589l-0.18-2.203c-0.019-0.23,0.057-0.458,0.21-0.632
			c0.152-0.173,0.369-0.277,0.601-0.287c0.602-0.026,2.2-0.097,5.489-0.366l12.822-1.048l-0.184-2.249l-7.894,0.646
			c-3.703,0.303-5.48,0.51-6.149,0.588c-0.033,0.004-0.065,0.006-0.099,0.006c-0.195,0-0.387-0.068-0.539-0.193
			c-0.179-0.146-0.29-0.359-0.309-0.589l-0.156-1.921c-0.019-0.23,0.057-0.458,0.209-0.631c0.152-0.173,0.369-0.277,0.6-0.288
			c0.664-0.031,2.428-0.112,6.162-0.418l7.894-0.645l-0.173-2.105l-6.172,0.504c-3.716,0.304-5.572,0.518-6.271,0.599
			c-0.033,0.003-0.067,0.005-0.102,0.005c-0.212,0-0.432-0.073-0.588-0.212c-0.181-0.162-0.311-0.389-0.311-0.632
			c-0.004-0.396-0.009-1.037-0.099-2.144l-0.211-2.583c-0.089-1.092-0.188-1.724-0.246-2.103c-0.037-0.236,0.025-0.495,0.175-0.681
			s0.368-0.319,0.606-0.334c0.747-0.036,2.605-0.125,6.35-0.431l6.172-0.504l-0.172-2.105l-12.057,0.986
			c-3.405,0.278-5.025,0.471-5.717,0.553c-0.034,0.004-0.067,0.006-0.101,0.006c-0.195,0-0.386-0.067-0.538-0.192
			c-0.18-0.146-0.291-0.359-0.31-0.589l-0.191-2.351c-0.019-0.23,0.057-0.458,0.21-0.631c0.152-0.173,0.369-0.277,0.6-0.287
			c0.688-0.03,2.296-0.102,5.73-0.383l12.057-0.986c-0.117-1.441-0.251-2.426-0.46-3.4c-0.053-0.244,0.005-0.499,0.156-0.696
			s0.383-0.319,0.632-0.332c0.82-0.042,1.798-0.084,2.827-0.084c0.354,0,0.711,0.005,1.074,0.016
			c0.274,0.008,0.527,0.148,0.68,0.375c0.153,0.227,0.188,0.514,0.093,0.771l-0.103,0.257c-0.165,0.603-0.187,1.228-0.066,2.699
			l12.152-0.994c3.426-0.28,5.03-0.471,5.716-0.553c0.033-0.004,0.067-0.006,0.101-0.006c0.195,0,0.386,0.067,0.538,0.192
			c0.179,0.146,0.291,0.359,0.31,0.589l0.191,2.351c0.019,0.23-0.057,0.458-0.21,0.631c-0.152,0.173-0.369,0.277-0.6,0.288
			c-0.691,0.031-2.312,0.104-5.729,0.383l-12.152,0.994l0.172,2.105l6.363-0.521c3.729-0.305,5.526-0.512,6.294-0.601
			c0.033-0.004,0.066-0.006,0.1-0.006c0.21,0,0.423,0.075,0.579,0.214c0.181,0.162,0.3,0.391,0.3,0.633
			c0.004,0.412,0.01,1.052,0.099,2.143l0.211,2.583c0.089,1.092,0.188,1.724,0.246,2.103c0.037,0.236-0.025,0.494-0.175,0.681
			s-0.368,0.319-0.606,0.333c-0.85,0.042-2.679,0.132-6.351,0.432l-6.363,0.521l0.173,2.105l7.75-0.634
			c3.811-0.312,5.634-0.525,6.232-0.595c0.033-0.004,0.065-0.006,0.099-0.006c0.207,0,0.409,0.076,0.565,0.215
			c0.182,0.161,0.285,0.393,0.285,0.635c0.019,0.55,0.06,1.722,0.227,3.768l0.09,1.101c2.164-0.177,3.354-0.333,3.746-0.384
			c0.037-0.005,0.073-0.007,0.11-0.007c0.193,0,0.382,0.066,0.534,0.189c0.181,0.146,0.294,0.36,0.313,0.592l0.181,2.202
			c0.019,0.227-0.055,0.453-0.204,0.625c-0.149,0.173-0.361,0.278-0.589,0.293c-0.003,0-0.104,0.006-0.106,0.006
			c-0.594,0.031-1.725,0.09-3.68,0.217l0.199,2.44c0.181,2.208,0.343,3.472,0.412,4.012c0.029,0.23-0.035,0.474-0.182,0.655
			s-0.358,0.305-0.59,0.324c0,0-3.076,0.25-3.1,0.25c-0.201,0-0.396-0.071-0.551-0.202c-0.172-0.146-0.278-0.354-0.297-0.579
			l-0.06-0.731l-10.096,0.827c0.116,0.841,0.182,1.642,0.24,2.351c0.193,2.366-0.191,3.599-1.37,4.435
			c-1.15,0.773-3.261,1.279-6.66,1.604C417.602,54.351,417.363,54.369,417.168,54.369z M425.356,42.399l10.143-0.83l-0.184-2.249
			l-10.143,0.83L425.356,42.399z M424.867,36.418l10.143-0.83l-0.184-2.249l-10.143,0.83L424.867,36.418z M410.487,26.661
			l8.659-0.708l-0.195-2.392l-8.659,0.708L410.487,26.661z M423.979,25.558l8.851-0.724l-0.195-2.392l-8.851,0.724L423.979,25.558z"
			/>
	</g>
	<g>
		<path fill="none" stroke="#231815" stroke-width="3" d="M47.648,79.5c-0.201,0-0.396-0.071-0.55-0.202
			c-0.172-0.146-0.279-0.354-0.297-0.579l-0.263-3.217c-0.01-0.128,0.008-0.257,0.055-0.377c1.805-4.65,4.572-8.9,9.252-14.209
			c4.323-4.889,5.316-6.851,5.058-9.999c-0.241-2.944-1.987-4.702-4.671-4.702c-0.173,0-0.349,0.007-0.528,0.022
			c-3.776,0.309-4.511,3.958-4.613,6.105c-0.011,0.236-0.121,0.458-0.302,0.61c-0.154,0.13-0.349,0.2-0.548,0.2
			c-0.035,0-0.07-0.002-0.104-0.007l-4.344-0.539c-0.457-0.057-0.786-0.466-0.742-0.924c0.562-5.896,4.435-9.705,10.362-10.189
			c0.474-0.039,0.939-0.058,1.393-0.058c6.001,0,9.859,3.373,10.321,9.022c0.34,4.148-1.206,7.294-6.358,12.946
			c-4.745,5.002-6.854,7.844-8.07,10.871c0,0,15.61-1.275,15.634-1.275c0.438,0,0.81,0.337,0.847,0.781l0.253,3.089
			c0.018,0.225-0.053,0.447-0.199,0.619c-0.146,0.173-0.354,0.279-0.579,0.298C68.653,77.785,47.671,79.5,47.648,79.5z"/>
		<path fill="none" stroke="#231815" stroke-width="3" d="M88.801,63.9c-0.201,0-0.396-0.071-0.55-0.202
			c-0.172-0.146-0.279-0.354-0.297-0.579l-0.244-2.992c-0.038-0.468,0.31-0.878,0.778-0.917c0,0,12.322-1.007,12.345-1.007
			c0.201,0,0.396,0.071,0.55,0.202c0.172,0.146,0.279,0.354,0.297,0.579l0.244,2.993c0.038,0.468-0.311,0.878-0.778,0.917
			C101.146,62.894,88.824,63.9,88.801,63.9z"/>
		<path fill="none" stroke="#231815" stroke-width="3" d="M109.265,74.461c-0.201,0-0.396-0.071-0.55-0.202
			c-0.172-0.146-0.279-0.354-0.297-0.579l-0.263-3.217c-0.01-0.128,0.008-0.257,0.055-0.377c1.805-4.65,4.572-8.899,9.252-14.209
			c4.323-4.888,5.316-6.85,5.059-9.999c-0.241-2.944-1.988-4.702-4.672-4.702c-0.173,0-0.349,0.007-0.528,0.022
			c-1.992,0.163-4.41,1.354-4.615,6.101c-0.01,0.237-0.119,0.459-0.3,0.613c-0.154,0.13-0.35,0.201-0.549,0.201
			c-0.035,0-0.07-0.002-0.105-0.007l-4.341-0.539c-0.457-0.057-0.785-0.466-0.742-0.924c0.562-5.896,4.435-9.705,10.362-10.189
			c0.474-0.039,0.939-0.058,1.393-0.058c6.001,0,9.859,3.373,10.321,9.022c0.34,4.148-1.206,7.294-6.358,12.946
			c-4.745,5.002-6.854,7.843-8.07,10.871c0,0,15.61-1.275,15.634-1.275c0.438,0,0.81,0.337,0.847,0.781l0.253,3.089
			c0.018,0.225-0.053,0.448-0.199,0.62s-0.354,0.279-0.579,0.297C130.27,72.747,109.288,74.461,109.265,74.461z"/>
		<path fill="none" stroke="#231815" stroke-width="3" d="M137.729,72.134c-0.438,0-0.81-0.337-0.847-0.781l-0.401-4.907
			c-0.018-0.225,0.053-0.448,0.199-0.62s0.354-0.279,0.579-0.297c0,0,5.193-0.424,5.217-0.424c0.438,0,0.81,0.337,0.847,0.781
			l0.401,4.907c0.018,0.225-0.053,0.448-0.199,0.62s-0.354,0.279-0.579,0.297C142.946,71.71,137.752,72.134,137.729,72.134z"/>
		<path fill="none" stroke="#231815" stroke-width="3" d="M162.699,71.816c-0.195,0-0.385-0.067-0.538-0.192
			c-0.179-0.146-0.291-0.359-0.31-0.589l-0.271-3.307c-0.019-0.23,0.057-0.458,0.209-0.632c0.153-0.173,0.37-0.277,0.601-0.287
			c0.68-0.03,2.271-0.101,5.683-0.379l11.675-0.955l-0.791-9.665l-6.076,0.497c-3.748,0.306-5.562,0.518-6.245,0.597
			c-0.033,0.004-0.066,0.006-0.099,0.006c-0.196,0-0.386-0.068-0.539-0.193c-0.178-0.146-0.29-0.358-0.309-0.588l-0.263-3.214
			c-0.019-0.23,0.057-0.458,0.209-0.63c0.152-0.173,0.368-0.277,0.598-0.289c0.696-0.033,2.528-0.12,6.26-0.425l6.076-0.497
			l-0.673-8.229l-9.187,0.751c-3.597,0.294-5.314,0.494-6.047,0.579c-0.034,0.004-0.068,0.006-0.103,0.006
			c-0.2,0-0.41-0.065-0.562-0.189c-0.178-0.146-0.317-0.355-0.336-0.585l-0.271-3.31c-0.019-0.232,0.059-0.463,0.214-0.637
			c0.155-0.174,0.375-0.276,0.609-0.283c0.772-0.037,2.494-0.118,6.099-0.413l24.066-1.968c3.66-0.299,5.399-0.503,6.053-0.58
			c0.033-0.004,0.066-0.006,0.099-0.006c0.195,0,0.386,0.067,0.539,0.193c0.178,0.146,0.29,0.358,0.309,0.588l0.27,3.308
			c0.019,0.23-0.057,0.458-0.209,0.631c-0.152,0.173-0.369,0.277-0.6,0.288c-0.648,0.029-2.371,0.108-6.066,0.41l-9.521,0.779
			l0.673,8.229l6.603-0.54c3.778-0.309,5.57-0.519,6.244-0.598c0.033-0.004,0.066-0.006,0.099-0.006
			c0.195,0,0.386,0.067,0.539,0.193c0.178,0.146,0.29,0.358,0.309,0.588l0.263,3.214c0.019,0.23-0.057,0.458-0.209,0.63
			c-0.152,0.173-0.368,0.277-0.598,0.289c-0.688,0.033-2.514,0.12-6.26,0.426l-6.602,0.54l0.79,9.664l12.296-1.005
			c3.389-0.277,4.953-0.465,5.62-0.545c0.034-0.004,0.068-0.006,0.102-0.006c0.195,0,0.385,0.067,0.538,0.192
			c0.179,0.146,0.291,0.359,0.31,0.589l0.27,3.308c0.019,0.23-0.057,0.458-0.21,0.632s-0.37,0.277-0.601,0.287
			c-0.668,0.029-2.233,0.098-5.634,0.375l-29.328,2.398c-3.412,0.279-4.993,0.468-5.668,0.548
			C162.766,71.814,162.732,71.816,162.699,71.816z M183.564,37.015c-0.154,0-0.31-0.042-0.45-0.129
			c-3.126-1.951-6.342-3.433-9.83-4.53c-0.269-0.084-0.479-0.297-0.56-0.568c-0.081-0.271-0.021-0.564,0.158-0.782l2.214-2.698
			c0.164-0.199,0.406-0.31,0.657-0.31c0.065,0,0.131,0.008,0.197,0.023c2.961,0.911,6.734,2.181,10.413,4.119
			c0.219,0.115,0.376,0.32,0.432,0.562s0.003,0.495-0.143,0.694l-2.402,3.272C184.084,36.893,183.826,37.015,183.564,37.015z"/>
		<path fill="none" stroke="#231815" stroke-width="3" d="M230.081,67.283c-4.725,0-7.852-2.347-8.161-6.124
			c-0.347-4.244,2.903-7.27,8.279-7.709c0.69-0.056,1.384-0.085,2.064-0.085c0.538,0,1.122,0.018,1.74,0.063v0
			c-0.544-3.071-0.875-5.992-1.104-8.193c-0.114-0.959-0.203-1.583-0.369-2.293c-0.06-0.258,0.003-0.529,0.171-0.733
			c0.162-0.197,0.403-0.311,0.657-0.311c0.01,0,0.02,0,0.029,0c1.704,0.059,2.826,0.181,4.141,0.453
			c0.222,0.046,0.433,0.182,0.557,0.371c0.124,0.189,0.184,0.424,0.137,0.646c-0.023,0.11-0.07,0.332-0.167,0.724
			c-0.141,0.577-0.15,1.131-0.031,1.977c0.225,2.748,0.524,4.777,1.191,8.09c3.805,1.183,6.116,2.044,8.967,3.741
			c0.357,0.212,0.509,0.652,0.358,1.039c-0.565,1.455-1.091,2.602-1.705,3.718c-0.117,0.213-0.32,0.366-0.558,0.42
			c-0.062,0.014-0.125,0.021-0.188,0.021c-0.177,0-0.351-0.055-0.496-0.16c-2.261-1.624-4.156-2.535-5.988-3.416l0,0
			c0.26,3.187-0.974,7.112-8.328,7.713c-0.407,0.034-0.807,0.05-1.196,0.05H230.081z M231.304,57.536
			c-0.267,0-0.539,0.01-0.817,0.033c-1.222,0.1-2.249,0.43-2.968,0.953c-0.766,0.558-1.134,1.308-1.062,2.17
			c0.041,0.497,0.164,2.006,3.28,2.006c0.304,0,0.628-0.014,0.975-0.042c1.253-0.102,2.281-0.515,2.973-1.194
			c0.668-0.656,0.992-1.56,0.911-2.543c-0.035-0.42-0.055-0.67-0.126-0.952l0,0C233.651,57.766,232.552,57.536,231.304,57.536z
			 M215.311,60.937c-0.131,0-0.263-0.031-0.382-0.091c-1.237-0.623-2.625-1.484-3.455-2.143c-0.321-0.255-0.415-0.704-0.222-1.066
			c3.235-6.489,5.303-11.686,6.933-17.414l0,0c-1.827,0.247-3.327,0.369-4.777,0.487c-1.01,0.083-1.404,0.115-2.491,0.161
			c-0.012,0-0.024,0.001-0.037,0.001c-0.391,0-0.733-0.268-0.826-0.65c-0.225-0.652-0.45-1.678-0.678-3.11
			c-0.039-0.244,0.03-0.492,0.188-0.681c0.159-0.189,0.391-0.299,0.638-0.303c1.376-0.022,2.323-0.066,3.494-0.161
			c1.747-0.144,3.205-0.302,5.482-0.688l0,0c0.417-2.098,0.619-3.781,0.806-5.461c0.117-1.317,0.107-2.024,0.044-2.935
			c-0.017-0.244,0.073-0.483,0.245-0.657c0.16-0.162,0.378-0.252,0.604-0.252c0.017,0,0.034,0,0.051,0.001
			c1.953,0.117,3.5,0.245,4.706,0.491c0.024,0.001,0.088,0.013,0.137,0.023c0.254,0.054,0.47,0.221,0.585,0.454
			c0.116,0.233,0.118,0.506,0.007,0.741c-0.057,0.119-0.132,0.229-0.262,0.382c-0.225,0.357-0.391,0.755-0.62,1.832
			c-0.098,0.477-0.199,1.009-0.305,1.572l-0.858-0.04l0.836,0.158c-0.15,0.791-0.311,1.638-0.488,2.47
			c1.945-0.362,4.126-0.996,5.612-1.463c0.083-0.026,0.169-0.04,0.255-0.04c0.142,0,0.284,0.036,0.411,0.106
			c0.203,0.112,0.352,0.303,0.412,0.527c0.252,0.953,0.472,2.098,0.619,3.226c0.054,0.417-0.205,0.812-0.609,0.927
			c-2.46,0.705-4.647,1.207-7.416,1.843l-0.257,0.059c-2.764,9.6-4.97,15.745-7.614,21.212c-0.099,0.205-0.277,0.362-0.493,0.435
			C215.496,60.922,215.403,60.937,215.311,60.937z M246.213,42.144c-0.145,0-0.288-0.037-0.416-0.109
			c-2.229-1.252-5.606-3.033-9.181-4.047c-0.238-0.067-0.434-0.235-0.539-0.458s-0.106-0.481-0.006-0.707l0.206-0.462
			c0.439-0.986,0.848-1.905,1.227-2.532c0.16-0.265,0.463-0.448,0.769-0.448c0.046,0,0.092,0.004,0.137,0.013
			c3.291,0.62,7.325,2.397,9.781,3.73c0.37,0.202,0.537,0.645,0.393,1.041c-0.445,1.213-1.152,2.662-1.622,3.534
			c-0.108,0.201-0.293,0.35-0.512,0.414C246.373,42.133,246.292,42.144,246.213,42.144z"/>
		<path fill="none" stroke="#231815" stroke-width="3" d="M278.928,64.298c-0.206,0-0.406-0.075-0.562-0.212
			c-0.173-0.153-0.276-0.37-0.287-0.6v-0.004c-0.054-0.972-0.188-3.396-0.521-7.45l-0.191-2.344l-14.306,1.169
			c-3.317,0.271-4.928,0.463-5.615,0.544c-0.033,0.004-0.067,0.006-0.101,0.006c-0.196,0-0.388-0.067-0.541-0.191
			c-0.179-0.146-0.293-0.359-0.312-0.589l-0.251-3.069c-0.019-0.23,0.057-0.458,0.21-0.631c0.152-0.173,0.369-0.277,0.6-0.288
			c0.696-0.031,2.317-0.104,5.635-0.375l1.148-0.094l-0.548-6.699c-0.167-2.047-0.324-3.292-0.4-3.89
			c-0.029-0.235,0.038-0.492,0.189-0.674c0.152-0.181,0.37-0.312,0.606-0.324c0.71-0.034,2.51-0.118,6.25-0.424l6.124-0.5
			l-0.52-6.363l-9.808,0.802c-1.404,2.558-3.1,5.014-5.039,7.299c-0.128,0.167-0.244,0.307-0.328,0.404
			c-0.156,0.179-0.38,0.285-0.617,0.292c-0.009,0-0.017,0-0.025,0c-0.229,0-0.447-0.092-0.608-0.256
			c-0.139-0.142-0.298-0.317-0.396-0.425c-0.663-0.768-1.32-1.366-2.02-1.843c-0.205-0.139-0.339-0.361-0.366-0.607
			c-0.028-0.246,0.053-0.492,0.221-0.674c3.18-3.431,5.595-7.314,7.181-11.542c0.393-1.026,0.665-1.946,0.834-2.819
			c0.078-0.404,0.432-0.689,0.834-0.689c0.033,0,0.066,0.002,0.1,0.006c1.66,0.194,2.89,0.38,3.869,0.585
			c0.141,0.034,0.229,0.062,0.296,0.086c0.266,0.096,0.466,0.317,0.535,0.59c0.069,0.273-0.001,0.563-0.188,0.774l-0.217,0.251
			c-0.308,0.318-0.632,0.707-1.053,1.817l-0.788,2.135l19.76-1.615c3.697-0.302,5.511-0.513,6.193-0.592
			c0.033-0.004,0.065-0.006,0.099-0.006c0.195,0,0.388,0.067,0.54,0.193c0.179,0.146,0.292,0.358,0.311,0.588l0.234,2.878
			c0.019,0.229-0.057,0.457-0.209,0.63c-0.152,0.173-0.368,0.277-0.598,0.288c-0.697,0.033-2.523,0.121-6.211,0.422l-7.368,0.602
			l0.521,6.363l5.119-0.418c3.766-0.308,5.56-0.518,6.149-0.587c0.033-0.004,0.065-0.006,0.099-0.006
			c0.195,0,0.386,0.067,0.539,0.193c0.179,0.146,0.29,0.359,0.309,0.588l0.238,2.923c0.019,0.23-0.057,0.458-0.209,0.631
			c-0.152,0.173-0.368,0.277-0.599,0.288c-0.595,0.027-2.403,0.112-6.163,0.419l-5.119,0.418l0.571,6.986l10.144-0.829
			c3.316-0.271,4.927-0.463,5.615-0.544c0.033-0.004,0.066-0.006,0.101-0.006c0.195,0,0.388,0.067,0.54,0.191
			c0.179,0.146,0.294,0.359,0.312,0.589l0.251,3.069c0.019,0.23-0.057,0.458-0.21,0.632c-0.152,0.173-0.369,0.277-0.601,0.287
			c-0.681,0.03-2.276,0.1-5.634,0.375l-10.143,0.829l0.191,2.344c0.33,4.041,0.591,6.47,0.689,7.385
			c0.024,0.228-0.041,0.488-0.187,0.665c-0.146,0.176-0.354,0.318-0.583,0.337C282.646,63.997,278.952,64.298,278.928,64.298z
			 M268.906,49.756l8.086-0.661l-0.571-6.986l-8.086,0.661L268.906,49.756z"/>
		<path fill="none" stroke="#231815" stroke-width="3" d="M307.523,61.815c-0.203,0-0.4-0.073-0.555-0.206
			c-0.173-0.148-0.278-0.36-0.294-0.587l-0.01-0.145c-0.063-1.045-0.257-4.211-0.706-9.72l-1.694-20.717
			c-0.454-5.547-0.786-8.79-0.895-9.855l-0.013-0.131c-0.021-0.231,0.052-0.461,0.204-0.637c0.152-0.176,0.37-0.281,0.602-0.292
			l0.176,0.843l-0.041-0.85c0.819-0.04,2.507-0.122,5.163-0.339l6.603-0.54c2.396-0.196,3.809-0.37,4.412-0.444
			c0.034-0.004,0.069-0.006,0.104-0.006c0.197,0,0.39,0.069,0.543,0.196c0.181,0.149,0.291,0.367,0.306,0.6
			c0.001,0.01,0.005,0.118,0.005,0.128c0.027,0.655,0.082,1.987,0.257,4.122l0.484,5.933c0.185,2.255,0.351,3.579,0.422,4.144
			c0.029,0.236-0.036,0.509-0.19,0.69c-0.153,0.182-0.372,0.326-0.609,0.335c-0.665,0.028-2.051,0.085-4.426,0.28l-7.751,0.633
			l1.268,15.502c0.441,5.407,0.761,8.526,0.881,9.7l0.015,0.151c0.021,0.227-0.049,0.452-0.195,0.626
			c-0.146,0.174-0.355,0.283-0.582,0.301C311.004,61.534,307.546,61.815,307.523,61.815z M309.336,31.808l8.277-0.677l-0.234-2.871
			l-8.277,0.677L309.336,31.808z M308.836,25.684l8.276-0.677l-0.23-2.823l-8.277,0.677L308.836,25.684z M337.812,58.799
			c-0.354,0-0.672-0.22-0.796-0.552c-0.071-0.188-0.167-0.532-0.252-0.843c-0.238-0.79-0.509-1.528-0.798-2.173
			c-0.118-0.262-0.096-0.566,0.061-0.808c0.155-0.242,0.422-0.389,0.71-0.391c1.084-0.006,2.029-0.067,2.632-0.116
			c1.559-0.127,1.931-0.544,1.81-2.026l-1.562-19.09l-7.847,0.642c-2.935,0.24-4.353,0.417-4.887,0.483
			c-0.035,0.004-0.07,0.007-0.105,0.007c-0.195,0-0.386-0.067-0.538-0.192c-0.18-0.147-0.292-0.362-0.31-0.594
			c-0.021-0.579-0.06-1.758-0.236-3.928l-0.54-6.602c-0.171-2.096-0.322-3.265-0.395-3.827c-0.031-0.236,0.036-0.501,0.19-0.683
			c0.153-0.182,0.374-0.317,0.612-0.327c0.598-0.024,1.997-0.08,4.901-0.317l7.033-0.575c2.911-0.237,4.333-0.413,4.939-0.488
			c0.035-0.004,0.07-0.006,0.104-0.006c0.196,0,0.389,0.068,0.541,0.195c0.181,0.149,0.292,0.365,0.308,0.598
			c0,0.003,0.005,0.098,0.005,0.101c0.042,0.825,0.138,2.721,0.4,5.925l1.607,19.665c0.154,1.883,0.392,4.014,0.564,5.57
			l0.012,0.102c0.161,1.455,0.308,2.79,0.394,3.833c0.193,2.347-0.066,3.486-1.027,4.515c-1.015,1.08-2.588,1.512-6.736,1.852
			l-0.125,0.01c-0.321,0.026-0.509,0.041-0.666,0.042C337.816,58.799,337.814,58.799,337.812,58.799z M330.484,30.079l8.852-0.724
			l-0.234-2.871l-8.852,0.724L330.484,30.079z M329.984,23.955l8.851-0.724l-0.23-2.823l-8.852,0.724L329.984,23.955z
			 M318.212,57.619c-0.206,0-0.405-0.075-0.562-0.212c-0.173-0.152-0.277-0.368-0.288-0.598c-0.03-0.631-0.121-2.55-0.597-8.365
			l-0.345-4.21c-0.268-3.278-0.459-4.885-0.54-5.571c-0.029-0.241,0.045-0.502,0.206-0.684s0.391-0.305,0.634-0.305
			c0.622-0.025,1.938-0.076,4.727-0.304l6.459-0.528c2.793-0.229,4.097-0.391,4.724-0.469c0.036-0.004,0.071-0.007,0.107-0.007
			c0.377,0,0.729,0.246,0.835,0.614c0.021,0.076,0.034,0.165,0.034,0.244c0.022,0.535,0.085,2.048,0.307,4.763l0.388,4.737
			c0.313,3.833,0.565,6.562,0.748,8.11c0.027,0.229-0.04,0.459-0.187,0.638s-0.358,0.29-0.589,0.309c0,0-2.837,0.231-2.86,0.231
			c-0.201,0-0.396-0.071-0.551-0.202c-0.172-0.146-0.278-0.354-0.297-0.579l-0.095-1.162l-8.756,0.716l0.139,1.688
			c0.019,0.225-0.054,0.448-0.199,0.62s-0.354,0.279-0.579,0.297C321.076,57.387,318.236,57.619,318.212,57.619z M321.418,51.146
			l8.755-0.716l-0.273-3.349l-8.756,0.716L321.418,51.146z M320.863,44.352l8.756-0.716l-0.263-3.206l-8.755,0.716L320.863,44.352z"
			/>
		<path fill="none" stroke="#231815" stroke-width="3" d="M360.302,57.596c-0.203,0-0.4-0.073-0.555-0.207
			c-0.173-0.148-0.278-0.36-0.294-0.587c0-0.001-0.003-0.048-0.003-0.05c-0.032-0.681-0.115-2.456-0.364-5.508l-0.575-7.032
			c-0.095-1.159-0.172-2.666-0.247-4.12l-0.102-1.868c-1.31,1.48-2.362,2.59-3.411,3.598l-0.256,0.241
			c-0.159,0.148-0.367,0.229-0.581,0.229c-0.058,0-0.114-0.006-0.172-0.018c-0.271-0.056-0.497-0.239-0.607-0.493l-0.088-0.201
			c-0.458-1.045-0.887-1.899-1.485-2.664c-0.272-0.349-0.232-0.848,0.093-1.149c3.332-3.076,6.426-6.973,8.49-10.692
			c0.256-0.521,0.528-1.135,0.769-1.739c0.087-0.221,0.263-0.395,0.483-0.48c0.099-0.038,0.203-0.057,0.307-0.057
			c0.128,0,0.257,0.029,0.374,0.087c1.179,0.578,2.084,1.085,2.936,1.647l0.216,0.166c0.189,0.158,0.302,0.39,0.308,0.637
			c0.005,0.247-0.098,0.484-0.28,0.649c-0.327,0.295-0.598,0.665-0.805,1.098l-0.086,0.155c-0.595,1.041-1.21,2.118-1.86,3.135
			l1.509,18.467c0.248,3.029,0.457,4.838,0.536,5.52c0.026,0.229-0.041,0.463-0.187,0.642c-0.146,0.178-0.358,0.294-0.588,0.313
			C363.776,57.315,360.326,57.596,360.302,57.596z M378.703,55.547c-0.332-0.006-0.646-0.206-0.779-0.51
			c-0.08-0.183-0.195-0.548-0.296-0.878c-0.32-0.944-0.638-1.721-0.965-2.35c-0.135-0.26-0.127-0.571,0.022-0.823
			c0.148-0.252,0.417-0.411,0.71-0.418c1.202-0.032,2.337-0.096,3.679-0.206c1.633-0.133,2.076-0.516,1.979-1.703l-1.432-17.511
			l-7.607,0.622c-3.601,0.294-5.316,0.495-6.049,0.58c-0.034,0.004-0.068,0.006-0.103,0.006c-0.201,0-0.409-0.065-0.562-0.19
			c-0.179-0.146-0.316-0.356-0.335-0.586l-0.254-3.12c-0.019-0.232,0.059-0.462,0.214-0.635c0.154-0.174,0.374-0.276,0.607-0.284
			c0.779-0.037,2.522-0.12,6.101-0.412l13.685-1.119c3.678-0.301,5.429-0.508,6.005-0.576c0.033-0.004,0.066-0.006,0.1-0.006
			c0.195,0,0.386,0.067,0.539,0.192c0.179,0.146,0.29,0.359,0.309,0.589l0.254,3.116c0.019,0.23-0.057,0.458-0.21,0.631
			c-0.152,0.173-0.369,0.277-0.6,0.288c-0.575,0.026-2.326,0.104-6.017,0.406l-1.006,0.083l0.739,9.042
			c0.204,2.496,0.416,4.47,0.586,6.056c0.124,1.145,0.227,2.108,0.298,2.975c0.213,2.092,0.081,3.653-1.236,4.917
			c-0.925,0.939-2.463,1.306-7.466,1.767l-0.137,0.011c-0.342,0.028-0.561,0.045-0.737,0.045
			C378.734,55.547,378.708,55.547,378.703,55.547z M353.697,27.967c-0.27,0-0.532-0.127-0.697-0.362
			c-0.115-0.164-0.262-0.403-0.355-0.556c-0.489-0.808-1.031-1.5-1.678-2.146c-0.175-0.174-0.265-0.416-0.248-0.662
			c0.018-0.246,0.142-0.473,0.339-0.621c3.212-2.408,6.099-5.274,7.921-7.864c0.333-0.518,0.63-1.046,0.888-1.586
			c0.146-0.304,0.449-0.484,0.768-0.484c0.108,0,0.219,0.021,0.325,0.064c1.249,0.517,2.187,0.998,3.342,1.715l0.209,0.138
			c0.231,0.157,0.372,0.417,0.374,0.697s-0.134,0.543-0.363,0.704l-0.136,0.092c-0.324,0.276-0.676,0.696-1.181,1.444
			c-1.708,2.398-4.846,5.992-8.565,8.937c-0.218,0.181-0.387,0.296-0.502,0.366C353.999,27.927,353.847,27.967,353.697,27.967z
			 M369.335,20.338c-0.195,0-0.385-0.067-0.538-0.192c-0.179-0.146-0.291-0.359-0.31-0.589l-0.258-3.162
			c-0.019-0.23,0.057-0.459,0.21-0.632s0.37-0.277,0.602-0.287c0.534-0.023,2.16-0.093,5.537-0.369l9.952-0.813
			c3.358-0.275,4.915-0.461,5.58-0.541c0.034-0.004,0.069-0.006,0.104-0.006c0.199,0,0.403,0.065,0.555,0.189
			c0.18,0.146,0.312,0.356,0.33,0.587l0.259,3.167c0.019,0.229-0.056,0.455-0.206,0.628c-0.151,0.173-0.365,0.278-0.595,0.291
			c-0.701,0.03-2.253,0.097-5.645,0.374l-9.952,0.813c-3.387,0.277-4.995,0.472-5.523,0.536
			C369.404,20.336,369.37,20.338,369.335,20.338z"/>
		<path fill="none" stroke="#231815" stroke-width="3" d="M415.751,52.952c-0.182,0-0.312-0.015-0.425-0.048
			c-0.271-0.081-0.482-0.291-0.567-0.561c-0.017-0.036-0.151-0.333-0.281-0.62c-0.358-0.785-0.764-1.526-1.205-2.203
			c-0.169-0.259-0.185-0.59-0.039-0.863c0.145-0.273,0.427-0.447,0.736-0.452c1.005-0.017,1.953-0.081,3.173-0.214
			c2.02-0.212,2.456-0.581,2.343-1.974l-0.09-1.1l-7.846,0.642c-3.723,0.304-5.517,0.513-6.192,0.591
			c-0.032,0.004-0.065,0.006-0.099,0.006c-0.196,0-0.39-0.067-0.542-0.192c-0.179-0.146-0.293-0.358-0.312-0.588l-0.164-2.017
			c-0.019-0.23,0.057-0.458,0.209-0.63c0.152-0.173,0.368-0.277,0.599-0.288c0.669-0.031,2.444-0.114,6.211-0.422l7.846-0.642
			l-0.184-2.249L406.1,40.176c-3.289,0.269-4.879,0.459-5.477,0.531c-0.034,0.004-0.068,0.006-0.102,0.006
			c-0.195,0-0.386-0.067-0.538-0.192c-0.179-0.146-0.291-0.359-0.31-0.589l-0.18-2.203c-0.019-0.23,0.057-0.458,0.21-0.632
			c0.152-0.173,0.369-0.277,0.601-0.287c0.602-0.026,2.2-0.097,5.489-0.366l12.822-1.048l-0.184-2.249l-7.894,0.646
			c-3.703,0.303-5.48,0.51-6.149,0.588c-0.033,0.004-0.065,0.006-0.099,0.006c-0.195,0-0.387-0.068-0.539-0.193
			c-0.179-0.146-0.29-0.359-0.309-0.589l-0.156-1.921c-0.019-0.23,0.057-0.458,0.209-0.631c0.152-0.173,0.369-0.277,0.6-0.288
			c0.664-0.031,2.428-0.112,6.162-0.418l7.894-0.645l-0.173-2.105l-6.172,0.504c-3.716,0.304-5.572,0.518-6.271,0.599
			c-0.033,0.003-0.067,0.005-0.102,0.005c-0.212,0-0.432-0.073-0.588-0.212c-0.181-0.162-0.311-0.389-0.311-0.632
			c-0.004-0.396-0.009-1.037-0.099-2.144l-0.211-2.583c-0.089-1.092-0.188-1.724-0.246-2.103c-0.037-0.236,0.025-0.495,0.175-0.681
			s0.368-0.319,0.606-0.334c0.747-0.036,2.605-0.125,6.35-0.431l6.172-0.504l-0.172-2.105l-12.057,0.986
			c-3.405,0.278-5.025,0.471-5.717,0.553c-0.034,0.004-0.067,0.006-0.101,0.006c-0.195,0-0.386-0.067-0.538-0.192
			c-0.18-0.146-0.291-0.359-0.31-0.589l-0.191-2.351c-0.019-0.23,0.057-0.458,0.21-0.631c0.152-0.173,0.369-0.277,0.6-0.287
			c0.688-0.03,2.296-0.102,5.73-0.383l12.057-0.986c-0.117-1.441-0.251-2.426-0.46-3.4c-0.053-0.244,0.005-0.499,0.156-0.696
			s0.383-0.319,0.632-0.332c0.82-0.042,1.798-0.084,2.827-0.084c0.354,0,0.711,0.005,1.074,0.016
			c0.274,0.008,0.527,0.148,0.68,0.375c0.153,0.227,0.188,0.514,0.093,0.771l-0.103,0.257c-0.165,0.603-0.187,1.228-0.066,2.699
			l12.152-0.994c3.426-0.28,5.03-0.471,5.716-0.553c0.033-0.004,0.067-0.006,0.101-0.006c0.195,0,0.386,0.067,0.538,0.192
			c0.179,0.146,0.291,0.359,0.31,0.589l0.191,2.351c0.019,0.23-0.057,0.458-0.21,0.631c-0.152,0.173-0.369,0.277-0.6,0.288
			c-0.691,0.031-2.312,0.104-5.729,0.383l-12.152,0.994l0.172,2.105l6.363-0.521c3.729-0.305,5.526-0.512,6.294-0.601
			c0.033-0.004,0.066-0.006,0.1-0.006c0.21,0,0.423,0.075,0.579,0.214c0.181,0.162,0.3,0.391,0.3,0.633
			c0.004,0.412,0.01,1.052,0.099,2.143l0.211,2.583c0.089,1.092,0.188,1.724,0.246,2.103c0.037,0.236-0.025,0.494-0.175,0.681
			s-0.368,0.319-0.606,0.333c-0.85,0.042-2.679,0.132-6.351,0.432l-6.363,0.521l0.173,2.105l7.75-0.634
			c3.811-0.312,5.634-0.525,6.232-0.595c0.033-0.004,0.065-0.006,0.099-0.006c0.207,0,0.409,0.076,0.565,0.215
			c0.182,0.161,0.285,0.393,0.285,0.635c0.019,0.55,0.06,1.722,0.227,3.768l0.09,1.101c2.164-0.177,3.354-0.333,3.746-0.384
			c0.037-0.005,0.073-0.007,0.11-0.007c0.193,0,0.382,0.066,0.534,0.189c0.181,0.146,0.294,0.36,0.313,0.592l0.181,2.202
			c0.019,0.227-0.055,0.453-0.204,0.625c-0.149,0.173-0.361,0.278-0.589,0.293c-0.003,0-0.104,0.006-0.106,0.006
			c-0.594,0.031-1.725,0.09-3.68,0.217l0.199,2.44c0.181,2.208,0.343,3.472,0.412,4.012c0.029,0.23-0.035,0.474-0.182,0.655
			s-0.358,0.305-0.59,0.324c0,0-3.076,0.25-3.1,0.25c-0.201,0-0.396-0.071-0.551-0.202c-0.172-0.146-0.278-0.354-0.297-0.579
			l-0.06-0.731l-10.096,0.827c0.116,0.841,0.182,1.642,0.24,2.351c0.193,2.366-0.191,3.599-1.37,4.435
			c-1.15,0.773-3.261,1.279-6.66,1.604C416.185,52.934,415.946,52.952,415.751,52.952z M423.939,40.981l10.143-0.83l-0.184-2.249
			l-10.143,0.83L423.939,40.981z M423.45,35.001l10.143-0.83l-0.184-2.249l-10.143,0.83L423.45,35.001z M409.07,25.243l8.659-0.708
			l-0.195-2.392l-8.659,0.708L409.07,25.243z M422.562,24.14l8.851-0.724l-0.195-2.392l-8.851,0.724L422.562,24.14z"/>
	</g>
	<g>
		<path fill="#FFFFFF" d="M47.648,79.5c-0.201,0-0.396-0.071-0.55-0.202c-0.172-0.146-0.279-0.354-0.297-0.579l-0.263-3.217
			c-0.01-0.128,0.008-0.257,0.055-0.377c1.805-4.65,4.572-8.9,9.252-14.209c4.323-4.889,5.316-6.851,5.058-9.999
			c-0.241-2.944-1.987-4.702-4.671-4.702c-0.173,0-0.349,0.007-0.528,0.022c-3.776,0.309-4.511,3.958-4.613,6.105
			c-0.011,0.236-0.121,0.458-0.302,0.61c-0.154,0.13-0.349,0.2-0.548,0.2c-0.035,0-0.07-0.002-0.104-0.007l-4.344-0.539
			c-0.457-0.057-0.786-0.466-0.742-0.924c0.562-5.896,4.435-9.705,10.362-10.189c0.474-0.039,0.939-0.058,1.393-0.058
			c6.001,0,9.859,3.373,10.321,9.022c0.34,4.148-1.206,7.294-6.358,12.946c-4.745,5.002-6.854,7.844-8.07,10.871
			c0,0,15.61-1.275,15.634-1.275c0.438,0,0.81,0.337,0.847,0.781l0.253,3.089c0.018,0.225-0.053,0.447-0.199,0.619
			c-0.146,0.173-0.354,0.279-0.579,0.298C68.653,77.785,47.671,79.5,47.648,79.5z"/>
		<path fill="#FFFFFF" d="M88.801,63.9c-0.201,0-0.396-0.071-0.55-0.202c-0.172-0.146-0.279-0.354-0.297-0.579l-0.244-2.992
			c-0.038-0.468,0.31-0.878,0.778-0.917c0,0,12.322-1.007,12.345-1.007c0.201,0,0.396,0.071,0.55,0.202
			c0.172,0.146,0.279,0.354,0.297,0.579l0.244,2.993c0.038,0.468-0.311,0.878-0.778,0.917C101.146,62.894,88.824,63.9,88.801,63.9z"
			/>
		<path fill="#FFFFFF" d="M109.265,74.461c-0.201,0-0.396-0.071-0.55-0.202c-0.172-0.146-0.279-0.354-0.297-0.579l-0.263-3.217
			c-0.01-0.128,0.008-0.257,0.055-0.377c1.805-4.65,4.572-8.899,9.252-14.209c4.323-4.888,5.316-6.85,5.059-9.999
			c-0.241-2.944-1.988-4.702-4.672-4.702c-0.173,0-0.349,0.007-0.528,0.022c-1.992,0.163-4.41,1.354-4.615,6.101
			c-0.01,0.237-0.119,0.459-0.3,0.613c-0.154,0.13-0.35,0.201-0.549,0.201c-0.035,0-0.07-0.002-0.105-0.007l-4.341-0.539
			c-0.457-0.057-0.785-0.466-0.742-0.924c0.562-5.896,4.435-9.705,10.362-10.189c0.474-0.039,0.939-0.058,1.393-0.058
			c6.001,0,9.859,3.373,10.321,9.022c0.34,4.148-1.206,7.294-6.358,12.946c-4.745,5.002-6.854,7.843-8.07,10.871
			c0,0,15.61-1.275,15.634-1.275c0.438,0,0.81,0.337,0.847,0.781l0.253,3.089c0.018,0.225-0.053,0.448-0.199,0.62
			s-0.354,0.279-0.579,0.297C130.27,72.747,109.288,74.461,109.265,74.461z"/>
		<path fill="#FFFFFF" d="M137.729,72.134c-0.438,0-0.81-0.337-0.847-0.781l-0.401-4.907c-0.018-0.225,0.053-0.448,0.199-0.62
			s0.354-0.279,0.579-0.297c0,0,5.193-0.424,5.217-0.424c0.438,0,0.81,0.337,0.847,0.781l0.401,4.907
			c0.018,0.225-0.053,0.448-0.199,0.62s-0.354,0.279-0.579,0.297C142.946,71.71,137.752,72.134,137.729,72.134z"/>
		<path fill="#FFFFFF" d="M162.699,71.816c-0.195,0-0.385-0.067-0.538-0.192c-0.179-0.146-0.291-0.359-0.31-0.589l-0.271-3.307
			c-0.019-0.23,0.057-0.458,0.209-0.632c0.153-0.173,0.37-0.277,0.601-0.287c0.68-0.03,2.271-0.101,5.683-0.379l11.675-0.955
			l-0.791-9.665l-6.076,0.497c-3.748,0.306-5.562,0.518-6.245,0.597c-0.033,0.004-0.066,0.006-0.099,0.006
			c-0.196,0-0.386-0.068-0.539-0.193c-0.178-0.146-0.29-0.358-0.309-0.588l-0.263-3.214c-0.019-0.23,0.057-0.458,0.209-0.63
			c0.152-0.173,0.368-0.277,0.598-0.289c0.696-0.033,2.528-0.12,6.26-0.425l6.076-0.497l-0.673-8.229l-9.187,0.751
			c-3.597,0.294-5.314,0.494-6.047,0.579c-0.034,0.004-0.068,0.006-0.103,0.006c-0.2,0-0.41-0.065-0.562-0.189
			c-0.178-0.146-0.317-0.355-0.336-0.585l-0.271-3.31c-0.019-0.232,0.059-0.463,0.214-0.637c0.155-0.174,0.375-0.276,0.609-0.283
			c0.772-0.037,2.494-0.118,6.099-0.413l24.066-1.968c3.66-0.299,5.399-0.503,6.053-0.58c0.033-0.004,0.066-0.006,0.099-0.006
			c0.195,0,0.386,0.067,0.539,0.193c0.178,0.146,0.29,0.358,0.309,0.588l0.27,3.308c0.019,0.23-0.057,0.458-0.209,0.631
			c-0.152,0.173-0.369,0.277-0.6,0.288c-0.648,0.029-2.371,0.108-6.066,0.41l-9.521,0.779l0.673,8.229l6.603-0.54
			c3.778-0.309,5.57-0.519,6.244-0.598c0.033-0.004,0.066-0.006,0.099-0.006c0.195,0,0.386,0.067,0.539,0.193
			c0.178,0.146,0.29,0.358,0.309,0.588l0.263,3.214c0.019,0.23-0.057,0.458-0.209,0.63c-0.152,0.173-0.368,0.277-0.598,0.289
			c-0.688,0.033-2.514,0.12-6.26,0.426l-6.602,0.54l0.79,9.664l12.296-1.005c3.389-0.277,4.953-0.465,5.62-0.545
			c0.034-0.004,0.068-0.006,0.102-0.006c0.195,0,0.385,0.067,0.538,0.192c0.179,0.146,0.291,0.359,0.31,0.589l0.27,3.308
			c0.019,0.23-0.057,0.458-0.21,0.632s-0.37,0.277-0.601,0.287c-0.668,0.029-2.233,0.098-5.634,0.375l-29.328,2.398
			c-3.412,0.279-4.993,0.468-5.668,0.548C162.766,71.814,162.732,71.816,162.699,71.816z M183.564,37.015
			c-0.154,0-0.31-0.042-0.45-0.129c-3.126-1.951-6.342-3.433-9.83-4.53c-0.269-0.084-0.479-0.297-0.56-0.568
			c-0.081-0.271-0.021-0.564,0.158-0.782l2.214-2.698c0.164-0.199,0.406-0.31,0.657-0.31c0.065,0,0.131,0.008,0.197,0.023
			c2.961,0.911,6.734,2.181,10.413,4.119c0.219,0.115,0.376,0.32,0.432,0.562s0.003,0.495-0.143,0.694l-2.402,3.272
			C184.084,36.893,183.826,37.015,183.564,37.015z"/>
		<path fill="#FFFFFF" d="M230.081,67.283c-4.725,0-7.852-2.347-8.161-6.124c-0.347-4.244,2.903-7.27,8.279-7.709
			c0.69-0.056,1.384-0.085,2.064-0.085c0.538,0,1.122,0.018,1.74,0.063v0c-0.544-3.071-0.875-5.992-1.104-8.193
			c-0.114-0.959-0.203-1.583-0.369-2.293c-0.06-0.258,0.003-0.529,0.171-0.733c0.162-0.197,0.403-0.311,0.657-0.311
			c0.01,0,0.02,0,0.029,0c1.704,0.059,2.826,0.181,4.141,0.453c0.222,0.046,0.433,0.182,0.557,0.371
			c0.124,0.189,0.184,0.424,0.137,0.646c-0.023,0.11-0.07,0.332-0.167,0.724c-0.141,0.577-0.15,1.131-0.031,1.977
			c0.225,2.748,0.524,4.777,1.191,8.09c3.805,1.183,6.116,2.044,8.967,3.741c0.357,0.212,0.509,0.652,0.358,1.039
			c-0.565,1.455-1.091,2.602-1.705,3.718c-0.117,0.213-0.32,0.366-0.558,0.42c-0.062,0.014-0.125,0.021-0.188,0.021
			c-0.177,0-0.351-0.055-0.496-0.16c-2.261-1.624-4.156-2.535-5.988-3.416l0,0c0.26,3.187-0.974,7.112-8.328,7.713
			c-0.407,0.034-0.807,0.05-1.196,0.05H230.081z M231.304,57.536c-0.267,0-0.539,0.01-0.817,0.033
			c-1.222,0.1-2.249,0.43-2.968,0.953c-0.766,0.558-1.134,1.308-1.062,2.17c0.041,0.497,0.164,2.006,3.28,2.006
			c0.304,0,0.628-0.014,0.975-0.042c1.253-0.102,2.281-0.515,2.973-1.194c0.668-0.656,0.992-1.56,0.911-2.543
			c-0.035-0.42-0.055-0.67-0.126-0.952l0,0C233.651,57.766,232.552,57.536,231.304,57.536z M215.311,60.937
			c-0.131,0-0.263-0.031-0.382-0.091c-1.237-0.623-2.625-1.484-3.455-2.143c-0.321-0.255-0.415-0.704-0.222-1.066
			c3.235-6.489,5.303-11.686,6.933-17.414l0,0c-1.827,0.247-3.327,0.369-4.777,0.487c-1.01,0.083-1.404,0.115-2.491,0.161
			c-0.012,0-0.024,0.001-0.037,0.001c-0.391,0-0.733-0.268-0.826-0.65c-0.225-0.652-0.45-1.678-0.678-3.11
			c-0.039-0.244,0.03-0.492,0.188-0.681c0.159-0.189,0.391-0.299,0.638-0.303c1.376-0.022,2.323-0.066,3.494-0.161
			c1.747-0.144,3.205-0.302,5.482-0.688l0,0c0.417-2.098,0.619-3.781,0.806-5.461c0.117-1.317,0.107-2.024,0.044-2.935
			c-0.017-0.244,0.073-0.483,0.245-0.657c0.16-0.162,0.378-0.252,0.604-0.252c0.017,0,0.034,0,0.051,0.001
			c1.953,0.117,3.5,0.245,4.706,0.491c0.024,0.001,0.088,0.013,0.137,0.023c0.254,0.054,0.47,0.221,0.585,0.454
			c0.116,0.233,0.118,0.506,0.007,0.741c-0.057,0.119-0.132,0.229-0.262,0.382c-0.225,0.357-0.391,0.755-0.62,1.832
			c-0.098,0.477-0.199,1.009-0.305,1.572l-0.858-0.04l0.836,0.158c-0.15,0.791-0.311,1.638-0.488,2.47
			c1.945-0.362,4.126-0.996,5.612-1.463c0.083-0.026,0.169-0.04,0.255-0.04c0.142,0,0.284,0.036,0.411,0.106
			c0.203,0.112,0.352,0.303,0.412,0.527c0.252,0.953,0.472,2.098,0.619,3.226c0.054,0.417-0.205,0.812-0.609,0.927
			c-2.46,0.705-4.647,1.207-7.416,1.843l-0.257,0.059c-2.764,9.6-4.97,15.745-7.614,21.212c-0.099,0.205-0.277,0.362-0.493,0.435
			C215.496,60.922,215.403,60.937,215.311,60.937z M246.213,42.144c-0.145,0-0.288-0.037-0.416-0.109
			c-2.229-1.252-5.606-3.033-9.181-4.047c-0.238-0.067-0.434-0.235-0.539-0.458s-0.106-0.481-0.006-0.707l0.206-0.462
			c0.439-0.986,0.848-1.905,1.227-2.532c0.16-0.265,0.463-0.448,0.769-0.448c0.046,0,0.092,0.004,0.137,0.013
			c3.291,0.62,7.325,2.397,9.781,3.73c0.37,0.202,0.537,0.645,0.393,1.041c-0.445,1.213-1.152,2.662-1.622,3.534
			c-0.108,0.201-0.293,0.35-0.512,0.414C246.373,42.133,246.292,42.144,246.213,42.144z"/>
		<path fill="#FFFFFF" d="M278.928,64.298c-0.206,0-0.406-0.075-0.562-0.212c-0.173-0.153-0.276-0.37-0.287-0.6v-0.004
			c-0.054-0.972-0.188-3.396-0.521-7.45l-0.191-2.344l-14.306,1.169c-3.317,0.271-4.928,0.463-5.615,0.544
			c-0.033,0.004-0.067,0.006-0.101,0.006c-0.196,0-0.388-0.067-0.541-0.191c-0.179-0.146-0.293-0.359-0.312-0.589l-0.251-3.069
			c-0.019-0.23,0.057-0.458,0.21-0.631c0.152-0.173,0.369-0.277,0.6-0.288c0.696-0.031,2.317-0.104,5.635-0.375l1.148-0.094
			l-0.548-6.699c-0.167-2.047-0.324-3.292-0.4-3.89c-0.029-0.235,0.038-0.492,0.189-0.674c0.152-0.181,0.37-0.312,0.606-0.324
			c0.71-0.034,2.51-0.118,6.25-0.424l6.124-0.5l-0.52-6.363l-9.808,0.802c-1.404,2.558-3.1,5.014-5.039,7.299
			c-0.128,0.167-0.244,0.307-0.328,0.404c-0.156,0.179-0.38,0.285-0.617,0.292c-0.009,0-0.017,0-0.025,0
			c-0.229,0-0.447-0.092-0.608-0.256c-0.139-0.142-0.298-0.317-0.396-0.425c-0.663-0.768-1.32-1.366-2.02-1.843
			c-0.205-0.139-0.339-0.361-0.366-0.607c-0.028-0.246,0.053-0.492,0.221-0.674c3.18-3.431,5.595-7.314,7.181-11.542
			c0.393-1.026,0.665-1.946,0.834-2.819c0.078-0.404,0.432-0.689,0.834-0.689c0.033,0,0.066,0.002,0.1,0.006
			c1.66,0.194,2.89,0.38,3.869,0.585c0.141,0.034,0.229,0.062,0.296,0.086c0.266,0.096,0.466,0.317,0.535,0.59
			c0.069,0.273-0.001,0.563-0.188,0.774l-0.217,0.251c-0.308,0.318-0.632,0.707-1.053,1.817l-0.788,2.135l19.76-1.615
			c3.697-0.302,5.511-0.513,6.193-0.592c0.033-0.004,0.065-0.006,0.099-0.006c0.195,0,0.388,0.067,0.54,0.193
			c0.179,0.146,0.292,0.358,0.311,0.588l0.234,2.878c0.019,0.229-0.057,0.457-0.209,0.63c-0.152,0.173-0.368,0.277-0.598,0.288
			c-0.697,0.033-2.523,0.121-6.211,0.422l-7.368,0.602l0.521,6.363l5.119-0.418c3.766-0.308,5.56-0.518,6.149-0.587
			c0.033-0.004,0.065-0.006,0.099-0.006c0.195,0,0.386,0.067,0.539,0.193c0.179,0.146,0.29,0.359,0.309,0.588l0.238,2.923
			c0.019,0.23-0.057,0.458-0.209,0.631c-0.152,0.173-0.368,0.277-0.599,0.288c-0.595,0.027-2.403,0.112-6.163,0.419l-5.119,0.418
			l0.571,6.986l10.144-0.829c3.316-0.271,4.927-0.463,5.615-0.544c0.033-0.004,0.066-0.006,0.101-0.006
			c0.195,0,0.388,0.067,0.54,0.191c0.179,0.146,0.294,0.359,0.312,0.589l0.251,3.069c0.019,0.23-0.057,0.458-0.21,0.632
			c-0.152,0.173-0.369,0.277-0.601,0.287c-0.681,0.03-2.276,0.1-5.634,0.375l-10.143,0.829l0.191,2.344
			c0.33,4.041,0.591,6.47,0.689,7.385c0.024,0.228-0.041,0.488-0.187,0.665c-0.146,0.176-0.354,0.318-0.583,0.337
			C282.646,63.997,278.952,64.298,278.928,64.298z M268.906,49.756l8.086-0.661l-0.571-6.986l-8.086,0.661L268.906,49.756z"/>
		<path fill="#FFFFFF" d="M307.523,61.815c-0.203,0-0.4-0.073-0.555-0.206c-0.173-0.148-0.278-0.36-0.294-0.587l-0.01-0.145
			c-0.063-1.045-0.257-4.211-0.706-9.72l-1.694-20.717c-0.454-5.547-0.786-8.79-0.895-9.855l-0.013-0.131
			c-0.021-0.231,0.052-0.461,0.204-0.637c0.152-0.176,0.37-0.281,0.602-0.292l0.176,0.843l-0.041-0.85
			c0.819-0.04,2.507-0.122,5.163-0.339l6.603-0.54c2.396-0.196,3.809-0.37,4.412-0.444c0.034-0.004,0.069-0.006,0.104-0.006
			c0.197,0,0.39,0.069,0.543,0.196c0.181,0.149,0.291,0.367,0.306,0.6c0.001,0.01,0.005,0.118,0.005,0.128
			c0.027,0.655,0.082,1.987,0.257,4.122l0.484,5.933c0.185,2.255,0.351,3.579,0.422,4.144c0.029,0.236-0.036,0.509-0.19,0.69
			c-0.153,0.182-0.372,0.326-0.609,0.335c-0.665,0.028-2.051,0.085-4.426,0.28l-7.751,0.633l1.268,15.502
			c0.441,5.407,0.761,8.526,0.881,9.7l0.015,0.151c0.021,0.227-0.049,0.452-0.195,0.626c-0.146,0.174-0.355,0.283-0.582,0.301
			C311.004,61.534,307.546,61.815,307.523,61.815z M309.336,31.808l8.277-0.677l-0.234-2.871l-8.277,0.677L309.336,31.808z
			 M308.836,25.684l8.276-0.677l-0.23-2.823l-8.277,0.677L308.836,25.684z M337.812,58.799c-0.354,0-0.672-0.22-0.796-0.552
			c-0.071-0.188-0.167-0.532-0.252-0.843c-0.238-0.79-0.509-1.528-0.798-2.173c-0.118-0.262-0.096-0.566,0.061-0.808
			c0.155-0.242,0.422-0.389,0.71-0.391c1.084-0.006,2.029-0.067,2.632-0.116c1.559-0.127,1.931-0.544,1.81-2.026l-1.562-19.09
			l-7.847,0.642c-2.935,0.24-4.353,0.417-4.887,0.483c-0.035,0.004-0.07,0.007-0.105,0.007c-0.195,0-0.386-0.067-0.538-0.192
			c-0.18-0.147-0.292-0.362-0.31-0.594c-0.021-0.579-0.06-1.758-0.236-3.928l-0.54-6.602c-0.171-2.096-0.322-3.265-0.395-3.827
			c-0.031-0.236,0.036-0.501,0.19-0.683c0.153-0.182,0.374-0.317,0.612-0.327c0.598-0.024,1.997-0.08,4.901-0.317l7.033-0.575
			c2.911-0.237,4.333-0.413,4.939-0.488c0.035-0.004,0.07-0.006,0.104-0.006c0.196,0,0.389,0.068,0.541,0.195
			c0.181,0.149,0.292,0.365,0.308,0.598c0,0.003,0.005,0.098,0.005,0.101c0.042,0.825,0.138,2.721,0.4,5.925l1.607,19.665
			c0.154,1.883,0.392,4.014,0.564,5.57l0.012,0.102c0.161,1.455,0.308,2.79,0.394,3.833c0.193,2.347-0.066,3.486-1.027,4.515
			c-1.015,1.08-2.588,1.512-6.736,1.852l-0.125,0.01c-0.321,0.026-0.509,0.041-0.666,0.042
			C337.816,58.799,337.814,58.799,337.812,58.799z M330.484,30.079l8.852-0.724l-0.234-2.871l-8.852,0.724L330.484,30.079z
			 M329.984,23.955l8.851-0.724l-0.23-2.823l-8.852,0.724L329.984,23.955z M318.212,57.619c-0.206,0-0.405-0.075-0.562-0.212
			c-0.173-0.152-0.277-0.368-0.288-0.598c-0.03-0.631-0.121-2.55-0.597-8.365l-0.345-4.21c-0.268-3.278-0.459-4.885-0.54-5.571
			c-0.029-0.241,0.045-0.502,0.206-0.684s0.391-0.305,0.634-0.305c0.622-0.025,1.938-0.076,4.727-0.304l6.459-0.528
			c2.793-0.229,4.097-0.391,4.724-0.469c0.036-0.004,0.071-0.007,0.107-0.007c0.377,0,0.729,0.246,0.835,0.614
			c0.021,0.076,0.034,0.165,0.034,0.244c0.022,0.535,0.085,2.048,0.307,4.763l0.388,4.737c0.313,3.833,0.565,6.562,0.748,8.11
			c0.027,0.229-0.04,0.459-0.187,0.638s-0.358,0.29-0.589,0.309c0,0-2.837,0.231-2.86,0.231c-0.201,0-0.396-0.071-0.551-0.202
			c-0.172-0.146-0.278-0.354-0.297-0.579l-0.095-1.162l-8.756,0.716l0.139,1.688c0.019,0.225-0.054,0.448-0.199,0.62
			s-0.354,0.279-0.579,0.297C321.076,57.387,318.236,57.619,318.212,57.619z M321.418,51.146l8.755-0.716l-0.273-3.349l-8.756,0.716
			L321.418,51.146z M320.863,44.352l8.756-0.716l-0.263-3.206l-8.755,0.716L320.863,44.352z"/>
		<path fill="#FFFFFF" d="M360.302,57.596c-0.203,0-0.4-0.073-0.555-0.207c-0.173-0.148-0.278-0.36-0.294-0.587
			c0-0.001-0.003-0.048-0.003-0.05c-0.032-0.681-0.115-2.456-0.364-5.508l-0.575-7.032c-0.095-1.159-0.172-2.666-0.247-4.12
			l-0.102-1.868c-1.31,1.48-2.362,2.59-3.411,3.598l-0.256,0.241c-0.159,0.148-0.367,0.229-0.581,0.229
			c-0.058,0-0.114-0.006-0.172-0.018c-0.271-0.056-0.497-0.239-0.607-0.493l-0.088-0.201c-0.458-1.045-0.887-1.899-1.485-2.664
			c-0.272-0.349-0.232-0.848,0.093-1.149c3.332-3.076,6.426-6.973,8.49-10.692c0.256-0.521,0.528-1.135,0.769-1.739
			c0.087-0.221,0.263-0.395,0.483-0.48c0.099-0.038,0.203-0.057,0.307-0.057c0.128,0,0.257,0.029,0.374,0.087
			c1.179,0.578,2.084,1.085,2.936,1.647l0.216,0.166c0.189,0.158,0.302,0.39,0.308,0.637c0.005,0.247-0.098,0.484-0.28,0.649
			c-0.327,0.295-0.598,0.665-0.805,1.098l-0.086,0.155c-0.595,1.041-1.21,2.118-1.86,3.135l1.509,18.467
			c0.248,3.029,0.457,4.838,0.536,5.52c0.026,0.229-0.041,0.463-0.187,0.642c-0.146,0.178-0.358,0.294-0.588,0.313
			C363.776,57.315,360.326,57.596,360.302,57.596z M378.703,55.547c-0.332-0.006-0.646-0.206-0.779-0.51
			c-0.08-0.183-0.195-0.548-0.296-0.878c-0.32-0.944-0.638-1.721-0.965-2.35c-0.135-0.26-0.127-0.571,0.022-0.823
			c0.148-0.252,0.417-0.411,0.71-0.418c1.202-0.032,2.337-0.096,3.679-0.206c1.633-0.133,2.076-0.516,1.979-1.703l-1.432-17.511
			l-7.607,0.622c-3.601,0.294-5.316,0.495-6.049,0.58c-0.034,0.004-0.068,0.006-0.103,0.006c-0.201,0-0.409-0.065-0.562-0.19
			c-0.179-0.146-0.316-0.356-0.335-0.586l-0.254-3.12c-0.019-0.232,0.059-0.462,0.214-0.635c0.154-0.174,0.374-0.276,0.607-0.284
			c0.779-0.037,2.522-0.12,6.101-0.412l13.685-1.119c3.678-0.301,5.429-0.508,6.005-0.576c0.033-0.004,0.066-0.006,0.1-0.006
			c0.195,0,0.386,0.067,0.539,0.192c0.179,0.146,0.29,0.359,0.309,0.589l0.254,3.116c0.019,0.23-0.057,0.458-0.21,0.631
			c-0.152,0.173-0.369,0.277-0.6,0.288c-0.575,0.026-2.326,0.104-6.017,0.406l-1.006,0.083l0.739,9.042
			c0.204,2.496,0.416,4.47,0.586,6.056c0.124,1.145,0.227,2.108,0.298,2.975c0.213,2.092,0.081,3.653-1.236,4.917
			c-0.925,0.939-2.463,1.306-7.466,1.767l-0.137,0.011c-0.342,0.028-0.561,0.045-0.737,0.045
			C378.734,55.547,378.708,55.547,378.703,55.547z M353.697,27.967c-0.27,0-0.532-0.127-0.697-0.362
			c-0.115-0.164-0.262-0.403-0.355-0.556c-0.489-0.808-1.031-1.5-1.678-2.146c-0.175-0.174-0.265-0.416-0.248-0.662
			c0.018-0.246,0.142-0.473,0.339-0.621c3.212-2.408,6.099-5.274,7.921-7.864c0.333-0.518,0.63-1.046,0.888-1.586
			c0.146-0.304,0.449-0.484,0.768-0.484c0.108,0,0.219,0.021,0.325,0.064c1.249,0.517,2.187,0.998,3.342,1.715l0.209,0.138
			c0.231,0.157,0.372,0.417,0.374,0.697s-0.134,0.543-0.363,0.704l-0.136,0.092c-0.324,0.276-0.676,0.696-1.181,1.444
			c-1.708,2.398-4.846,5.992-8.565,8.937c-0.218,0.181-0.387,0.296-0.502,0.366C353.999,27.927,353.847,27.967,353.697,27.967z
			 M369.335,20.338c-0.195,0-0.385-0.067-0.538-0.192c-0.179-0.146-0.291-0.359-0.31-0.589l-0.258-3.162
			c-0.019-0.23,0.057-0.459,0.21-0.632s0.37-0.277,0.602-0.287c0.534-0.023,2.16-0.093,5.537-0.369l9.952-0.813
			c3.358-0.275,4.915-0.461,5.58-0.541c0.034-0.004,0.069-0.006,0.104-0.006c0.199,0,0.403,0.065,0.555,0.189
			c0.18,0.146,0.312,0.356,0.33,0.587l0.259,3.167c0.019,0.229-0.056,0.455-0.206,0.628c-0.151,0.173-0.365,0.278-0.595,0.291
			c-0.701,0.03-2.253,0.097-5.645,0.374l-9.952,0.813c-3.387,0.277-4.995,0.472-5.523,0.536
			C369.404,20.336,369.37,20.338,369.335,20.338z"/>
		<path fill="#FFFFFF" d="M415.751,52.952c-0.182,0-0.312-0.015-0.425-0.048c-0.271-0.081-0.482-0.291-0.567-0.561
			c-0.017-0.036-0.151-0.333-0.281-0.62c-0.358-0.785-0.764-1.526-1.205-2.203c-0.169-0.259-0.185-0.59-0.039-0.863
			c0.145-0.273,0.427-0.447,0.736-0.452c1.005-0.017,1.953-0.081,3.173-0.214c2.02-0.212,2.456-0.581,2.343-1.974l-0.09-1.1
			l-7.846,0.642c-3.723,0.304-5.517,0.513-6.192,0.591c-0.032,0.004-0.065,0.006-0.099,0.006c-0.196,0-0.39-0.067-0.542-0.192
			c-0.179-0.146-0.293-0.358-0.312-0.588l-0.164-2.017c-0.019-0.23,0.057-0.458,0.209-0.63c0.152-0.173,0.368-0.277,0.599-0.288
			c0.669-0.031,2.444-0.114,6.211-0.422l7.846-0.642l-0.184-2.249L406.1,40.176c-3.289,0.269-4.879,0.459-5.477,0.531
			c-0.034,0.004-0.068,0.006-0.102,0.006c-0.195,0-0.386-0.067-0.538-0.192c-0.179-0.146-0.291-0.359-0.31-0.589l-0.18-2.203
			c-0.019-0.23,0.057-0.458,0.21-0.632c0.152-0.173,0.369-0.277,0.601-0.287c0.602-0.026,2.2-0.097,5.489-0.366l12.822-1.048
			l-0.184-2.249l-7.894,0.646c-3.703,0.303-5.48,0.51-6.149,0.588c-0.033,0.004-0.065,0.006-0.099,0.006
			c-0.195,0-0.387-0.068-0.539-0.193c-0.179-0.146-0.29-0.359-0.309-0.589l-0.156-1.921c-0.019-0.23,0.057-0.458,0.209-0.631
			c0.152-0.173,0.369-0.277,0.6-0.288c0.664-0.031,2.428-0.112,6.162-0.418l7.894-0.645l-0.173-2.105l-6.172,0.504
			c-3.716,0.304-5.572,0.518-6.271,0.599c-0.033,0.003-0.067,0.005-0.102,0.005c-0.212,0-0.432-0.073-0.588-0.212
			c-0.181-0.162-0.311-0.389-0.311-0.632c-0.004-0.396-0.009-1.037-0.099-2.144l-0.211-2.583c-0.089-1.092-0.188-1.724-0.246-2.103
			c-0.037-0.236,0.025-0.495,0.175-0.681s0.368-0.319,0.606-0.334c0.747-0.036,2.605-0.125,6.35-0.431l6.172-0.504l-0.172-2.105
			l-12.057,0.986c-3.405,0.278-5.025,0.471-5.717,0.553c-0.034,0.004-0.067,0.006-0.101,0.006c-0.195,0-0.386-0.067-0.538-0.192
			c-0.18-0.146-0.291-0.359-0.31-0.589l-0.191-2.351c-0.019-0.23,0.057-0.458,0.21-0.631c0.152-0.173,0.369-0.277,0.6-0.287
			c0.688-0.03,2.296-0.102,5.73-0.383l12.057-0.986c-0.117-1.441-0.251-2.426-0.46-3.4c-0.053-0.244,0.005-0.499,0.156-0.696
			s0.383-0.319,0.632-0.332c0.82-0.042,1.798-0.084,2.827-0.084c0.354,0,0.711,0.005,1.074,0.016
			c0.274,0.008,0.527,0.148,0.68,0.375c0.153,0.227,0.188,0.514,0.093,0.771l-0.103,0.257c-0.165,0.603-0.187,1.228-0.066,2.699
			l12.152-0.994c3.426-0.28,5.03-0.471,5.716-0.553c0.033-0.004,0.067-0.006,0.101-0.006c0.195,0,0.386,0.067,0.538,0.192
			c0.179,0.146,0.291,0.359,0.31,0.589l0.191,2.351c0.019,0.23-0.057,0.458-0.21,0.631c-0.152,0.173-0.369,0.277-0.6,0.288
			c-0.691,0.031-2.312,0.104-5.729,0.383l-12.152,0.994l0.172,2.105l6.363-0.521c3.729-0.305,5.526-0.512,6.294-0.601
			c0.033-0.004,0.066-0.006,0.1-0.006c0.21,0,0.423,0.075,0.579,0.214c0.181,0.162,0.3,0.391,0.3,0.633
			c0.004,0.412,0.01,1.052,0.099,2.143l0.211,2.583c0.089,1.092,0.188,1.724,0.246,2.103c0.037,0.236-0.025,0.494-0.175,0.681
			s-0.368,0.319-0.606,0.333c-0.85,0.042-2.679,0.132-6.351,0.432l-6.363,0.521l0.173,2.105l7.75-0.634
			c3.811-0.312,5.634-0.525,6.232-0.595c0.033-0.004,0.065-0.006,0.099-0.006c0.207,0,0.409,0.076,0.565,0.215
			c0.182,0.161,0.285,0.393,0.285,0.635c0.019,0.55,0.06,1.722,0.227,3.768l0.09,1.101c2.164-0.177,3.354-0.333,3.746-0.384
			c0.037-0.005,0.073-0.007,0.11-0.007c0.193,0,0.382,0.066,0.534,0.189c0.181,0.146,0.294,0.36,0.313,0.592l0.181,2.202
			c0.019,0.227-0.055,0.453-0.204,0.625c-0.149,0.173-0.361,0.278-0.589,0.293c-0.003,0-0.104,0.006-0.106,0.006
			c-0.594,0.031-1.725,0.09-3.68,0.217l0.199,2.44c0.181,2.208,0.343,3.472,0.412,4.012c0.029,0.23-0.035,0.474-0.182,0.655
			s-0.358,0.305-0.59,0.324c0,0-3.076,0.25-3.1,0.25c-0.201,0-0.396-0.071-0.551-0.202c-0.172-0.146-0.278-0.354-0.297-0.579
			l-0.06-0.731l-10.096,0.827c0.116,0.841,0.182,1.642,0.24,2.351c0.193,2.366-0.191,3.599-1.37,4.435
			c-1.15,0.773-3.261,1.279-6.66,1.604C416.185,52.934,415.946,52.952,415.751,52.952z M423.939,40.981l10.143-0.83l-0.184-2.249
			l-10.143,0.83L423.939,40.981z M423.45,35.001l10.143-0.83l-0.184-2.249l-10.143,0.83L423.45,35.001z M409.07,25.243l8.659-0.708
			l-0.195-2.392l-8.659,0.708L409.07,25.243z M422.562,24.14l8.851-0.724l-0.195-2.392l-8.851,0.724L422.562,24.14z"/>
	</g>
</g>
<g>
	<g>
		<path fill="none" stroke="#231815" stroke-width="6" d="M272.521,113.836c-0.215,0-0.423-0.082-0.581-0.229
			c-0.175-0.164-0.272-0.394-0.27-0.633c0.156-11.139,2.645-20.579,8.319-31.566c0,0-15.61,1.251-15.633,1.251
			c-0.201,0-0.397-0.071-0.552-0.203c-0.171-0.146-0.278-0.354-0.296-0.58l-0.255-3.186c-0.037-0.468,0.312-0.878,0.779-0.915
			c0,0,20.553-1.646,20.575-1.646c0.201,0,0.397,0.071,0.552,0.203c0.171,0.146,0.278,0.354,0.296,0.579l0.254,3.17
			c0.013,0.157-0.019,0.314-0.09,0.455c-5.129,10.057-7.288,19.64-7.217,32.042c0.002,0.445-0.339,0.817-0.782,0.853
			C277.622,113.43,272.543,113.836,272.521,113.836z"/>
		<path fill="none" stroke="#231815" stroke-width="6" d="M300.659,109.984c-0.194,0-0.385-0.067-0.537-0.191
			c-0.216-0.175-0.462-0.339-0.733-0.486c-0.222-0.121-0.379-0.335-0.428-0.584c-0.048-0.248,0.017-0.506,0.177-0.701
			c2.287-2.795,2.744-5.203,2.223-11.711l-0.282-3.518c-0.099-1.236-0.188-2.118-0.244-2.651c-0.024-0.231,0.047-0.463,0.198-0.641
			s0.369-0.285,0.602-0.298c0.488-0.025,1.292-0.074,2.561-0.176l6.652-0.533c1.262-0.101,2.054-0.18,2.532-0.231
			c0.03-0.003,0.061-0.005,0.091-0.005c0.201,0,0.396,0.071,0.551,0.202c0.178,0.151,0.285,0.368,0.298,0.601
			c0.03,0.536,0.084,1.42,0.183,2.657l0.754,9.401c0.07,0.874,0.163,1.794,0.251,2.661c0.082,0.799,0.155,1.512,0.203,2.119
			c0.088,1.099-0.065,1.696-0.586,2.285c-0.564,0.609-1.331,0.806-3.917,1.013c-0.023,0.002-0.047,0.003-0.07,0.003
			c-0.399,0-0.786-0.271-0.872-0.664c-0.061-0.271-0.147-0.562-0.249-0.843c-0.093-0.256-0.057-0.54,0.096-0.766
			s0.403-0.364,0.675-0.373c0.441-0.016,0.896-0.043,1.429-0.086c0.557-0.045,0.816-0.35,0.772-0.906l-0.336-4.186l-8.542,0.685
			c-0.193,3.481-1.161,5.415-2.767,7.579c-0.138,0.187-0.347,0.308-0.577,0.337C300.729,109.982,300.694,109.984,300.659,109.984z
			 M304.014,96.675c0.065,1.126,0.122,2.133,0.146,3.045l8.304-0.665l-0.243-3.038L304.014,96.675z M303.828,94.354l8.207-0.658
			l-0.232-2.896l-8.207,0.658L303.828,94.354z"/>
		<path fill="none" stroke="#231815" stroke-width="6" d="M328.664,100.042c-0.201,0-0.397-0.071-0.552-0.203
			c-0.172-0.146-0.278-0.355-0.296-0.58l-0.052-0.65c-0.037-0.468,0.312-0.878,0.78-0.915c0,0,5.336-0.426,5.358-0.426
			c0.438,0,0.811,0.337,0.847,0.782l0.053,0.649c0.019,0.225-0.054,0.447-0.2,0.619c-0.146,0.172-0.354,0.279-0.579,0.297
			C334.023,99.615,328.686,100.042,328.664,100.042z"/>
		<path fill="none" stroke="#231815" stroke-width="6" d="M342.346,108.239c-0.201,0-0.397-0.071-0.552-0.203
			c-0.172-0.146-0.278-0.354-0.296-0.58l-0.235-2.946c-0.037-0.468,0.312-0.878,0.779-0.915l6.329-0.507l-2.087-26.031
			c-1.57,1.271-3.497,2.445-5.571,3.396c-0.112,0.051-0.233,0.077-0.354,0.077c-0.123,0-0.245-0.026-0.359-0.08
			c-0.227-0.105-0.395-0.305-0.461-0.545l-0.897-3.264c-0.113-0.414,0.099-0.847,0.495-1.011c2.515-1.042,4.96-2.567,7.268-4.535
			c0.136-0.116,0.306-0.187,0.483-0.201c0,0,3.803-0.304,3.825-0.304c0.201,0,0.396,0.072,0.552,0.203
			c0.171,0.146,0.278,0.354,0.296,0.58l2.506,31.259c0,0,6.041-0.483,6.063-0.483c0.201,0,0.397,0.071,0.552,0.203
			c0.172,0.146,0.278,0.354,0.296,0.58l0.235,2.947c0.037,0.468-0.312,0.878-0.779,0.915
			C360.433,106.792,342.369,108.239,342.346,108.239z"/>
		<path fill="none" stroke="#231815" stroke-width="6" d="M367.656,106.209c-0.438,0-0.811-0.338-0.847-0.782l-0.258-3.217
			c-0.011-0.129,0.009-0.258,0.056-0.377c1.812-4.649,4.586-8.895,9.274-14.195c4.332-4.881,5.327-6.841,5.074-9.99
			c-0.236-2.949-1.983-4.709-4.673-4.709c-0.169,0-0.342,0.007-0.519,0.021c-3.777,0.303-4.518,3.95-4.623,6.097
			c-0.012,0.236-0.121,0.457-0.303,0.609c-0.154,0.129-0.348,0.199-0.547,0.199c-0.035,0-0.07-0.002-0.106-0.007l-4.343-0.546
			c-0.456-0.058-0.784-0.468-0.74-0.926c0.57-5.894,4.45-9.697,10.378-10.172c0.466-0.038,0.922-0.056,1.368-0.056
			c6.016,0,9.878,3.379,10.332,9.039c0.333,4.147-1.217,7.29-6.379,12.937c-4.752,4.992-6.865,7.83-8.088,10.857
			c0,0,15.611-1.251,15.634-1.251c0.201,0,0.397,0.071,0.552,0.203c0.171,0.146,0.278,0.354,0.296,0.58l0.247,3.09
			c0.037,0.468-0.312,0.878-0.779,0.915C388.663,104.529,367.678,106.209,367.656,106.209z"/>
		<path fill="none" stroke="#231815" stroke-width="6" d="M401.664,101.886c-0.193,0-0.383-0.066-0.534-0.189
			c-0.219-0.177-0.467-0.341-0.738-0.489c-0.222-0.121-0.378-0.335-0.427-0.584c-0.048-0.248,0.017-0.505,0.177-0.701
			c2.287-2.794,2.744-5.201,2.222-11.71l-0.281-3.518c-0.099-1.235-0.188-2.117-0.244-2.65c-0.024-0.231,0.047-0.463,0.198-0.641
			s0.369-0.285,0.602-0.298c0.487-0.025,1.291-0.074,2.562-0.177l6.651-0.533c1.261-0.101,2.053-0.18,2.532-0.231
			c0.03-0.003,0.061-0.005,0.091-0.005c0.201,0,0.396,0.071,0.551,0.203c0.178,0.151,0.286,0.368,0.299,0.602
			c0.028,0.535,0.082,1.419,0.181,2.655l0.754,9.402c0.07,0.868,0.163,1.781,0.251,2.644c0.083,0.816,0.155,1.528,0.204,2.137
			c0.087,1.101-0.066,1.698-0.587,2.285c-0.568,0.615-1.299,0.803-3.917,1.012c-0.022,0.002-0.046,0.003-0.069,0.003
			c-0.4,0-0.788-0.272-0.874-0.666c-0.059-0.269-0.146-0.559-0.247-0.838c-0.094-0.256-0.059-0.54,0.094-0.766
			c0.151-0.226,0.402-0.365,0.674-0.375c0.493-0.019,0.947-0.048,1.432-0.087c0.19-0.016,0.451-0.073,0.611-0.261
			s0.176-0.453,0.16-0.643l-0.336-4.188l-8.541,0.686c-0.193,3.479-1.16,5.413-2.765,7.578c-0.139,0.186-0.347,0.308-0.576,0.337
			C401.735,101.884,401.7,101.886,401.664,101.886z M405.017,88.578c0.066,1.127,0.123,2.133,0.147,3.047l8.303-0.666l-0.243-3.039
			L405.017,88.578z M404.832,86.257l8.206-0.658l-0.232-2.895l-8.206,0.657L404.832,86.257z"/>
	</g>
	<g>
		<path fill="none" stroke="#231815" stroke-width="3" d="M271.104,112.419c-0.215,0-0.423-0.082-0.581-0.229
			c-0.175-0.164-0.272-0.394-0.27-0.633c0.156-11.139,2.645-20.579,8.319-31.566c0,0-15.61,1.251-15.633,1.251
			c-0.201,0-0.397-0.071-0.552-0.203c-0.171-0.146-0.278-0.354-0.296-0.58l-0.255-3.186c-0.037-0.468,0.312-0.878,0.779-0.915
			c0,0,20.553-1.647,20.575-1.647c0.201,0,0.397,0.072,0.552,0.203c0.171,0.146,0.278,0.355,0.296,0.58l0.254,3.17
			c0.013,0.157-0.019,0.314-0.09,0.455c-5.129,10.057-7.288,19.64-7.217,32.042c0.002,0.445-0.339,0.817-0.782,0.853
			C276.205,112.013,271.126,112.419,271.104,112.419z"/>
		<path fill="none" stroke="#231815" stroke-width="3" d="M299.242,108.567c-0.194,0-0.385-0.067-0.537-0.191
			c-0.216-0.175-0.462-0.339-0.733-0.486c-0.222-0.121-0.379-0.335-0.428-0.584c-0.048-0.248,0.017-0.506,0.177-0.701
			c2.287-2.795,2.744-5.203,2.223-11.711l-0.282-3.518c-0.099-1.236-0.188-2.118-0.244-2.651c-0.024-0.231,0.047-0.463,0.198-0.641
			s0.369-0.285,0.602-0.298c0.488-0.025,1.292-0.074,2.561-0.176l6.652-0.533c1.262-0.101,2.054-0.18,2.532-0.231
			c0.03-0.003,0.061-0.005,0.091-0.005c0.201,0,0.396,0.071,0.551,0.202c0.178,0.151,0.285,0.368,0.298,0.601
			c0.03,0.536,0.084,1.42,0.183,2.657l0.754,9.401c0.07,0.874,0.163,1.794,0.251,2.661c0.082,0.799,0.155,1.512,0.203,2.119
			c0.088,1.099-0.065,1.696-0.586,2.285c-0.564,0.609-1.331,0.806-3.917,1.013c-0.023,0.002-0.047,0.003-0.07,0.003
			c-0.399,0-0.786-0.271-0.872-0.664c-0.061-0.271-0.147-0.562-0.249-0.843c-0.093-0.256-0.057-0.54,0.096-0.766
			s0.403-0.364,0.675-0.373c0.441-0.016,0.896-0.043,1.429-0.086c0.557-0.045,0.816-0.35,0.772-0.906l-0.336-4.186l-8.542,0.685
			c-0.193,3.481-1.161,5.415-2.767,7.579c-0.138,0.187-0.347,0.308-0.577,0.337C299.312,108.565,299.277,108.567,299.242,108.567z
			 M302.597,95.258c0.065,1.126,0.122,2.133,0.146,3.045l8.304-0.665l-0.243-3.038L302.597,95.258z M302.411,92.937l8.207-0.658
			l-0.232-2.896l-8.207,0.658L302.411,92.937z"/>
		<path fill="none" stroke="#231815" stroke-width="3" d="M327.247,98.625c-0.201,0-0.397-0.071-0.552-0.203
			c-0.172-0.146-0.278-0.355-0.296-0.58l-0.052-0.65c-0.037-0.468,0.312-0.878,0.78-0.915c0,0,5.336-0.426,5.358-0.426
			c0.438,0,0.811,0.337,0.847,0.782l0.053,0.649c0.019,0.225-0.054,0.447-0.2,0.619c-0.146,0.172-0.354,0.279-0.579,0.297
			C332.606,98.198,327.269,98.625,327.247,98.625z"/>
		<path fill="none" stroke="#231815" stroke-width="3" d="M340.929,106.822c-0.201,0-0.397-0.071-0.552-0.203
			c-0.172-0.146-0.278-0.354-0.296-0.58l-0.235-2.946c-0.037-0.468,0.312-0.878,0.779-0.915l6.329-0.507l-2.087-26.031
			c-1.57,1.271-3.497,2.445-5.571,3.396c-0.112,0.051-0.233,0.077-0.354,0.077c-0.123,0-0.245-0.026-0.359-0.08
			c-0.227-0.105-0.395-0.305-0.461-0.545l-0.897-3.264c-0.113-0.414,0.099-0.847,0.495-1.011c2.515-1.042,4.96-2.567,7.268-4.535
			c0.136-0.116,0.306-0.187,0.483-0.201c0,0,3.803-0.304,3.825-0.304c0.201,0,0.396,0.072,0.552,0.203
			c0.171,0.146,0.278,0.354,0.296,0.58l2.506,31.259c0,0,6.041-0.483,6.063-0.483c0.201,0,0.397,0.071,0.552,0.203
			c0.172,0.146,0.278,0.354,0.296,0.58l0.235,2.947c0.037,0.468-0.312,0.878-0.779,0.915
			C359.016,105.375,340.952,106.822,340.929,106.822z"/>
		<path fill="none" stroke="#231815" stroke-width="3" d="M366.239,104.792c-0.438,0-0.811-0.338-0.847-0.782l-0.258-3.217
			c-0.011-0.129,0.009-0.258,0.056-0.377c1.812-4.649,4.586-8.895,9.274-14.195c4.332-4.881,5.327-6.841,5.074-9.99
			c-0.236-2.949-1.983-4.709-4.673-4.709c-0.169,0-0.342,0.007-0.519,0.021c-3.777,0.303-4.518,3.95-4.623,6.098
			c-0.012,0.236-0.121,0.457-0.303,0.609c-0.154,0.129-0.348,0.199-0.547,0.199c-0.035,0-0.07-0.002-0.106-0.007l-4.343-0.546
			c-0.456-0.058-0.784-0.468-0.74-0.926c0.57-5.895,4.45-9.698,10.378-10.173c0.466-0.038,0.922-0.056,1.368-0.056
			c6.016,0,9.878,3.379,10.332,9.04c0.333,4.147-1.217,7.29-6.379,12.937c-4.752,4.992-6.865,7.83-8.088,10.857
			c0,0,15.611-1.251,15.634-1.251c0.201,0,0.397,0.071,0.552,0.203c0.171,0.146,0.278,0.354,0.296,0.58l0.247,3.09
			c0.037,0.468-0.312,0.878-0.779,0.915C387.246,103.112,366.261,104.792,366.239,104.792z"/>
		<path fill="none" stroke="#231815" stroke-width="3" d="M400.247,100.469c-0.193,0-0.383-0.066-0.534-0.189
			c-0.219-0.177-0.467-0.341-0.738-0.489c-0.222-0.121-0.378-0.335-0.427-0.584c-0.048-0.248,0.017-0.505,0.177-0.701
			c2.287-2.794,2.744-5.201,2.222-11.71l-0.281-3.518c-0.099-1.235-0.188-2.117-0.244-2.65c-0.024-0.231,0.047-0.463,0.198-0.641
			s0.369-0.285,0.602-0.298c0.487-0.025,1.291-0.074,2.562-0.177l6.651-0.533c1.261-0.101,2.053-0.18,2.532-0.231
			c0.03-0.003,0.061-0.005,0.091-0.005c0.201,0,0.396,0.071,0.551,0.203c0.178,0.151,0.286,0.368,0.299,0.602
			c0.028,0.535,0.082,1.419,0.181,2.655l0.754,9.402c0.07,0.868,0.163,1.781,0.251,2.644c0.083,0.816,0.155,1.528,0.204,2.137
			c0.087,1.101-0.066,1.698-0.587,2.285c-0.568,0.615-1.299,0.803-3.917,1.012c-0.022,0.002-0.046,0.003-0.069,0.003
			c-0.4,0-0.788-0.272-0.874-0.666c-0.059-0.269-0.146-0.559-0.247-0.838c-0.094-0.256-0.059-0.54,0.094-0.766
			c0.151-0.226,0.402-0.365,0.674-0.375c0.493-0.019,0.947-0.048,1.432-0.087c0.19-0.016,0.451-0.073,0.611-0.261
			s0.176-0.453,0.16-0.643l-0.336-4.188l-8.541,0.686c-0.193,3.479-1.16,5.413-2.765,7.578c-0.139,0.186-0.347,0.308-0.576,0.337
			C400.318,100.467,400.283,100.469,400.247,100.469z M403.6,87.161c0.066,1.127,0.123,2.133,0.147,3.047l8.303-0.666l-0.243-3.039
			L403.6,87.161z M403.415,84.84l8.206-0.658l-0.232-2.895l-8.206,0.657L403.415,84.84z"/>
	</g>
	<g>
		<path fill="#FFFFFF" d="M271.104,112.419c-0.215,0-0.423-0.082-0.581-0.229c-0.175-0.164-0.272-0.394-0.27-0.633
			c0.156-11.139,2.645-20.579,8.319-31.566c0,0-15.61,1.251-15.633,1.251c-0.201,0-0.397-0.071-0.552-0.203
			c-0.171-0.146-0.278-0.354-0.296-0.58l-0.255-3.186c-0.037-0.468,0.312-0.878,0.779-0.915c0,0,20.553-1.647,20.575-1.647
			c0.201,0,0.397,0.072,0.552,0.203c0.171,0.146,0.278,0.355,0.296,0.58l0.254,3.17c0.013,0.157-0.019,0.314-0.09,0.455
			c-5.129,10.057-7.288,19.64-7.217,32.042c0.002,0.445-0.339,0.817-0.782,0.853C276.205,112.013,271.126,112.419,271.104,112.419z"
			/>
		<path fill="#FFFFFF" d="M299.242,108.567c-0.194,0-0.385-0.067-0.537-0.191c-0.216-0.175-0.462-0.339-0.733-0.486
			c-0.222-0.121-0.379-0.335-0.428-0.584c-0.048-0.248,0.017-0.506,0.177-0.701c2.287-2.795,2.744-5.203,2.223-11.711l-0.282-3.518
			c-0.099-1.236-0.188-2.118-0.244-2.651c-0.024-0.231,0.047-0.463,0.198-0.641s0.369-0.285,0.602-0.298
			c0.488-0.025,1.292-0.074,2.561-0.176l6.652-0.533c1.262-0.101,2.054-0.18,2.532-0.231c0.03-0.003,0.061-0.005,0.091-0.005
			c0.201,0,0.396,0.071,0.551,0.202c0.178,0.151,0.285,0.368,0.298,0.601c0.03,0.536,0.084,1.42,0.183,2.657l0.754,9.401
			c0.07,0.874,0.163,1.794,0.251,2.661c0.082,0.799,0.155,1.512,0.203,2.119c0.088,1.099-0.065,1.696-0.586,2.285
			c-0.564,0.609-1.331,0.806-3.917,1.013c-0.023,0.002-0.047,0.003-0.07,0.003c-0.399,0-0.786-0.271-0.872-0.664
			c-0.061-0.271-0.147-0.562-0.249-0.843c-0.093-0.256-0.057-0.54,0.096-0.766s0.403-0.364,0.675-0.373
			c0.441-0.016,0.896-0.043,1.429-0.086c0.557-0.045,0.816-0.35,0.772-0.906l-0.336-4.186l-8.542,0.685
			c-0.193,3.481-1.161,5.415-2.767,7.579c-0.138,0.187-0.347,0.308-0.577,0.337C299.312,108.565,299.277,108.567,299.242,108.567z
			 M302.597,95.258c0.065,1.126,0.122,2.133,0.146,3.045l8.304-0.665l-0.243-3.038L302.597,95.258z M302.411,92.937l8.207-0.658
			l-0.232-2.896l-8.207,0.658L302.411,92.937z"/>
		<path fill="#FFFFFF" d="M327.247,98.625c-0.201,0-0.397-0.071-0.552-0.203c-0.172-0.146-0.278-0.355-0.296-0.58l-0.052-0.65
			c-0.037-0.468,0.312-0.878,0.78-0.915c0,0,5.336-0.426,5.358-0.426c0.438,0,0.811,0.337,0.847,0.782l0.053,0.649
			c0.019,0.225-0.054,0.447-0.2,0.619c-0.146,0.172-0.354,0.279-0.579,0.297C332.606,98.198,327.269,98.625,327.247,98.625z"/>
		<path fill="#FFFFFF" d="M340.929,106.822c-0.201,0-0.397-0.071-0.552-0.203c-0.172-0.146-0.278-0.354-0.296-0.58l-0.235-2.946
			c-0.037-0.468,0.312-0.878,0.779-0.915l6.329-0.507l-2.087-26.031c-1.57,1.271-3.497,2.445-5.571,3.396
			c-0.112,0.051-0.233,0.077-0.354,0.077c-0.123,0-0.245-0.026-0.359-0.08c-0.227-0.105-0.395-0.305-0.461-0.545l-0.897-3.264
			c-0.113-0.414,0.099-0.847,0.495-1.011c2.515-1.042,4.96-2.567,7.268-4.535c0.136-0.116,0.306-0.187,0.483-0.201
			c0,0,3.803-0.304,3.825-0.304c0.201,0,0.396,0.072,0.552,0.203c0.171,0.146,0.278,0.354,0.296,0.58l2.506,31.259
			c0,0,6.041-0.483,6.063-0.483c0.201,0,0.397,0.071,0.552,0.203c0.172,0.146,0.278,0.354,0.296,0.58l0.235,2.947
			c0.037,0.468-0.312,0.878-0.779,0.915C359.016,105.375,340.952,106.822,340.929,106.822z"/>
		<path fill="#FFFFFF" d="M366.239,104.792c-0.438,0-0.811-0.338-0.847-0.782l-0.258-3.217c-0.011-0.129,0.009-0.258,0.056-0.377
			c1.812-4.649,4.586-8.895,9.274-14.195c4.332-4.881,5.327-6.841,5.074-9.99c-0.236-2.949-1.983-4.709-4.673-4.709
			c-0.169,0-0.342,0.007-0.519,0.021c-3.777,0.303-4.518,3.95-4.623,6.098c-0.012,0.236-0.121,0.457-0.303,0.609
			c-0.154,0.129-0.348,0.199-0.547,0.199c-0.035,0-0.07-0.002-0.106-0.007l-4.343-0.546c-0.456-0.058-0.784-0.468-0.74-0.926
			c0.57-5.895,4.45-9.698,10.378-10.173c0.466-0.038,0.922-0.056,1.368-0.056c6.016,0,9.878,3.379,10.332,9.04
			c0.333,4.147-1.217,7.29-6.379,12.937c-4.752,4.992-6.865,7.83-8.088,10.857c0,0,15.611-1.251,15.634-1.251
			c0.201,0,0.397,0.071,0.552,0.203c0.171,0.146,0.278,0.354,0.296,0.58l0.247,3.09c0.037,0.468-0.312,0.878-0.779,0.915
			C387.246,103.112,366.261,104.792,366.239,104.792z"/>
		<path fill="#FFFFFF" d="M400.247,100.469c-0.193,0-0.383-0.066-0.534-0.189c-0.219-0.177-0.467-0.341-0.738-0.489
			c-0.222-0.121-0.378-0.335-0.427-0.584c-0.048-0.248,0.017-0.505,0.177-0.701c2.287-2.794,2.744-5.201,2.222-11.71l-0.281-3.518
			c-0.099-1.235-0.188-2.117-0.244-2.65c-0.024-0.231,0.047-0.463,0.198-0.641s0.369-0.285,0.602-0.298
			c0.487-0.025,1.291-0.074,2.562-0.177l6.651-0.533c1.261-0.101,2.053-0.18,2.532-0.231c0.03-0.003,0.061-0.005,0.091-0.005
			c0.201,0,0.396,0.071,0.551,0.203c0.178,0.151,0.286,0.368,0.299,0.602c0.028,0.535,0.082,1.419,0.181,2.655l0.754,9.402
			c0.07,0.868,0.163,1.781,0.251,2.644c0.083,0.816,0.155,1.528,0.204,2.137c0.087,1.101-0.066,1.698-0.587,2.285
			c-0.568,0.615-1.299,0.803-3.917,1.012c-0.022,0.002-0.046,0.003-0.069,0.003c-0.4,0-0.788-0.272-0.874-0.666
			c-0.059-0.269-0.146-0.559-0.247-0.838c-0.094-0.256-0.059-0.54,0.094-0.766c0.151-0.226,0.402-0.365,0.674-0.375
			c0.493-0.019,0.947-0.048,1.432-0.087c0.19-0.016,0.451-0.073,0.611-0.261s0.176-0.453,0.16-0.643l-0.336-4.188l-8.541,0.686
			c-0.193,3.479-1.16,5.413-2.765,7.578c-0.139,0.186-0.347,0.308-0.576,0.337C400.318,100.467,400.283,100.469,400.247,100.469z
			 M403.6,87.161c0.066,1.127,0.123,2.133,0.147,3.047l8.303-0.666l-0.243-3.039L403.6,87.161z M403.415,84.84l8.206-0.658
			l-0.232-2.895l-8.206,0.657L403.415,84.84z"/>
	</g>
</g>
</svg>
