<?xml version="1.0" encoding="utf-8"?>
<!-- Generator: Adobe Illustrator 16.0.4, SVG Export Plug-In . SVG Version: 6.00 Build 0)  -->
<!DOCTYPE svg PUBLIC "-//W3C//DTD SVG 1.1//EN" "http://www.w3.org/Graphics/SVG/1.1/DTD/svg11.dtd">
<svg version="1.1" id="レイヤー_1" xmlns="http://www.w3.org/2000/svg" xmlns:xlink="http://www.w3.org/1999/xlink" x="0px"
	 y="0px" width="438.775px" height="154.082px" viewBox="0 0 438.775 154.082" enable-background="new 0 0 438.775 154.082"
	 xml:space="preserve">
<g>
	<g>
		<g>
			<path fill="#E02A16" d="M97.512,67.899c0.67-0.229,1.195,0.602,1.208-0.229c1.42,1.557-2.387,2.326-4.067,2.723
				C94.942,67.702,97.533,70.425,97.512,67.899z"/>
			<path fill="#E02A16" d="M78.97,73.426c-0.677,2.712-5.28,1.846-6.961,2.817C73.744,73.955,76.152,74.506,78.97,73.426z"/>
			<path fill="#E02A16" d="M66.383,77.345c-0.994,0.566-6.893,3.738-9.24,1.825C59.68,79.697,63.994,76.893,66.383,77.345z"/>
			<path fill="#E02A16" d="M7.563,90.189c0.852-1.307,3.829-0.971,5.517-1.632C12.221,89.862,9.243,89.521,7.563,90.189z"/>
			<path fill="#E02A16" d="M132.44,65.256c0.035,0.696-1.171,0.385-1.035,1.163c-2.888,0.197-4.27,1.614-7.159,1.806
				C127.25,66.703,129.422,66.106,132.44,65.256z"/>
			<path fill="#E02A16" d="M161.383,61.945c-5.557,0.024-13.646,4.599-19.739,3.564C147.283,65.487,156.396,59.926,161.383,61.945z"
				/>
			<path fill="#E02A16" d="M92.782,73.682c0.192,1.487-1.848,1.187-3.034,1.568C90.579,73.702,91.536,74.735,92.782,73.682z"/>
			<path fill="#E02A16" d="M118.339,72.26c-1.036,0.5-3.304,0.004-3.53,1.156C114.185,72.118,118.284,70.776,118.339,72.26z"/>
			<path fill="#E02A16" d="M86.185,78.386c-1.228,1.011-3.316,1.335-5.041,1.949C81.342,78.622,85.58,78.505,86.185,78.386z"/>
			<path fill="#E02A16" d="M77.931,80.958c-0.136,1.885-3.278,1.37-4.542,2.351C73.884,81.716,76.616,81.904,77.931,80.958z"/>
			<path fill="#E02A16" d="M71.196,82.754c-2.711,2.329-7.511,3.129-9.939,2.453C64.035,84.182,68.481,83.991,71.196,82.754z"/>
			<path fill="#E02A16" d="M149.201,70.463c-0.815,1.078-3.151,0.915-4.25,1.76C145.613,70.102,147.544,70.59,149.201,70.463z"/>
			<path fill="#E02A16" d="M68.417,87.707c-0.028,0.773-1.182,0.652-0.432,2.044c-2.899,0.346-5.069,1.273-7.031,2.363
				C62.73,89.397,64.978,88.368,68.417,87.707z"/>
			<path fill="#E02A16" d="M108.736,85.315c-0.045,2.875-6.275,1.867-7.444,2.387c-0.884,2.08-4.266,2.144-6.457,3.187
				C95.92,86.059,103.238,87.238,108.736,85.315z"/>
			<path fill="#E02A16" d="M78.838,92.033c-3.956,2.42-12.836,5.12-16.953,4.792C67.062,95.462,72.761,93.656,78.838,92.033z"/>
			<path fill="#E02A16" d="M110.699,91.29c1.592,1.576-3.624,1.06-4.14,2.251C106.021,91.247,110.47,92.971,110.699,91.29z"/>
			<path fill="#E02A16" d="M344.149,5.708c-0.391-0.167,0.169-1.465-0.557-1.39c-1.094,0.106-1.832,1.477-3.216,1.779
				c-7.883,1.739-17.039,1.632-25.76,3.824c-4.368,1.055-8.944,2.143-13.475,3.133c-19.846,4.475-37.958,8.956-56.567,11.053
				c-0.539,0.088-0.245,0.887-0.669,1.074c-2.855,0.394-5.74,0.73-8.628,1.093c-2.883,0.378-5.777,0.762-8.669,1.203
				c-5.784,0.882-11.561,1.995-17.219,3.748c-7.965,2.464-16.385,3.431-24.915,5.696c-4.932,1.325-9.647,3.728-14.574,4.978
				c-7.547,1.885-15.743,3.594-23.693,5.428c-7.94,1.873-15.631,3.879-22.177,6.297c-8.087,2.973-17.424,2.828-26.214,4.933
				c-5.157,1.238-10.007,4.059-14.857,5.292c-4.293,1.097-7.951,1.63-11.492,3.209C60.145,72.133,48.906,76.642,37.7,80.11
				c-4.181,1.285-9.507,1.725-12.066,4.399c-3.637-0.64-7.889,3.612-12.251,3.494c12.289-1.749,34.832-7.51,45.798-11.197
				c9.01,1.599,21.199-8.086,27.208-3.841c-0.374-2.93-2.38-0.1-2.867-1.888c11.003-3.882,19.597-3.851,29.962-9.139
				c0.13,1.264-0.537,1.711,1.072,1.266c1.031-1.343,0.108-0.31-0.354-1.887c9.93-2.408,19.39-4.826,30.872-6.688
				c-0.724,0.348-2.547-0.196-1.844,1.314c6.302-2.151,12.99-1.648,19.93-5.041c0.912,0.497,2.047,0.615,2.438,2.001
				c0.347,1.766-2.836,0.631-2.488,2.396c0.917,1.211,1.529-2.149,2.824-0.504c0.068,0.907,0.64,0.962,0.739,1.813
				c-8.411,2.533-18.981,3.941-24.885,7.408c7.861-1.795,17.417-4.251,23.927-5.773c-0.613,1.112-2.599,1.092-3.375,2.066
				c-0.267,2.1,2.099-0.295,2.268,1.059c-1.004,7.458-7.101,8.261-12.881,11.562c-5.164-1.738-10.025,2.338-15.098,3.755
				c-4.373,1.219-9.94-0.083-12.683,3.31c-2.727-0.599-4.371,2.405-4.912,4.833c0.189,1.617,1.704-0.383,2.047,2.056
				c-3.446-1.307-3.461,3.479-2.187,3.832c-1.002-0.009-0.709,1.027-1.915,0.851c-0.138-0.687,1.408-1.815-0.267-1.417
				c-1.758-0.204-3.505,0.191-3.741,2.176c-6.612,3.288-15.67,4.274-23.983,7.024c-1.205,0.665-1.065-1.058-1.874-1.099
				c-4.086,5.515-18.018,1.292-22.472,8.305c-10.133,2.977-15.398,5.678-25.405,8.006c0.981-0.489,1.475-0.101,1.483,1.172
				c-1.646,0.44-2.041-0.388-3.192,0.643c-0.003-0.662,0.384-1.017,0.018-1.963c-1.945,0.838-5.806,0.174-6.189,2.242
				c1.503-0.463,4.022,0.599,5.183-1.058c0.748,1.075,0.096,1.513,0.78,1.801c3.304-0.825,6.33-3.96,9.693-3.418
				c-0.188,0.896-1.615,1.13-0.421,2.037c1.196-0.971,2.556-0.309,3.1-1.107c-0.667,0.279-1.766-1.545-0.283-1.412
				c1.208,1.58,1.743,1.115,4.062,1.631c-7.965,4.751-16.438,4.155-27.828,8.078c0.901,0.58,3.243-2.033,5.175-1.057
				c-0.49-0.246-1.098,0.714-1.098,0.714c3.589,0,7.662-1.569,11.552-2.349c9.717-1.97,25.156-4.234,32.662-8.949
				c2.364,1.876,4.646-0.699,7.193-1.402c8.534-2.349,18.631-4.847,27.138-7.662c3.889-1.296,11.075-0.801,16.317-3.578
				c0.692-0.37,1.076-1.608,1.737-1.791c0.729-0.202,1.812,0.605,2.579,0.5c1.038-0.144,2.099-1.31,3.028-1.534
				c5.199-1.257,11.515-1.829,16.42-3.026c16.892-4.07,33.141-8.82,51.041-12.927c5.102,1.085,8.986-2.55,13.397-1.325
				c1.011-0.363,0.973-1.612,2.169-1.817c6.222-1.559,11.34-2.248,15.404-1.543c0.356-0.512-0.16-1.769,0.973-1.621
				c1.491-0.271,2.616,0.065,3.766,0.362c2.512-5.251,8.185,1.023,11.74-3.827c0.074,0.474,0.148,0.946,0.224,1.424
				c2.141-2.093,4.287-1.075,6.421-0.984c1.518,0.064,2.324-1.629,4.196-2.102c0.653-0.161,2.073,0.618,2.954,0.517
				c1.184-0.126,1.047-1.353,2.008-0.308c3.062-3.224,10.063-4.122,12.704-2.888c-1.367-1.508,3.405-1.09,4.21-2.047
				c1.042-0.104,0.715,1.978,2.212,1.144c6.058-1.134,12.066-2.487,18.152-3.862c6.084-1.34,12.238-2.59,18.598-3.724
				c3.179-0.56,6.407-1.074,9.699-1.52c3.288-0.416,6.63-0.688,10.053-0.904c3.422-0.207,6.919-0.318,10.503-0.308
				c1.791,0.006,3.604,0.042,5.441,0.111c1.827,0.103,3.665,0.278,5.532,0.469c1.653-1.8,2.868-4.063,3.887-6.546
				c1.218-0.219,1.722-1.17,2.697-1.643c0.7-1.053,1.103-2.417,1.775-3.504c9.624-7.081,9.635-23.431,1.298-30.896
				c-2.378-2.136-5.788-3.834-9.53-4.977c-3.725-1.122-7.844-1.776-11.439-1.6C347.831,4.639,343.917,5.611,344.149,5.708z
				 M145.305,53.609c0.485,1,3.318-2.054,3.804,0.29C147.467,52.637,146.417,55.766,145.305,53.609z M188.591,70.309
				c-2.741,2.855-11.035,3.164-14.627,4.02C177.884,71.466,183.884,71.82,188.591,70.309z M139.484,85.433
				c0.727-0.018,1.064,0.644,1.149,1.737c-1.145-0.294-2.565-0.111-4.097,0.268C135.721,85.305,139.564,86.969,139.484,85.433z
				 M107.276,97.315c-1.023,2.345-4.308,2.602-6.447,3.175c-5.652,1.524-11.898,3.228-17.331,4.818
				C88.617,100.623,100.685,99.462,107.276,97.315z"/>
			<path fill="#E02A16" d="M125.61,62.122c0.845-1.409-0.845-0.631-1.472-1.193c3.536-2.13,12.418-2.685,14.569-4.638
				c1.176-0.981,2.618,2.038,2.419-0.446c0.741,3.679-4.386,1.723-5.528,3.948c3.126-0.077,8.633-0.894,11.372-1.608
				c0.144,2.298-4.133,1.25-6.362,1.661c-2.122,0.39-3.985,1.756-5.958,1.584c-0.805-0.268-1.335-1.009-2.276-1.043
				C132.929,61.178,128.981,61.08,125.61,62.122z"/>
			<path fill="#E02A16" d="M53.606,88.676c1.145-1.524,2.907-1.412,5.832-2.131C60.883,86.355,56.523,88.453,53.606,88.676z"/>
			<path fill="#E02A16" d="M79.33,92.424c2.215-1.557,7.602-2.866,3.917-1.246C81.878,91.78,81.86,91.873,79.33,92.424z"/>
			<path fill="#E02A16" d="M67.495,76.633c1.147,0.077,3.073-1.222,3.71-0.234c1.068,0.862,0.095,1.031-1.022,1.173
				c2.437,1.206,6.55-1.989,10.542-1.554c-9.827,3.327-24.042,7.857-34.381,9.701c7.041-2.316,15.627-5.284,22.015-6.812
				C68.43,77.513,67.554,77.802,67.495,76.633z"/>
		</g>
	</g>
</g>
<g>
	<g>
		<polygon fill="#D22D1A" points="423.3,92.115 429.376,86.357 423.3,80.599 427.52,73.371 420.064,69.564 422.062,61.436 
			413.836,59.89 413.472,51.527 405.141,52.35 402.44,44.426 394.682,47.566 389.846,40.734 383.289,45.939 376.732,40.734 
			371.897,47.566 364.139,44.426 361.438,52.349 353.107,51.526 352.743,59.889 346.539,61.055 345.581,53.419 336.367,53.579 
			332.696,45.125 323.9,47.878 317.986,40.812 310.325,45.939 302.666,40.812 296.75,47.878 287.955,45.125 284.285,53.578 
			275.07,53.419 273.923,62.563 265.033,64.995 266.5,74.093 258.658,78.935 262.645,87.245 256.49,94.105 262.645,100.964 
			258.658,109.275 266.5,114.117 265.031,123.214 273.922,125.646 275.07,134.79 284.284,134.63 287.955,143.085 296.75,140.331 
			302.665,147.397 310.325,142.271 317.985,147.397 323.901,140.331 332.695,143.085 336.366,134.632 345.58,134.79 
			346.728,125.646 355.617,123.215 355.256,120.975 361.438,120.365 364.138,128.288 371.896,125.148 376.732,131.98 
			383.289,126.775 389.846,131.98 394.681,125.148 402.439,128.289 405.141,120.365 413.471,121.187 413.836,112.825 
			422.063,111.278 420.064,103.15 427.52,99.343 		"/>
	</g>
</g>
<g>
	<g>
		<path fill="none" stroke="#231815" stroke-width="6" d="M46.138,82.818c-0.201,0-0.396-0.071-0.55-0.202
			c-0.172-0.146-0.279-0.354-0.297-0.579l-0.263-3.217c-0.01-0.128,0.008-0.257,0.055-0.377c1.805-4.65,4.572-8.9,9.252-14.209
			c4.323-4.889,5.316-6.851,5.058-9.999c-0.241-2.944-1.987-4.702-4.671-4.702c-0.173,0-0.349,0.007-0.528,0.022
			c-3.776,0.309-4.511,3.958-4.613,6.105c-0.011,0.236-0.121,0.458-0.302,0.61c-0.154,0.13-0.349,0.2-0.548,0.2
			c-0.035,0-0.07-0.002-0.104-0.007l-4.344-0.539c-0.457-0.057-0.786-0.466-0.742-0.924c0.562-5.896,4.435-9.705,10.362-10.189
			c0.474-0.039,0.939-0.058,1.393-0.058c6.001,0,9.859,3.373,10.321,9.022c0.34,4.148-1.206,7.294-6.358,12.946
			c-4.745,5.002-6.854,7.844-8.07,10.871c0,0,15.61-1.275,15.634-1.275c0.438,0,0.81,0.337,0.847,0.781l0.253,3.09
			c0.018,0.225-0.053,0.448-0.199,0.62s-0.354,0.279-0.579,0.297C67.143,81.104,46.161,82.818,46.138,82.818z"/>
		<path fill="none" stroke="#231815" stroke-width="6" d="M88.237,79.376c-0.438,0-0.81-0.337-0.847-0.781l-0.401-4.907
			c-0.018-0.225,0.053-0.448,0.199-0.62s0.354-0.279,0.579-0.297c0,0,5.193-0.424,5.217-0.424c0.438,0,0.81,0.337,0.847,0.781
			l0.401,4.907c0.018,0.225-0.053,0.448-0.199,0.62s-0.354,0.279-0.579,0.297C93.454,78.953,88.26,79.376,88.237,79.376z"/>
		<path fill="none" stroke="#231815" stroke-width="6" d="M113.206,79.058c-0.195,0-0.385-0.067-0.538-0.192
			c-0.179-0.146-0.291-0.359-0.31-0.589l-0.27-3.308c-0.019-0.23,0.057-0.458,0.21-0.632c0.152-0.173,0.369-0.277,0.6-0.287
			c0.68-0.03,2.271-0.101,5.683-0.379l11.674-0.954l-0.79-9.665l-6.076,0.497c-3.743,0.306-5.561,0.518-6.245,0.597
			c-0.033,0.004-0.065,0.005-0.098,0.005c-0.196,0-0.387-0.067-0.54-0.192c-0.178-0.146-0.29-0.358-0.309-0.588l-0.263-3.214
			c-0.019-0.23,0.057-0.458,0.209-0.63c0.152-0.173,0.368-0.277,0.598-0.289c0.697-0.033,2.529-0.12,6.26-0.425l6.076-0.497
			l-0.673-8.229l-9.187,0.751c-3.611,0.295-5.324,0.494-6.055,0.579c-0.034,0.004-0.068,0.006-0.103,0.006
			c-0.199,0-0.406-0.065-0.558-0.19c-0.179-0.146-0.312-0.355-0.332-0.585l-0.271-3.31c-0.019-0.227,0.055-0.451,0.203-0.624
			c0.148-0.172,0.359-0.278,0.586-0.294c0.813-0.039,2.54-0.121,6.134-0.415l24.065-1.968c3.682-0.301,5.404-0.504,6.053-0.581
			c0.033-0.004,0.066-0.006,0.1-0.006c0.195,0,0.386,0.067,0.539,0.192c0.179,0.146,0.29,0.359,0.309,0.589l0.271,3.308
			c0.019,0.23-0.057,0.458-0.209,0.631s-0.369,0.277-0.599,0.288c-0.659,0.03-2.409,0.112-6.068,0.411l-9.521,0.778l0.673,8.229
			l6.603-0.54c3.778-0.309,5.57-0.519,6.244-0.598c0.033-0.004,0.066-0.006,0.099-0.006c0.195,0,0.386,0.067,0.539,0.193
			c0.178,0.146,0.29,0.358,0.309,0.588l0.263,3.214c0.019,0.23-0.057,0.458-0.209,0.63c-0.152,0.173-0.368,0.277-0.599,0.289
			c-0.688,0.033-2.515,0.12-6.258,0.426l-6.604,0.54l0.791,9.665l12.296-1.005c3.359-0.275,4.944-0.464,5.621-0.544
			c0.033-0.004,0.067-0.006,0.101-0.006c0.195,0,0.385,0.067,0.538,0.192c0.179,0.146,0.291,0.359,0.31,0.589l0.271,3.307
			c0.019,0.23-0.057,0.458-0.209,0.631s-0.37,0.277-0.601,0.288c-0.689,0.031-2.289,0.102-5.636,0.375l-29.328,2.398
			c-3.437,0.281-5,0.469-5.668,0.549C113.273,79.056,113.239,79.058,113.206,79.058z M134.071,44.256
			c-0.154,0-0.31-0.042-0.449-0.129c-3.129-1.951-6.345-3.433-9.831-4.53c-0.27-0.084-0.479-0.298-0.56-0.568
			c-0.081-0.271-0.021-0.564,0.158-0.782c0,0,2.2-2.68,2.221-2.705c0.164-0.194,0.403-0.302,0.65-0.302
			c0.068,0,0.138,0.008,0.206,0.025c2.951,0.909,6.723,2.178,10.403,4.116c0.219,0.115,0.377,0.32,0.433,0.562
			s0.003,0.495-0.143,0.694l-2.402,3.272C134.591,44.135,134.333,44.256,134.071,44.256z"/>
		<path fill="none" stroke="#231815" stroke-width="6" d="M180.588,74.525c-4.726,0-7.853-2.347-8.162-6.124
			c-0.347-4.244,2.903-7.27,8.279-7.709c0.69-0.056,1.384-0.085,2.064-0.085c0.538,0,1.122,0.018,1.74,0.063v0
			c-0.544-3.071-0.875-5.992-1.104-8.193c-0.114-0.959-0.203-1.583-0.369-2.293c-0.06-0.258,0.003-0.529,0.171-0.733
			c0.162-0.197,0.403-0.311,0.657-0.311c0.01,0,0.02,0,0.029,0c1.704,0.059,2.826,0.181,4.141,0.453
			c0.222,0.046,0.433,0.182,0.557,0.371c0.124,0.189,0.185,0.423,0.138,0.645c-0.023,0.11-0.07,0.332-0.167,0.725
			c-0.141,0.577-0.15,1.131-0.031,1.977c0.225,2.748,0.524,4.777,1.191,8.09c3.808,1.184,6.121,2.045,8.968,3.741
			c0.357,0.212,0.508,0.651,0.357,1.039c-0.567,1.459-1.093,2.605-1.705,3.718c-0.117,0.213-0.32,0.366-0.558,0.419
			c-0.062,0.014-0.125,0.021-0.188,0.021c-0.176,0-0.35-0.055-0.496-0.16c-2.265-1.627-4.158-2.537-5.988-3.416
			c0.19,2.321-0.474,4.166-1.972,5.483c-1.422,1.25-3.561,2.001-6.356,2.229c-0.408,0.033-0.807,0.05-1.195,0.05H180.588z
			 M181.812,64.778c-0.267,0-0.54,0.01-0.818,0.033c-2.058,0.168-4.197,1.077-4.03,3.123c0.041,0.496,0.164,2.006,3.28,2.006
			c0.304,0,0.628-0.014,0.975-0.042c1.253-0.103,2.281-0.516,2.973-1.194c0.668-0.656,0.992-1.56,0.911-2.543
			c-0.034-0.415-0.054-0.666-0.125-0.953l0,0C184.16,65.008,183.062,64.778,181.812,64.778z M165.818,68.179
			c-0.132,0-0.263-0.031-0.383-0.091c-1.238-0.624-2.626-1.485-3.455-2.143c-0.321-0.255-0.415-0.702-0.223-1.063
			c3.235-6.484,5.302-11.68,6.935-17.416l0,0c-1.817,0.245-3.311,0.367-4.755,0.485c-1.03,0.084-1.425,0.117-2.514,0.163
			c-0.012,0-0.024,0.001-0.037,0.001c-0.393,0-0.737-0.271-0.827-0.656c-0.228-0.66-0.447-1.656-0.677-3.104
			c-0.039-0.244,0.03-0.492,0.188-0.681c0.159-0.189,0.391-0.299,0.638-0.303c1.376-0.022,2.324-0.066,3.494-0.161
			c1.742-0.143,3.198-0.301,5.482-0.689c0.417-2.098,0.619-3.78,0.806-5.46c0.116-1.312,0.106-2.047,0.045-2.936
			c-0.017-0.244,0.073-0.483,0.245-0.657c0.16-0.162,0.378-0.252,0.604-0.252c0.017,0,0.034,0,0.051,0.001
			c1.949,0.117,3.496,0.245,4.706,0.492c0.026,0.001,0.09,0.013,0.138,0.023c0.254,0.055,0.469,0.222,0.584,0.455
			c0.115,0.233,0.117,0.505,0.006,0.74c-0.056,0.119-0.134,0.232-0.261,0.382c-0.225,0.357-0.391,0.756-0.62,1.832
			c-0.098,0.477-0.199,1.009-0.305,1.572l-0.858-0.04l0.836,0.158c-0.15,0.791-0.311,1.638-0.488,2.47
			c1.944-0.362,4.124-0.995,5.61-1.462c0.083-0.026,0.169-0.04,0.255-0.04c0.143,0,0.284,0.036,0.411,0.106
			c0.204,0.112,0.352,0.303,0.411,0.528c0.26,0.988,0.475,2.102,0.621,3.223c0.055,0.417-0.205,0.812-0.609,0.927
			c-2.448,0.702-4.627,1.203-7.385,1.836l-0.287,0.066c-2.766,9.603-4.973,15.749-7.615,21.212
			c-0.099,0.206-0.277,0.362-0.493,0.435C166.002,68.164,165.91,68.179,165.818,68.179z M196.721,49.386
			c-0.145,0-0.288-0.037-0.417-0.109c-2.229-1.252-5.606-3.034-9.181-4.047c-0.237-0.067-0.434-0.235-0.539-0.458
			c-0.104-0.223-0.106-0.481-0.006-0.707l0.206-0.462c0.433-0.975,0.843-1.897,1.227-2.533c0.16-0.264,0.464-0.448,0.77-0.448
			c0.046,0,0.092,0.004,0.137,0.013c3.288,0.62,7.323,2.396,9.78,3.729c0.371,0.201,0.539,0.644,0.393,1.041
			c-0.446,1.217-1.153,2.665-1.622,3.535c-0.108,0.201-0.292,0.35-0.512,0.413C196.88,49.375,196.8,49.386,196.721,49.386z"/>
		<path fill="none" stroke="#231815" stroke-width="6" d="M229.436,71.54c-0.203,0-0.4-0.073-0.555-0.207
			c-0.172-0.148-0.278-0.36-0.293-0.587c0-0.004-0.002-0.045-0.003-0.049c-0.053-0.961-0.188-3.39-0.518-7.423l-0.191-2.344
			L213.569,62.1c-3.338,0.273-4.938,0.463-5.621,0.544c-0.034,0.004-0.067,0.006-0.101,0.006c-0.195,0-0.386-0.067-0.538-0.192
			c-0.179-0.146-0.291-0.358-0.31-0.589l-0.251-3.069c-0.019-0.23,0.057-0.458,0.21-0.632c0.152-0.173,0.369-0.277,0.6-0.287
			c0.686-0.03,2.292-0.101,5.635-0.375l1.148-0.094l-0.548-6.699c-0.169-2.064-0.325-3.305-0.4-3.901
			c-0.029-0.231,0.036-0.479,0.183-0.66c0.147-0.18,0.36-0.308,0.592-0.326c0.838-0.041,2.605-0.125,6.272-0.425l6.124-0.501
			l-0.521-6.363l-9.808,0.803c-1.406,2.561-3.101,5.017-5.039,7.298c-0.13,0.17-0.246,0.31-0.331,0.407
			c-0.156,0.178-0.38,0.283-0.616,0.289c-0.008,0-0.016,0-0.023,0c-0.229,0-0.448-0.092-0.608-0.256
			c-0.138-0.141-0.296-0.315-0.394-0.423c-0.667-0.771-1.323-1.369-2.021-1.844c-0.205-0.14-0.338-0.361-0.367-0.607
			c-0.028-0.246,0.053-0.492,0.221-0.674c3.18-3.432,5.596-7.315,7.181-11.542c0.393-1.027,0.665-1.947,0.834-2.819
			c0.078-0.404,0.432-0.689,0.834-0.689c0.033,0,0.066,0.002,0.1,0.006c1.661,0.194,2.89,0.38,3.869,0.585
			c0.139,0.034,0.226,0.061,0.294,0.085c0.267,0.096,0.469,0.318,0.538,0.593s-0.003,0.566-0.193,0.777l-0.214,0.247
			c-0.306,0.316-0.63,0.706-1.052,1.816l-0.789,2.135l19.76-1.616c3.717-0.304,5.52-0.514,6.198-0.593
			c0.033-0.004,0.066-0.006,0.099-0.006c0.195,0,0.387,0.068,0.539,0.193c0.179,0.146,0.29,0.359,0.309,0.589l0.234,2.879
			c0.019,0.229-0.057,0.457-0.209,0.63s-0.368,0.277-0.599,0.288c-0.685,0.032-2.504,0.118-6.21,0.421l-7.368,0.603l0.521,6.363
			l5.119-0.418c3.753-0.307,5.556-0.518,6.149-0.587c0.033-0.004,0.065-0.006,0.099-0.006c0.195,0,0.386,0.067,0.539,0.193
			c0.179,0.146,0.29,0.359,0.309,0.589l0.238,2.923c0.019,0.229-0.057,0.457-0.209,0.63s-0.368,0.277-0.599,0.288
			c-0.602,0.028-2.43,0.114-6.163,0.419l-5.119,0.418l0.571,6.986l10.143-0.829c3.355-0.274,4.942-0.464,5.62-0.545
			c0.034-0.004,0.068-0.006,0.102-0.006c0.195,0,0.386,0.067,0.538,0.192c0.179,0.146,0.291,0.359,0.31,0.59l0.25,3.069
			c0.019,0.23-0.058,0.458-0.21,0.631c-0.153,0.173-0.37,0.277-0.601,0.287c-0.69,0.031-2.308,0.104-5.634,0.375l-10.142,0.829
			l0.191,2.344c0.338,4.13,0.599,6.534,0.696,7.439c0.025,0.229-0.043,0.461-0.189,0.638c-0.146,0.177-0.357,0.292-0.585,0.311
			C233.154,71.239,229.458,71.54,229.436,71.54z M219.413,56.998l8.086-0.661l-0.571-6.986l-8.086,0.661L219.413,56.998z"/>
		<path fill="none" stroke="#231815" stroke-width="6" d="M258.029,69.058c-0.204,0-0.401-0.073-0.557-0.208
			c-0.173-0.15-0.278-0.362-0.292-0.59l-0.009-0.142c-0.076-1.228-0.271-4.384-0.707-9.718l-1.694-20.717
			c-0.456-5.573-0.789-8.828-0.898-9.898c-0.023-0.232,0.045-0.505,0.197-0.682c0.152-0.177,0.367-0.325,0.6-0.336l0.141-0.006
			c0.801-0.039,2.482-0.121,5.157-0.339l6.603-0.54c2.387-0.195,3.755-0.363,4.412-0.443c0.034-0.004,0.069-0.006,0.104-0.006
			c0.201,0,0.396,0.071,0.552,0.203c0.181,0.154,0.289,0.377,0.298,0.615l-0.846,0.138l0.85-0.035
			c0.026,0.64,0.081,1.971,0.257,4.125l0.485,5.933c0.179,2.188,0.34,3.492,0.417,4.118c0.029,0.236-0.035,0.522-0.188,0.704
			c-0.153,0.181-0.37,0.339-0.607,0.349c-0.665,0.028-2.051,0.085-4.426,0.279l-7.751,0.634l1.268,15.502
			c0.436,5.323,0.756,8.471,0.876,9.657l0.02,0.191c0.022,0.227-0.048,0.454-0.193,0.628c-0.146,0.175-0.356,0.285-0.584,0.303
			C261.511,68.776,258.053,69.058,258.029,69.058z M259.843,39.05l8.277-0.677l-0.234-2.871l-8.277,0.677L259.843,39.05z
			 M259.343,32.926l8.277-0.677l-0.231-2.823l-8.277,0.677L259.343,32.926z M288.318,66.042c-0.354,0-0.672-0.22-0.796-0.552
			c-0.071-0.188-0.167-0.532-0.252-0.843c-0.237-0.788-0.508-1.527-0.798-2.174c-0.117-0.263-0.094-0.566,0.062-0.808
			s0.423-0.388,0.71-0.39c1.079-0.006,2.026-0.066,2.631-0.116c1.559-0.127,1.931-0.544,1.81-2.026l-1.562-19.09l-7.846,0.642
			c-2.945,0.241-4.356,0.417-4.888,0.483c-0.035,0.004-0.07,0.007-0.105,0.007c-0.194,0-0.384-0.066-0.536-0.19
			c-0.18-0.146-0.292-0.358-0.312-0.589c-0.002-0.023-0.004-0.083-0.004-0.107c-0.02-0.554-0.06-1.716-0.232-3.826l-0.539-6.603
			c-0.171-2.079-0.321-3.25-0.395-3.813c-0.03-0.237,0.036-0.508,0.189-0.69c0.154-0.182,0.374-0.324,0.612-0.333
			c0.535-0.021,1.959-0.077,4.902-0.317l7.033-0.575c2.931-0.24,4.339-0.414,4.939-0.487c0.035-0.004,0.07-0.007,0.104-0.007
			c0.196,0,0.389,0.068,0.541,0.195c0.181,0.149,0.292,0.365,0.308,0.598c0,0.003,0.005,0.098,0.005,0.101
			c0.043,0.85,0.139,2.751,0.399,5.925l1.607,19.665c0.151,1.843,0.38,3.903,0.563,5.559c0.167,1.499,0.318,2.876,0.406,3.947
			c0.192,2.348-0.067,3.487-1.027,4.515c-1.015,1.08-2.588,1.512-6.736,1.852L288.989,66c-0.321,0.026-0.509,0.041-0.666,0.042
			C288.322,66.042,288.32,66.042,288.318,66.042z M280.991,37.321l8.851-0.724l-0.234-2.871l-8.851,0.724L280.991,37.321z
			 M280.49,31.197l8.851-0.724l-0.23-2.823l-8.851,0.724L280.49,31.197z M268.719,64.86c-0.206,0-0.405-0.075-0.562-0.212
			c-0.173-0.152-0.277-0.368-0.288-0.598c-0.03-0.631-0.121-2.551-0.597-8.364l-0.345-4.21c-0.27-3.304-0.459-4.895-0.54-5.574
			c-0.028-0.242,0.046-0.501,0.207-0.683s0.391-0.304,0.634-0.304c0.62-0.025,1.937-0.076,4.726-0.304l6.459-0.528
			c2.802-0.229,4.105-0.392,4.731-0.47c0.036-0.004,0.071-0.007,0.106-0.007c0.363,0,0.7,0.229,0.817,0.58
			c0.029,0.087,0.045,0.187,0.045,0.278c0.022,0.534,0.085,2.046,0.307,4.763l0.388,4.737c0.313,3.831,0.565,6.559,0.748,8.109
			c0.027,0.229-0.04,0.459-0.187,0.638s-0.358,0.29-0.589,0.309c0,0-2.837,0.231-2.86,0.231c-0.201,0-0.396-0.071-0.551-0.202
			c-0.172-0.146-0.278-0.354-0.297-0.579l-0.095-1.162l-8.756,0.716l0.138,1.688c0.038,0.468-0.311,0.879-0.778,0.917
			C271.581,64.629,268.742,64.86,268.719,64.86z M271.925,58.388l8.755-0.716l-0.273-3.35l-8.756,0.716L271.925,58.388z
			 M271.369,51.594l8.756-0.716l-0.263-3.206l-8.755,0.716L271.369,51.594z"/>
		<path fill="none" stroke="#231815" stroke-width="6" d="M310.809,64.838c-0.213,0-0.419-0.08-0.576-0.225
			c-0.172-0.158-0.271-0.38-0.274-0.613c-0.038-0.787-0.122-2.534-0.365-5.514l-0.575-7.032c-0.095-1.16-0.172-2.667-0.247-4.122
			l-0.102-1.867c-1.311,1.482-2.363,2.592-3.411,3.599L305,49.306c-0.159,0.147-0.366,0.228-0.579,0.228
			c-0.056,0-0.11-0.005-0.166-0.017c-0.268-0.053-0.494-0.232-0.607-0.48l-0.064-0.146c-0.487-1.112-0.916-1.966-1.515-2.731
			c-0.272-0.349-0.232-0.848,0.093-1.149c3.332-3.076,6.426-6.973,8.49-10.692c0.251-0.509,0.522-1.123,0.769-1.74
			c0.088-0.22,0.263-0.394,0.483-0.479c0.1-0.038,0.203-0.057,0.307-0.057c0.128,0,0.256,0.029,0.374,0.087
			c1.171,0.574,2.076,1.082,2.936,1.646c0.116,0.086,0.175,0.132,0.221,0.171c0.188,0.158,0.298,0.39,0.303,0.636
			c0.004,0.246-0.099,0.481-0.28,0.646c-0.327,0.295-0.599,0.665-0.805,1.097l-0.086,0.155c-0.595,1.041-1.21,2.118-1.86,3.135
			l1.509,18.467c0.253,3.091,0.468,4.924,0.538,5.527c0.026,0.229-0.041,0.459-0.187,0.638c-0.146,0.178-0.359,0.29-0.589,0.309
			C314.283,64.557,310.832,64.838,310.809,64.838z M329.208,62.789c-0.331-0.006-0.646-0.206-0.779-0.51
			c-0.079-0.181-0.192-0.542-0.292-0.869c-0.322-0.953-0.641-1.729-0.968-2.36c-0.135-0.26-0.126-0.571,0.022-0.824
			c0.148-0.252,0.417-0.41,0.71-0.418c1.196-0.032,2.331-0.095,3.679-0.205c1.633-0.133,2.076-0.516,1.979-1.703l-1.432-17.511
			l-7.606,0.622c-3.578,0.292-5.309,0.494-6.048,0.58c-0.034,0.004-0.068,0.006-0.104,0.006c-0.2,0-0.409-0.065-0.562-0.19
			c-0.179-0.146-0.317-0.355-0.336-0.585l-0.254-3.12c-0.019-0.232,0.059-0.462,0.214-0.635c0.154-0.174,0.374-0.276,0.607-0.284
			c0.781-0.037,2.524-0.12,6.102-0.413l13.684-1.119c3.701-0.303,5.435-0.508,6.004-0.576c0.034-0.004,0.067-0.006,0.101-0.006
			c0.195,0,0.386,0.067,0.538,0.192c0.179,0.146,0.291,0.359,0.31,0.589l0.254,3.116c0.019,0.23-0.057,0.458-0.21,0.631
			c-0.152,0.173-0.369,0.277-0.6,0.288c-0.575,0.026-2.326,0.104-6.018,0.406l-1.005,0.082l0.739,9.042
			c0.199,2.441,0.407,4.386,0.574,5.95l0.012,0.105c0.126,1.172,0.228,2.121,0.297,2.977c0.214,2.089,0.083,3.65-1.235,4.917
			c-0.923,0.939-2.462,1.306-7.466,1.767l-0.137,0.011c-0.342,0.028-0.561,0.045-0.737,0.045
			C329.24,62.79,329.214,62.789,329.208,62.789z M304.204,35.208c-0.268,0-0.53-0.126-0.695-0.36
			c-0.118-0.167-0.27-0.414-0.363-0.567c-0.483-0.8-1.026-1.491-1.673-2.136c-0.175-0.174-0.265-0.416-0.248-0.662
			c0.018-0.246,0.142-0.473,0.339-0.621c3.21-2.406,6.098-5.272,7.922-7.864c0.335-0.522,0.632-1.051,0.887-1.586
			c0.146-0.304,0.449-0.484,0.768-0.484c0.108,0,0.219,0.021,0.324,0.064c1.251,0.516,2.188,0.997,3.344,1.714l0.212,0.141
			c0.23,0.158,0.369,0.419,0.37,0.699s-0.136,0.542-0.365,0.701l-0.13,0.089c-0.328,0.278-0.68,0.698-1.185,1.446
			c-1.71,2.401-4.848,5.995-8.565,8.937c-0.217,0.18-0.384,0.294-0.498,0.363C304.509,35.168,304.355,35.208,304.204,35.208z
			 M319.842,27.581c-0.195,0-0.385-0.067-0.538-0.192c-0.179-0.146-0.291-0.359-0.31-0.59l-0.258-3.163
			c-0.019-0.23,0.058-0.458,0.21-0.632c0.153-0.173,0.371-0.277,0.602-0.287c0.527-0.022,2.132-0.09,5.537-0.369l9.952-0.813
			c3.365-0.275,4.92-0.462,5.583-0.542c0.034-0.004,0.069-0.006,0.104-0.006c0.198,0,0.401,0.065,0.554,0.19
			c0.179,0.146,0.31,0.356,0.328,0.587l0.259,3.167c0.019,0.229-0.057,0.457-0.208,0.63c-0.151,0.173-0.367,0.277-0.597,0.289
			c-0.698,0.03-2.25,0.097-5.641,0.374l-9.951,0.814c-3.388,0.277-4.996,0.472-5.524,0.536
			C319.91,27.578,319.876,27.581,319.842,27.581z"/>
		<path fill="none" stroke="#231815" stroke-width="6" d="M366.258,60.194c-0.21,0-0.353-0.02-0.478-0.066
			c-0.244-0.092-0.434-0.291-0.513-0.54c-0.014-0.027-0.125-0.274-0.241-0.532c-0.396-0.87-0.802-1.612-1.247-2.294
			c-0.169-0.259-0.184-0.59-0.038-0.863c0.145-0.273,0.427-0.446,0.736-0.452c1.007-0.018,1.956-0.082,3.172-0.214
			c2.02-0.212,2.457-0.582,2.344-1.974l-0.09-1.1l-7.848,0.642c-3.743,0.306-5.525,0.514-6.196,0.593
			c-0.033,0.004-0.065,0.006-0.099,0.006c-0.195,0-0.386-0.067-0.539-0.193c-0.179-0.146-0.29-0.358-0.309-0.588l-0.165-2.017
			c-0.019-0.23,0.057-0.458,0.209-0.631s0.368-0.277,0.599-0.288c0.669-0.031,2.446-0.114,6.211-0.422l7.847-0.641l-0.184-2.249
			l-12.823,1.049c-3.279,0.268-4.876,0.459-5.478,0.531c-0.033,0.004-0.067,0.006-0.101,0.006c-0.195,0-0.386-0.067-0.538-0.192
			c-0.179-0.146-0.291-0.359-0.31-0.589l-0.18-2.203c-0.019-0.23,0.057-0.458,0.21-0.632c0.152-0.173,0.369-0.277,0.601-0.287
			c0.602-0.026,2.201-0.097,5.49-0.366l12.822-1.048l-0.184-2.249l-7.895,0.646c-3.712,0.304-5.482,0.511-6.149,0.589
			c-0.033,0.004-0.065,0.006-0.099,0.006c-0.195,0-0.387-0.068-0.539-0.193c-0.179-0.146-0.29-0.359-0.309-0.589l-0.156-1.921
			c-0.019-0.229,0.057-0.458,0.209-0.63c0.152-0.173,0.368-0.277,0.599-0.288c0.678-0.032,2.472-0.116,6.163-0.418l7.895-0.645
			l-0.173-2.105l-6.172,0.504c-3.719,0.304-5.575,0.519-6.274,0.599c-0.033,0.004-0.067,0.006-0.102,0.006
			c-0.212,0-0.431-0.074-0.587-0.213c-0.181-0.161-0.31-0.389-0.31-0.632c-0.004-0.396-0.009-1.037-0.099-2.144l-0.211-2.583
			c-0.091-1.111-0.189-1.741-0.249-2.118c-0.039-0.246,0.03-0.505,0.192-0.694c0.161-0.189,0.396-0.308,0.645-0.308
			c0.695-0.034,2.554-0.123,6.298-0.429l6.172-0.504l-0.172-2.105l-12.057,0.985c-3.393,0.277-5.017,0.47-5.71,0.552
			c-0.033,0.004-0.066,0.006-0.101,0.006c-0.195,0-0.389-0.067-0.541-0.192c-0.179-0.146-0.295-0.358-0.313-0.588l-0.192-2.351
			c-0.019-0.23,0.058-0.458,0.21-0.631s0.369-0.277,0.601-0.288c0.695-0.031,2.325-0.105,5.729-0.383l12.058-0.986
			c-0.117-1.441-0.251-2.426-0.46-3.4c-0.053-0.244,0.005-0.499,0.156-0.696s0.383-0.319,0.632-0.332
			c0.82-0.042,1.798-0.084,2.827-0.084c0.354,0,0.71,0.005,1.073,0.016c0.274,0.008,0.527,0.148,0.68,0.375
			c0.153,0.227,0.188,0.514,0.093,0.771l-0.104,0.257c-0.164,0.605-0.187,1.231-0.066,2.698l12.153-0.994
			c3.407-0.279,5.025-0.471,5.716-0.553c0.034-0.004,0.067-0.006,0.101-0.006c0.195,0,0.386,0.067,0.538,0.192
			c0.179,0.146,0.291,0.359,0.31,0.589l0.192,2.351c0.019,0.23-0.057,0.458-0.21,0.632c-0.152,0.173-0.369,0.277-0.6,0.287
			c-0.624,0.028-2.281,0.101-5.73,0.383l-12.152,0.994l0.172,2.105l6.363-0.52c3.698-0.303,5.51-0.511,6.284-0.6
			c0.033-0.004,0.066-0.006,0.1-0.006c0.419,0,0.814,0.298,0.879,0.716c0.006,0.043,0.011,0.105,0.011,0.149
			c0.003,0.376,0.008,1.017,0.098,2.124l0.212,2.584c0.09,1.103,0.188,1.736,0.247,2.114c0.037,0.24-0.028,0.496-0.183,0.683
			c-0.154,0.188-0.379,0.312-0.621,0.321c-0.807,0.04-2.624,0.128-6.33,0.431l-6.363,0.52l0.172,2.105l7.751-0.634
			c3.811-0.312,5.633-0.524,6.232-0.595c0.033-0.004,0.065-0.006,0.099-0.006c0.207,0,0.409,0.076,0.565,0.215
			c0.182,0.161,0.285,0.393,0.285,0.635c0.019,0.55,0.06,1.722,0.227,3.768l0.09,1.101c1.937-0.158,3.066-0.295,3.747-0.385
			c0.037-0.005,0.073-0.007,0.11-0.007c0.193,0,0.382,0.066,0.534,0.189c0.182,0.146,0.295,0.36,0.313,0.592l0.18,2.202
			c0.019,0.228-0.055,0.453-0.204,0.625c-0.149,0.172-0.361,0.278-0.589,0.292c-0.002,0-0.101,0.006-0.103,0.006
			c-0.595,0.031-1.727,0.09-3.684,0.217l0.199,2.44c0.183,2.228,0.344,3.477,0.412,4.01c0.029,0.23-0.035,0.475-0.182,0.656
			s-0.358,0.306-0.59,0.325c0,0-3.076,0.25-3.1,0.25c-0.201,0-0.396-0.071-0.551-0.202c-0.172-0.146-0.278-0.354-0.297-0.579
			l-0.06-0.731l-10.096,0.826c0.116,0.842,0.182,1.643,0.24,2.351c0.194,2.365-0.19,3.599-1.37,4.436
			c-1.149,0.773-3.261,1.279-6.66,1.604C366.691,60.176,366.452,60.194,366.258,60.194z M374.445,48.223l10.143-0.829l-0.184-2.249
			l-10.144,0.829L374.445,48.223z M373.956,42.243l10.143-0.829l-0.184-2.249l-10.143,0.829L373.956,42.243z M359.576,32.485
			l8.66-0.708l-0.195-2.392l-8.66,0.708L359.576,32.485z M373.068,31.382l8.852-0.724l-0.196-2.392l-8.852,0.724L373.068,31.382z"/>
	</g>
	<g>
		<path fill="none" stroke="#231815" stroke-width="3" d="M44.721,81.401c-0.201,0-0.396-0.071-0.55-0.202
			c-0.172-0.146-0.279-0.354-0.297-0.579l-0.263-3.217c-0.01-0.128,0.008-0.257,0.055-0.377c1.805-4.65,4.572-8.9,9.252-14.209
			c4.323-4.889,5.316-6.851,5.058-9.999c-0.241-2.944-1.987-4.702-4.671-4.702c-0.173,0-0.349,0.007-0.528,0.022
			c-3.776,0.309-4.511,3.958-4.613,6.105c-0.011,0.236-0.121,0.458-0.302,0.61c-0.154,0.13-0.349,0.2-0.548,0.2
			c-0.035,0-0.07-0.002-0.104-0.007l-4.344-0.539c-0.457-0.057-0.786-0.466-0.742-0.924c0.562-5.896,4.435-9.705,10.362-10.189
			c0.474-0.039,0.939-0.058,1.393-0.058c6.001,0,9.859,3.373,10.321,9.022c0.34,4.148-1.206,7.294-6.358,12.946
			c-4.745,5.002-6.854,7.844-8.07,10.871c0,0,15.61-1.275,15.634-1.275c0.438,0,0.81,0.337,0.847,0.781l0.253,3.09
			c0.018,0.225-0.053,0.448-0.199,0.62s-0.354,0.279-0.579,0.297C65.726,79.687,44.744,81.401,44.721,81.401z"/>
		<path fill="none" stroke="#231815" stroke-width="3" d="M86.819,77.959c-0.438,0-0.81-0.337-0.847-0.781l-0.401-4.907
			c-0.018-0.225,0.053-0.448,0.199-0.62s0.354-0.279,0.579-0.297c0,0,5.193-0.424,5.217-0.424c0.438,0,0.81,0.337,0.847,0.781
			l0.401,4.907c0.018,0.225-0.053,0.448-0.199,0.62s-0.354,0.279-0.579,0.297C92.036,77.535,86.843,77.959,86.819,77.959z"/>
		<path fill="none" stroke="#231815" stroke-width="3" d="M111.788,77.641c-0.195,0-0.385-0.067-0.538-0.192
			c-0.179-0.146-0.291-0.359-0.31-0.589l-0.27-3.308c-0.019-0.23,0.057-0.458,0.21-0.632c0.152-0.173,0.369-0.277,0.6-0.287
			c0.68-0.03,2.271-0.101,5.683-0.379l11.674-0.954l-0.79-9.665l-6.076,0.497c-3.743,0.306-5.561,0.518-6.245,0.597
			c-0.033,0.004-0.065,0.005-0.098,0.005c-0.196,0-0.387-0.067-0.54-0.192c-0.178-0.146-0.29-0.358-0.309-0.588l-0.263-3.214
			c-0.019-0.23,0.057-0.458,0.209-0.63c0.152-0.173,0.368-0.277,0.598-0.289c0.697-0.033,2.529-0.12,6.26-0.425l6.076-0.497
			l-0.673-8.229L117.8,49.42c-3.611,0.295-5.324,0.494-6.055,0.579c-0.034,0.004-0.068,0.006-0.103,0.006
			c-0.199,0-0.406-0.065-0.558-0.19c-0.179-0.146-0.312-0.355-0.332-0.585l-0.271-3.31c-0.019-0.227,0.055-0.451,0.203-0.624
			c0.148-0.172,0.359-0.278,0.586-0.294c0.813-0.039,2.54-0.121,6.134-0.415l24.065-1.968c3.682-0.301,5.404-0.504,6.053-0.581
			c0.033-0.004,0.066-0.006,0.1-0.006c0.195,0,0.386,0.067,0.539,0.192c0.179,0.146,0.29,0.359,0.309,0.589l0.271,3.308
			c0.019,0.23-0.057,0.458-0.209,0.631s-0.369,0.277-0.599,0.288c-0.659,0.03-2.409,0.112-6.068,0.411l-9.521,0.778l0.673,8.229
			l6.603-0.54c3.778-0.309,5.57-0.519,6.244-0.598c0.033-0.004,0.066-0.006,0.099-0.006c0.195,0,0.386,0.067,0.539,0.193
			c0.178,0.146,0.29,0.358,0.309,0.588l0.263,3.214c0.019,0.23-0.057,0.458-0.209,0.63c-0.152,0.173-0.368,0.277-0.599,0.289
			c-0.688,0.033-2.515,0.12-6.258,0.426l-6.604,0.54l0.791,9.665l12.296-1.005c3.359-0.275,4.944-0.464,5.621-0.544
			c0.033-0.004,0.067-0.006,0.101-0.006c0.195,0,0.385,0.067,0.538,0.192c0.179,0.146,0.291,0.359,0.31,0.589l0.271,3.307
			c0.019,0.23-0.057,0.458-0.209,0.631s-0.37,0.277-0.601,0.288c-0.689,0.031-2.289,0.102-5.636,0.375l-29.328,2.398
			c-3.437,0.281-5,0.469-5.668,0.549C111.855,77.639,111.822,77.641,111.788,77.641z M132.654,42.839
			c-0.154,0-0.31-0.042-0.449-0.129c-3.129-1.951-6.345-3.433-9.831-4.53c-0.27-0.084-0.479-0.298-0.56-0.568
			c-0.081-0.271-0.021-0.564,0.158-0.782c0,0,2.2-2.68,2.221-2.705c0.164-0.194,0.403-0.302,0.65-0.302
			c0.068,0,0.138,0.008,0.206,0.025c2.951,0.909,6.723,2.178,10.403,4.116c0.219,0.115,0.377,0.32,0.433,0.562
			s0.003,0.495-0.143,0.694l-2.402,3.272C133.174,42.717,132.916,42.839,132.654,42.839z"/>
		<path fill="none" stroke="#231815" stroke-width="3" d="M179.171,73.108c-4.726,0-7.853-2.347-8.162-6.124
			c-0.347-4.244,2.903-7.27,8.279-7.709c0.69-0.056,1.384-0.085,2.064-0.085c0.538,0,1.122,0.018,1.74,0.063v0
			c-0.544-3.071-0.875-5.992-1.104-8.193c-0.114-0.959-0.203-1.583-0.369-2.293c-0.06-0.258,0.003-0.529,0.171-0.733
			c0.162-0.197,0.403-0.311,0.657-0.311c0.01,0,0.02,0,0.029,0c1.704,0.059,2.826,0.181,4.141,0.453
			c0.222,0.046,0.433,0.182,0.557,0.371c0.124,0.189,0.185,0.423,0.138,0.645c-0.023,0.11-0.07,0.332-0.167,0.725
			c-0.141,0.577-0.15,1.131-0.031,1.977c0.225,2.748,0.524,4.777,1.191,8.09c3.808,1.184,6.121,2.045,8.968,3.741
			c0.357,0.212,0.508,0.651,0.357,1.039c-0.567,1.459-1.093,2.605-1.705,3.718c-0.117,0.213-0.32,0.366-0.558,0.419
			c-0.062,0.014-0.125,0.021-0.188,0.021c-0.176,0-0.35-0.055-0.496-0.16c-2.265-1.627-4.158-2.537-5.988-3.416
			c0.19,2.321-0.474,4.166-1.972,5.483c-1.422,1.25-3.561,2.001-6.356,2.229c-0.408,0.033-0.807,0.05-1.195,0.05H179.171z
			 M180.395,63.361c-0.267,0-0.54,0.01-0.818,0.033c-2.058,0.168-4.197,1.077-4.03,3.123c0.041,0.496,0.164,2.006,3.28,2.006
			c0.304,0,0.628-0.014,0.975-0.042c1.253-0.103,2.281-0.516,2.973-1.194c0.668-0.656,0.992-1.56,0.911-2.543
			c-0.034-0.415-0.054-0.666-0.125-0.953l0,0C182.743,63.59,181.644,63.361,180.395,63.361z M164.4,66.762
			c-0.132,0-0.263-0.031-0.383-0.091c-1.238-0.624-2.626-1.485-3.455-2.143c-0.321-0.255-0.415-0.702-0.223-1.063
			c3.235-6.484,5.302-11.68,6.935-17.416l0,0c-1.817,0.245-3.311,0.367-4.755,0.485c-1.03,0.084-1.425,0.117-2.514,0.163
			c-0.012,0-0.024,0.001-0.037,0.001c-0.393,0-0.737-0.271-0.827-0.656c-0.228-0.66-0.447-1.656-0.677-3.104
			c-0.039-0.244,0.03-0.492,0.188-0.681c0.159-0.189,0.391-0.299,0.638-0.303c1.376-0.022,2.324-0.066,3.494-0.161
			c1.742-0.143,3.198-0.301,5.482-0.689c0.417-2.098,0.619-3.78,0.806-5.46c0.116-1.312,0.106-2.047,0.045-2.936
			c-0.017-0.244,0.073-0.483,0.245-0.657c0.16-0.162,0.378-0.252,0.604-0.252c0.017,0,0.034,0,0.051,0.001
			c1.949,0.117,3.496,0.245,4.706,0.492c0.026,0.001,0.09,0.013,0.138,0.023c0.254,0.055,0.469,0.222,0.584,0.455
			c0.115,0.233,0.117,0.505,0.006,0.74c-0.056,0.119-0.134,0.232-0.261,0.382c-0.225,0.357-0.391,0.756-0.62,1.832
			c-0.098,0.477-0.199,1.009-0.305,1.572l-0.858-0.04l0.836,0.158c-0.15,0.791-0.311,1.638-0.488,2.47
			c1.944-0.362,4.124-0.995,5.61-1.462c0.083-0.026,0.169-0.04,0.255-0.04c0.143,0,0.284,0.036,0.411,0.106
			c0.204,0.112,0.352,0.303,0.411,0.528c0.26,0.988,0.475,2.102,0.621,3.223c0.055,0.417-0.205,0.812-0.609,0.927
			c-2.448,0.702-4.627,1.203-7.385,1.836l-0.287,0.066c-2.766,9.603-4.973,15.749-7.615,21.212
			c-0.099,0.206-0.277,0.362-0.493,0.435C164.584,66.747,164.492,66.762,164.4,66.762z M195.303,47.969
			c-0.145,0-0.288-0.037-0.417-0.109c-2.229-1.252-5.606-3.034-9.181-4.047c-0.237-0.067-0.434-0.235-0.539-0.458
			c-0.104-0.223-0.106-0.481-0.006-0.707l0.206-0.462c0.433-0.975,0.843-1.897,1.227-2.533c0.16-0.264,0.464-0.448,0.77-0.448
			c0.046,0,0.092,0.004,0.137,0.013c3.288,0.62,7.323,2.396,9.78,3.729c0.371,0.201,0.539,0.644,0.393,1.041
			c-0.446,1.217-1.153,2.665-1.622,3.535c-0.108,0.201-0.292,0.35-0.512,0.413C195.462,47.958,195.383,47.969,195.303,47.969z"/>
		<path fill="none" stroke="#231815" stroke-width="3" d="M228.018,70.123c-0.203,0-0.4-0.073-0.555-0.207
			c-0.172-0.148-0.278-0.36-0.293-0.587c0-0.004-0.002-0.045-0.003-0.049c-0.053-0.961-0.188-3.39-0.518-7.423l-0.191-2.344
			l-14.306,1.169c-3.338,0.273-4.938,0.463-5.621,0.544c-0.034,0.004-0.067,0.006-0.101,0.006c-0.195,0-0.386-0.067-0.538-0.192
			c-0.179-0.146-0.291-0.358-0.31-0.589l-0.251-3.069c-0.019-0.23,0.057-0.458,0.21-0.632c0.152-0.173,0.369-0.277,0.6-0.287
			c0.686-0.03,2.292-0.101,5.635-0.375l1.148-0.094l-0.548-6.699c-0.169-2.064-0.325-3.305-0.4-3.901
			c-0.029-0.231,0.036-0.479,0.183-0.66c0.147-0.18,0.36-0.308,0.592-0.326c0.838-0.041,2.605-0.125,6.272-0.425l6.124-0.501
			l-0.521-6.363l-9.808,0.803c-1.406,2.561-3.101,5.017-5.039,7.298c-0.13,0.17-0.246,0.31-0.331,0.407
			c-0.156,0.178-0.38,0.283-0.616,0.289c-0.008,0-0.016,0-0.023,0c-0.229,0-0.448-0.092-0.608-0.256
			c-0.138-0.141-0.296-0.315-0.394-0.423c-0.667-0.771-1.323-1.369-2.021-1.844c-0.205-0.14-0.338-0.361-0.367-0.607
			c-0.028-0.246,0.053-0.492,0.221-0.674c3.18-3.432,5.596-7.315,7.181-11.542c0.393-1.027,0.665-1.947,0.834-2.819
			c0.078-0.404,0.432-0.689,0.834-0.689c0.033,0,0.066,0.002,0.1,0.006c1.661,0.194,2.89,0.38,3.869,0.585
			c0.139,0.034,0.226,0.061,0.294,0.085c0.267,0.096,0.469,0.318,0.538,0.593s-0.003,0.566-0.193,0.777l-0.214,0.247
			c-0.306,0.316-0.63,0.706-1.052,1.816l-0.789,2.135l19.76-1.616c3.718-0.304,5.521-0.514,6.198-0.593
			c0.033-0.004,0.066-0.006,0.099-0.006c0.195,0,0.387,0.068,0.539,0.193c0.179,0.146,0.29,0.359,0.309,0.589l0.234,2.879
			c0.019,0.229-0.057,0.457-0.209,0.63s-0.368,0.277-0.599,0.288c-0.685,0.032-2.504,0.118-6.211,0.421l-7.368,0.603l0.521,6.363
			l5.119-0.418c3.754-0.307,5.557-0.518,6.149-0.587c0.033-0.004,0.065-0.006,0.099-0.006c0.195,0,0.386,0.067,0.539,0.193
			c0.179,0.146,0.29,0.359,0.309,0.589l0.238,2.923c0.019,0.229-0.057,0.457-0.209,0.63s-0.368,0.277-0.599,0.288
			c-0.602,0.028-2.43,0.114-6.163,0.419l-5.119,0.418l0.571,6.986l10.144-0.829c3.355-0.274,4.942-0.464,5.62-0.545
			c0.034-0.004,0.068-0.006,0.102-0.006c0.195,0,0.386,0.067,0.538,0.192c0.179,0.146,0.291,0.359,0.31,0.59l0.25,3.069
			c0.019,0.23-0.058,0.458-0.21,0.631c-0.153,0.173-0.37,0.277-0.601,0.287c-0.69,0.031-2.308,0.104-5.634,0.375l-10.143,0.829
			l0.191,2.344c0.338,4.13,0.599,6.534,0.696,7.439c0.025,0.229-0.043,0.461-0.189,0.638c-0.146,0.177-0.357,0.292-0.585,0.311
			C231.737,69.821,228.041,70.123,228.018,70.123z M217.995,55.581l8.086-0.661l-0.571-6.986l-8.086,0.661L217.995,55.581z"/>
		<path fill="none" stroke="#231815" stroke-width="3" d="M256.612,67.64c-0.204,0-0.401-0.073-0.557-0.208
			c-0.173-0.15-0.278-0.362-0.292-0.59l-0.009-0.142c-0.076-1.228-0.271-4.384-0.707-9.718l-1.694-20.717
			c-0.456-5.573-0.789-8.828-0.898-9.898c-0.023-0.232,0.045-0.505,0.197-0.682c0.152-0.177,0.367-0.325,0.6-0.336l0.141-0.006
			c0.801-0.039,2.482-0.121,5.157-0.339l6.603-0.54c2.387-0.195,3.755-0.363,4.412-0.443c0.034-0.004,0.069-0.006,0.104-0.006
			c0.201,0,0.396,0.071,0.552,0.203c0.181,0.154,0.289,0.377,0.298,0.615l-0.846,0.138l0.85-0.035
			c0.026,0.64,0.081,1.971,0.257,4.125l0.485,5.933c0.179,2.188,0.34,3.492,0.417,4.118c0.029,0.236-0.035,0.522-0.188,0.704
			c-0.153,0.181-0.37,0.339-0.607,0.349c-0.665,0.028-2.051,0.085-4.426,0.279l-7.751,0.634l1.268,15.502
			c0.436,5.323,0.756,8.471,0.876,9.657l0.02,0.191c0.022,0.227-0.048,0.454-0.193,0.628c-0.146,0.175-0.356,0.285-0.584,0.303
			C260.094,67.358,256.636,67.64,256.612,67.64z M258.426,37.633l8.277-0.677l-0.234-2.871l-8.277,0.677L258.426,37.633z
			 M257.926,31.509l8.277-0.677l-0.231-2.823l-8.277,0.677L257.926,31.509z M286.901,64.624c-0.354,0-0.672-0.22-0.796-0.552
			c-0.071-0.188-0.167-0.532-0.252-0.843c-0.237-0.788-0.508-1.527-0.798-2.174c-0.117-0.263-0.094-0.566,0.062-0.808
			s0.423-0.388,0.71-0.39c1.079-0.006,2.026-0.066,2.631-0.116c1.559-0.127,1.931-0.544,1.81-2.026l-1.562-19.09l-7.846,0.642
			c-2.945,0.241-4.356,0.417-4.888,0.483c-0.035,0.004-0.07,0.007-0.105,0.007c-0.194,0-0.384-0.066-0.536-0.19
			c-0.18-0.146-0.292-0.358-0.312-0.589c-0.002-0.023-0.004-0.083-0.004-0.107c-0.02-0.554-0.06-1.716-0.232-3.826l-0.539-6.603
			c-0.171-2.079-0.321-3.25-0.395-3.813c-0.03-0.237,0.036-0.508,0.189-0.69c0.154-0.182,0.374-0.324,0.612-0.333
			c0.535-0.021,1.959-0.077,4.902-0.317l7.033-0.575c2.931-0.24,4.339-0.414,4.939-0.487c0.035-0.004,0.07-0.007,0.104-0.007
			c0.196,0,0.389,0.068,0.541,0.195c0.181,0.149,0.292,0.365,0.308,0.598c0,0.003,0.005,0.098,0.005,0.101
			c0.043,0.85,0.139,2.751,0.399,5.925l1.607,19.665c0.151,1.843,0.38,3.903,0.563,5.559c0.167,1.499,0.318,2.876,0.406,3.947
			c0.192,2.348-0.067,3.487-1.027,4.515c-1.015,1.08-2.588,1.512-6.736,1.852l-0.125,0.01c-0.321,0.026-0.509,0.041-0.666,0.042
			C286.905,64.624,286.903,64.624,286.901,64.624z M279.574,35.904l8.851-0.724l-0.234-2.871l-8.851,0.724L279.574,35.904z
			 M279.073,29.78l8.851-0.724l-0.23-2.823l-8.851,0.724L279.073,29.78z M267.302,63.443c-0.206,0-0.405-0.075-0.562-0.212
			c-0.173-0.152-0.277-0.368-0.288-0.598c-0.03-0.631-0.121-2.551-0.597-8.364l-0.345-4.21c-0.27-3.304-0.459-4.895-0.54-5.574
			c-0.028-0.242,0.046-0.501,0.207-0.683s0.391-0.304,0.634-0.304c0.62-0.025,1.937-0.076,4.726-0.304l6.459-0.528
			c2.802-0.229,4.105-0.392,4.731-0.47c0.036-0.004,0.071-0.007,0.106-0.007c0.363,0,0.7,0.229,0.817,0.58
			c0.029,0.087,0.045,0.187,0.045,0.278c0.022,0.534,0.085,2.046,0.307,4.763l0.388,4.737c0.313,3.831,0.565,6.559,0.748,8.109
			c0.027,0.229-0.04,0.459-0.187,0.638s-0.358,0.29-0.589,0.309c0,0-2.837,0.231-2.86,0.231c-0.201,0-0.396-0.071-0.551-0.202
			c-0.172-0.146-0.278-0.354-0.297-0.579l-0.095-1.162l-8.756,0.716l0.138,1.688c0.038,0.468-0.311,0.879-0.778,0.917
			C270.164,63.212,267.325,63.443,267.302,63.443z M270.508,56.971l8.755-0.716l-0.273-3.35l-8.756,0.716L270.508,56.971z
			 M269.952,50.177l8.756-0.716l-0.263-3.206l-8.755,0.716L269.952,50.177z"/>
		<path fill="none" stroke="#231815" stroke-width="3" d="M309.392,63.421c-0.213,0-0.419-0.08-0.576-0.225
			c-0.172-0.158-0.271-0.38-0.274-0.613c-0.038-0.787-0.122-2.534-0.365-5.514l-0.575-7.032c-0.095-1.16-0.172-2.667-0.247-4.122
			l-0.102-1.867c-1.311,1.482-2.363,2.592-3.411,3.599l-0.258,0.242c-0.159,0.147-0.366,0.228-0.579,0.228
			c-0.056,0-0.11-0.005-0.166-0.017c-0.268-0.053-0.494-0.232-0.607-0.48l-0.064-0.146c-0.487-1.112-0.916-1.966-1.515-2.731
			c-0.272-0.349-0.232-0.848,0.093-1.149c3.332-3.076,6.426-6.973,8.49-10.692c0.251-0.509,0.522-1.123,0.769-1.74
			c0.088-0.22,0.263-0.394,0.483-0.479c0.1-0.038,0.203-0.057,0.307-0.057c0.128,0,0.256,0.029,0.374,0.087
			c1.171,0.574,2.076,1.082,2.936,1.646c0.116,0.086,0.175,0.132,0.221,0.171c0.188,0.158,0.298,0.39,0.303,0.636
			c0.004,0.246-0.099,0.481-0.28,0.646c-0.327,0.295-0.599,0.665-0.805,1.097l-0.086,0.155c-0.595,1.041-1.21,2.118-1.86,3.135
			l1.509,18.467c0.253,3.091,0.468,4.924,0.538,5.527c0.026,0.229-0.041,0.459-0.187,0.638c-0.146,0.178-0.359,0.29-0.589,0.309
			C312.866,63.14,309.415,63.421,309.392,63.421z M327.791,61.372c-0.331-0.006-0.646-0.206-0.779-0.51
			c-0.079-0.181-0.192-0.542-0.292-0.869c-0.322-0.953-0.641-1.729-0.968-2.36c-0.135-0.26-0.126-0.571,0.022-0.824
			c0.148-0.252,0.417-0.41,0.71-0.418c1.196-0.032,2.331-0.095,3.679-0.205c1.633-0.133,2.076-0.516,1.979-1.703l-1.432-17.511
			l-7.606,0.622c-3.578,0.292-5.309,0.494-6.048,0.58c-0.034,0.004-0.068,0.006-0.104,0.006c-0.2,0-0.409-0.065-0.562-0.19
			c-0.179-0.146-0.317-0.355-0.336-0.585l-0.254-3.12c-0.019-0.232,0.059-0.462,0.214-0.635c0.154-0.174,0.374-0.276,0.607-0.284
			c0.781-0.037,2.524-0.12,6.102-0.413l13.684-1.119c3.701-0.303,5.435-0.508,6.004-0.576c0.034-0.004,0.067-0.006,0.101-0.006
			c0.195,0,0.386,0.067,0.538,0.192c0.179,0.146,0.291,0.359,0.31,0.589l0.254,3.116c0.019,0.23-0.057,0.458-0.21,0.631
			c-0.152,0.173-0.369,0.277-0.6,0.288c-0.575,0.026-2.326,0.104-6.018,0.406l-1.005,0.082l0.739,9.042
			c0.199,2.441,0.407,4.386,0.574,5.95l0.012,0.105c0.126,1.172,0.228,2.121,0.297,2.977c0.214,2.089,0.083,3.65-1.235,4.917
			c-0.923,0.939-2.462,1.306-7.466,1.767l-0.137,0.011c-0.342,0.028-0.561,0.045-0.737,0.045
			C327.823,61.372,327.797,61.372,327.791,61.372z M302.787,33.791c-0.268,0-0.53-0.126-0.695-0.36
			c-0.118-0.167-0.27-0.414-0.363-0.567c-0.483-0.8-1.026-1.491-1.673-2.136c-0.175-0.174-0.265-0.416-0.248-0.662
			c0.018-0.246,0.142-0.473,0.339-0.621c3.21-2.406,6.098-5.272,7.922-7.864c0.335-0.522,0.632-1.051,0.887-1.586
			c0.146-0.304,0.449-0.484,0.768-0.484c0.108,0,0.219,0.021,0.324,0.064c1.251,0.516,2.188,0.997,3.344,1.714l0.212,0.141
			c0.23,0.158,0.369,0.419,0.37,0.699s-0.136,0.542-0.365,0.701l-0.13,0.089c-0.328,0.278-0.68,0.698-1.185,1.446
			c-1.71,2.401-4.848,5.995-8.565,8.937c-0.217,0.18-0.384,0.294-0.498,0.363C303.092,33.75,302.938,33.791,302.787,33.791z
			 M318.425,26.163c-0.195,0-0.385-0.067-0.538-0.192c-0.179-0.146-0.291-0.359-0.31-0.59l-0.258-3.163
			c-0.019-0.23,0.058-0.458,0.21-0.632c0.153-0.173,0.371-0.277,0.602-0.287c0.527-0.022,2.132-0.09,5.537-0.369l9.952-0.813
			c3.365-0.275,4.92-0.462,5.583-0.542c0.034-0.004,0.069-0.006,0.104-0.006c0.198,0,0.401,0.065,0.554,0.19
			c0.179,0.146,0.31,0.356,0.328,0.587l0.259,3.167c0.019,0.229-0.057,0.457-0.208,0.63c-0.151,0.173-0.367,0.277-0.597,0.289
			c-0.698,0.03-2.25,0.097-5.641,0.374l-9.951,0.814c-3.388,0.277-4.996,0.472-5.524,0.536
			C318.493,26.161,318.459,26.163,318.425,26.163z"/>
		<path fill="none" stroke="#231815" stroke-width="3" d="M364.841,58.776c-0.21,0-0.353-0.02-0.478-0.066
			c-0.244-0.092-0.434-0.291-0.513-0.54c-0.014-0.027-0.125-0.274-0.241-0.532c-0.396-0.87-0.802-1.612-1.247-2.294
			c-0.169-0.259-0.184-0.59-0.038-0.863c0.145-0.273,0.427-0.446,0.736-0.452c1.007-0.018,1.956-0.082,3.172-0.214
			c2.02-0.212,2.457-0.582,2.344-1.974l-0.09-1.1l-7.848,0.642c-3.743,0.306-5.525,0.514-6.196,0.593
			c-0.033,0.004-0.065,0.006-0.099,0.006c-0.195,0-0.386-0.067-0.539-0.193c-0.179-0.146-0.29-0.358-0.309-0.588l-0.165-2.017
			c-0.019-0.23,0.057-0.458,0.209-0.631s0.368-0.277,0.599-0.288c0.669-0.031,2.446-0.114,6.211-0.422l7.847-0.641l-0.184-2.249
			l-12.823,1.049c-3.279,0.268-4.876,0.459-5.478,0.531c-0.033,0.004-0.067,0.006-0.101,0.006c-0.195,0-0.386-0.067-0.538-0.192
			c-0.179-0.146-0.291-0.359-0.31-0.589l-0.18-2.203c-0.019-0.23,0.057-0.458,0.21-0.632c0.152-0.173,0.369-0.277,0.601-0.287
			c0.602-0.026,2.201-0.097,5.49-0.366l12.822-1.048l-0.184-2.249l-7.895,0.646c-3.712,0.304-5.482,0.511-6.149,0.589
			c-0.033,0.004-0.065,0.006-0.099,0.006c-0.195,0-0.387-0.068-0.539-0.193c-0.179-0.146-0.29-0.359-0.309-0.589l-0.156-1.921
			c-0.019-0.229,0.057-0.458,0.209-0.63c0.152-0.173,0.368-0.277,0.599-0.288c0.678-0.032,2.472-0.116,6.163-0.418l7.895-0.645
			l-0.173-2.105l-6.172,0.504c-3.719,0.304-5.575,0.519-6.274,0.599c-0.033,0.004-0.067,0.006-0.102,0.006
			c-0.212,0-0.431-0.074-0.587-0.213c-0.181-0.161-0.31-0.389-0.31-0.632c-0.004-0.396-0.009-1.037-0.099-2.144l-0.211-2.583
			c-0.091-1.111-0.189-1.741-0.249-2.118c-0.039-0.246,0.03-0.505,0.192-0.694c0.161-0.189,0.396-0.308,0.645-0.308
			c0.695-0.034,2.554-0.123,6.298-0.429l6.172-0.504l-0.172-2.105l-12.057,0.985c-3.393,0.277-5.017,0.47-5.71,0.552
			c-0.033,0.004-0.066,0.006-0.101,0.006c-0.195,0-0.389-0.067-0.541-0.192c-0.179-0.146-0.295-0.358-0.313-0.588l-0.192-2.351
			c-0.019-0.23,0.058-0.458,0.21-0.631s0.369-0.277,0.601-0.288c0.695-0.031,2.325-0.105,5.729-0.383l12.058-0.986
			c-0.117-1.441-0.251-2.426-0.46-3.4c-0.053-0.244,0.005-0.499,0.156-0.696s0.383-0.319,0.632-0.332
			c0.82-0.042,1.798-0.084,2.827-0.084c0.354,0,0.71,0.005,1.073,0.016c0.274,0.008,0.527,0.148,0.68,0.375
			c0.153,0.227,0.188,0.514,0.093,0.771l-0.104,0.257c-0.164,0.605-0.187,1.231-0.066,2.698l12.153-0.994
			c3.407-0.279,5.025-0.471,5.716-0.553c0.034-0.004,0.067-0.006,0.101-0.006c0.195,0,0.386,0.067,0.538,0.192
			c0.179,0.146,0.291,0.359,0.31,0.589l0.192,2.351c0.019,0.23-0.057,0.458-0.21,0.632c-0.152,0.173-0.369,0.277-0.6,0.287
			c-0.624,0.028-2.281,0.101-5.73,0.383l-12.152,0.994l0.172,2.105l6.363-0.52c3.698-0.303,5.51-0.511,6.284-0.6
			c0.033-0.004,0.066-0.006,0.1-0.006c0.419,0,0.814,0.298,0.879,0.716c0.006,0.043,0.011,0.105,0.011,0.149
			c0.003,0.376,0.008,1.017,0.098,2.124l0.212,2.584c0.09,1.103,0.188,1.736,0.247,2.114c0.037,0.24-0.028,0.496-0.183,0.683
			c-0.154,0.188-0.379,0.312-0.621,0.321c-0.807,0.04-2.624,0.128-6.33,0.431l-6.363,0.52l0.172,2.105l7.751-0.634
			c3.811-0.312,5.633-0.524,6.232-0.595c0.033-0.004,0.065-0.006,0.099-0.006c0.207,0,0.409,0.076,0.565,0.215
			c0.182,0.161,0.285,0.393,0.285,0.635c0.019,0.55,0.06,1.722,0.227,3.768l0.09,1.101c1.937-0.158,3.066-0.295,3.747-0.385
			c0.037-0.005,0.073-0.007,0.11-0.007c0.193,0,0.382,0.066,0.534,0.189c0.182,0.146,0.295,0.36,0.313,0.592l0.18,2.202
			c0.019,0.228-0.055,0.453-0.204,0.625c-0.149,0.172-0.361,0.278-0.589,0.292c-0.002,0-0.101,0.006-0.103,0.006
			c-0.595,0.031-1.727,0.09-3.684,0.217l0.199,2.44c0.183,2.228,0.344,3.477,0.412,4.01c0.029,0.23-0.035,0.475-0.182,0.656
			s-0.358,0.306-0.59,0.325c0,0-3.076,0.25-3.1,0.25c-0.201,0-0.396-0.071-0.551-0.202c-0.172-0.146-0.278-0.354-0.297-0.579
			l-0.06-0.731l-10.096,0.826c0.116,0.842,0.182,1.643,0.24,2.351c0.194,2.365-0.19,3.599-1.37,4.436
			c-1.149,0.773-3.261,1.279-6.66,1.604C365.274,58.758,365.035,58.776,364.841,58.776z M373.028,46.806l10.143-0.829l-0.184-2.249
			l-10.144,0.829L373.028,46.806z M372.539,40.825l10.143-0.829l-0.184-2.249l-10.143,0.829L372.539,40.825z M358.159,31.068
			l8.66-0.708l-0.195-2.392l-8.66,0.708L358.159,31.068z M371.651,29.964l8.852-0.724l-0.196-2.392l-8.852,0.724L371.651,29.964z"/>
	</g>
	<g>
		<path fill="#FFFFFF" d="M44.721,81.401c-0.201,0-0.396-0.071-0.55-0.202c-0.172-0.146-0.279-0.354-0.297-0.579l-0.263-3.217
			c-0.01-0.128,0.008-0.257,0.055-0.377c1.805-4.65,4.572-8.9,9.252-14.209c4.323-4.889,5.316-6.851,5.058-9.999
			c-0.241-2.944-1.987-4.702-4.671-4.702c-0.173,0-0.349,0.007-0.528,0.022c-3.776,0.309-4.511,3.958-4.613,6.105
			c-0.011,0.236-0.121,0.458-0.302,0.61c-0.154,0.13-0.349,0.2-0.548,0.2c-0.035,0-0.07-0.002-0.104-0.007l-4.344-0.539
			c-0.457-0.057-0.786-0.466-0.742-0.924c0.562-5.896,4.435-9.705,10.362-10.189c0.474-0.039,0.939-0.058,1.393-0.058
			c6.001,0,9.859,3.373,10.321,9.022c0.34,4.148-1.206,7.294-6.358,12.946c-4.745,5.002-6.854,7.844-8.07,10.871
			c0,0,15.61-1.275,15.634-1.275c0.438,0,0.81,0.337,0.847,0.781l0.253,3.09c0.018,0.225-0.053,0.448-0.199,0.62
			s-0.354,0.279-0.579,0.297C65.726,79.687,44.744,81.401,44.721,81.401z"/>
		<path fill="#FFFFFF" d="M86.819,77.959c-0.438,0-0.81-0.337-0.847-0.781l-0.401-4.907c-0.018-0.225,0.053-0.448,0.199-0.62
			s0.354-0.279,0.579-0.297c0,0,5.193-0.424,5.217-0.424c0.438,0,0.81,0.337,0.847,0.781l0.401,4.907
			c0.018,0.225-0.053,0.448-0.199,0.62s-0.354,0.279-0.579,0.297C92.036,77.535,86.843,77.959,86.819,77.959z"/>
		<path fill="#FFFFFF" d="M111.788,77.641c-0.195,0-0.385-0.067-0.538-0.192c-0.179-0.146-0.291-0.359-0.31-0.589l-0.27-3.308
			c-0.019-0.23,0.057-0.458,0.21-0.632c0.152-0.173,0.369-0.277,0.6-0.287c0.68-0.03,2.271-0.101,5.683-0.379l11.674-0.954
			l-0.79-9.665l-6.076,0.497c-3.743,0.306-5.561,0.518-6.245,0.597c-0.033,0.004-0.065,0.005-0.098,0.005
			c-0.196,0-0.387-0.067-0.54-0.192c-0.178-0.146-0.29-0.358-0.309-0.588l-0.263-3.214c-0.019-0.23,0.057-0.458,0.209-0.63
			c0.152-0.173,0.368-0.277,0.598-0.289c0.697-0.033,2.529-0.12,6.26-0.425l6.076-0.497l-0.673-8.229L117.8,49.42
			c-3.611,0.295-5.324,0.494-6.055,0.579c-0.034,0.004-0.068,0.006-0.103,0.006c-0.199,0-0.406-0.065-0.558-0.19
			c-0.179-0.146-0.312-0.355-0.332-0.585l-0.271-3.31c-0.019-0.227,0.055-0.451,0.203-0.624c0.148-0.172,0.359-0.278,0.586-0.294
			c0.813-0.039,2.54-0.121,6.134-0.415l24.065-1.968c3.682-0.301,5.404-0.504,6.053-0.581c0.033-0.004,0.066-0.006,0.1-0.006
			c0.195,0,0.386,0.067,0.539,0.192c0.179,0.146,0.29,0.359,0.309,0.589l0.271,3.308c0.019,0.23-0.057,0.458-0.209,0.631
			s-0.369,0.277-0.599,0.288c-0.659,0.03-2.409,0.112-6.068,0.411l-9.521,0.778l0.673,8.229l6.603-0.54
			c3.778-0.309,5.57-0.519,6.244-0.598c0.033-0.004,0.066-0.006,0.099-0.006c0.195,0,0.386,0.067,0.539,0.193
			c0.178,0.146,0.29,0.358,0.309,0.588l0.263,3.214c0.019,0.23-0.057,0.458-0.209,0.63c-0.152,0.173-0.368,0.277-0.599,0.289
			c-0.688,0.033-2.515,0.12-6.258,0.426l-6.604,0.54l0.791,9.665l12.296-1.005c3.359-0.275,4.944-0.464,5.621-0.544
			c0.033-0.004,0.067-0.006,0.101-0.006c0.195,0,0.385,0.067,0.538,0.192c0.179,0.146,0.291,0.359,0.31,0.589l0.271,3.307
			c0.019,0.23-0.057,0.458-0.209,0.631s-0.37,0.277-0.601,0.288c-0.689,0.031-2.289,0.102-5.636,0.375l-29.328,2.398
			c-3.437,0.281-5,0.469-5.668,0.549C111.855,77.639,111.822,77.641,111.788,77.641z M132.654,42.839
			c-0.154,0-0.31-0.042-0.449-0.129c-3.129-1.951-6.345-3.433-9.831-4.53c-0.27-0.084-0.479-0.298-0.56-0.568
			c-0.081-0.271-0.021-0.564,0.158-0.782c0,0,2.2-2.68,2.221-2.705c0.164-0.194,0.403-0.302,0.65-0.302
			c0.068,0,0.138,0.008,0.206,0.025c2.951,0.909,6.723,2.178,10.403,4.116c0.219,0.115,0.377,0.32,0.433,0.562
			s0.003,0.495-0.143,0.694l-2.402,3.272C133.174,42.717,132.916,42.839,132.654,42.839z"/>
		<path fill="#FFFFFF" d="M179.171,73.108c-4.726,0-7.853-2.347-8.162-6.124c-0.347-4.244,2.903-7.27,8.279-7.709
			c0.69-0.056,1.384-0.085,2.064-0.085c0.538,0,1.122,0.018,1.74,0.063v0c-0.544-3.071-0.875-5.992-1.104-8.193
			c-0.114-0.959-0.203-1.583-0.369-2.293c-0.06-0.258,0.003-0.529,0.171-0.733c0.162-0.197,0.403-0.311,0.657-0.311
			c0.01,0,0.02,0,0.029,0c1.704,0.059,2.826,0.181,4.141,0.453c0.222,0.046,0.433,0.182,0.557,0.371
			c0.124,0.189,0.185,0.423,0.138,0.645c-0.023,0.11-0.07,0.332-0.167,0.725c-0.141,0.577-0.15,1.131-0.031,1.977
			c0.225,2.748,0.524,4.777,1.191,8.09c3.808,1.184,6.121,2.045,8.968,3.741c0.357,0.212,0.508,0.651,0.357,1.039
			c-0.567,1.459-1.093,2.605-1.705,3.718c-0.117,0.213-0.32,0.366-0.558,0.419c-0.062,0.014-0.125,0.021-0.188,0.021
			c-0.176,0-0.35-0.055-0.496-0.16c-2.265-1.627-4.158-2.537-5.988-3.416c0.19,2.321-0.474,4.166-1.972,5.483
			c-1.422,1.25-3.561,2.001-6.356,2.229c-0.408,0.033-0.807,0.05-1.195,0.05H179.171z M180.395,63.361
			c-0.267,0-0.54,0.01-0.818,0.033c-2.058,0.168-4.197,1.077-4.03,3.123c0.041,0.496,0.164,2.006,3.28,2.006
			c0.304,0,0.628-0.014,0.975-0.042c1.253-0.103,2.281-0.516,2.973-1.194c0.668-0.656,0.992-1.56,0.911-2.543
			c-0.034-0.415-0.054-0.666-0.125-0.953l0,0C182.743,63.59,181.644,63.361,180.395,63.361z M164.4,66.762
			c-0.132,0-0.263-0.031-0.383-0.091c-1.238-0.624-2.626-1.485-3.455-2.143c-0.321-0.255-0.415-0.702-0.223-1.063
			c3.235-6.484,5.302-11.68,6.935-17.416l0,0c-1.817,0.245-3.311,0.367-4.755,0.485c-1.03,0.084-1.425,0.117-2.514,0.163
			c-0.012,0-0.024,0.001-0.037,0.001c-0.393,0-0.737-0.271-0.827-0.656c-0.228-0.66-0.447-1.656-0.677-3.104
			c-0.039-0.244,0.03-0.492,0.188-0.681c0.159-0.189,0.391-0.299,0.638-0.303c1.376-0.022,2.324-0.066,3.494-0.161
			c1.742-0.143,3.198-0.301,5.482-0.689c0.417-2.098,0.619-3.78,0.806-5.46c0.116-1.312,0.106-2.047,0.045-2.936
			c-0.017-0.244,0.073-0.483,0.245-0.657c0.16-0.162,0.378-0.252,0.604-0.252c0.017,0,0.034,0,0.051,0.001
			c1.949,0.117,3.496,0.245,4.706,0.492c0.026,0.001,0.09,0.013,0.138,0.023c0.254,0.055,0.469,0.222,0.584,0.455
			c0.115,0.233,0.117,0.505,0.006,0.74c-0.056,0.119-0.134,0.232-0.261,0.382c-0.225,0.357-0.391,0.756-0.62,1.832
			c-0.098,0.477-0.199,1.009-0.305,1.572l-0.858-0.04l0.836,0.158c-0.15,0.791-0.311,1.638-0.488,2.47
			c1.944-0.362,4.124-0.995,5.61-1.462c0.083-0.026,0.169-0.04,0.255-0.04c0.143,0,0.284,0.036,0.411,0.106
			c0.204,0.112,0.352,0.303,0.411,0.528c0.26,0.988,0.475,2.102,0.621,3.223c0.055,0.417-0.205,0.812-0.609,0.927
			c-2.448,0.702-4.627,1.203-7.385,1.836l-0.287,0.066c-2.766,9.603-4.973,15.749-7.615,21.212
			c-0.099,0.206-0.277,0.362-0.493,0.435C164.584,66.747,164.492,66.762,164.4,66.762z M195.303,47.969
			c-0.145,0-0.288-0.037-0.417-0.109c-2.229-1.252-5.606-3.034-9.181-4.047c-0.237-0.067-0.434-0.235-0.539-0.458
			c-0.104-0.223-0.106-0.481-0.006-0.707l0.206-0.462c0.433-0.975,0.843-1.897,1.227-2.533c0.16-0.264,0.464-0.448,0.77-0.448
			c0.046,0,0.092,0.004,0.137,0.013c3.288,0.62,7.323,2.396,9.78,3.729c0.371,0.201,0.539,0.644,0.393,1.041
			c-0.446,1.217-1.153,2.665-1.622,3.535c-0.108,0.201-0.292,0.35-0.512,0.413C195.462,47.958,195.383,47.969,195.303,47.969z"/>
		<path fill="#FFFFFF" d="M228.018,70.123c-0.203,0-0.4-0.073-0.555-0.207c-0.172-0.148-0.278-0.36-0.293-0.587
			c0-0.004-0.002-0.045-0.003-0.049c-0.053-0.961-0.188-3.39-0.518-7.423l-0.191-2.344l-14.306,1.169
			c-3.338,0.273-4.938,0.463-5.621,0.544c-0.034,0.004-0.067,0.006-0.101,0.006c-0.195,0-0.386-0.067-0.538-0.192
			c-0.179-0.146-0.291-0.358-0.31-0.589l-0.251-3.069c-0.019-0.23,0.057-0.458,0.21-0.632c0.152-0.173,0.369-0.277,0.6-0.287
			c0.686-0.03,2.292-0.101,5.635-0.375l1.148-0.094l-0.548-6.699c-0.169-2.064-0.325-3.305-0.4-3.901
			c-0.029-0.231,0.036-0.479,0.183-0.66c0.147-0.18,0.36-0.308,0.592-0.326c0.838-0.041,2.605-0.125,6.272-0.425l6.124-0.501
			l-0.521-6.363l-9.808,0.803c-1.406,2.561-3.101,5.017-5.039,7.298c-0.13,0.17-0.246,0.31-0.331,0.407
			c-0.156,0.178-0.38,0.283-0.616,0.289c-0.008,0-0.016,0-0.023,0c-0.229,0-0.448-0.092-0.608-0.256
			c-0.138-0.141-0.296-0.315-0.394-0.423c-0.667-0.771-1.323-1.369-2.021-1.844c-0.205-0.14-0.338-0.361-0.367-0.607
			c-0.028-0.246,0.053-0.492,0.221-0.674c3.18-3.432,5.596-7.315,7.181-11.542c0.393-1.027,0.665-1.947,0.834-2.819
			c0.078-0.404,0.432-0.689,0.834-0.689c0.033,0,0.066,0.002,0.1,0.006c1.661,0.194,2.89,0.38,3.869,0.585
			c0.139,0.034,0.226,0.061,0.294,0.085c0.267,0.096,0.469,0.318,0.538,0.593s-0.003,0.566-0.193,0.777l-0.214,0.247
			c-0.306,0.316-0.63,0.706-1.052,1.816l-0.789,2.135l19.76-1.616c3.718-0.304,5.521-0.514,6.198-0.593
			c0.033-0.004,0.066-0.006,0.099-0.006c0.195,0,0.387,0.068,0.539,0.193c0.179,0.146,0.29,0.359,0.309,0.589l0.234,2.879
			c0.019,0.229-0.057,0.457-0.209,0.63s-0.368,0.277-0.599,0.288c-0.685,0.032-2.504,0.118-6.211,0.421l-7.368,0.603l0.521,6.363
			l5.119-0.418c3.754-0.307,5.557-0.518,6.149-0.587c0.033-0.004,0.065-0.006,0.099-0.006c0.195,0,0.386,0.067,0.539,0.193
			c0.179,0.146,0.29,0.359,0.309,0.589l0.238,2.923c0.019,0.229-0.057,0.457-0.209,0.63s-0.368,0.277-0.599,0.288
			c-0.602,0.028-2.43,0.114-6.163,0.419l-5.119,0.418l0.571,6.986l10.144-0.829c3.355-0.274,4.942-0.464,5.62-0.545
			c0.034-0.004,0.068-0.006,0.102-0.006c0.195,0,0.386,0.067,0.538,0.192c0.179,0.146,0.291,0.359,0.31,0.59l0.25,3.069
			c0.019,0.23-0.058,0.458-0.21,0.631c-0.153,0.173-0.37,0.277-0.601,0.287c-0.69,0.031-2.308,0.104-5.634,0.375l-10.143,0.829
			l0.191,2.344c0.338,4.13,0.599,6.534,0.696,7.439c0.025,0.229-0.043,0.461-0.189,0.638c-0.146,0.177-0.357,0.292-0.585,0.311
			C231.737,69.821,228.041,70.123,228.018,70.123z M217.995,55.581l8.086-0.661l-0.571-6.986l-8.086,0.661L217.995,55.581z"/>
		<path fill="#FFFFFF" d="M256.612,67.64c-0.204,0-0.401-0.073-0.557-0.208c-0.173-0.15-0.278-0.362-0.292-0.59l-0.009-0.142
			c-0.076-1.228-0.271-4.384-0.707-9.718l-1.694-20.717c-0.456-5.573-0.789-8.828-0.898-9.898c-0.023-0.232,0.045-0.505,0.197-0.682
			c0.152-0.177,0.367-0.325,0.6-0.336l0.141-0.006c0.801-0.039,2.482-0.121,5.157-0.339l6.603-0.54
			c2.387-0.195,3.755-0.363,4.412-0.443c0.034-0.004,0.069-0.006,0.104-0.006c0.201,0,0.396,0.071,0.552,0.203
			c0.181,0.154,0.289,0.377,0.298,0.615l-0.846,0.138l0.85-0.035c0.026,0.64,0.081,1.971,0.257,4.125l0.485,5.933
			c0.179,2.188,0.34,3.492,0.417,4.118c0.029,0.236-0.035,0.522-0.188,0.704c-0.153,0.181-0.37,0.339-0.607,0.349
			c-0.665,0.028-2.051,0.085-4.426,0.279l-7.751,0.634l1.268,15.502c0.436,5.323,0.756,8.471,0.876,9.657l0.02,0.191
			c0.022,0.227-0.048,0.454-0.193,0.628c-0.146,0.175-0.356,0.285-0.584,0.303C260.094,67.358,256.636,67.64,256.612,67.64z
			 M258.426,37.633l8.277-0.677l-0.234-2.871l-8.277,0.677L258.426,37.633z M257.926,31.509l8.277-0.677l-0.231-2.823l-8.277,0.677
			L257.926,31.509z M286.901,64.624c-0.354,0-0.672-0.22-0.796-0.552c-0.071-0.188-0.167-0.532-0.252-0.843
			c-0.237-0.788-0.508-1.527-0.798-2.174c-0.117-0.263-0.094-0.566,0.062-0.808s0.423-0.388,0.71-0.39
			c1.079-0.006,2.026-0.066,2.631-0.116c1.559-0.127,1.931-0.544,1.81-2.026l-1.562-19.09l-7.846,0.642
			c-2.945,0.241-4.356,0.417-4.888,0.483c-0.035,0.004-0.07,0.007-0.105,0.007c-0.194,0-0.384-0.066-0.536-0.19
			c-0.18-0.146-0.292-0.358-0.312-0.589c-0.002-0.023-0.004-0.083-0.004-0.107c-0.02-0.554-0.06-1.716-0.232-3.826l-0.539-6.603
			c-0.171-2.079-0.321-3.25-0.395-3.813c-0.03-0.237,0.036-0.508,0.189-0.69c0.154-0.182,0.374-0.324,0.612-0.333
			c0.535-0.021,1.959-0.077,4.902-0.317l7.033-0.575c2.931-0.24,4.339-0.414,4.939-0.487c0.035-0.004,0.07-0.007,0.104-0.007
			c0.196,0,0.389,0.068,0.541,0.195c0.181,0.149,0.292,0.365,0.308,0.598c0,0.003,0.005,0.098,0.005,0.101
			c0.043,0.85,0.139,2.751,0.399,5.925l1.607,19.665c0.151,1.843,0.38,3.903,0.563,5.559c0.167,1.499,0.318,2.876,0.406,3.947
			c0.192,2.348-0.067,3.487-1.027,4.515c-1.015,1.08-2.588,1.512-6.736,1.852l-0.125,0.01c-0.321,0.026-0.509,0.041-0.666,0.042
			C286.905,64.624,286.903,64.624,286.901,64.624z M279.574,35.904l8.851-0.724l-0.234-2.871l-8.851,0.724L279.574,35.904z
			 M279.073,29.78l8.851-0.724l-0.23-2.823l-8.851,0.724L279.073,29.78z M267.302,63.443c-0.206,0-0.405-0.075-0.562-0.212
			c-0.173-0.152-0.277-0.368-0.288-0.598c-0.03-0.631-0.121-2.551-0.597-8.364l-0.345-4.21c-0.27-3.304-0.459-4.895-0.54-5.574
			c-0.028-0.242,0.046-0.501,0.207-0.683s0.391-0.304,0.634-0.304c0.62-0.025,1.937-0.076,4.726-0.304l6.459-0.528
			c2.802-0.229,4.105-0.392,4.731-0.47c0.036-0.004,0.071-0.007,0.106-0.007c0.363,0,0.7,0.229,0.817,0.58
			c0.029,0.087,0.045,0.187,0.045,0.278c0.022,0.534,0.085,2.046,0.307,4.763l0.388,4.737c0.313,3.831,0.565,6.559,0.748,8.109
			c0.027,0.229-0.04,0.459-0.187,0.638s-0.358,0.29-0.589,0.309c0,0-2.837,0.231-2.86,0.231c-0.201,0-0.396-0.071-0.551-0.202
			c-0.172-0.146-0.278-0.354-0.297-0.579l-0.095-1.162l-8.756,0.716l0.138,1.688c0.038,0.468-0.311,0.879-0.778,0.917
			C270.164,63.212,267.325,63.443,267.302,63.443z M270.508,56.971l8.755-0.716l-0.273-3.35l-8.756,0.716L270.508,56.971z
			 M269.952,50.177l8.756-0.716l-0.263-3.206l-8.755,0.716L269.952,50.177z"/>
		<path fill="#FFFFFF" d="M309.392,63.421c-0.213,0-0.419-0.08-0.576-0.225c-0.172-0.158-0.271-0.38-0.274-0.613
			c-0.038-0.787-0.122-2.534-0.365-5.514l-0.575-7.032c-0.095-1.16-0.172-2.667-0.247-4.122l-0.102-1.867
			c-1.311,1.482-2.363,2.592-3.411,3.599l-0.258,0.242c-0.159,0.147-0.366,0.228-0.579,0.228c-0.056,0-0.11-0.005-0.166-0.017
			c-0.268-0.053-0.494-0.232-0.607-0.48l-0.064-0.146c-0.487-1.112-0.916-1.966-1.515-2.731c-0.272-0.349-0.232-0.848,0.093-1.149
			c3.332-3.076,6.426-6.973,8.49-10.692c0.251-0.509,0.522-1.123,0.769-1.74c0.088-0.22,0.263-0.394,0.483-0.479
			c0.1-0.038,0.203-0.057,0.307-0.057c0.128,0,0.256,0.029,0.374,0.087c1.171,0.574,2.076,1.082,2.936,1.646
			c0.116,0.086,0.175,0.132,0.221,0.171c0.188,0.158,0.298,0.39,0.303,0.636c0.004,0.246-0.099,0.481-0.28,0.646
			c-0.327,0.295-0.599,0.665-0.805,1.097l-0.086,0.155c-0.595,1.041-1.21,2.118-1.86,3.135l1.509,18.467
			c0.253,3.091,0.468,4.924,0.538,5.527c0.026,0.229-0.041,0.459-0.187,0.638c-0.146,0.178-0.359,0.29-0.589,0.309
			C312.866,63.14,309.415,63.421,309.392,63.421z M327.791,61.372c-0.331-0.006-0.646-0.206-0.779-0.51
			c-0.079-0.181-0.192-0.542-0.292-0.869c-0.322-0.953-0.641-1.729-0.968-2.36c-0.135-0.26-0.126-0.571,0.022-0.824
			c0.148-0.252,0.417-0.41,0.71-0.418c1.196-0.032,2.331-0.095,3.679-0.205c1.633-0.133,2.076-0.516,1.979-1.703l-1.432-17.511
			l-7.606,0.622c-3.578,0.292-5.309,0.494-6.048,0.58c-0.034,0.004-0.068,0.006-0.104,0.006c-0.2,0-0.409-0.065-0.562-0.19
			c-0.179-0.146-0.317-0.355-0.336-0.585l-0.254-3.12c-0.019-0.232,0.059-0.462,0.214-0.635c0.154-0.174,0.374-0.276,0.607-0.284
			c0.781-0.037,2.524-0.12,6.102-0.413l13.684-1.119c3.701-0.303,5.435-0.508,6.004-0.576c0.034-0.004,0.067-0.006,0.101-0.006
			c0.195,0,0.386,0.067,0.538,0.192c0.179,0.146,0.291,0.359,0.31,0.589l0.254,3.116c0.019,0.23-0.057,0.458-0.21,0.631
			c-0.152,0.173-0.369,0.277-0.6,0.288c-0.575,0.026-2.326,0.104-6.018,0.406l-1.005,0.082l0.739,9.042
			c0.199,2.441,0.407,4.386,0.574,5.95l0.012,0.105c0.126,1.172,0.228,2.121,0.297,2.977c0.214,2.089,0.083,3.65-1.235,4.917
			c-0.923,0.939-2.462,1.306-7.466,1.767l-0.137,0.011c-0.342,0.028-0.561,0.045-0.737,0.045
			C327.823,61.372,327.797,61.372,327.791,61.372z M302.787,33.791c-0.268,0-0.53-0.126-0.695-0.36
			c-0.118-0.167-0.27-0.414-0.363-0.567c-0.483-0.8-1.026-1.491-1.673-2.136c-0.175-0.174-0.265-0.416-0.248-0.662
			c0.018-0.246,0.142-0.473,0.339-0.621c3.21-2.406,6.098-5.272,7.922-7.864c0.335-0.522,0.632-1.051,0.887-1.586
			c0.146-0.304,0.449-0.484,0.768-0.484c0.108,0,0.219,0.021,0.324,0.064c1.251,0.516,2.188,0.997,3.344,1.714l0.212,0.141
			c0.23,0.158,0.369,0.419,0.37,0.699s-0.136,0.542-0.365,0.701l-0.13,0.089c-0.328,0.278-0.68,0.698-1.185,1.446
			c-1.71,2.401-4.848,5.995-8.565,8.937c-0.217,0.18-0.384,0.294-0.498,0.363C303.092,33.75,302.938,33.791,302.787,33.791z
			 M318.425,26.163c-0.195,0-0.385-0.067-0.538-0.192c-0.179-0.146-0.291-0.359-0.31-0.59l-0.258-3.163
			c-0.019-0.23,0.058-0.458,0.21-0.632c0.153-0.173,0.371-0.277,0.602-0.287c0.527-0.022,2.132-0.09,5.537-0.369l9.952-0.813
			c3.365-0.275,4.92-0.462,5.583-0.542c0.034-0.004,0.069-0.006,0.104-0.006c0.198,0,0.401,0.065,0.554,0.19
			c0.179,0.146,0.31,0.356,0.328,0.587l0.259,3.167c0.019,0.229-0.057,0.457-0.208,0.63c-0.151,0.173-0.367,0.277-0.597,0.289
			c-0.698,0.03-2.25,0.097-5.641,0.374l-9.951,0.814c-3.388,0.277-4.996,0.472-5.524,0.536
			C318.493,26.161,318.459,26.163,318.425,26.163z"/>
		<path fill="#FFFFFF" d="M364.841,58.776c-0.21,0-0.353-0.02-0.478-0.066c-0.244-0.092-0.434-0.291-0.513-0.54
			c-0.014-0.027-0.125-0.274-0.241-0.532c-0.396-0.87-0.802-1.612-1.247-2.294c-0.169-0.259-0.184-0.59-0.038-0.863
			c0.145-0.273,0.427-0.446,0.736-0.452c1.007-0.018,1.956-0.082,3.172-0.214c2.02-0.212,2.457-0.582,2.344-1.974l-0.09-1.1
			l-7.848,0.642c-3.743,0.306-5.525,0.514-6.196,0.593c-0.033,0.004-0.065,0.006-0.099,0.006c-0.195,0-0.386-0.067-0.539-0.193
			c-0.179-0.146-0.29-0.358-0.309-0.588l-0.165-2.017c-0.019-0.23,0.057-0.458,0.209-0.631s0.368-0.277,0.599-0.288
			c0.669-0.031,2.446-0.114,6.211-0.422l7.847-0.641l-0.184-2.249l-12.823,1.049c-3.279,0.268-4.876,0.459-5.478,0.531
			c-0.033,0.004-0.067,0.006-0.101,0.006c-0.195,0-0.386-0.067-0.538-0.192c-0.179-0.146-0.291-0.359-0.31-0.589l-0.18-2.203
			c-0.019-0.23,0.057-0.458,0.21-0.632c0.152-0.173,0.369-0.277,0.601-0.287c0.602-0.026,2.201-0.097,5.49-0.366l12.822-1.048
			l-0.184-2.249l-7.895,0.646c-3.712,0.304-5.482,0.511-6.149,0.589c-0.033,0.004-0.065,0.006-0.099,0.006
			c-0.195,0-0.387-0.068-0.539-0.193c-0.179-0.146-0.29-0.359-0.309-0.589l-0.156-1.921c-0.019-0.229,0.057-0.458,0.209-0.63
			c0.152-0.173,0.368-0.277,0.599-0.288c0.678-0.032,2.472-0.116,6.163-0.418l7.895-0.645l-0.173-2.105l-6.172,0.504
			c-3.719,0.304-5.575,0.519-6.274,0.599c-0.033,0.004-0.067,0.006-0.102,0.006c-0.212,0-0.431-0.074-0.587-0.213
			c-0.181-0.161-0.31-0.389-0.31-0.632c-0.004-0.396-0.009-1.037-0.099-2.144l-0.211-2.583c-0.091-1.111-0.189-1.741-0.249-2.118
			c-0.039-0.246,0.03-0.505,0.192-0.694c0.161-0.189,0.396-0.308,0.645-0.308c0.695-0.034,2.554-0.123,6.298-0.429l6.172-0.504
			l-0.172-2.105l-12.057,0.985c-3.393,0.277-5.017,0.47-5.71,0.552c-0.033,0.004-0.066,0.006-0.101,0.006
			c-0.195,0-0.389-0.067-0.541-0.192c-0.179-0.146-0.295-0.358-0.313-0.588l-0.192-2.351c-0.019-0.23,0.058-0.458,0.21-0.631
			s0.369-0.277,0.601-0.288c0.695-0.031,2.325-0.105,5.729-0.383l12.058-0.986c-0.117-1.441-0.251-2.426-0.46-3.4
			c-0.053-0.244,0.005-0.499,0.156-0.696s0.383-0.319,0.632-0.332c0.82-0.042,1.798-0.084,2.827-0.084
			c0.354,0,0.71,0.005,1.073,0.016c0.274,0.008,0.527,0.148,0.68,0.375c0.153,0.227,0.188,0.514,0.093,0.771l-0.104,0.257
			c-0.164,0.605-0.187,1.231-0.066,2.698l12.153-0.994c3.407-0.279,5.025-0.471,5.716-0.553c0.034-0.004,0.067-0.006,0.101-0.006
			c0.195,0,0.386,0.067,0.538,0.192c0.179,0.146,0.291,0.359,0.31,0.589l0.192,2.351c0.019,0.23-0.057,0.458-0.21,0.632
			c-0.152,0.173-0.369,0.277-0.6,0.287c-0.624,0.028-2.281,0.101-5.73,0.383l-12.152,0.994l0.172,2.105l6.363-0.52
			c3.698-0.303,5.51-0.511,6.284-0.6c0.033-0.004,0.066-0.006,0.1-0.006c0.419,0,0.814,0.298,0.879,0.716
			c0.006,0.043,0.011,0.105,0.011,0.149c0.003,0.376,0.008,1.017,0.098,2.124l0.212,2.584c0.09,1.103,0.188,1.736,0.247,2.114
			c0.037,0.24-0.028,0.496-0.183,0.683c-0.154,0.188-0.379,0.312-0.621,0.321c-0.807,0.04-2.624,0.128-6.33,0.431l-6.363,0.52
			l0.172,2.105l7.751-0.634c3.811-0.312,5.633-0.524,6.232-0.595c0.033-0.004,0.065-0.006,0.099-0.006
			c0.207,0,0.409,0.076,0.565,0.215c0.182,0.161,0.285,0.393,0.285,0.635c0.019,0.55,0.06,1.722,0.227,3.768l0.09,1.101
			c1.937-0.158,3.066-0.295,3.747-0.385c0.037-0.005,0.073-0.007,0.11-0.007c0.193,0,0.382,0.066,0.534,0.189
			c0.182,0.146,0.295,0.36,0.313,0.592l0.18,2.202c0.019,0.228-0.055,0.453-0.204,0.625c-0.149,0.172-0.361,0.278-0.589,0.292
			c-0.002,0-0.101,0.006-0.103,0.006c-0.595,0.031-1.727,0.09-3.684,0.217l0.199,2.44c0.183,2.228,0.344,3.477,0.412,4.01
			c0.029,0.23-0.035,0.475-0.182,0.656s-0.358,0.306-0.59,0.325c0,0-3.076,0.25-3.1,0.25c-0.201,0-0.396-0.071-0.551-0.202
			c-0.172-0.146-0.278-0.354-0.297-0.579l-0.06-0.731l-10.096,0.826c0.116,0.842,0.182,1.643,0.24,2.351
			c0.194,2.365-0.19,3.599-1.37,4.436c-1.149,0.773-3.261,1.279-6.66,1.604C365.274,58.758,365.035,58.776,364.841,58.776z
			 M373.028,46.806l10.143-0.829l-0.184-2.249l-10.144,0.829L373.028,46.806z M372.539,40.825l10.143-0.829l-0.184-2.249
			l-10.143,0.829L372.539,40.825z M358.159,31.068l8.66-0.708l-0.195-2.392l-8.66,0.708L358.159,31.068z M371.651,29.964
			l8.852-0.724l-0.196-2.392l-8.852,0.724L371.651,29.964z"/>
	</g>
</g>
<g>
	<g>
		<path fill="none" stroke="#231815" stroke-width="6" d="M275.688,115.25c-0.201,0-0.397-0.072-0.552-0.203
			c-0.172-0.146-0.278-0.355-0.296-0.58l-0.239-2.994c-0.037-0.468,0.312-0.878,0.779-0.916l6.856-0.55l-2.079-25.935
			c-1.238,0.954-3.306,2.333-6.127,3.49c-0.104,0.042-0.213,0.064-0.322,0.064c-0.128,0-0.255-0.029-0.372-0.086
			c-0.218-0.106-0.38-0.3-0.446-0.533l-0.943-3.334c-0.119-0.422,0.102-0.866,0.511-1.024c2.772-1.075,5.419-2.624,7.866-4.604
			c0.134-0.108,0.296-0.173,0.467-0.187c0,0,3.959-0.317,3.981-0.317c0.201,0,0.396,0.072,0.552,0.203
			c0.171,0.146,0.278,0.354,0.296,0.58l2.502,31.212c0,0,6.52-0.522,6.542-0.522c0.201,0,0.397,0.072,0.552,0.203
			c0.172,0.146,0.278,0.355,0.296,0.58l0.239,2.994c0.037,0.468-0.312,0.878-0.779,0.916
			C294.972,113.707,275.711,115.25,275.688,115.25z"/>
		<path fill="none" stroke="#231815" stroke-width="6" d="M312.183,110.727c-0.193,0-0.382-0.066-0.534-0.188
			c-0.219-0.177-0.467-0.342-0.739-0.491c-0.222-0.122-0.378-0.335-0.426-0.583s0.017-0.505,0.177-0.701
			c2.287-2.795,2.744-5.203,2.222-11.71l-0.281-3.517c-0.099-1.236-0.188-2.118-0.244-2.651c-0.024-0.232,0.048-0.463,0.199-0.641
			c0.151-0.177,0.369-0.285,0.602-0.297c0.487-0.026,1.291-0.075,2.562-0.176l6.65-0.533c1.261-0.101,2.052-0.18,2.532-0.232
			c0.03-0.003,0.061-0.005,0.091-0.005c0.201,0,0.396,0.071,0.551,0.203c0.178,0.151,0.286,0.369,0.299,0.602
			c0.028,0.536,0.082,1.419,0.181,2.655l0.754,9.403c0.07,0.868,0.163,1.782,0.251,2.644c0.082,0.805,0.155,1.524,0.204,2.135
			c0.087,1.102-0.066,1.7-0.588,2.287c-0.567,0.615-1.297,0.802-3.916,1.012c-0.023,0.002-0.047,0.003-0.07,0.003
			c-0.399,0-0.785-0.271-0.871-0.664c-0.061-0.271-0.147-0.561-0.25-0.842c-0.093-0.255-0.058-0.54,0.095-0.766
			s0.403-0.365,0.675-0.375c0.441-0.016,0.897-0.043,1.432-0.086c0.556-0.045,0.815-0.349,0.771-0.905l-0.335-4.187l-8.542,0.685
			c-0.194,3.48-1.161,5.415-2.765,7.579c-0.139,0.186-0.346,0.308-0.576,0.337C312.255,110.725,312.219,110.727,312.183,110.727z
			 M315.536,97.418c0.066,1.126,0.123,2.133,0.147,3.046l8.303-0.666l-0.243-3.039L315.536,97.418z M315.351,95.097l8.206-0.658
			l-0.232-2.895l-8.206,0.658L315.351,95.097z"/>
		<path fill="none" stroke="#231815" stroke-width="6" d="M340.186,100.785c-0.438,0-0.811-0.337-0.847-0.782l-0.053-0.65
			c-0.019-0.225,0.054-0.448,0.2-0.62c0.146-0.172,0.354-0.279,0.579-0.297c0,0,5.337-0.427,5.359-0.427
			c0.201,0,0.397,0.072,0.552,0.203c0.172,0.146,0.278,0.355,0.296,0.58l0.052,0.65c0.037,0.468-0.312,0.877-0.779,0.915
			C345.545,100.358,340.208,100.785,340.186,100.785z"/>
		<path fill="none" stroke="#231815" stroke-width="6" d="M372.087,108.152c-7.371,0-11.728-5.729-12.596-16.569
			c-0.558-6.954,0.238-12.288,2.364-15.854c2.005-3.361,5.082-5.163,9.406-5.51c0.468-0.038,0.924-0.057,1.362-0.057
			c3.841,0,6.754,1.475,8.658,4.383c0.137,0.208,0.175,0.465,0.105,0.704s-0.24,0.435-0.468,0.537l-4.183,1.883
			c-0.112,0.051-0.231,0.075-0.349,0.075c-0.317,0-0.622-0.179-0.768-0.484c-0.775-1.626-2.031-2.45-3.73-2.45
			c-0.149,0-0.299,0.006-0.451,0.018c-5.648,0.453-6.434,7.561-6.099,13.444c1.433-2.941,4.163-4.716,7.69-4.999
			c0.314-0.025,0.624-0.038,0.93-0.038c5.692,0,9.568,4.251,10.117,11.095c0.308,3.838-0.569,7.171-2.537,9.637
			c-1.938,2.428-4.792,3.858-8.253,4.135C372.882,108.135,372.481,108.152,372.087,108.152z M365.784,93.197
			c0.376,4.693,1.823,10.288,6.585,10.288c0.164,0,0.331-0.007,0.499-0.02c1.776-0.142,3.161-0.957,4.007-2.356
			c0.87-1.442,1.206-3.49,0.998-6.087c-0.465-5.793-3.207-7.009-5.426-7.009c-0.173,0-0.349,0.007-0.528,0.021
			C369.329,88.242,367.093,90.124,365.784,93.197L365.784,93.197z"/>
		<path fill="none" stroke="#231815" stroke-width="6" d="M400.22,103.669c-0.193,0-0.382-0.066-0.534-0.188
			c-0.22-0.178-0.469-0.343-0.738-0.49c-0.222-0.121-0.378-0.335-0.427-0.583c-0.048-0.249,0.017-0.505,0.177-0.701
			c2.287-2.795,2.744-5.203,2.222-11.71l-0.281-3.518c-0.099-1.235-0.187-2.116-0.244-2.649c-0.024-0.232,0.047-0.465,0.198-0.643
			s0.369-0.285,0.603-0.297c0.488-0.026,1.291-0.075,2.562-0.176l6.65-0.533c1.261-0.101,2.053-0.18,2.531-0.232
			c0.031-0.003,0.062-0.005,0.092-0.005c0.201,0,0.396,0.071,0.551,0.203c0.178,0.151,0.286,0.369,0.299,0.602
			c0.028,0.535,0.082,1.419,0.181,2.655l0.754,9.403c0.07,0.868,0.163,1.782,0.251,2.644c0.082,0.805,0.155,1.524,0.204,2.135
			c0.088,1.103-0.066,1.701-0.587,2.287c-0.567,0.615-1.298,0.802-3.916,1.012c-0.023,0.002-0.047,0.003-0.07,0.003
			c-0.399,0-0.786-0.271-0.872-0.664c-0.061-0.271-0.147-0.561-0.25-0.842c-0.093-0.255-0.058-0.54,0.095-0.766
			s0.403-0.365,0.675-0.375c0.442-0.016,0.898-0.043,1.432-0.086c0.556-0.045,0.815-0.349,0.771-0.905l-0.335-4.187l-8.542,0.685
			c-0.194,3.48-1.161,5.415-2.765,7.579c-0.139,0.186-0.346,0.308-0.576,0.337C400.292,103.667,400.256,103.669,400.22,103.669z
			 M403.573,90.36c0.066,1.126,0.123,2.133,0.148,3.046l8.302-0.665l-0.243-3.039L403.573,90.36z M403.388,88.04l8.206-0.658
			l-0.232-2.895l-8.206,0.658L403.388,88.04z"/>
	</g>
	<g>
		<path fill="none" stroke="#231815" stroke-width="3" d="M274.271,113.833c-0.201,0-0.397-0.072-0.552-0.203
			c-0.172-0.146-0.278-0.355-0.296-0.58l-0.239-2.994c-0.037-0.468,0.312-0.878,0.779-0.916l6.856-0.55l-2.079-25.935
			c-1.238,0.954-3.306,2.333-6.127,3.49c-0.104,0.042-0.213,0.064-0.322,0.064c-0.128,0-0.255-0.029-0.372-0.086
			c-0.218-0.106-0.38-0.3-0.446-0.533l-0.943-3.334c-0.119-0.422,0.102-0.866,0.511-1.024c2.772-1.075,5.419-2.624,7.866-4.604
			c0.134-0.108,0.296-0.173,0.467-0.187c0,0,3.959-0.317,3.981-0.317c0.201,0,0.396,0.072,0.552,0.203
			c0.171,0.146,0.278,0.354,0.296,0.58l2.502,31.212c0,0,6.52-0.522,6.542-0.522c0.201,0,0.397,0.072,0.552,0.203
			c0.172,0.146,0.278,0.355,0.296,0.58l0.239,2.994c0.037,0.468-0.312,0.878-0.779,0.916
			C293.555,112.289,274.294,113.833,274.271,113.833z"/>
		<path fill="none" stroke="#231815" stroke-width="3" d="M310.766,109.31c-0.193,0-0.382-0.066-0.534-0.188
			c-0.219-0.177-0.467-0.342-0.739-0.491c-0.222-0.122-0.378-0.335-0.426-0.583s0.017-0.505,0.177-0.701
			c2.287-2.795,2.744-5.203,2.222-11.71l-0.281-3.517c-0.099-1.236-0.188-2.118-0.244-2.651c-0.024-0.232,0.048-0.463,0.199-0.641
			c0.151-0.177,0.369-0.285,0.602-0.297c0.487-0.026,1.291-0.075,2.562-0.176l6.65-0.533c1.261-0.101,2.052-0.18,2.532-0.232
			c0.03-0.003,0.061-0.005,0.091-0.005c0.201,0,0.396,0.071,0.551,0.203c0.178,0.151,0.286,0.369,0.299,0.602
			c0.028,0.536,0.082,1.419,0.181,2.655l0.754,9.403c0.07,0.868,0.163,1.782,0.251,2.644c0.082,0.805,0.155,1.524,0.204,2.135
			c0.087,1.102-0.066,1.7-0.588,2.287c-0.567,0.615-1.297,0.802-3.916,1.012c-0.023,0.002-0.047,0.003-0.07,0.003
			c-0.399,0-0.785-0.271-0.871-0.664c-0.061-0.271-0.147-0.561-0.25-0.842c-0.093-0.255-0.058-0.54,0.095-0.766
			s0.403-0.365,0.675-0.375c0.441-0.016,0.897-0.043,1.432-0.086c0.556-0.045,0.815-0.349,0.771-0.905l-0.335-4.187l-8.542,0.685
			c-0.194,3.48-1.161,5.415-2.765,7.579c-0.139,0.186-0.346,0.308-0.576,0.337C310.838,109.307,310.802,109.31,310.766,109.31z
			 M314.119,96c0.066,1.126,0.123,2.133,0.147,3.046l8.303-0.666l-0.243-3.039L314.119,96z M313.934,93.68l8.206-0.658l-0.232-2.895
			l-8.206,0.658L313.934,93.68z"/>
		<path fill="none" stroke="#231815" stroke-width="3" d="M338.769,99.368c-0.438,0-0.811-0.337-0.847-0.782l-0.053-0.65
			c-0.019-0.225,0.054-0.448,0.2-0.62c0.146-0.172,0.354-0.279,0.579-0.297c0,0,5.337-0.427,5.359-0.427
			c0.201,0,0.397,0.072,0.552,0.203c0.172,0.146,0.278,0.355,0.296,0.58l0.052,0.65c0.037,0.468-0.312,0.877-0.779,0.915
			C344.128,98.94,338.791,99.368,338.769,99.368z"/>
		<path fill="none" stroke="#231815" stroke-width="3" d="M370.67,106.734c-7.371,0-11.728-5.729-12.596-16.569
			c-0.558-6.954,0.238-12.288,2.364-15.854c2.005-3.361,5.082-5.163,9.406-5.51c0.468-0.038,0.924-0.057,1.362-0.057
			c3.841,0,6.754,1.475,8.658,4.383c0.137,0.208,0.175,0.465,0.105,0.704s-0.24,0.435-0.468,0.537l-4.183,1.883
			c-0.112,0.051-0.231,0.075-0.349,0.075c-0.317,0-0.622-0.179-0.768-0.484c-0.775-1.626-2.031-2.45-3.73-2.45
			c-0.149,0-0.299,0.006-0.451,0.018c-5.648,0.453-6.434,7.561-6.099,13.444c1.433-2.941,4.163-4.716,7.69-4.999
			c0.314-0.025,0.624-0.038,0.93-0.038c5.692,0,9.568,4.251,10.117,11.095c0.308,3.838-0.569,7.171-2.537,9.637
			c-1.938,2.428-4.792,3.858-8.253,4.135C371.465,106.718,371.064,106.734,370.67,106.734z M364.367,91.78
			c0.376,4.693,1.823,10.288,6.585,10.288c0.164,0,0.331-0.007,0.499-0.02c1.776-0.142,3.161-0.957,4.007-2.356
			c0.87-1.442,1.206-3.49,0.998-6.087c-0.465-5.793-3.207-7.009-5.426-7.009c-0.173,0-0.349,0.007-0.528,0.021
			C367.912,86.824,365.676,88.706,364.367,91.78L364.367,91.78z"/>
		<path fill="none" stroke="#231815" stroke-width="3" d="M398.803,102.252c-0.193,0-0.382-0.066-0.534-0.188
			c-0.22-0.178-0.469-0.343-0.738-0.49c-0.222-0.121-0.378-0.335-0.427-0.583c-0.048-0.249,0.017-0.505,0.177-0.701
			c2.287-2.795,2.744-5.203,2.222-11.71l-0.281-3.518c-0.099-1.235-0.187-2.116-0.244-2.649c-0.024-0.232,0.047-0.465,0.198-0.643
			s0.369-0.285,0.603-0.297c0.488-0.026,1.291-0.075,2.562-0.176l6.65-0.533c1.261-0.101,2.053-0.18,2.531-0.232
			c0.031-0.003,0.062-0.005,0.092-0.005c0.201,0,0.396,0.071,0.551,0.203c0.178,0.151,0.286,0.369,0.299,0.602
			c0.028,0.535,0.082,1.419,0.181,2.655l0.754,9.403c0.07,0.868,0.163,1.782,0.251,2.644c0.082,0.805,0.155,1.524,0.204,2.135
			c0.088,1.103-0.066,1.701-0.587,2.287c-0.567,0.615-1.298,0.802-3.916,1.012c-0.023,0.002-0.047,0.003-0.07,0.003
			c-0.399,0-0.786-0.271-0.872-0.664c-0.061-0.271-0.147-0.561-0.25-0.842c-0.093-0.255-0.058-0.54,0.095-0.766
			s0.403-0.365,0.675-0.375c0.442-0.016,0.898-0.043,1.432-0.086c0.556-0.045,0.815-0.349,0.771-0.905l-0.335-4.187l-8.542,0.685
			c-0.194,3.48-1.161,5.415-2.765,7.579c-0.139,0.186-0.346,0.308-0.576,0.337C398.875,102.25,398.839,102.252,398.803,102.252z
			 M402.156,88.943c0.066,1.126,0.123,2.133,0.148,3.046l8.302-0.665l-0.243-3.039L402.156,88.943z M401.971,86.622l8.206-0.658
			l-0.232-2.895l-8.206,0.658L401.971,86.622z"/>
	</g>
	<g>
		<path fill="#FFFFFF" d="M274.271,113.833c-0.201,0-0.397-0.072-0.552-0.203c-0.172-0.146-0.278-0.355-0.296-0.58l-0.239-2.994
			c-0.037-0.468,0.312-0.878,0.779-0.916l6.856-0.55l-2.079-25.935c-1.238,0.954-3.306,2.333-6.127,3.49
			c-0.104,0.042-0.213,0.064-0.322,0.064c-0.128,0-0.255-0.029-0.372-0.086c-0.218-0.106-0.38-0.3-0.446-0.533l-0.943-3.334
			c-0.119-0.422,0.102-0.866,0.511-1.024c2.772-1.075,5.419-2.624,7.866-4.604c0.134-0.108,0.296-0.173,0.467-0.187
			c0,0,3.959-0.317,3.981-0.317c0.201,0,0.396,0.072,0.552,0.203c0.171,0.146,0.278,0.354,0.296,0.58l2.502,31.212
			c0,0,6.52-0.522,6.542-0.522c0.201,0,0.397,0.072,0.552,0.203c0.172,0.146,0.278,0.355,0.296,0.58l0.239,2.994
			c0.037,0.468-0.312,0.878-0.779,0.916C293.555,112.289,274.294,113.833,274.271,113.833z"/>
		<path fill="#FFFFFF" d="M310.766,109.31c-0.193,0-0.382-0.066-0.534-0.188c-0.219-0.177-0.467-0.342-0.739-0.491
			c-0.222-0.122-0.378-0.335-0.426-0.583s0.017-0.505,0.177-0.701c2.287-2.795,2.744-5.203,2.222-11.71l-0.281-3.517
			c-0.099-1.236-0.188-2.118-0.244-2.651c-0.024-0.232,0.048-0.463,0.199-0.641c0.151-0.177,0.369-0.285,0.602-0.297
			c0.487-0.026,1.291-0.075,2.562-0.176l6.65-0.533c1.261-0.101,2.052-0.18,2.532-0.232c0.03-0.003,0.061-0.005,0.091-0.005
			c0.201,0,0.396,0.071,0.551,0.203c0.178,0.151,0.286,0.369,0.299,0.602c0.028,0.536,0.082,1.419,0.181,2.655l0.754,9.403
			c0.07,0.868,0.163,1.782,0.251,2.644c0.082,0.805,0.155,1.524,0.204,2.135c0.087,1.102-0.066,1.7-0.588,2.287
			c-0.567,0.615-1.297,0.802-3.916,1.012c-0.023,0.002-0.047,0.003-0.07,0.003c-0.399,0-0.785-0.271-0.871-0.664
			c-0.061-0.271-0.147-0.561-0.25-0.842c-0.093-0.255-0.058-0.54,0.095-0.766s0.403-0.365,0.675-0.375
			c0.441-0.016,0.897-0.043,1.432-0.086c0.556-0.045,0.815-0.349,0.771-0.905l-0.335-4.187l-8.542,0.685
			c-0.194,3.48-1.161,5.415-2.765,7.579c-0.139,0.186-0.346,0.308-0.576,0.337C310.838,109.307,310.802,109.31,310.766,109.31z
			 M314.119,96c0.066,1.126,0.123,2.133,0.147,3.046l8.303-0.666l-0.243-3.039L314.119,96z M313.934,93.68l8.206-0.658l-0.232-2.895
			l-8.206,0.658L313.934,93.68z"/>
		<path fill="#FFFFFF" d="M338.769,99.368c-0.438,0-0.811-0.337-0.847-0.782l-0.053-0.65c-0.019-0.225,0.054-0.448,0.2-0.62
			c0.146-0.172,0.354-0.279,0.579-0.297c0,0,5.337-0.427,5.359-0.427c0.201,0,0.397,0.072,0.552,0.203
			c0.172,0.146,0.278,0.355,0.296,0.58l0.052,0.65c0.037,0.468-0.312,0.877-0.779,0.915
			C344.128,98.94,338.791,99.368,338.769,99.368z"/>
		<path fill="#FFFFFF" d="M370.67,106.734c-7.371,0-11.728-5.729-12.596-16.569c-0.558-6.954,0.238-12.288,2.364-15.854
			c2.005-3.361,5.082-5.163,9.406-5.51c0.468-0.038,0.924-0.057,1.362-0.057c3.841,0,6.754,1.475,8.658,4.383
			c0.137,0.208,0.175,0.465,0.105,0.704s-0.24,0.435-0.468,0.537l-4.183,1.883c-0.112,0.051-0.231,0.075-0.349,0.075
			c-0.317,0-0.622-0.179-0.768-0.484c-0.775-1.626-2.031-2.45-3.73-2.45c-0.149,0-0.299,0.006-0.451,0.018
			c-5.648,0.453-6.434,7.561-6.099,13.444c1.433-2.941,4.163-4.716,7.69-4.999c0.314-0.025,0.624-0.038,0.93-0.038
			c5.692,0,9.568,4.251,10.117,11.095c0.308,3.838-0.569,7.171-2.537,9.637c-1.938,2.428-4.792,3.858-8.253,4.135
			C371.465,106.718,371.064,106.734,370.67,106.734z M364.367,91.78c0.376,4.693,1.823,10.288,6.585,10.288
			c0.164,0,0.331-0.007,0.499-0.02c1.776-0.142,3.161-0.957,4.007-2.356c0.87-1.442,1.206-3.49,0.998-6.087
			c-0.465-5.793-3.207-7.009-5.426-7.009c-0.173,0-0.349,0.007-0.528,0.021C367.912,86.824,365.676,88.706,364.367,91.78
			L364.367,91.78z"/>
		<path fill="#FFFFFF" d="M398.803,102.252c-0.193,0-0.382-0.066-0.534-0.188c-0.22-0.178-0.469-0.343-0.738-0.49
			c-0.222-0.121-0.378-0.335-0.427-0.583c-0.048-0.249,0.017-0.505,0.177-0.701c2.287-2.795,2.744-5.203,2.222-11.71l-0.281-3.518
			c-0.099-1.235-0.187-2.116-0.244-2.649c-0.024-0.232,0.047-0.465,0.198-0.643s0.369-0.285,0.603-0.297
			c0.488-0.026,1.291-0.075,2.562-0.176l6.65-0.533c1.261-0.101,2.053-0.18,2.531-0.232c0.031-0.003,0.062-0.005,0.092-0.005
			c0.201,0,0.396,0.071,0.551,0.203c0.178,0.151,0.286,0.369,0.299,0.602c0.028,0.535,0.082,1.419,0.181,2.655l0.754,9.403
			c0.07,0.868,0.163,1.782,0.251,2.644c0.082,0.805,0.155,1.524,0.204,2.135c0.088,1.103-0.066,1.701-0.587,2.287
			c-0.567,0.615-1.298,0.802-3.916,1.012c-0.023,0.002-0.047,0.003-0.07,0.003c-0.399,0-0.786-0.271-0.872-0.664
			c-0.061-0.271-0.147-0.561-0.25-0.842c-0.093-0.255-0.058-0.54,0.095-0.766s0.403-0.365,0.675-0.375
			c0.442-0.016,0.898-0.043,1.432-0.086c0.556-0.045,0.815-0.349,0.771-0.905l-0.335-4.187l-8.542,0.685
			c-0.194,3.48-1.161,5.415-2.765,7.579c-0.139,0.186-0.346,0.308-0.576,0.337C398.875,102.25,398.839,102.252,398.803,102.252z
			 M402.156,88.943c0.066,1.126,0.123,2.133,0.148,3.046l8.302-0.665l-0.243-3.039L402.156,88.943z M401.971,86.622l8.206-0.658
			l-0.232-2.895l-8.206,0.658L401.971,86.622z"/>
	</g>
</g>
</svg>
