<?xml version="1.0" encoding="utf-8"?>
<!-- Generator: Adobe Illustrator 16.0.4, SVG Export Plug-In . SVG Version: 6.00 Build 0)  -->
<!DOCTYPE svg PUBLIC "-//W3C//DTD SVG 1.1//EN" "http://www.w3.org/Graphics/SVG/1.1/DTD/svg11.dtd">
<svg version="1.1" id="レイヤー_1" xmlns="http://www.w3.org/2000/svg" xmlns:xlink="http://www.w3.org/1999/xlink" x="0px"
	 y="0px" width="406.186px" height="130.927px" viewBox="0 0 406.186 130.927" enable-background="new 0 0 406.186 130.927"
	 xml:space="preserve">
<g>
	<g>
		<g>
			<path fill="#E02A16" d="M101.952,67.501c0.67-0.229,1.195,0.603,1.208-0.229c1.42,1.558-2.387,2.327-4.067,2.724
				C99.382,67.305,101.973,70.028,101.952,67.501z"/>
			<path fill="#E02A16" d="M83.409,73.029c-0.677,2.714-5.28,1.846-6.961,2.817C78.184,73.557,80.591,74.109,83.409,73.029z"/>
			<path fill="#E02A16" d="M70.823,76.948c-0.994,0.566-6.893,3.738-9.24,1.825C64.12,79.299,68.434,76.497,70.823,76.948z"/>
			<path fill="#E02A16" d="M12.002,89.792c0.852-1.307,3.829-0.971,5.517-1.632C16.661,89.464,13.682,89.124,12.002,89.792z"/>
			<path fill="#E02A16" d="M136.879,64.859c0.035,0.696-1.171,0.385-1.035,1.163c-2.888,0.197-4.27,1.614-7.159,1.807
				C131.689,66.305,133.861,65.709,136.879,64.859z"/>
			<path fill="#E02A16" d="M165.823,61.548c-5.557,0.024-13.646,4.599-19.739,3.565C151.723,65.09,160.835,59.529,165.823,61.548z"
				/>
			<path fill="#E02A16" d="M97.221,73.285c0.192,1.486-1.848,1.187-3.034,1.567C95.019,73.304,95.976,74.337,97.221,73.285z"/>
			<path fill="#E02A16" d="M122.778,71.863c-1.036,0.5-3.304,0.004-3.53,1.155C118.625,71.72,122.724,70.378,122.778,71.863z"/>
			<path fill="#E02A16" d="M90.624,77.989c-1.228,1.011-3.316,1.335-5.041,1.949C85.782,78.224,90.019,78.108,90.624,77.989z"/>
			<path fill="#E02A16" d="M82.371,80.56c-0.136,1.885-3.278,1.37-4.542,2.351C78.324,81.319,81.056,81.506,82.371,80.56z"/>
			<path fill="#E02A16" d="M75.636,82.357c-2.711,2.329-7.511,3.129-9.939,2.453C68.475,83.785,72.921,83.593,75.636,82.357z"/>
			<path fill="#E02A16" d="M153.641,70.066c-0.815,1.077-3.151,0.914-4.25,1.76C150.053,69.705,151.984,70.192,153.641,70.066z"/>
			<path fill="#E02A16" d="M72.857,87.309c-0.028,0.773-1.182,0.652-0.432,2.044c-2.899,0.346-5.069,1.273-7.031,2.363
				C67.169,89,69.417,87.97,72.857,87.309z"/>
			<path fill="#E02A16" d="M113.176,84.917c-0.045,2.875-6.274,1.868-7.444,2.387c-0.884,2.081-4.266,2.144-6.457,3.187
				C100.359,85.662,107.677,86.84,113.176,84.917z"/>
			<path fill="#E02A16" d="M83.278,91.635c-3.956,2.42-12.836,5.12-16.953,4.792C71.502,95.065,77.2,93.258,83.278,91.635z"/>
			<path fill="#E02A16" d="M115.139,90.892c1.592,1.576-3.624,1.06-4.14,2.251C110.461,90.849,114.909,92.574,115.139,90.892z"/>
			<path fill="#E02A16" d="M348.589,5.31c-0.391-0.167,0.169-1.465-0.557-1.39c-1.094,0.106-1.832,1.477-3.216,1.779
				c-7.883,1.739-17.039,1.632-25.76,3.824c-4.368,1.055-8.944,2.143-13.475,3.133c-19.846,4.475-37.958,8.956-56.567,11.053
				c-0.539,0.087-0.245,0.886-0.669,1.074c-2.855,0.394-5.74,0.73-8.628,1.093c-2.883,0.378-5.777,0.762-8.669,1.203
				c-5.784,0.882-11.562,1.995-17.219,3.748c-7.965,2.463-16.385,3.431-24.915,5.696c-4.932,1.325-9.647,3.728-14.574,4.978
				c-7.547,1.885-15.743,3.594-23.693,5.428c-7.94,1.873-15.631,3.879-22.177,6.297c-8.087,2.973-17.424,2.828-26.214,4.933
				c-5.157,1.238-10.007,4.058-14.857,5.292c-4.293,1.097-7.951,1.631-11.492,3.209c-11.323,5.075-22.562,9.584-33.768,13.052
				c-4.181,1.285-9.507,1.725-12.066,4.399c-3.637-0.64-7.889,3.613-12.251,3.494c12.289-1.749,34.832-7.51,45.798-11.197
				c9.01,1.599,21.199-8.086,27.208-3.842c-0.374-2.93-2.38-0.101-2.867-1.887c11.003-3.882,19.597-3.852,29.962-9.139
				c0.13,1.264-0.537,1.711,1.072,1.266c1.031-1.343,0.108-0.31-0.354-1.887c9.93-2.408,19.39-4.826,30.872-6.688
				c-0.724,0.348-2.547-0.196-1.844,1.314c6.302-2.151,12.99-1.648,19.93-5.041c0.912,0.497,2.047,0.615,2.438,2.001
				c0.347,1.766-2.836,0.631-2.488,2.396c0.917,1.211,1.529-2.149,2.824-0.504c0.068,0.907,0.64,0.962,0.739,1.813
				c-8.411,2.533-18.981,3.941-24.885,7.408c7.861-1.795,17.417-4.251,23.927-5.773c-0.613,1.112-2.599,1.092-3.375,2.066
				c-0.267,2.1,2.099-0.295,2.268,1.059c-1.004,7.459-7.101,8.261-12.881,11.562c-5.164-1.738-10.025,2.339-15.098,3.755
				c-4.373,1.22-9.94-0.083-12.683,3.311c-2.727-0.599-4.371,2.405-4.912,4.833c0.189,1.617,1.704-0.383,2.047,2.056
				c-3.446-1.307-3.461,3.479-2.187,3.832c-1.002-0.008-0.709,1.027-1.915,0.851c-0.138-0.687,1.408-1.815-0.267-1.417
				c-1.758-0.204-3.505,0.191-3.741,2.176c-6.612,3.288-15.67,4.274-23.983,7.024c-1.205,0.666-1.065-1.058-1.874-1.099
				c-4.086,5.515-18.018,1.292-22.472,8.305c-10.133,2.977-15.398,5.678-25.405,8.006c0.981-0.489,1.475-0.101,1.483,1.172
				c-1.646,0.44-2.041-0.388-3.192,0.643c-0.003-0.662,0.384-1.018,0.018-1.963c-1.945,0.838-5.806,0.174-6.189,2.242
				c1.503-0.463,4.022,0.599,5.183-1.058c0.748,1.075,0.096,1.513,0.78,1.801c3.304-0.825,6.33-3.961,9.693-3.418
				c-0.187,0.897-1.615,1.13-0.421,2.037c1.196-0.971,2.556-0.309,3.1-1.107c-0.667,0.279-1.766-1.545-0.283-1.412
				c1.208,1.58,1.743,1.115,4.062,1.631c-7.965,4.751-16.438,4.155-27.828,8.078c0.901,0.58,3.243-2.033,5.175-1.057
				c-0.49-0.246-1.098,0.714-1.098,0.714c3.589,0,7.662-1.569,11.552-2.349c9.717-1.97,25.156-4.234,32.662-8.949
				c2.365,1.877,4.646-0.699,7.193-1.402c8.534-2.349,18.631-4.847,27.138-7.662c3.889-1.296,11.075-0.801,16.317-3.578
				c0.692-0.369,1.076-1.608,1.737-1.791c0.729-0.202,1.812,0.605,2.579,0.5c1.038-0.144,2.099-1.31,3.028-1.534
				c5.199-1.257,11.515-1.829,16.42-3.026c16.892-4.07,33.141-8.82,51.041-12.927c5.102,1.085,8.986-2.55,13.397-1.325
				c1.011-0.363,0.973-1.612,2.169-1.816c6.223-1.56,11.34-2.248,15.404-1.543c0.356-0.513-0.16-1.769,0.973-1.622
				c1.491-0.271,2.616,0.065,3.766,0.363c2.512-5.251,8.185,1.022,11.739-3.828c0.075,0.474,0.149,0.946,0.225,1.424
				c2.141-2.092,4.287-1.074,6.421-0.983c1.518,0.063,2.324-1.629,4.196-2.102c0.653-0.161,2.073,0.618,2.954,0.517
				c1.184-0.126,1.047-1.353,2.008-0.308c3.062-3.224,10.063-4.122,12.704-2.888c-1.367-1.508,3.405-1.091,4.21-2.047
				c1.042-0.104,0.715,1.978,2.212,1.144c6.058-1.133,12.066-2.486,18.152-3.862c6.084-1.34,12.238-2.59,18.598-3.724
				c3.179-0.56,6.407-1.075,9.699-1.52c3.288-0.415,6.63-0.688,10.053-0.904c3.422-0.207,6.919-0.318,10.503-0.307
				c1.791,0.005,3.604,0.041,5.441,0.11c1.827,0.103,3.665,0.278,5.532,0.469c1.653-1.8,2.868-4.063,3.887-6.546
				c1.218-0.219,1.722-1.17,2.697-1.643c0.7-1.053,1.103-2.417,1.775-3.504c9.624-7.081,9.635-23.431,1.298-30.896
				c-2.378-2.136-5.788-3.834-9.53-4.977c-3.725-1.122-7.844-1.776-11.439-1.6C352.271,4.242,348.356,5.214,348.589,5.31z
				 M149.745,53.211c0.485,1,3.318-2.054,3.804,0.29C151.906,52.24,150.857,55.368,149.745,53.211z M193.031,69.912
				c-2.741,2.854-11.035,3.163-14.627,4.02C182.324,71.069,188.323,71.422,193.031,69.912z M143.923,85.036
				c0.727-0.018,1.064,0.644,1.149,1.737c-1.145-0.294-2.565-0.111-4.097,0.268C140.161,84.908,144.004,86.572,143.923,85.036z
				 M111.716,96.917c-1.023,2.345-4.308,2.602-6.447,3.175c-5.652,1.524-11.898,3.228-17.331,4.818
				C93.057,100.226,105.124,99.065,111.716,96.917z"/>
			<path fill="#E02A16" d="M130.05,61.725c0.845-1.409-0.845-0.631-1.472-1.193c3.536-2.13,12.418-2.685,14.569-4.638
				c1.176-0.981,2.618,2.038,2.419-0.446c0.741,3.679-4.386,1.723-5.528,3.948c3.126-0.076,8.633-0.894,11.372-1.608
				c0.144,2.298-4.133,1.25-6.362,1.661c-2.122,0.39-3.985,1.756-5.958,1.584c-0.805-0.268-1.335-1.01-2.276-1.043
				C137.369,60.781,133.42,60.682,130.05,61.725z"/>
			<path fill="#E02A16" d="M58.045,88.279c1.145-1.524,2.907-1.412,5.832-2.131C65.322,85.958,60.962,88.055,58.045,88.279z"/>
			<path fill="#E02A16" d="M83.77,92.027c2.215-1.556,7.602-2.866,3.917-1.246C86.318,91.382,86.299,91.475,83.77,92.027z"/>
			<path fill="#E02A16" d="M71.934,76.236c1.147,0.076,3.073-1.223,3.71-0.234c1.068,0.862,0.095,1.031-1.022,1.173
				c2.437,1.206,6.55-1.989,10.542-1.554c-9.827,3.327-24.042,7.857-34.381,9.701c7.041-2.316,15.627-5.283,22.015-6.812
				C72.869,77.116,71.993,77.405,71.934,76.236z"/>
		</g>
	</g>
</g>
<g>
	<g>
		<path fill="none" stroke="#231815" stroke-width="6" d="M59.416,82.311c-5.034,0-8.408-2.086-10.313-6.378
			c-0.095-0.213-0.098-0.455-0.008-0.671c0.089-0.215,0.263-0.385,0.481-0.468l4.108-1.576c0.098-0.038,0.202-0.057,0.305-0.057
			c0.119,0,0.237,0.025,0.347,0.074c0.207,0.093,0.368,0.263,0.448,0.475c1.032,2.714,2.608,3.925,5.111,3.925
			c0.235,0,0.478-0.011,0.729-0.031c3.505-0.287,5.409-2.766,5.093-6.63c-0.334-4.086-2.449-6.071-6.468-6.071
			c-0.367,0-0.75,0.016-1.153,0.049c0,0-1.974,0.16-1.998,0.16c-0.438,0-0.81-0.337-0.847-0.781l-0.261-3.185
			c-0.019-0.225,0.053-0.448,0.199-0.62s0.354-0.279,0.579-0.297l1.688-0.138c2.354-0.192,3.997-0.817,5.021-1.909
			c0.956-1.019,1.361-2.492,1.207-4.379c-0.246-3.009-2.008-4.734-4.836-4.734c-0.197,0-0.4,0.008-0.606,0.025
			c-2.511,0.206-4.132,1.819-4.565,4.543c-0.037,0.23-0.167,0.436-0.359,0.568c-0.143,0.098-0.311,0.149-0.481,0.149
			c-0.06,0-0.119-0.006-0.178-0.019l-4.272-0.914c-0.226-0.048-0.423-0.187-0.545-0.383s-0.159-0.434-0.102-0.659
			c1.193-4.675,4.822-7.493,10.218-7.935c0.452-0.037,0.897-0.055,1.33-0.055c5.89,0,9.963,3.276,10.377,8.346
			c0.354,4.327-2.064,7.699-6.312,8.8l0.027,0.335c4.981,0.646,8.063,3.764,8.454,8.555c0.259,3.175-0.631,5.981-2.575,8.116
			c-1.949,2.142-4.788,3.421-8.21,3.7C60.489,82.288,59.939,82.311,59.416,82.311z"/>
		<path fill="none" stroke="#231815" stroke-width="6" d="M92.676,78.978c-0.438,0-0.81-0.337-0.847-0.781l-0.401-4.906
			c-0.038-0.468,0.31-0.879,0.778-0.917c0,0,5.193-0.425,5.216-0.425c0.201,0,0.396,0.071,0.55,0.202
			c0.172,0.146,0.279,0.354,0.297,0.579l0.401,4.908c0.018,0.225-0.053,0.448-0.199,0.62s-0.354,0.278-0.579,0.297
			C97.893,78.555,92.7,78.978,92.676,78.978z"/>
		<path fill="none" stroke="#231815" stroke-width="6" d="M130.707,77.796c-0.215,0-0.425-0.082-0.583-0.232
			c-0.094-0.088-0.253-0.278-0.385-0.441l-0.163-0.2c-1.496-1.733-4.228-3.821-7.291-5.563h0c-0.543,0.357-1.07,0.787-1.444,1.178
			c-0.188,0.218-0.494,0.379-0.792,0.4c-0.021,0.002-0.042,0.003-0.063,0.003c-0.055,0-0.109-0.006-0.163-0.016
			c-0.3-0.059-0.622-0.302-0.883-0.667c-0.565-0.775-1.537-2.453-2.066-3.384c-0.123-0.215-0.145-0.473-0.062-0.706
			s0.265-0.419,0.496-0.508c1.174-0.451,2.295-1.024,3.333-1.705c1.963-1.317,4.106-2.792,7.434-5.087l-0.669-8.182
			c-2.346,0.382-4.762,0.775-8.006,1.04c-0.08,0.006-0.155,0.01-0.224,0.01c-0.125,0-0.208-0.011-0.26-0.019
			c-0.371-0.062-0.646-0.356-0.701-0.71l-0.047-0.192c-0.15-0.62-0.366-1.628-0.654-3.058c-0.051-0.252,0.015-0.514,0.18-0.711
			c0.162-0.195,0.401-0.307,0.654-0.307c0.004,0,0.294,0.002,0.294,0.002c0.721,0,1.487-0.035,2.411-0.111
			c2.058-0.168,4.177-0.546,6.046-0.88l0,0c-0.061-0.747-0.116-1.547-0.175-2.401l-0.009-0.132c-0.063-0.915-0.13-1.89-0.215-2.924
			c-0.064-0.787-0.166-1.82-0.383-2.828c-0.054-0.252,0.009-0.516,0.172-0.716c0.161-0.199,0.404-0.314,0.66-0.314
			c0.002,0,0.004,0,0.006,0c1.816,0.012,3.471,0.156,4.658,0.405c0.217,0.036,0.43,0.107,0.597,0.205
			c0.339,0.199,0.498,0.605,0.383,0.981c-0.024,0.078-0.071,0.213-0.172,0.432c-0.304,0.694-0.476,1.329-0.519,1.922
			c-0.043,1.285,0.011,2.517,0.086,3.991c2.15-0.626,4.105-1.445,5.735-2.163c0.109-0.048,0.226-0.072,0.343-0.072
			c0.131,0,0.263,0.031,0.383,0.091c0.227,0.115,0.391,0.325,0.447,0.573c0.243,1.079,0.414,2.196,0.508,3.319
			c0.03,0.358-0.169,0.697-0.497,0.846c-3.058,1.256-3.879,1.579-6.752,2.402l0,0c0.07,1.136,0.151,2.282,0.233,3.428
			c0.085,1.183,0.168,2.355,0.239,3.517c3.915-2.058,8.126-3.367,11.555-3.594c0.339-0.025,0.674-0.038,1.004-0.038
			c5.621,0,9.534,3.444,9.97,8.773c0.498,6.081-3.087,10.029-9.589,10.562c-0.478,0.039-0.974,0.057-1.461,0.057
			c-0.896,0-1.807-0.062-2.498-0.168c-0.744-0.122-1.103-0.538-1.169-1.35c-0.094-0.532-0.312-1.452-0.764-2.392
			c-0.135-0.28-0.105-0.612,0.076-0.864c0.161-0.225,0.419-0.354,0.69-0.354c0.035,0,0.07,0.002,0.105,0.007
			c0.676,0.084,1.353,0.125,2.069,0.125c0.804,0,1.547-0.052,2.105-0.098c2.383-0.196,5.062-1.715,4.764-5.35
			c-0.233-2.858-1.983-4.433-4.927-4.433c-0.236,0-0.479,0.01-0.73,0.031c-3.206,0.262-6.503,1.542-10.69,4.149
			c0.212,2.006,0.394,3.628,0.66,5.725l0.243,1.586c0.272,1.771,0.58,3.763,0.648,4.603l0.018,0.198
			c0.04,0.419,0.057,0.693-0.04,0.947c-0.091,0.237-0.283,0.422-0.523,0.502c-1.085,0.365-2.566,0.724-3.522,0.853
			C130.782,77.793,130.744,77.796,130.707,77.796z M124.302,69.507c1.193,0.521,2.972,1.252,4.672,1.785
			c0.085,0.015,0.158,0.022,0.219,0.022c0.146,0,0.187-0.049,0.204-0.069c0.08-0.097,0.04-0.298,0.025-0.374
			c-0.12-0.751-0.269-1.854-0.417-2.957c-0.096-0.714-0.192-1.426-0.28-2.044l-0.208,0.167
			C127.321,67,125.834,68.198,124.302,69.507z M153.816,51.585c-0.212,0-0.417-0.08-0.576-0.225
			c-2.308-2.122-5.196-3.61-9.089-4.685c-0.238-0.066-0.436-0.231-0.542-0.454c-0.106-0.223-0.11-0.48-0.012-0.707
			c0.409-0.934,0.906-1.913,1.52-2.995l0.096-0.178c0.153-0.271,0.438-0.434,0.741-0.434c0.059,0,0.119,0.006,0.179,0.019
			c4.132,0.89,7.508,2.499,10.321,4.918c0.278,0.239,0.372,0.63,0.231,0.97c-0.012,0.029-0.037,0.085-0.052,0.113
			c-0.312,0.569-0.923,1.487-1.462,2.296c-0.229,0.344-0.45,0.676-0.642,0.973c-0.136,0.21-0.358,0.35-0.607,0.381
			C153.887,51.583,153.852,51.585,153.816,51.585z"/>
		<path fill="none" stroke="#231815" stroke-width="6" d="M167.032,76.511c-0.204,0-0.401-0.073-0.556-0.207
			c-0.173-0.149-0.278-0.362-0.292-0.59l-0.009-0.14c-0.073-1.183-0.265-4.318-0.707-9.722l-1.693-20.716
			c-0.442-5.397-0.766-8.585-0.888-9.785l-0.015-0.149c-0.023-0.231,0.05-0.462,0.202-0.639s0.369-0.283,0.602-0.294l0.131-0.006
			c0.791-0.038,2.444-0.118,5.12-0.336l6.555-0.536c2.381-0.195,3.72-0.359,4.363-0.439c0.035-0.004,0.069-0.006,0.104-0.006
			c0.207,0,0.407,0.075,0.563,0.213c0.183,0.162,0.287,0.394,0.287,0.637c0.027,0.657,0.083,2.031,0.272,4.339l0.509,6.22
			c0.187,2.276,0.352,3.627,0.432,4.277c0.029,0.236-0.04,0.491-0.194,0.672s-0.374,0.308-0.611,0.317
			c-0.65,0.026-2.002,0.082-4.376,0.276l-7.655,0.626l1.221,14.927c0.439,5.367,0.759,8.505,0.88,9.686l0.017,0.158
			c0.023,0.228-0.046,0.455-0.192,0.631c-0.146,0.176-0.356,0.285-0.584,0.304C170.515,76.229,167.055,76.511,167.032,76.511z
			 M168.889,47.031l8.134-0.665l-0.266-3.254l-8.134,0.665L168.889,47.031z M168.353,40.476l8.134-0.665l-0.23-2.823l-8.134,0.665
			L168.353,40.476z M197.083,73.511c-0.353,0-0.669-0.218-0.795-0.548c-0.07-0.186-0.167-0.53-0.253-0.844
			c-0.208-0.804-0.457-1.526-0.764-2.22c-0.116-0.264-0.092-0.567,0.065-0.809c0.157-0.24,0.424-0.386,0.712-0.387
			c0.776-0.001,1.544-0.036,2.492-0.113c1.558-0.127,1.93-0.544,1.809-2.025l-1.51-18.468l-7.655,0.625
			c-2.917,0.238-4.317,0.412-4.915,0.487c-0.036,0.004-0.071,0.006-0.107,0.006c-0.203,0-0.407-0.071-0.561-0.204
			c-0.182-0.155-0.3-0.379-0.307-0.619c-0.021-0.617-0.064-1.8-0.239-3.938l-0.57-6.986c-0.176-2.15-0.328-3.343-0.401-3.916
			c-0.029-0.229,0.032-0.491,0.177-0.671c0.145-0.18,0.352-0.324,0.582-0.345c0.657-0.027,2.054-0.083,4.992-0.323l6.89-0.563
			c2.911-0.238,4.35-0.417,4.891-0.484c0.035-0.004,0.07-0.007,0.105-0.007c0.202,0,0.399,0.072,0.554,0.205
			c0.182,0.156,0.29,0.382,0.296,0.621c0.044,0.874,0.142,2.801,0.403,5.993l1.604,19.616c0.149,1.828,0.37,3.817,0.564,5.572
			c0.169,1.524,0.319,2.876,0.405,3.933c0.174,2.124,0.065,3.341-1.027,4.516c-1.033,1.105-2.44,1.499-6.545,1.836l-0.134,0.011
			c-0.334,0.028-0.557,0.046-0.737,0.046H197.083z M189.845,45.317l8.707-0.712l-0.266-3.254l-8.707,0.712L189.845,45.317z
			 M189.309,38.763l8.708-0.712l-0.231-2.823l-8.707,0.712L189.309,38.763z M177.576,71.073c-0.206,0-0.406-0.075-0.562-0.213
			c-0.173-0.152-0.277-0.368-0.288-0.6c-0.025-0.564-0.104-2.283-0.522-7.404l-0.281-3.444c-0.217-2.662-0.384-4.007-0.463-4.653
			c-0.03-0.242,0.043-0.507,0.204-0.689c0.162-0.183,0.391-0.309,0.635-0.309c0.626-0.025,1.939-0.076,4.676-0.3l6.268-0.513
			c2.761-0.226,4.055-0.388,4.676-0.466c0.036-0.004,0.072-0.007,0.107-0.007c0.2,0,0.399,0.068,0.552,0.197
			c0.181,0.151,0.3,0.369,0.313,0.604c0.023,0.623,0.067,1.831,0.229,3.814l0.301,3.684c0.402,4.917,0.598,6.54,0.671,7.151
			c0.028,0.229-0.04,0.46-0.186,0.64c-0.146,0.179-0.359,0.291-0.59,0.31c0,0-2.935,0.238-2.958,0.238
			c-0.438,0-0.81-0.337-0.847-0.781l-0.106-1.305l-8.277,0.676l0.181,2.215c0.018,0.225-0.053,0.448-0.199,0.62
			s-0.354,0.278-0.579,0.297C180.53,70.834,177.599,71.073,177.576,71.073z M180.795,63.637l8.276-0.677l-0.493-6.029l-8.276,0.677
			L180.795,63.637z"/>
		<path fill="none" stroke="#231815" stroke-width="6" d="M225.451,67.435c-3.332,0-7.584-3.64-9.575-11.772
			c-1.1-4.338-1.912-9.251-2.286-13.828c-0.17-2.072-0.335-3.427-0.764-5.083c-0.069-0.267-0.004-0.551,0.173-0.762
			c0.162-0.192,0.4-0.302,0.65-0.302c0.024,0,0.048,0.001,0.072,0.003c2.005,0.17,3.823,0.536,4.987,1.004
			c0.19,0.066,0.385,0.172,0.529,0.292c0.213,0.177,0.326,0.447,0.304,0.723c-0.023,0.285-0.114,0.673-0.271,1.155
			c-0.126,0.521-0.228,2.505-0.047,4.724c0.252,3.091,0.639,6.543,1.753,10.838c1.155,4.394,2.659,6.718,4.349,6.718
			c0.051,0,0.102-0.002,0.152-0.006c1.394-0.114,2.401-1.655,3.594-5.497c0.091-0.293,0.332-0.514,0.632-0.579
			c0.06-0.013,0.12-0.02,0.181-0.02c0.239,0,0.471,0.101,0.634,0.284c0.872,0.975,1.688,1.669,2.37,2.219
			c0.546,0.425,0.692,0.949,0.479,1.744c-1.4,4.962-4.071,7.844-7.523,8.127C225.713,67.429,225.582,67.435,225.451,67.435z
			 M248.643,56.857c-0.119,0-0.237-0.025-0.349-0.075c-0.218-0.098-0.385-0.284-0.459-0.511c-2.202-6.716-4.952-11.114-9.493-15.18
			c-0.191-0.171-0.295-0.419-0.282-0.675c0.013-0.256,0.141-0.493,0.348-0.645c1.39-1.018,2.261-1.583,2.747-1.877
			c0.157-0.095,0.362-0.15,0.562-0.15c0.174,0,0.344,0.042,0.474,0.138c4.751,3.5,9.068,9.777,10.741,15.618
			c0.093,0.323,0.005,0.734-0.252,0.95c-0.055,0.046-0.13,0.103-0.182,0.141c-1.346,1.046-2.433,1.725-3.516,2.195
			C248.873,56.833,248.758,56.857,248.643,56.857z"/>
		<path fill="none" stroke="#231815" stroke-width="6" d="M267.827,68.172c-0.206,0-0.406-0.075-0.562-0.212
			c-0.174-0.152-0.277-0.369-0.288-0.6c-0.075-1.618-0.271-4.367-0.582-8.17l-0.337-4.114c-0.264-3.233-0.448-4.765-0.527-5.419
			c-0.027-0.234,0.043-0.47,0.195-0.65c0.152-0.181,0.373-0.29,0.608-0.301c0.694-0.033,2.536-0.121,6.201-0.421l15.311-1.251
			c3.636-0.298,5.48-0.51,6.175-0.59c0.034-0.004,0.068-0.006,0.103-0.006c0.213,0,0.435,0.073,0.591,0.212
			c0.181,0.162,0.313,0.389,0.313,0.631c0.025,0.6,0.087,2.055,0.301,4.68l0.384,4.688c0.31,3.78,0.56,6.493,0.743,8.063
			c0.026,0.229-0.041,0.459-0.187,0.638c-0.146,0.178-0.359,0.289-0.589,0.309c0,0-3.507,0.285-3.53,0.285
			c-0.201,0-0.396-0.071-0.551-0.202c-0.172-0.146-0.278-0.354-0.297-0.579l-0.103-1.257l-19.186,1.569l0.122,1.496
			c0.019,0.225-0.054,0.448-0.199,0.62c-0.146,0.172-0.354,0.278-0.579,0.297C271.358,67.887,267.85,68.172,267.827,68.172z
			 M271.659,61.121l19.186-1.569l-0.681-8.325l-19.186,1.569L271.659,61.121z M260.452,46.768c-0.28,0-0.555-0.139-0.717-0.392
			c-0.128-0.2-0.282-0.48-0.354-0.612c-0.492-0.84-1.069-1.608-1.711-2.275c-0.181-0.188-0.266-0.45-0.229-0.708
			c0.036-0.259,0.19-0.486,0.417-0.617c7.32-4.228,12.628-9.324,16.226-15.582c0.589-1.021,1.026-1.866,1.391-2.929
			c0.118-0.346,0.443-0.575,0.805-0.575c0.021,0,0.041,0.001,0.062,0.002c1.453,0.107,3.116,0.244,4.428,0.451
			c0.038,0.006,0.105,0.022,0.143,0.033c0.302,0.09,0.528,0.34,0.59,0.648c0.062,0.309-0.053,0.626-0.297,0.825
			c-0.126,0.103-0.223,0.195-0.287,0.31c5.765,6.24,12.293,10.251,20.547,12.625c0.248,0.071,0.45,0.251,0.549,0.49
			c0.1,0.238,0.086,0.508-0.037,0.735c-0.485,0.889-0.882,1.882-1.147,2.874c-0.078,0.344-0.145,0.568-0.189,0.702
			c-0.119,0.353-0.449,0.579-0.806,0.579c-0.076,0-0.154-0.01-0.231-0.032c-0.144-0.041-0.373-0.118-0.715-0.27
			c-3.549-1.263-6.855-2.817-9.77-4.596l-0.012-0.007c0.011,0.044,0.019,0.089,0.022,0.136l0.236,2.887
			c0.019,0.231-0.058,0.459-0.211,0.633s-0.371,0.277-0.602,0.286c-0.613,0.025-2.049,0.084-5.058,0.33l-7.416,0.606
			c-2.941,0.241-4.332,0.41-5,0.492c-0.035,0.004-0.071,0.006-0.107,0.006c-0.198,0-0.403-0.065-0.556-0.189
			c-0.179-0.146-0.313-0.356-0.332-0.587l-0.239-2.927c-0.008-0.094,0-0.188,0.023-0.277l-0.796,0.758
			c-0.026,0.031-0.055,0.061-0.087,0.088c-2.282,2.004-4.821,3.893-7.546,5.614l-0.541,0.337
			C260.76,46.727,260.605,46.768,260.452,46.768z M278.51,29.447c-2.074,3.428-4.681,6.618-7.969,9.754l-0.017,0.016
			c0.052-0.01,0.104-0.016,0.157-0.017c0.843-0.012,2.537-0.122,5.034-0.326l7.416-0.606c1.911-0.157,3.185-0.283,4.016-0.365
			l0.929-0.087l-0.35-0.213C284.294,35.351,281.201,32.612,278.51,29.447L278.51,29.447z"/>
		<path fill="none" stroke="#231815" stroke-width="6" d="M319.652,63.02c-0.2,0-0.396-0.071-0.55-0.202
			c-0.175-0.148-0.282-0.359-0.299-0.587c-0.331-4.619-0.629-9.352-0.956-14.616l0,0c-1.802,3.248-3.872,6.892-5.682,9.995
			c-0.121,0.209-0.327,0.356-0.563,0.405c-0.057,0.012-0.114,0.018-0.171,0.018c-0.182,0-0.359-0.058-0.507-0.168
			c-1.113-0.828-2.065-1.624-3.087-2.583c-0.234-0.22-0.324-0.552-0.233-0.86c0.04-0.139,0.114-0.262,0.213-0.36
			c3.874-5.584,6.273-9.152,9.349-14.193v0c-0.09-1.1-0.202-2.469-0.229-3.399l-0.713,0.284c-1.344,0.537-3.132,1.251-4.597,1.931
			c-0.391,0.2-0.694,0.427-0.938,0.61c-0.16,0.12-0.411,0.22-0.623,0.22c-0.03,0-0.061-0.002-0.089-0.006
			c-0.227-0.035-0.5-0.106-0.633-0.292c-0.079-0.105-0.162-0.216-0.256-0.37c-0.646-1.025-1.236-2.048-1.747-3.029
			c-0.123-0.237-0.128-0.517-0.013-0.758c0.114-0.241,0.335-0.414,0.596-0.468c0.627-0.129,1.24-0.287,2.119-0.544
			c1.193-0.38,3.025-0.962,6.653-2.278v0c-0.072-2.082-0.245-4.183-0.412-6.215c-0.09-1.098-0.253-2.09-0.498-3.046
			c-0.066-0.259-0.008-0.533,0.158-0.742c0.161-0.203,0.406-0.321,0.665-0.321c0.008,0,0.015,0,0.022,0
			c2.06,0.055,3.379,0.124,4.449,0.333c0.358,0.071,0.618,0.178,0.798,0.328c0.2,0.167,0.312,0.416,0.307,0.675
			c-0.001,0.023-0.003,0.045-0.005,0.067c-0.007,0.115-0.027,0.286-0.103,0.535c-0.171,0.53-0.271,1.21-0.31,2.094
			c0.021,0.541,0.033,1.068,0.045,1.687c0.014,0.708,0.029,1.537,0.068,2.639c0.07-0.03,0.381-0.179,0.381-0.179
			c0.114-0.053,0.237-0.08,0.359-0.08c0.157,0,0.313,0.044,0.451,0.13c0.161,0.101,0.492,0.343,0.889,0.825
			c0.716,0.809,0.866,1.13,0.888,1.432c0.005,0.077,0,0.154-0.016,0.229c-0.053,0.261-0.208,0.522-0.69,1.167l-0.119,0.183
			c-0.554,0.846-1.184,1.81-2.134,3.469l0.121,1.483v0c4.332-4.198,8.55-6.333,13.273-6.72c0.421-0.035,0.836-0.052,1.242-0.052
			c6.529,0,11.107,4.408,11.665,11.229c0.587,7.178-3.271,12.711-11.467,16.447c-0.237,0.142-0.515,0.235-0.801,0.258
			c-0.003,0-0.007,0-0.011,0c-0.533,0-0.94-0.192-1.285-0.57c-0.767-0.773-1.56-1.411-2.475-1.982
			c-0.271-0.169-0.424-0.477-0.396-0.795c0.028-0.318,0.232-0.594,0.528-0.714c3.215-1.302,5.327-2.67,7.535-4.879
			c1.996-2.095,2.896-4.62,2.662-7.49c-0.357-4.365-2.875-6.868-6.907-6.868c-0.27,0-0.546,0.011-0.828,0.034
			c-4.71,0.385-8.332,3.146-12.321,7.172v0.001c0.343,3.824,0.713,7.515,1.094,11.32l0.015,0.138
			c0.215,2.155,0.434,4.347,0.655,6.623c0.043,0.448-0.271,0.853-0.715,0.922c-0.349,0.055-2.168,0.334-3.745,0.481
			C319.705,63.019,319.679,63.02,319.652,63.02z"/>
		<path fill="none" stroke="#231815" stroke-width="6" d="M375.385,56.067c-6.45,0-8.952-1.864-9.916-7.385
			c-0.425-2.42-0.847-6.23-1.29-11.646c-2.415,0.535-3.921,0.947-5.706,1.478l-0.156,0.056c-0.5,0.18-1.188,0.427-1.938,0.838
			c-0.139,0.076-0.298,0.113-0.455,0.113c-0.277,0-0.551-0.115-0.709-0.341c-0.031-0.045-0.071-0.107-0.119-0.189
			c-0.517-0.885-1.072-2.277-1.484-3.721c-0.067-0.236-0.03-0.489,0.104-0.695s0.35-0.345,0.592-0.38
			c1.118-0.162,2.664-0.455,4.135-0.784c0.767-0.173,1.845-0.454,2.957-0.743c0.854-0.222,1.657-0.431,2.375-0.608l-0.419-5.119
			c-0.24-1.982-0.396-2.83-0.722-3.909c-0.078-0.261-0.027-0.543,0.137-0.76c0.161-0.212,0.412-0.336,0.678-0.336
			c0.006,0,0.012,0,0.018,0c2.647,0.055,4.2,0.268,4.613,0.332c0.415,0.043,0.851,0.326,1.02,0.684
			c0.052,0.109,0.079,0.227,0.082,0.348c0.004,0.241-0.076,0.494-0.219,0.918c-0.23,0.746-0.321,1.374-0.307,2.146
			c0.024,0.618,0.078,1.429,0.138,2.299c0.05,0.751,0.103,1.546,0.143,2.301h0.001c2.463-0.528,6.01-1.209,8.859-1.756l2.847-0.55
			c-0.148-2.407-0.361-5.02-0.503-6.749c-0.133-1.626-0.368-3.027-0.717-4.284c-0.072-0.262-0.016-0.542,0.152-0.755
			c0.162-0.204,0.407-0.323,0.667-0.323c0.011,0,0.021,0,0.033,0.001c2.048,0.08,3.543,0.181,4.664,0.44
			c0.224,0.045,0.363,0.093,0.44,0.123c0.325,0.127,0.539,0.439,0.541,0.788c0.001,0.345-0.111,0.666-0.209,0.907l-0.025,0.113
			c-0.164,0.725-0.293,1.298-0.276,2.077c0.116,2.591,0.221,4.461,0.357,6.714v0c3.26-0.511,6.034-0.897,8.995-1.253
			c0.034-0.004,0.067-0.006,0.102-0.006c0.19,0,0.376,0.064,0.526,0.183c0.178,0.14,0.292,0.345,0.318,0.57
			c0.137,1.174,0.261,2.322,0.277,3.452c0.006,0.447-0.334,0.822-0.779,0.86c-2.901,0.243-6.022,0.627-9.276,1.143
			c0.116,3.193,0.161,5.548,0.028,7.416c-0.212,3.61-2.12,5.519-5.833,5.822c-0.614,0.05-1.457,0.12-2.263,0.12
			c-0.239,0-0.478-0.006-0.712-0.02c0,0-0.207-0.004-0.237-0.007c-0.355-0.033-0.652-0.284-0.744-0.628
			c-0.022-0.087-0.058-0.248-0.081-0.53c-0.151-1.056-0.382-1.945-0.744-2.833c-0.111-0.276-0.071-0.59,0.106-0.829
			c0.161-0.216,0.415-0.342,0.682-0.342c0.027,0,0.055,0.001,0.082,0.004c0.479,0.046,0.956,0.07,1.418,0.07
			c0.403,0,0.789-0.018,1.166-0.048c1.441-0.118,1.986-0.704,2.08-2.24c0.063-1.367,0.038-2.991-0.08-5.099v0
			c-3.796,0.598-7.902,1.413-11.564,2.294l0.097,1.327c0.314,4.366,0.504,7.001,0.883,9.479c0.495,3.177,1.269,4.235,4.869,4.235
			c0.727,0,1.581-0.042,2.691-0.133c3.782-0.309,8.271-1.027,12.312-1.97c0.045-0.011,0.096-0.018,0.143-0.021
			c0.019-0.001,0.038-0.002,0.057-0.002c0.385,0,0.729,0.259,0.828,0.635c0.268,1.026,0.526,3.071,0.596,3.927
			c0.034,0.422-0.244,0.844-0.657,0.937c-2.265,0.512-7.932,1.354-11.844,1.674C377.759,56.01,376.509,56.067,375.385,56.067z"/>
	</g>
	<g>
		<path fill="none" stroke="#231815" stroke-width="3" d="M57.998,80.894c-5.034,0-8.408-2.086-10.313-6.378
			c-0.095-0.213-0.098-0.455-0.008-0.671c0.089-0.215,0.263-0.385,0.481-0.468l4.108-1.576c0.098-0.038,0.202-0.057,0.305-0.057
			c0.119,0,0.237,0.025,0.347,0.074c0.207,0.093,0.368,0.263,0.448,0.475c1.032,2.714,2.608,3.925,5.111,3.925
			c0.235,0,0.478-0.011,0.729-0.031c3.505-0.287,5.409-2.766,5.093-6.63c-0.334-4.086-2.449-6.072-6.468-6.072
			c-0.367,0-0.75,0.016-1.153,0.049c0,0-1.974,0.16-1.998,0.16c-0.438,0-0.81-0.337-0.847-0.781l-0.261-3.185
			c-0.019-0.225,0.053-0.448,0.199-0.62s0.354-0.279,0.579-0.297l1.688-0.138c2.354-0.192,3.997-0.817,5.021-1.909
			c0.956-1.019,1.361-2.492,1.207-4.379c-0.246-3.009-2.008-4.734-4.836-4.734c-0.197,0-0.4,0.008-0.606,0.025
			c-2.511,0.206-4.132,1.819-4.565,4.543c-0.037,0.23-0.167,0.436-0.359,0.568c-0.143,0.098-0.311,0.149-0.481,0.149
			c-0.06,0-0.119-0.006-0.178-0.019l-4.272-0.914c-0.226-0.048-0.423-0.187-0.545-0.383s-0.159-0.434-0.102-0.659
			c1.193-4.675,4.822-7.493,10.218-7.935c0.452-0.037,0.897-0.055,1.33-0.055c5.89,0,9.963,3.276,10.377,8.346
			c0.354,4.327-2.064,7.699-6.312,8.8l0.027,0.335c4.981,0.646,8.063,3.764,8.454,8.556c0.259,3.175-0.631,5.981-2.575,8.116
			c-1.949,2.142-4.788,3.421-8.21,3.7C59.071,80.871,58.521,80.894,57.998,80.894z"/>
		<path fill="none" stroke="#231815" stroke-width="3" d="M91.259,77.561c-0.438,0-0.81-0.337-0.847-0.781l-0.401-4.906
			c-0.038-0.468,0.31-0.879,0.778-0.917c0,0,5.193-0.425,5.216-0.425c0.201,0,0.396,0.071,0.55,0.202
			c0.172,0.146,0.279,0.354,0.297,0.579l0.401,4.908c0.018,0.225-0.053,0.448-0.199,0.62s-0.354,0.278-0.579,0.297
			C96.476,77.138,91.282,77.561,91.259,77.561z"/>
		<path fill="none" stroke="#231815" stroke-width="3" d="M129.289,76.379c-0.215,0-0.425-0.082-0.583-0.232
			c-0.094-0.088-0.253-0.278-0.385-0.441l-0.163-0.2c-1.496-1.733-4.228-3.821-7.291-5.563h0c-0.543,0.357-1.07,0.787-1.444,1.178
			c-0.188,0.218-0.494,0.379-0.792,0.4c-0.021,0.002-0.042,0.003-0.063,0.003c-0.055,0-0.109-0.006-0.163-0.016
			c-0.3-0.059-0.622-0.302-0.883-0.667c-0.565-0.775-1.537-2.453-2.066-3.384c-0.123-0.215-0.145-0.473-0.062-0.706
			s0.265-0.419,0.496-0.508c1.174-0.451,2.295-1.024,3.333-1.705c1.963-1.317,4.106-2.793,7.434-5.087l-0.669-8.182
			c-2.346,0.382-4.762,0.775-8.006,1.04c-0.08,0.006-0.155,0.01-0.224,0.01c-0.125,0-0.208-0.011-0.26-0.019
			c-0.371-0.062-0.646-0.356-0.701-0.71l-0.047-0.192c-0.15-0.62-0.366-1.628-0.654-3.058c-0.051-0.252,0.015-0.514,0.18-0.711
			c0.162-0.195,0.401-0.307,0.654-0.307c0.004,0,0.294,0.002,0.294,0.002c0.721,0,1.487-0.035,2.411-0.111
			c2.058-0.168,4.177-0.546,6.046-0.88l0,0c-0.061-0.747-0.116-1.547-0.175-2.401l-0.009-0.132c-0.063-0.915-0.13-1.89-0.215-2.924
			c-0.064-0.787-0.166-1.82-0.383-2.828c-0.054-0.252,0.009-0.516,0.172-0.716c0.161-0.199,0.404-0.314,0.66-0.314
			c0.002,0,0.004,0,0.006,0c1.816,0.012,3.471,0.156,4.658,0.405c0.217,0.036,0.43,0.107,0.597,0.205
			c0.339,0.199,0.498,0.605,0.383,0.981c-0.024,0.078-0.071,0.213-0.172,0.432c-0.304,0.694-0.476,1.329-0.519,1.922
			c-0.043,1.285,0.011,2.517,0.086,3.991c2.15-0.626,4.105-1.445,5.735-2.163c0.109-0.048,0.226-0.072,0.343-0.072
			c0.131,0,0.263,0.031,0.383,0.091c0.227,0.115,0.391,0.325,0.447,0.573c0.243,1.079,0.414,2.196,0.508,3.319
			c0.03,0.358-0.169,0.697-0.497,0.846c-3.058,1.256-3.879,1.579-6.752,2.402l0,0c0.07,1.136,0.151,2.282,0.233,3.428
			c0.085,1.183,0.168,2.355,0.239,3.517c3.915-2.058,8.126-3.367,11.555-3.594c0.339-0.025,0.674-0.038,1.004-0.038
			c5.621,0,9.534,3.444,9.97,8.773c0.498,6.082-3.087,10.03-9.589,10.562c-0.478,0.039-0.974,0.057-1.461,0.057
			c-0.896,0-1.807-0.062-2.498-0.168c-0.744-0.122-1.103-0.538-1.169-1.35c-0.094-0.532-0.312-1.452-0.764-2.392
			c-0.135-0.28-0.105-0.612,0.076-0.864c0.161-0.225,0.419-0.354,0.69-0.354c0.035,0,0.07,0.002,0.105,0.007
			c0.676,0.084,1.353,0.125,2.069,0.125c0.804,0,1.547-0.052,2.105-0.098c2.383-0.196,5.062-1.715,4.764-5.351
			c-0.233-2.858-1.983-4.433-4.927-4.433c-0.236,0-0.479,0.01-0.73,0.031c-3.206,0.262-6.503,1.542-10.69,4.149
			c0.212,2.006,0.394,3.628,0.66,5.725l0.243,1.586c0.272,1.771,0.58,3.763,0.648,4.603l0.018,0.198
			c0.04,0.419,0.057,0.693-0.04,0.947c-0.091,0.237-0.283,0.422-0.523,0.502c-1.085,0.365-2.566,0.724-3.522,0.853
			C129.365,76.376,129.327,76.379,129.289,76.379z M122.884,68.09c1.193,0.521,2.972,1.252,4.672,1.785
			c0.085,0.015,0.158,0.022,0.219,0.022c0.146,0,0.187-0.049,0.204-0.069c0.08-0.097,0.04-0.298,0.025-0.374
			c-0.12-0.751-0.269-1.854-0.417-2.957c-0.096-0.714-0.192-1.426-0.28-2.044l-0.208,0.167
			C125.903,65.583,124.417,66.781,122.884,68.09z M152.398,50.167c-0.212,0-0.417-0.08-0.576-0.225
			c-2.308-2.122-5.196-3.61-9.089-4.685c-0.238-0.066-0.436-0.231-0.542-0.454c-0.106-0.223-0.11-0.48-0.012-0.707
			c0.409-0.934,0.906-1.913,1.52-2.995l0.096-0.178c0.153-0.271,0.438-0.434,0.741-0.434c0.059,0,0.119,0.006,0.179,0.019
			c4.132,0.89,7.508,2.499,10.321,4.918c0.278,0.239,0.372,0.63,0.231,0.97c-0.012,0.029-0.037,0.085-0.052,0.113
			c-0.312,0.569-0.923,1.487-1.462,2.296c-0.229,0.344-0.45,0.676-0.642,0.973c-0.136,0.21-0.358,0.35-0.607,0.381
			C152.47,50.165,152.434,50.167,152.398,50.167z"/>
		<path fill="none" stroke="#231815" stroke-width="3" d="M165.614,75.094c-0.204,0-0.401-0.073-0.556-0.207
			c-0.173-0.149-0.278-0.362-0.292-0.59l-0.009-0.14c-0.073-1.183-0.265-4.318-0.707-9.722l-1.693-20.716
			c-0.442-5.397-0.766-8.585-0.888-9.785l-0.015-0.149c-0.023-0.231,0.05-0.462,0.202-0.639s0.369-0.283,0.602-0.294l0.131-0.006
			c0.791-0.038,2.444-0.118,5.12-0.336l6.555-0.536c2.381-0.195,3.72-0.359,4.363-0.439c0.035-0.004,0.069-0.006,0.104-0.006
			c0.207,0,0.407,0.075,0.563,0.213c0.183,0.162,0.287,0.394,0.287,0.637c0.027,0.657,0.083,2.031,0.272,4.339l0.509,6.22
			c0.187,2.276,0.352,3.627,0.432,4.277c0.029,0.236-0.04,0.491-0.194,0.672s-0.374,0.308-0.611,0.317
			c-0.65,0.026-2.002,0.082-4.376,0.276l-7.655,0.626l1.221,14.927c0.439,5.368,0.759,8.505,0.88,9.686l0.017,0.158
			c0.023,0.228-0.046,0.455-0.192,0.631c-0.146,0.176-0.356,0.285-0.584,0.304C169.097,74.812,165.637,75.094,165.614,75.094z
			 M167.472,45.613l8.134-0.665l-0.266-3.254l-8.134,0.665L167.472,45.613z M166.936,39.059l8.134-0.665l-0.23-2.823l-8.134,0.665
			L166.936,39.059z M195.665,72.094c-0.353,0-0.669-0.218-0.795-0.548c-0.07-0.186-0.167-0.53-0.253-0.844
			c-0.208-0.804-0.457-1.526-0.764-2.22c-0.116-0.264-0.092-0.567,0.065-0.809c0.157-0.24,0.424-0.386,0.712-0.387
			c0.776-0.001,1.544-0.036,2.492-0.113c1.558-0.127,1.93-0.544,1.809-2.025l-1.51-18.468l-7.655,0.625
			c-2.917,0.238-4.317,0.412-4.915,0.487c-0.036,0.004-0.071,0.006-0.107,0.006c-0.203,0-0.407-0.071-0.561-0.204
			c-0.182-0.155-0.3-0.379-0.307-0.619c-0.021-0.617-0.064-1.8-0.239-3.938l-0.57-6.986c-0.176-2.15-0.328-3.343-0.401-3.916
			c-0.029-0.229,0.032-0.491,0.177-0.671c0.145-0.18,0.352-0.324,0.582-0.345c0.657-0.027,2.054-0.083,4.992-0.323l6.89-0.563
			c2.911-0.238,4.35-0.417,4.891-0.484c0.035-0.004,0.07-0.007,0.105-0.007c0.202,0,0.399,0.072,0.554,0.205
			c0.182,0.156,0.29,0.382,0.296,0.621c0.044,0.874,0.142,2.801,0.403,5.993l1.604,19.616c0.149,1.828,0.37,3.817,0.564,5.572
			c0.169,1.524,0.319,2.877,0.405,3.934c0.174,2.124,0.065,3.341-1.027,4.516c-1.033,1.105-2.44,1.499-6.545,1.836l-0.134,0.011
			c-0.334,0.028-0.557,0.046-0.737,0.046H195.665z M188.428,43.9l8.707-0.712l-0.266-3.254l-8.707,0.712L188.428,43.9z
			 M187.892,37.345l8.708-0.712l-0.231-2.823l-8.707,0.712L187.892,37.345z M176.158,69.656c-0.206,0-0.406-0.075-0.562-0.213
			c-0.173-0.152-0.277-0.368-0.288-0.6c-0.025-0.564-0.104-2.283-0.522-7.405l-0.281-3.444c-0.217-2.662-0.384-4.007-0.463-4.653
			c-0.03-0.242,0.043-0.507,0.204-0.689c0.162-0.183,0.391-0.309,0.635-0.309c0.626-0.025,1.939-0.076,4.676-0.3l6.268-0.513
			c2.761-0.226,4.055-0.388,4.676-0.466c0.036-0.004,0.072-0.007,0.107-0.007c0.2,0,0.399,0.068,0.552,0.197
			c0.181,0.151,0.3,0.369,0.313,0.604c0.023,0.623,0.067,1.831,0.229,3.814l0.301,3.684c0.402,4.917,0.598,6.54,0.671,7.151
			c0.028,0.229-0.04,0.46-0.186,0.64c-0.146,0.179-0.359,0.291-0.59,0.31c0,0-2.935,0.238-2.958,0.238
			c-0.438,0-0.81-0.337-0.847-0.781l-0.106-1.305l-8.277,0.676l0.181,2.215c0.018,0.225-0.053,0.448-0.199,0.62
			s-0.354,0.278-0.579,0.297C179.112,69.417,176.181,69.656,176.158,69.656z M179.378,62.22l8.276-0.677l-0.493-6.029l-8.276,0.677
			L179.378,62.22z"/>
		<path fill="none" stroke="#231815" stroke-width="3" d="M224.034,66.018c-3.332,0-7.585-3.64-9.575-11.772
			c-1.1-4.338-1.912-9.251-2.286-13.828c-0.17-2.072-0.335-3.427-0.764-5.083c-0.069-0.267-0.004-0.551,0.173-0.762
			c0.162-0.192,0.4-0.302,0.65-0.302c0.024,0,0.048,0.001,0.072,0.003c2.005,0.17,3.823,0.536,4.987,1.004
			c0.19,0.066,0.385,0.172,0.529,0.292c0.213,0.177,0.326,0.447,0.304,0.723c-0.023,0.285-0.114,0.673-0.271,1.155
			c-0.126,0.521-0.228,2.505-0.047,4.724c0.252,3.091,0.639,6.543,1.753,10.838c1.155,4.394,2.659,6.718,4.349,6.718
			c0.051,0,0.102-0.002,0.152-0.006c1.394-0.114,2.401-1.655,3.594-5.497c0.091-0.293,0.332-0.514,0.632-0.579
			c0.06-0.013,0.12-0.02,0.181-0.02c0.239,0,0.471,0.101,0.634,0.284c0.872,0.975,1.688,1.669,2.37,2.219
			c0.546,0.425,0.692,0.949,0.479,1.744c-1.4,4.962-4.071,7.845-7.523,8.128C224.296,66.012,224.165,66.018,224.034,66.018z
			 M247.226,55.439c-0.119,0-0.237-0.025-0.349-0.075c-0.218-0.098-0.385-0.284-0.459-0.511c-2.202-6.716-4.952-11.114-9.493-15.18
			c-0.191-0.171-0.295-0.419-0.282-0.675c0.013-0.256,0.141-0.493,0.348-0.645c1.39-1.018,2.261-1.583,2.747-1.877
			c0.157-0.095,0.362-0.15,0.562-0.15c0.174,0,0.344,0.042,0.474,0.138c4.751,3.5,9.068,9.777,10.741,15.618
			c0.093,0.323,0.005,0.734-0.252,0.95c-0.055,0.046-0.13,0.103-0.182,0.141c-1.346,1.046-2.433,1.725-3.516,2.195
			C247.456,55.416,247.341,55.439,247.226,55.439z"/>
		<path fill="none" stroke="#231815" stroke-width="3" d="M266.41,66.755c-0.206,0-0.406-0.075-0.562-0.212
			c-0.174-0.152-0.277-0.369-0.288-0.6c-0.075-1.618-0.271-4.367-0.582-8.171l-0.337-4.114c-0.264-3.233-0.448-4.765-0.527-5.419
			c-0.027-0.234,0.043-0.47,0.195-0.65c0.152-0.181,0.373-0.29,0.608-0.301c0.694-0.033,2.536-0.121,6.201-0.421l15.311-1.251
			c3.636-0.298,5.48-0.51,6.175-0.59c0.034-0.004,0.068-0.006,0.103-0.006c0.213,0,0.435,0.073,0.591,0.212
			c0.181,0.162,0.313,0.389,0.313,0.631c0.025,0.6,0.087,2.055,0.301,4.68l0.384,4.688c0.31,3.78,0.56,6.493,0.743,8.063
			c0.026,0.229-0.041,0.459-0.187,0.638c-0.146,0.178-0.359,0.29-0.589,0.309c0,0-3.507,0.286-3.53,0.286
			c-0.201,0-0.396-0.071-0.551-0.202c-0.172-0.146-0.278-0.354-0.297-0.579l-0.103-1.258l-19.186,1.569l0.122,1.497
			c0.019,0.225-0.054,0.448-0.199,0.62c-0.146,0.172-0.354,0.278-0.579,0.297C269.941,66.47,266.433,66.755,266.41,66.755z
			 M270.242,59.703l19.186-1.569l-0.681-8.325l-19.186,1.569L270.242,59.703z M259.035,45.351c-0.28,0-0.555-0.139-0.717-0.392
			c-0.128-0.2-0.282-0.48-0.354-0.612c-0.492-0.84-1.069-1.608-1.711-2.275c-0.181-0.188-0.266-0.45-0.229-0.708
			c0.036-0.259,0.19-0.486,0.417-0.617c7.32-4.228,12.628-9.324,16.226-15.582c0.589-1.021,1.026-1.866,1.391-2.929
			c0.118-0.346,0.443-0.575,0.805-0.575c0.021,0,0.041,0.001,0.062,0.002c1.453,0.107,3.116,0.244,4.428,0.451
			c0.038,0.006,0.105,0.022,0.143,0.033c0.302,0.09,0.528,0.34,0.59,0.648c0.062,0.309-0.053,0.626-0.297,0.825
			c-0.126,0.103-0.223,0.195-0.287,0.31c5.765,6.24,12.293,10.251,20.547,12.625c0.248,0.071,0.45,0.251,0.549,0.49
			c0.1,0.238,0.086,0.508-0.037,0.735c-0.485,0.889-0.882,1.882-1.147,2.874c-0.078,0.344-0.145,0.568-0.189,0.702
			c-0.119,0.353-0.449,0.579-0.806,0.579c-0.076,0-0.154-0.01-0.231-0.032c-0.144-0.041-0.373-0.118-0.715-0.27
			c-3.549-1.263-6.855-2.817-9.77-4.596l-0.012-0.007c0.011,0.044,0.019,0.089,0.022,0.136l0.236,2.887
			c0.019,0.231-0.058,0.459-0.211,0.633s-0.371,0.277-0.602,0.286c-0.613,0.025-2.049,0.084-5.058,0.33l-7.416,0.606
			c-2.941,0.241-4.332,0.41-5,0.492c-0.035,0.004-0.071,0.006-0.107,0.006c-0.198,0-0.403-0.065-0.556-0.189
			c-0.179-0.146-0.313-0.356-0.332-0.587l-0.239-2.927c-0.008-0.094,0-0.188,0.023-0.277l-0.796,0.758
			c-0.026,0.031-0.055,0.061-0.087,0.088c-2.282,2.004-4.821,3.893-7.546,5.614l-0.541,0.337
			C259.343,45.309,259.188,45.351,259.035,45.351z M277.093,28.029c-2.074,3.428-4.681,6.618-7.969,9.754l-0.017,0.016
			c0.052-0.01,0.104-0.016,0.157-0.017c0.843-0.012,2.537-0.122,5.034-0.326l7.416-0.606c1.911-0.157,3.185-0.283,4.016-0.365
			l0.929-0.087l-0.35-0.213C282.877,33.934,279.784,31.195,277.093,28.029L277.093,28.029z"/>
		<path fill="none" stroke="#231815" stroke-width="3" d="M318.235,61.603c-0.2,0-0.396-0.071-0.55-0.202
			c-0.175-0.148-0.282-0.359-0.299-0.587c-0.331-4.619-0.629-9.352-0.956-14.616l0,0c-1.802,3.248-3.872,6.892-5.682,9.995
			c-0.121,0.209-0.327,0.356-0.563,0.405c-0.057,0.012-0.114,0.018-0.171,0.018c-0.182,0-0.359-0.058-0.507-0.168
			c-1.113-0.828-2.065-1.624-3.087-2.583c-0.234-0.22-0.324-0.552-0.233-0.86c0.04-0.139,0.114-0.262,0.213-0.36
			c3.874-5.584,6.273-9.152,9.349-14.193v0c-0.09-1.1-0.202-2.469-0.229-3.399l-0.713,0.284c-1.344,0.537-3.132,1.251-4.597,1.931
			c-0.391,0.2-0.694,0.427-0.938,0.61c-0.16,0.12-0.411,0.22-0.623,0.22c-0.03,0-0.061-0.002-0.089-0.006
			c-0.227-0.035-0.5-0.106-0.633-0.292c-0.079-0.105-0.162-0.216-0.256-0.37c-0.646-1.025-1.236-2.048-1.747-3.029
			c-0.123-0.237-0.128-0.517-0.013-0.758c0.114-0.241,0.335-0.414,0.596-0.468c0.627-0.129,1.24-0.287,2.119-0.544
			c1.193-0.38,3.025-0.962,6.653-2.278v0c-0.072-2.082-0.245-4.183-0.412-6.215c-0.09-1.098-0.253-2.09-0.498-3.046
			c-0.066-0.259-0.008-0.533,0.158-0.742c0.161-0.203,0.406-0.321,0.665-0.321c0.008,0,0.015,0,0.022,0
			c2.06,0.055,3.379,0.124,4.449,0.333c0.358,0.071,0.618,0.178,0.798,0.328c0.2,0.167,0.312,0.416,0.307,0.675
			c-0.001,0.023-0.003,0.045-0.005,0.067c-0.007,0.115-0.027,0.286-0.103,0.535c-0.171,0.53-0.271,1.21-0.31,2.094
			c0.021,0.541,0.033,1.068,0.045,1.687c0.014,0.708,0.029,1.537,0.068,2.639c0.07-0.03,0.381-0.179,0.381-0.179
			c0.114-0.053,0.237-0.08,0.359-0.08c0.157,0,0.313,0.044,0.451,0.13c0.161,0.101,0.492,0.343,0.889,0.825
			c0.716,0.809,0.866,1.13,0.888,1.432c0.005,0.077,0,0.154-0.016,0.229c-0.053,0.261-0.208,0.522-0.69,1.167l-0.119,0.183
			c-0.554,0.846-1.184,1.81-2.134,3.469l0.121,1.483v0c4.332-4.198,8.55-6.333,13.273-6.72c0.421-0.035,0.836-0.052,1.242-0.052
			c6.529,0,11.107,4.408,11.665,11.229c0.587,7.178-3.271,12.711-11.467,16.447c-0.237,0.142-0.515,0.235-0.801,0.258
			c-0.003,0-0.007,0-0.011,0c-0.533,0-0.94-0.192-1.285-0.57c-0.767-0.773-1.56-1.411-2.475-1.982
			c-0.271-0.169-0.424-0.477-0.396-0.795c0.028-0.318,0.232-0.594,0.528-0.714c3.215-1.302,5.327-2.67,7.535-4.879
			c1.996-2.095,2.896-4.62,2.662-7.49c-0.357-4.365-2.875-6.868-6.907-6.868c-0.27,0-0.546,0.011-0.828,0.034
			c-4.71,0.385-8.332,3.146-12.321,7.172v0.001c0.343,3.824,0.713,7.515,1.094,11.32l0.015,0.138
			c0.215,2.155,0.434,4.347,0.655,6.623c0.043,0.448-0.271,0.853-0.715,0.922c-0.349,0.055-2.168,0.334-3.745,0.481
			C318.288,61.601,318.262,61.603,318.235,61.603z"/>
		<path fill="none" stroke="#231815" stroke-width="3" d="M373.968,54.65c-6.45,0-8.952-1.864-9.916-7.385
			c-0.425-2.42-0.847-6.23-1.29-11.646c-2.415,0.535-3.921,0.947-5.706,1.478l-0.156,0.056c-0.5,0.18-1.188,0.427-1.938,0.838
			c-0.139,0.076-0.298,0.113-0.455,0.113c-0.277,0-0.551-0.115-0.709-0.341c-0.031-0.045-0.071-0.107-0.119-0.189
			c-0.517-0.885-1.072-2.277-1.484-3.721c-0.067-0.236-0.03-0.489,0.104-0.695s0.35-0.345,0.592-0.38
			c1.118-0.162,2.664-0.455,4.135-0.784c0.767-0.173,1.845-0.454,2.957-0.743c0.854-0.222,1.657-0.431,2.375-0.608l-0.419-5.119
			c-0.24-1.982-0.396-2.83-0.722-3.909c-0.078-0.261-0.027-0.543,0.137-0.76c0.161-0.212,0.412-0.336,0.678-0.336
			c0.006,0,0.012,0,0.018,0c2.647,0.055,4.2,0.268,4.613,0.332c0.415,0.043,0.851,0.326,1.02,0.684
			c0.052,0.109,0.079,0.227,0.082,0.348c0.004,0.241-0.076,0.494-0.219,0.918c-0.23,0.746-0.321,1.374-0.307,2.146
			c0.024,0.618,0.078,1.429,0.138,2.299c0.05,0.751,0.103,1.546,0.143,2.301h0.001c2.463-0.528,6.01-1.209,8.859-1.756l2.847-0.55
			c-0.148-2.407-0.361-5.02-0.503-6.749c-0.133-1.626-0.368-3.027-0.717-4.284c-0.072-0.262-0.016-0.542,0.152-0.755
			c0.162-0.204,0.407-0.323,0.667-0.323c0.011,0,0.021,0,0.033,0.001c2.048,0.08,3.543,0.181,4.664,0.44
			c0.224,0.045,0.363,0.093,0.44,0.123c0.325,0.127,0.539,0.439,0.541,0.788c0.001,0.345-0.111,0.666-0.209,0.907l-0.025,0.113
			c-0.164,0.725-0.293,1.298-0.276,2.077c0.116,2.591,0.221,4.461,0.357,6.714v0c3.26-0.511,6.034-0.897,8.995-1.253
			c0.034-0.004,0.067-0.006,0.102-0.006c0.19,0,0.376,0.064,0.526,0.183c0.178,0.14,0.292,0.345,0.318,0.57
			c0.137,1.174,0.261,2.322,0.277,3.452c0.006,0.447-0.334,0.822-0.779,0.86c-2.901,0.243-6.022,0.627-9.276,1.143
			c0.116,3.193,0.161,5.548,0.028,7.416c-0.212,3.61-2.12,5.519-5.833,5.822c-0.614,0.05-1.457,0.12-2.263,0.12
			c-0.239,0-0.478-0.006-0.712-0.02c0,0-0.207-0.004-0.237-0.007c-0.355-0.033-0.652-0.284-0.744-0.628
			c-0.022-0.087-0.058-0.248-0.081-0.53c-0.151-1.056-0.382-1.945-0.744-2.833c-0.111-0.276-0.071-0.59,0.106-0.829
			c0.161-0.216,0.415-0.342,0.682-0.342c0.027,0,0.055,0.001,0.082,0.004c0.479,0.046,0.956,0.07,1.418,0.07
			c0.403,0,0.789-0.018,1.166-0.048c1.441-0.118,1.986-0.704,2.08-2.24c0.063-1.367,0.038-2.991-0.08-5.099v0
			c-3.796,0.598-7.902,1.413-11.564,2.294l0.097,1.327c0.314,4.366,0.504,7.001,0.883,9.479c0.495,3.177,1.269,4.235,4.869,4.235
			c0.727,0,1.581-0.042,2.691-0.133c3.782-0.309,8.271-1.027,12.312-1.97c0.045-0.011,0.096-0.018,0.143-0.021
			c0.019-0.001,0.038-0.002,0.057-0.002c0.385,0,0.729,0.259,0.828,0.635c0.268,1.026,0.526,3.071,0.596,3.927
			c0.034,0.422-0.244,0.844-0.657,0.937c-2.265,0.512-7.932,1.354-11.844,1.674C376.342,54.592,375.092,54.65,373.968,54.65z"/>
	</g>
	<g>
		<path fill="#FFFFFF" d="M57.998,80.894c-5.034,0-8.408-2.086-10.313-6.378c-0.095-0.213-0.098-0.455-0.008-0.671
			c0.089-0.215,0.263-0.385,0.481-0.468l4.108-1.576c0.098-0.038,0.202-0.057,0.305-0.057c0.119,0,0.237,0.025,0.347,0.074
			c0.207,0.093,0.368,0.263,0.448,0.475c1.032,2.714,2.608,3.925,5.111,3.925c0.235,0,0.478-0.011,0.729-0.031
			c3.505-0.287,5.409-2.766,5.093-6.63c-0.334-4.086-2.449-6.072-6.468-6.072c-0.367,0-0.75,0.016-1.153,0.049
			c0,0-1.974,0.16-1.998,0.16c-0.438,0-0.81-0.337-0.847-0.781l-0.261-3.185c-0.019-0.225,0.053-0.448,0.199-0.62
			s0.354-0.279,0.579-0.297l1.688-0.138c2.354-0.192,3.997-0.817,5.021-1.909c0.956-1.019,1.361-2.492,1.207-4.379
			c-0.246-3.009-2.008-4.734-4.836-4.734c-0.197,0-0.4,0.008-0.606,0.025c-2.511,0.206-4.132,1.819-4.565,4.543
			c-0.037,0.23-0.167,0.436-0.359,0.568c-0.143,0.098-0.311,0.149-0.481,0.149c-0.06,0-0.119-0.006-0.178-0.019l-4.272-0.914
			c-0.226-0.048-0.423-0.187-0.545-0.383s-0.159-0.434-0.102-0.659c1.193-4.675,4.822-7.493,10.218-7.935
			c0.452-0.037,0.897-0.055,1.33-0.055c5.89,0,9.963,3.276,10.377,8.346c0.354,4.327-2.064,7.699-6.312,8.8l0.027,0.335
			c4.981,0.646,8.063,3.764,8.454,8.556c0.259,3.175-0.631,5.981-2.575,8.116c-1.949,2.142-4.788,3.421-8.21,3.7
			C59.071,80.871,58.521,80.894,57.998,80.894z"/>
		<path fill="#FFFFFF" d="M91.259,77.561c-0.438,0-0.81-0.337-0.847-0.781l-0.401-4.906c-0.038-0.468,0.31-0.879,0.778-0.917
			c0,0,5.193-0.425,5.216-0.425c0.201,0,0.396,0.071,0.55,0.202c0.172,0.146,0.279,0.354,0.297,0.579l0.401,4.908
			c0.018,0.225-0.053,0.448-0.199,0.62s-0.354,0.278-0.579,0.297C96.476,77.138,91.282,77.561,91.259,77.561z"/>
		<path fill="#FFFFFF" d="M129.289,76.379c-0.215,0-0.425-0.082-0.583-0.232c-0.094-0.088-0.253-0.278-0.385-0.441l-0.163-0.2
			c-1.496-1.733-4.228-3.821-7.291-5.563h0c-0.543,0.357-1.07,0.787-1.444,1.178c-0.188,0.218-0.494,0.379-0.792,0.4
			c-0.021,0.002-0.042,0.003-0.063,0.003c-0.055,0-0.109-0.006-0.163-0.016c-0.3-0.059-0.622-0.302-0.883-0.667
			c-0.565-0.775-1.537-2.453-2.066-3.384c-0.123-0.215-0.145-0.473-0.062-0.706s0.265-0.419,0.496-0.508
			c1.174-0.451,2.295-1.024,3.333-1.705c1.963-1.317,4.106-2.793,7.434-5.087l-0.669-8.182c-2.346,0.382-4.762,0.775-8.006,1.04
			c-0.08,0.006-0.155,0.01-0.224,0.01c-0.125,0-0.208-0.011-0.26-0.019c-0.371-0.062-0.646-0.356-0.701-0.71l-0.047-0.192
			c-0.15-0.62-0.366-1.628-0.654-3.058c-0.051-0.252,0.015-0.514,0.18-0.711c0.162-0.195,0.401-0.307,0.654-0.307
			c0.004,0,0.294,0.002,0.294,0.002c0.721,0,1.487-0.035,2.411-0.111c2.058-0.168,4.177-0.546,6.046-0.88l0,0
			c-0.061-0.747-0.116-1.547-0.175-2.401l-0.009-0.132c-0.063-0.915-0.13-1.89-0.215-2.924c-0.064-0.787-0.166-1.82-0.383-2.828
			c-0.054-0.252,0.009-0.516,0.172-0.716c0.161-0.199,0.404-0.314,0.66-0.314c0.002,0,0.004,0,0.006,0
			c1.816,0.012,3.471,0.156,4.658,0.405c0.217,0.036,0.43,0.107,0.597,0.205c0.339,0.199,0.498,0.605,0.383,0.981
			c-0.024,0.078-0.071,0.213-0.172,0.432c-0.304,0.694-0.476,1.329-0.519,1.922c-0.043,1.285,0.011,2.517,0.086,3.991
			c2.15-0.626,4.105-1.445,5.735-2.163c0.109-0.048,0.226-0.072,0.343-0.072c0.131,0,0.263,0.031,0.383,0.091
			c0.227,0.115,0.391,0.325,0.447,0.573c0.243,1.079,0.414,2.196,0.508,3.319c0.03,0.358-0.169,0.697-0.497,0.846
			c-3.058,1.256-3.879,1.579-6.752,2.402l0,0c0.07,1.136,0.151,2.282,0.233,3.428c0.085,1.183,0.168,2.355,0.239,3.517
			c3.915-2.058,8.126-3.367,11.555-3.594c0.339-0.025,0.674-0.038,1.004-0.038c5.621,0,9.534,3.444,9.97,8.773
			c0.498,6.082-3.087,10.03-9.589,10.562c-0.478,0.039-0.974,0.057-1.461,0.057c-0.896,0-1.807-0.062-2.498-0.168
			c-0.744-0.122-1.103-0.538-1.169-1.35c-0.094-0.532-0.312-1.452-0.764-2.392c-0.135-0.28-0.105-0.612,0.076-0.864
			c0.161-0.225,0.419-0.354,0.69-0.354c0.035,0,0.07,0.002,0.105,0.007c0.676,0.084,1.353,0.125,2.069,0.125
			c0.804,0,1.547-0.052,2.105-0.098c2.383-0.196,5.062-1.715,4.764-5.351c-0.233-2.858-1.983-4.433-4.927-4.433
			c-0.236,0-0.479,0.01-0.73,0.031c-3.206,0.262-6.503,1.542-10.69,4.149c0.212,2.006,0.394,3.628,0.66,5.725l0.243,1.586
			c0.272,1.771,0.58,3.763,0.648,4.603l0.018,0.198c0.04,0.419,0.057,0.693-0.04,0.947c-0.091,0.237-0.283,0.422-0.523,0.502
			c-1.085,0.365-2.566,0.724-3.522,0.853C129.365,76.376,129.327,76.379,129.289,76.379z M122.884,68.09
			c1.193,0.521,2.972,1.252,4.672,1.785c0.085,0.015,0.158,0.022,0.219,0.022c0.146,0,0.187-0.049,0.204-0.069
			c0.08-0.097,0.04-0.298,0.025-0.374c-0.12-0.751-0.269-1.854-0.417-2.957c-0.096-0.714-0.192-1.426-0.28-2.044l-0.208,0.167
			C125.903,65.583,124.417,66.781,122.884,68.09z M152.398,50.167c-0.212,0-0.417-0.08-0.576-0.225
			c-2.308-2.122-5.196-3.61-9.089-4.685c-0.238-0.066-0.436-0.231-0.542-0.454c-0.106-0.223-0.11-0.48-0.012-0.707
			c0.409-0.934,0.906-1.913,1.52-2.995l0.096-0.178c0.153-0.271,0.438-0.434,0.741-0.434c0.059,0,0.119,0.006,0.179,0.019
			c4.132,0.89,7.508,2.499,10.321,4.918c0.278,0.239,0.372,0.63,0.231,0.97c-0.012,0.029-0.037,0.085-0.052,0.113
			c-0.312,0.569-0.923,1.487-1.462,2.296c-0.229,0.344-0.45,0.676-0.642,0.973c-0.136,0.21-0.358,0.35-0.607,0.381
			C152.47,50.165,152.434,50.167,152.398,50.167z"/>
		<path fill="#FFFFFF" d="M165.614,75.094c-0.204,0-0.401-0.073-0.556-0.207c-0.173-0.149-0.278-0.362-0.292-0.59l-0.009-0.14
			c-0.073-1.183-0.265-4.318-0.707-9.722l-1.693-20.716c-0.442-5.397-0.766-8.585-0.888-9.785l-0.015-0.149
			c-0.023-0.231,0.05-0.462,0.202-0.639s0.369-0.283,0.602-0.294l0.131-0.006c0.791-0.038,2.444-0.118,5.12-0.336l6.555-0.536
			c2.381-0.195,3.72-0.359,4.363-0.439c0.035-0.004,0.069-0.006,0.104-0.006c0.207,0,0.407,0.075,0.563,0.213
			c0.183,0.162,0.287,0.394,0.287,0.637c0.027,0.657,0.083,2.031,0.272,4.339l0.509,6.22c0.187,2.276,0.352,3.627,0.432,4.277
			c0.029,0.236-0.04,0.491-0.194,0.672s-0.374,0.308-0.611,0.317c-0.65,0.026-2.002,0.082-4.376,0.276l-7.655,0.626l1.221,14.927
			c0.439,5.368,0.759,8.505,0.88,9.686l0.017,0.158c0.023,0.228-0.046,0.455-0.192,0.631c-0.146,0.176-0.356,0.285-0.584,0.304
			C169.097,74.812,165.637,75.094,165.614,75.094z M167.472,45.613l8.134-0.665l-0.266-3.254l-8.134,0.665L167.472,45.613z
			 M166.936,39.059l8.134-0.665l-0.23-2.823l-8.134,0.665L166.936,39.059z M195.665,72.094c-0.353,0-0.669-0.218-0.795-0.548
			c-0.07-0.186-0.167-0.53-0.253-0.844c-0.208-0.804-0.457-1.526-0.764-2.22c-0.116-0.264-0.092-0.567,0.065-0.809
			c0.157-0.24,0.424-0.386,0.712-0.387c0.776-0.001,1.544-0.036,2.492-0.113c1.558-0.127,1.93-0.544,1.809-2.025l-1.51-18.468
			l-7.655,0.625c-2.917,0.238-4.317,0.412-4.915,0.487c-0.036,0.004-0.071,0.006-0.107,0.006c-0.203,0-0.407-0.071-0.561-0.204
			c-0.182-0.155-0.3-0.379-0.307-0.619c-0.021-0.617-0.064-1.8-0.239-3.938l-0.57-6.986c-0.176-2.15-0.328-3.343-0.401-3.916
			c-0.029-0.229,0.032-0.491,0.177-0.671c0.145-0.18,0.352-0.324,0.582-0.345c0.657-0.027,2.054-0.083,4.992-0.323l6.89-0.563
			c2.911-0.238,4.35-0.417,4.891-0.484c0.035-0.004,0.07-0.007,0.105-0.007c0.202,0,0.399,0.072,0.554,0.205
			c0.182,0.156,0.29,0.382,0.296,0.621c0.044,0.874,0.142,2.801,0.403,5.993l1.604,19.616c0.149,1.828,0.37,3.817,0.564,5.572
			c0.169,1.524,0.319,2.877,0.405,3.934c0.174,2.124,0.065,3.341-1.027,4.516c-1.033,1.105-2.44,1.499-6.545,1.836l-0.134,0.011
			c-0.334,0.028-0.557,0.046-0.737,0.046H195.665z M188.428,43.9l8.707-0.712l-0.266-3.254l-8.707,0.712L188.428,43.9z
			 M187.892,37.345l8.708-0.712l-0.231-2.823l-8.707,0.712L187.892,37.345z M176.158,69.656c-0.206,0-0.406-0.075-0.562-0.213
			c-0.173-0.152-0.277-0.368-0.288-0.6c-0.025-0.564-0.104-2.283-0.522-7.405l-0.281-3.444c-0.217-2.662-0.384-4.007-0.463-4.653
			c-0.03-0.242,0.043-0.507,0.204-0.689c0.162-0.183,0.391-0.309,0.635-0.309c0.626-0.025,1.939-0.076,4.676-0.3l6.268-0.513
			c2.761-0.226,4.055-0.388,4.676-0.466c0.036-0.004,0.072-0.007,0.107-0.007c0.2,0,0.399,0.068,0.552,0.197
			c0.181,0.151,0.3,0.369,0.313,0.604c0.023,0.623,0.067,1.831,0.229,3.814l0.301,3.684c0.402,4.917,0.598,6.54,0.671,7.151
			c0.028,0.229-0.04,0.46-0.186,0.64c-0.146,0.179-0.359,0.291-0.59,0.31c0,0-2.935,0.238-2.958,0.238
			c-0.438,0-0.81-0.337-0.847-0.781l-0.106-1.305l-8.277,0.676l0.181,2.215c0.018,0.225-0.053,0.448-0.199,0.62
			s-0.354,0.278-0.579,0.297C179.112,69.417,176.181,69.656,176.158,69.656z M179.378,62.22l8.276-0.677l-0.493-6.029l-8.276,0.677
			L179.378,62.22z"/>
		<path fill="#FFFFFF" d="M224.034,66.018c-3.332,0-7.585-3.64-9.575-11.772c-1.1-4.338-1.912-9.251-2.286-13.828
			c-0.17-2.072-0.335-3.427-0.764-5.083c-0.069-0.267-0.004-0.551,0.173-0.762c0.162-0.192,0.4-0.302,0.65-0.302
			c0.024,0,0.048,0.001,0.072,0.003c2.005,0.17,3.823,0.536,4.987,1.004c0.19,0.066,0.385,0.172,0.529,0.292
			c0.213,0.177,0.326,0.447,0.304,0.723c-0.023,0.285-0.114,0.673-0.271,1.155c-0.126,0.521-0.228,2.505-0.047,4.724
			c0.252,3.091,0.639,6.543,1.753,10.838c1.155,4.394,2.659,6.718,4.349,6.718c0.051,0,0.102-0.002,0.152-0.006
			c1.394-0.114,2.401-1.655,3.594-5.497c0.091-0.293,0.332-0.514,0.632-0.579c0.06-0.013,0.12-0.02,0.181-0.02
			c0.239,0,0.471,0.101,0.634,0.284c0.872,0.975,1.688,1.669,2.37,2.219c0.546,0.425,0.692,0.949,0.479,1.744
			c-1.4,4.962-4.071,7.845-7.523,8.128C224.296,66.012,224.165,66.018,224.034,66.018z M247.226,55.439
			c-0.119,0-0.237-0.025-0.349-0.075c-0.218-0.098-0.385-0.284-0.459-0.511c-2.202-6.716-4.952-11.114-9.493-15.18
			c-0.191-0.171-0.295-0.419-0.282-0.675c0.013-0.256,0.141-0.493,0.348-0.645c1.39-1.018,2.261-1.583,2.747-1.877
			c0.157-0.095,0.362-0.15,0.562-0.15c0.174,0,0.344,0.042,0.474,0.138c4.751,3.5,9.068,9.777,10.741,15.618
			c0.093,0.323,0.005,0.734-0.252,0.95c-0.055,0.046-0.13,0.103-0.182,0.141c-1.346,1.046-2.433,1.725-3.516,2.195
			C247.456,55.416,247.341,55.439,247.226,55.439z"/>
		<path fill="#FFFFFF" d="M266.41,66.755c-0.206,0-0.406-0.075-0.562-0.212c-0.174-0.152-0.277-0.369-0.288-0.6
			c-0.075-1.618-0.271-4.367-0.582-8.171l-0.337-4.114c-0.264-3.233-0.448-4.765-0.527-5.419c-0.027-0.234,0.043-0.47,0.195-0.65
			c0.152-0.181,0.373-0.29,0.608-0.301c0.694-0.033,2.536-0.121,6.201-0.421l15.311-1.251c3.636-0.298,5.48-0.51,6.175-0.59
			c0.034-0.004,0.068-0.006,0.103-0.006c0.213,0,0.435,0.073,0.591,0.212c0.181,0.162,0.313,0.389,0.313,0.631
			c0.025,0.6,0.087,2.055,0.301,4.68l0.384,4.688c0.31,3.78,0.56,6.493,0.743,8.063c0.026,0.229-0.041,0.459-0.187,0.638
			c-0.146,0.178-0.359,0.29-0.589,0.309c0,0-3.507,0.286-3.53,0.286c-0.201,0-0.396-0.071-0.551-0.202
			c-0.172-0.146-0.278-0.354-0.297-0.579l-0.103-1.258l-19.186,1.569l0.122,1.497c0.019,0.225-0.054,0.448-0.199,0.62
			c-0.146,0.172-0.354,0.278-0.579,0.297C269.941,66.47,266.433,66.755,266.41,66.755z M270.242,59.703l19.186-1.569l-0.681-8.325
			l-19.186,1.569L270.242,59.703z M259.035,45.351c-0.28,0-0.555-0.139-0.717-0.392c-0.128-0.2-0.282-0.48-0.354-0.612
			c-0.492-0.84-1.069-1.608-1.711-2.275c-0.181-0.188-0.266-0.45-0.229-0.708c0.036-0.259,0.19-0.486,0.417-0.617
			c7.32-4.228,12.628-9.324,16.226-15.582c0.589-1.021,1.026-1.866,1.391-2.929c0.118-0.346,0.443-0.575,0.805-0.575
			c0.021,0,0.041,0.001,0.062,0.002c1.453,0.107,3.116,0.244,4.428,0.451c0.038,0.006,0.105,0.022,0.143,0.033
			c0.302,0.09,0.528,0.34,0.59,0.648c0.062,0.309-0.053,0.626-0.297,0.825c-0.126,0.103-0.223,0.195-0.287,0.31
			c5.765,6.24,12.293,10.251,20.547,12.625c0.248,0.071,0.45,0.251,0.549,0.49c0.1,0.238,0.086,0.508-0.037,0.735
			c-0.485,0.889-0.882,1.882-1.147,2.874c-0.078,0.344-0.145,0.568-0.189,0.702c-0.119,0.353-0.449,0.579-0.806,0.579
			c-0.076,0-0.154-0.01-0.231-0.032c-0.144-0.041-0.373-0.118-0.715-0.27c-3.549-1.263-6.855-2.817-9.77-4.596l-0.012-0.007
			c0.011,0.044,0.019,0.089,0.022,0.136l0.236,2.887c0.019,0.231-0.058,0.459-0.211,0.633s-0.371,0.277-0.602,0.286
			c-0.613,0.025-2.049,0.084-5.058,0.33l-7.416,0.606c-2.941,0.241-4.332,0.41-5,0.492c-0.035,0.004-0.071,0.006-0.107,0.006
			c-0.198,0-0.403-0.065-0.556-0.189c-0.179-0.146-0.313-0.356-0.332-0.587l-0.239-2.927c-0.008-0.094,0-0.188,0.023-0.277
			l-0.796,0.758c-0.026,0.031-0.055,0.061-0.087,0.088c-2.282,2.004-4.821,3.893-7.546,5.614l-0.541,0.337
			C259.343,45.309,259.188,45.351,259.035,45.351z M277.093,28.029c-2.074,3.428-4.681,6.618-7.969,9.754l-0.017,0.016
			c0.052-0.01,0.104-0.016,0.157-0.017c0.843-0.012,2.537-0.122,5.034-0.326l7.416-0.606c1.911-0.157,3.185-0.283,4.016-0.365
			l0.929-0.087l-0.35-0.213C282.877,33.934,279.784,31.195,277.093,28.029L277.093,28.029z"/>
		<path fill="#FFFFFF" d="M318.235,61.603c-0.2,0-0.396-0.071-0.55-0.202c-0.175-0.148-0.282-0.359-0.299-0.587
			c-0.331-4.619-0.629-9.352-0.956-14.616l0,0c-1.802,3.248-3.872,6.892-5.682,9.995c-0.121,0.209-0.327,0.356-0.563,0.405
			c-0.057,0.012-0.114,0.018-0.171,0.018c-0.182,0-0.359-0.058-0.507-0.168c-1.113-0.828-2.065-1.624-3.087-2.583
			c-0.234-0.22-0.324-0.552-0.233-0.86c0.04-0.139,0.114-0.262,0.213-0.36c3.874-5.584,6.273-9.152,9.349-14.193v0
			c-0.09-1.1-0.202-2.469-0.229-3.399l-0.713,0.284c-1.344,0.537-3.132,1.251-4.597,1.931c-0.391,0.2-0.694,0.427-0.938,0.61
			c-0.16,0.12-0.411,0.22-0.623,0.22c-0.03,0-0.061-0.002-0.089-0.006c-0.227-0.035-0.5-0.106-0.633-0.292
			c-0.079-0.105-0.162-0.216-0.256-0.37c-0.646-1.025-1.236-2.048-1.747-3.029c-0.123-0.237-0.128-0.517-0.013-0.758
			c0.114-0.241,0.335-0.414,0.596-0.468c0.627-0.129,1.24-0.287,2.119-0.544c1.193-0.38,3.025-0.962,6.653-2.278v0
			c-0.072-2.082-0.245-4.183-0.412-6.215c-0.09-1.098-0.253-2.09-0.498-3.046c-0.066-0.259-0.008-0.533,0.158-0.742
			c0.161-0.203,0.406-0.321,0.665-0.321c0.008,0,0.015,0,0.022,0c2.06,0.055,3.379,0.124,4.449,0.333
			c0.358,0.071,0.618,0.178,0.798,0.328c0.2,0.167,0.312,0.416,0.307,0.675c-0.001,0.023-0.003,0.045-0.005,0.067
			c-0.007,0.115-0.027,0.286-0.103,0.535c-0.171,0.53-0.271,1.21-0.31,2.094c0.021,0.541,0.033,1.068,0.045,1.687
			c0.014,0.708,0.029,1.537,0.068,2.639c0.07-0.03,0.381-0.179,0.381-0.179c0.114-0.053,0.237-0.08,0.359-0.08
			c0.157,0,0.313,0.044,0.451,0.13c0.161,0.101,0.492,0.343,0.889,0.825c0.716,0.809,0.866,1.13,0.888,1.432
			c0.005,0.077,0,0.154-0.016,0.229c-0.053,0.261-0.208,0.522-0.69,1.167l-0.119,0.183c-0.554,0.846-1.184,1.81-2.134,3.469
			l0.121,1.483v0c4.332-4.198,8.55-6.333,13.273-6.72c0.421-0.035,0.836-0.052,1.242-0.052c6.529,0,11.107,4.408,11.665,11.229
			c0.587,7.178-3.271,12.711-11.467,16.447c-0.237,0.142-0.515,0.235-0.801,0.258c-0.003,0-0.007,0-0.011,0
			c-0.533,0-0.94-0.192-1.285-0.57c-0.767-0.773-1.56-1.411-2.475-1.982c-0.271-0.169-0.424-0.477-0.396-0.795
			c0.028-0.318,0.232-0.594,0.528-0.714c3.215-1.302,5.327-2.67,7.535-4.879c1.996-2.095,2.896-4.62,2.662-7.49
			c-0.357-4.365-2.875-6.868-6.907-6.868c-0.27,0-0.546,0.011-0.828,0.034c-4.71,0.385-8.332,3.146-12.321,7.172v0.001
			c0.343,3.824,0.713,7.515,1.094,11.32l0.015,0.138c0.215,2.155,0.434,4.347,0.655,6.623c0.043,0.448-0.271,0.853-0.715,0.922
			c-0.349,0.055-2.168,0.334-3.745,0.481C318.288,61.601,318.262,61.603,318.235,61.603z"/>
		<path fill="#FFFFFF" d="M373.968,54.65c-6.45,0-8.952-1.864-9.916-7.385c-0.425-2.42-0.847-6.23-1.29-11.646
			c-2.415,0.535-3.921,0.947-5.706,1.478l-0.156,0.056c-0.5,0.18-1.188,0.427-1.938,0.838c-0.139,0.076-0.298,0.113-0.455,0.113
			c-0.277,0-0.551-0.115-0.709-0.341c-0.031-0.045-0.071-0.107-0.119-0.189c-0.517-0.885-1.072-2.277-1.484-3.721
			c-0.067-0.236-0.03-0.489,0.104-0.695s0.35-0.345,0.592-0.38c1.118-0.162,2.664-0.455,4.135-0.784
			c0.767-0.173,1.845-0.454,2.957-0.743c0.854-0.222,1.657-0.431,2.375-0.608l-0.419-5.119c-0.24-1.982-0.396-2.83-0.722-3.909
			c-0.078-0.261-0.027-0.543,0.137-0.76c0.161-0.212,0.412-0.336,0.678-0.336c0.006,0,0.012,0,0.018,0
			c2.647,0.055,4.2,0.268,4.613,0.332c0.415,0.043,0.851,0.326,1.02,0.684c0.052,0.109,0.079,0.227,0.082,0.348
			c0.004,0.241-0.076,0.494-0.219,0.918c-0.23,0.746-0.321,1.374-0.307,2.146c0.024,0.618,0.078,1.429,0.138,2.299
			c0.05,0.751,0.103,1.546,0.143,2.301h0.001c2.463-0.528,6.01-1.209,8.859-1.756l2.847-0.55c-0.148-2.407-0.361-5.02-0.503-6.749
			c-0.133-1.626-0.368-3.027-0.717-4.284c-0.072-0.262-0.016-0.542,0.152-0.755c0.162-0.204,0.407-0.323,0.667-0.323
			c0.011,0,0.021,0,0.033,0.001c2.048,0.08,3.543,0.181,4.664,0.44c0.224,0.045,0.363,0.093,0.44,0.123
			c0.325,0.127,0.539,0.439,0.541,0.788c0.001,0.345-0.111,0.666-0.209,0.907l-0.025,0.113c-0.164,0.725-0.293,1.298-0.276,2.077
			c0.116,2.591,0.221,4.461,0.357,6.714v0c3.26-0.511,6.034-0.897,8.995-1.253c0.034-0.004,0.067-0.006,0.102-0.006
			c0.19,0,0.376,0.064,0.526,0.183c0.178,0.14,0.292,0.345,0.318,0.57c0.137,1.174,0.261,2.322,0.277,3.452
			c0.006,0.447-0.334,0.822-0.779,0.86c-2.901,0.243-6.022,0.627-9.276,1.143c0.116,3.193,0.161,5.548,0.028,7.416
			c-0.212,3.61-2.12,5.519-5.833,5.822c-0.614,0.05-1.457,0.12-2.263,0.12c-0.239,0-0.478-0.006-0.712-0.02
			c0,0-0.207-0.004-0.237-0.007c-0.355-0.033-0.652-0.284-0.744-0.628c-0.022-0.087-0.058-0.248-0.081-0.53
			c-0.151-1.056-0.382-1.945-0.744-2.833c-0.111-0.276-0.071-0.59,0.106-0.829c0.161-0.216,0.415-0.342,0.682-0.342
			c0.027,0,0.055,0.001,0.082,0.004c0.479,0.046,0.956,0.07,1.418,0.07c0.403,0,0.789-0.018,1.166-0.048
			c1.441-0.118,1.986-0.704,2.08-2.24c0.063-1.367,0.038-2.991-0.08-5.099v0c-3.796,0.598-7.902,1.413-11.564,2.294l0.097,1.327
			c0.314,4.366,0.504,7.001,0.883,9.479c0.495,3.177,1.269,4.235,4.869,4.235c0.727,0,1.581-0.042,2.691-0.133
			c3.782-0.309,8.271-1.027,12.312-1.97c0.045-0.011,0.096-0.018,0.143-0.021c0.019-0.001,0.038-0.002,0.057-0.002
			c0.385,0,0.729,0.259,0.828,0.635c0.268,1.026,0.526,3.071,0.596,3.927c0.034,0.422-0.244,0.844-0.657,0.937
			c-2.265,0.512-7.932,1.354-11.844,1.674C376.342,54.592,375.092,54.65,373.968,54.65z"/>
	</g>
</g>
</svg>
