<?xml version="1.0" encoding="utf-8"?>
<!-- Generator: Adobe Illustrator 16.0.4, SVG Export Plug-In . SVG Version: 6.00 Build 0)  -->
<!DOCTYPE svg PUBLIC "-//W3C//DTD SVG 1.1//EN" "http://www.w3.org/Graphics/SVG/1.1/DTD/svg11.dtd">
<svg version="1.1" id="レイヤー_1" xmlns="http://www.w3.org/2000/svg" xmlns:xlink="http://www.w3.org/1999/xlink" x="0px"
	 y="0px" width="688.465px" height="275.986px" viewBox="0 0 688.465 275.986" enable-background="new 0 0 688.465 275.986"
	 xml:space="preserve">
<g>
	<path fill="none" stroke="#000000" stroke-width="10" d="M18.149,249.708c-0.231,0-0.453-0.095-0.614-0.262
		c-0.168-0.175-0.253-0.413-0.234-0.655L35.63,15.163c0.035-0.444,0.405-0.784,0.847-0.784c0.009,0,615.947,20.337,615.947,20.337
		c0.45,0.015,0.812,0.38,0.822,0.831l4.406,189.507c0.011,0.465-0.354,0.853-0.819,0.869
		C656.833,225.923,18.16,249.708,18.149,249.708z"/>
	<path fill="none" stroke="#000000" stroke-width="5" d="M25.308,246.501c-5.497,0.204-10.198,0.329-10.447,0.277
		c0,0,0,0-0.161-0.167c-0.168-0.175-0.168-0.175-0.168-0.175c-0.036-0.265,0.286-4.967,0.716-10.45L32.014,22.299
		c0.43-5.484,0.964-10.323,1.188-10.754c0,0,0,0,0.442,0c0.009,0,605.951,20.006,605.951,20.006
		c5.497,0.182,10.178,0.416,10.401,0.521c0.223,0.104,0.521,5.14,0.648,10.639l3.941,169.511c0.128,5.499,0.152,10.189,0.055,10.424
		c-0.097,0.235-5.139,0.611-10.636,0.815L25.308,246.501z"/>
	<path fill="#252659" d="M15.314,246.873c-0.231,0-0.453-0.095-0.614-0.262c-0.168-0.175-0.253-0.413-0.234-0.655L32.796,12.329
		c0.035-0.444,0.405-0.784,0.847-0.784c0.009,0,615.946,20.336,615.946,20.336c0.45,0.016,0.812,0.38,0.822,0.831l4.406,189.507
		c0.011,0.465-0.354,0.853-0.819,0.869C653.999,223.088,15.325,246.873,15.314,246.873z"/>
</g>
<g>
	<g>
		<g>
			<path d="M82.903,32.196c1.168,0,2.642,0.35,2.803,3.036h-6.743C79.599,33.631,80.759,32.196,82.903,32.196z M83.812,34.898
				c-0.25,0-0.667,0-1.124,0.26h2.103C84.472,34.898,84.088,34.898,83.812,34.898"/>
		</g>
		<g enable-background="new    ">
			<g>
				<path d="M61.961,20.096l0.212,8.5l-1.414,4.46c-0.331,1.085-0.637,2.11-0.929,3.104c-0.008-0.935-0.014-1.895-0.038-2.888
					L59.437,19.02c-0.012-0.497-0.205-0.921-0.51-1.238l2.157,0.219C61.615,18.524,61.941,19.253,61.961,20.096z"/>
			</g>
			<g>
				<path d="M75.087,18.443c0.558,0.834,0.662,1.911,0.294,2.962L64.935,51.18c-0.585,1.661-2.245,2.871-3.939,2.871h-5.399
					c-1.719,0-3.009-1.236-3.071-2.921l-0.344-10.022l-3.229,9.981c-0.56,1.71-2.226,2.962-3.971,2.962h-5.39
					c-1.702,0-2.987-1.219-3.067-2.888L35.238,21.39c-0.021-0.533,0.079-1.073,0.289-1.582l1.287,29.77
					c0.045,1.027,0.835,1.762,1.879,1.762h5.39c1.06,0,2.076-0.76,2.418-1.804l4.558-14.076c0.443-1.327,0.841-2.58,1.22-3.814
					c-0.001,1.276,0.018,2.587,0.065,3.98l0.471,13.937c0.034,1.034,0.823,1.777,1.875,1.777h5.407c1.035,0,2.038-0.734,2.401-1.753
					L72.943,19.82c0.231-0.643,0.163-1.302-0.179-1.803c-0.339-0.509-0.905-0.801-1.564-0.801h-2.996
					c0.245-0.049,0.494-0.075,0.746-0.075h3.58C73.599,17.142,74.537,17.617,75.087,18.443z"/>
			</g>
			<g>
				<path d="M72.765,18.018c0.342,0.501,0.41,1.16,0.179,1.803L62.498,49.586c-0.363,1.019-1.367,1.753-2.401,1.753h-5.407
					c-1.052,0-1.841-0.743-1.875-1.777l-0.471-13.937c-0.047-1.394-0.066-2.704-0.065-3.98c-0.378,1.234-0.776,2.487-1.22,3.814
					L46.5,49.535c-0.342,1.044-1.358,1.804-2.418,1.804h-5.39c-1.043,0-1.833-0.734-1.879-1.762l-1.287-29.765
					c-0.027-0.646,0.24-1.304,0.731-1.803c0.493-0.5,1.146-0.792,1.806-0.792h0.578h3.319c1.085,0,1.869,0.776,1.875,1.836
					l0.099,13.635c-0.007,1.201-0.016,2.361-0.025,3.479c0.338-1.134,0.684-2.261,1.062-3.387l1.446-4.412l3.065-9.349
					c0.341-1.043,1.357-1.803,2.417-1.803h0.589h5.077c1.06,0,1.847,0.759,1.872,1.803l0.355,14.252
					c0.024,0.993,0.03,1.953,0.039,2.888c0.292-0.993,0.598-2.02,0.929-3.104l1.414-4.46l3.026-9.551
					c0.327-1.06,1.353-1.827,2.421-1.827h0.584h2.996C71.859,17.217,72.425,17.509,72.765,18.018z M61.169,49.319l10.455-29.767
					c0.077-0.233,0.055-0.476-0.067-0.659c-0.123-0.184-0.325-0.284-0.567-0.284h-3.579c-0.384,0-0.752,0.276-0.876,0.66
					l-4.43,14.002c-0.705,2.287-1.276,4.299-1.892,6.435c-0.43,1.519-0.875,3.088-1.39,4.831h-0.567
					c0.172-3.788,0.212-7.084,0.132-11.023l-0.355-14.253c-0.009-0.375-0.293-0.651-0.677-0.651h-5.667
					c-0.375,0-0.75,0.276-0.874,0.651l-4.512,13.77c-0.827,2.486-1.523,4.939-2.259,7.543c-0.375,1.318-0.742,2.638-1.134,3.964
					h-0.567c0.108-3.638,0.167-7.335,0.183-11.632L42.435,19.27c-0.009-0.384-0.292-0.66-0.685-0.66h-3.896
					c-0.243,0-0.475,0.1-0.653,0.284c-0.178,0.184-0.28,0.418-0.265,0.651l1.287,29.767c0.018,0.374,0.295,0.642,0.679,0.642h5.391
					c0.384,0,0.75-0.275,0.876-0.659l4.56-14.087c1.158-3.462,2.023-6.475,3.025-9.954l0.474-1.637h0.559
					c-0.009,0.944-0.023,1.862-0.04,2.796c-0.055,2.954-0.101,5.741-0.003,8.955l0.477,13.944c0.02,0.366,0.304,0.642,0.679,0.642
					h5.407C60.682,49.953,61.047,49.686,61.169,49.319"/>
			</g>
			<g>
				<path d="M52.937,17.172l0.445,0.045h-0.894C52.635,17.188,52.786,17.184,52.937,17.172z"/>
			</g>
			<g>
				<path d="M53.229,17.143h5.666c0.88-0.001,1.643,0.321,2.189,0.858l-2.157-0.219c-0.335-0.348-0.806-0.564-1.361-0.564h-4.184
					l-0.445-0.045C53.034,17.164,53.13,17.143,53.229,17.143z"/>
			</g>
			<g>
				<path d="M43.835,19.053c-0.006-1.06-0.79-1.836-1.875-1.836h-3.319c0.246-0.05,0.495-0.075,0.743-0.075h3.906
					c1.769,0,3.055,1.26,3.066,3.012l0.061,8.214l-1.446,4.412c-0.378,1.126-0.724,2.253-1.062,3.387
					c0.01-1.118,0.019-2.278,0.025-3.479L43.835,19.053z"/>
			</g>
			<g>
				<path fill="#FFFFFF" d="M70.99,18.61c0.242,0,0.444,0.101,0.566,0.284c0.122,0.184,0.144,0.425,0.067,0.659L61.169,49.319
					c-0.122,0.367-0.488,0.634-0.863,0.634h-5.407c-0.376,0-0.66-0.275-0.68-0.642l-0.477-13.944c-0.098-3.214-0.052-6,0.003-8.954
					c0.017-0.935,0.03-1.853,0.04-2.796h-0.559l-0.473,1.636c-1.002,3.479-1.867,6.492-3.025,9.955l-4.56,14.086
					c-0.125,0.384-0.492,0.659-0.876,0.659h-5.391c-0.383,0-0.661-0.267-0.679-0.642l-1.288-29.767
					c-0.014-0.233,0.088-0.467,0.266-0.651c0.178-0.183,0.41-0.284,0.652-0.284h3.896c0.393,0,0.676,0.275,0.685,0.659l0.089,13.636
					c-0.016,4.298-0.074,7.994-0.183,11.633h0.567c0.393-1.327,0.759-2.646,1.134-3.964c0.736-2.604,1.433-5.058,2.26-7.544
					l4.512-13.769c0.124-0.376,0.499-0.651,0.875-0.651h5.666c0.384,0,0.668,0.275,0.678,0.651l0.355,14.253
					c0.08,3.938,0.04,7.234-0.132,11.023h0.567c0.514-1.744,0.96-3.313,1.39-4.832c0.616-2.136,1.187-4.146,1.892-6.435
					l4.431-14.002c0.125-0.384,0.492-0.659,0.875-0.659H70.99z"/>
			</g>
			<g>
				<path d="M106.314,18.827c0.182-1.202-0.647-2.178-1.848-2.178h-2.892c0.243-0.048,0.491-0.075,0.742-0.075h3.472
					c1.969,0,3.328,1.602,3.03,3.573l-0.916,6.05c-0.997,0.251-1.977,0.682-2.896,1.268L106.314,18.827z"/>
			</g>
			<g>
				<path fill="#FFFFFF" d="M83.562,27.288c6.108,0,9.223,4.457,8.137,11.634l-0.041,0.266c-0.065,0.436-0.469,0.785-0.902,0.785
					H76.561c-0.63,4.439,1.011,6.993,4.516,6.993c2.153,0,3.833-1.177,4.993-3.488c0.166-0.325,0.498-0.534,0.823-0.534l0.212,0.033
					l2.92,0.885c0.208,0.059,0.361,0.209,0.43,0.409c0.062,0.199,0.035,0.434-0.081,0.643c-2.057,3.722-5.387,5.608-9.877,5.608
					c-6.576,0-9.855-4.307-8.764-11.516C72.811,31.887,77.454,27.288,83.562,27.288z M77.144,36.618h9.938
					c0.411-4.806-1.932-5.816-3.968-5.816C80.135,30.802,77.954,32.921,77.144,36.618"/>
			</g>
			<g>
				<path d="M94.865,42.207c-0.318,0.457-0.724,0.854-1.186,1.162c0.25,0.283,0.448,0.626,0.574,1.002
					c0.09,0.264,0.143,0.543,0.159,0.828l-0.221,1.458c-0.074,0.207-0.167,0.411-0.276,0.609c-1.859,3.354-5.575,7.344-12.727,7.344
					c-8.069,0-12.436-5.608-11.122-14.295c0.097-0.642,0.22-1.267,0.368-1.875c-0.034,0.187-0.066,0.375-0.095,0.565
					c-1.205,7.96,2.613,12.9,9.948,12.9c5.04,0,8.95-2.236,11.303-6.476c0.311-0.568,0.391-1.21,0.209-1.77
					c-0.192-0.551-0.622-0.968-1.189-1.135l-2.904-0.885c-0.183-0.056-0.375-0.083-0.569-0.083c-0.9,0-1.866,0.574-2.309,1.46
					c-0.208,0.413-0.422,0.76-0.64,1.052h-3.667c0.336,1.103,1.086,1.354,1.652,1.409c-0.311,0.072-0.609,0.093-0.886,0.093
					c-2.804,0-3.502-2.053-3.461-4.206h12.718c1.201,0,2.325-0.976,2.506-2.179l0.041-0.266c1.197-7.911-2.461-13.018-9.32-13.018
					c-0.092,0-0.184,0.001-0.274,0.002c0.526-0.057,1.062-0.087,1.605-0.087c6.372,0,10.291,3.872,10.703,10.171L94.865,42.207z"/>
			</g>
			<g>
				<path d="M93.052,39.188c-0.182,1.203-1.305,2.179-2.506,2.179H77.827c-0.042,2.153,0.657,4.206,3.461,4.206
					c0.277,0,0.576-0.021,0.886-0.093c0.65-0.148,1.351-0.524,2.015-1.409c0.218-0.292,0.433-0.639,0.64-1.052
					c0.443-0.886,1.409-1.46,2.309-1.46c0.195,0,0.386,0.027,0.569,0.083l2.904,0.885c0.567,0.167,0.997,0.584,1.189,1.135
					c0.182,0.56,0.102,1.201-0.209,1.77c-2.353,4.239-6.263,6.476-11.303,6.476c-7.335,0-11.152-4.94-9.948-12.9
					c0.029-0.19,0.061-0.379,0.095-0.565c1.335-7.42,6.516-12.398,13.062-12.534c0.091-0.001,0.183-0.002,0.274-0.002
					c6.859,0,10.518,5.106,9.32,13.018L93.052,39.188z M81.077,46.966c-3.505,0-5.146-2.554-4.516-6.993h14.195
					c0.433,0,0.837-0.35,0.902-0.785l0.041-0.266c1.086-7.177-2.029-11.634-8.137-11.634c-6.108,0-10.752,4.599-11.829,11.718
					c-1.091,7.209,2.188,11.516,8.764,11.516c4.49,0,7.821-1.887,9.877-5.608c0.115-0.209,0.142-0.443,0.081-0.643
					c-0.069-0.2-0.222-0.351-0.43-0.409l-2.92-0.885l-0.212-0.033c-0.326,0-0.657,0.209-0.823,0.534
					C84.911,45.789,83.23,46.966,81.077,46.966"/>
			</g>
			<g>
				<path d="M107.799,31.294c1.067,0,4.44,0.542,3.379,7.553c-1.088,7.193-4.845,7.751-5.979,7.751
					c-1.827,0-3.259-1.352-3.919-3.713l1.179-7.794C103.924,32.638,105.813,31.294,107.799,31.294z M109.465,40.499
					c0.125-0.497,0.236-1.046,0.328-1.652c0.866-5.726-1.47-6.167-2.204-6.167c-1.753,0-3.07,1.594-3.782,2.712l-1.088,7.193
					c0.532,1.669,1.506,2.62,2.691,2.62c0.208,0,0.54-0.031,0.935-0.177C107.323,44.666,108.683,43.591,109.465,40.499"/>
			</g>
			<g>
				<path fill="#FFFFFF" d="M109.734,27.33c5.265,0,7.756,4.272,6.673,11.432c-1.229,8.121-6.143,11.76-10.466,11.76
					c-2.82,0-4.71-1.353-5.61-4.007l-1.277,2.871c-0.151,0.334-0.495,0.567-0.845,0.567h-2.253c-0.442,0-0.738-0.358-0.672-0.793
					l4.59-30.333c0.066-0.435,0.469-0.785,0.911-0.785h3.472c0.434,0,0.731,0.35,0.665,0.785l-1.837,12.142
					C104.83,28.691,107.314,27.33,109.734,27.33z M105.199,46.598c1.135,0,4.891-0.558,5.979-7.751
					c1.061-7.011-2.312-7.553-3.379-7.553c-1.986,0-3.875,1.344-5.34,3.797l-1.179,7.794
					C101.94,45.246,103.372,46.598,105.199,46.598"/>
			</g>
			<g>
				<path d="M110.081,25.938c5.951,0.074,8.908,4.974,7.72,12.823c-1.374,9.081-7.054,13.145-12.07,13.145
					c-2.278,0-4.089-0.768-5.351-2.245l-0.051,0.117c-0.415,0.917-1.372,1.561-2.331,1.561h-2.254c-1.201,0-2.038-0.977-1.856-2.179
					l4.501-29.744l0.089-0.589c0.182-1.202,1.314-2.178,2.516-2.178h0.58h2.892c1.201,0,2.03,0.976,1.848,2.178l-1.307,8.637
					c0.919-0.586,1.898-1.017,2.896-1.268c0.677-0.171,1.361-0.259,2.042-0.259C109.99,25.938,110.035,25.938,110.081,25.938z
					 M105.94,50.521c4.323,0,9.238-3.639,10.466-11.76c1.083-7.159-1.408-11.432-6.673-11.432c-2.42,0-4.904,1.361-6.651,3.639
					l1.837-12.142c0.066-0.435-0.231-0.785-0.665-0.785h-3.472c-0.442,0-0.845,0.35-0.911,0.785l-4.59,30.333
					c-0.066,0.435,0.23,0.793,0.672,0.793h2.253c0.35,0,0.694-0.233,0.845-0.567l1.277-2.871
					C101.23,49.169,103.12,50.521,105.94,50.521"/>
			</g>
			<g>
				<path d="M109.793,38.847c-0.092,0.606-0.203,1.155-0.328,1.652c0.019-0.112,0.038-0.227,0.055-0.342
					c0.499-3.297-0.154-4.774-1.022-4.774c-0.901,0-1.712,0.894-2.238,1.661l-0.987,6.525c0.276,0.729,0.661,1.251,1.072,1.459
					c-0.395,0.146-0.727,0.177-0.935,0.177c-1.185,0-2.159-0.951-2.691-2.62l1.088-7.193c0.711-1.118,2.029-2.712,3.782-2.712
					C108.324,32.68,110.66,33.121,109.793,38.847z"/>
			</g>
			<g>
				<path d="M111.274,25.862c6.894,0,10.358,5.449,9.032,14.21c-1.512,9.99-8.141,14.538-13.666,14.538
					c-2.02,0-3.75-0.535-5.113-1.562c-0.744,0.617-1.687,1.002-2.622,1.002h-2.261c-1.97,0-3.329-1.603-3.031-3.571l0.578-3.822
					l0.221-1.458l0.453-2.992l0.941-6.217l2.397-15.844c0.038-0.251,0.101-0.495,0.186-0.73L93.888,49.16
					c-0.182,1.202,0.655,2.179,1.856,2.179h2.254c0.959,0,1.916-0.644,2.331-1.561l0.051-0.117c1.262,1.478,3.073,2.245,5.351,2.245
					c5.016,0,10.696-4.063,12.07-13.145c1.188-7.85-1.77-12.749-7.72-12.823C110.478,25.889,110.875,25.862,111.274,25.862z"/>
			</g>
		</g>
		<g>
			<path d="M83.114,30.802c2.036,0,4.378,1.011,3.968,5.816h-9.938C77.954,32.921,80.135,30.802,83.114,30.802z M78.964,35.232
				h6.743c-0.161-2.687-1.635-3.036-2.803-3.036C80.759,32.196,79.599,33.631,78.964,35.232"/>
		</g>
	</g>
</g>
<g>
	<g>
		<g>
			<path d="M58.444,102.744l0.62,4.564h-4.022l1.923-4.606c0.408-0.926,0.787-1.837,1.181-2.787
				C58.229,100.858,58.323,101.784,58.444,102.744z M58.458,106.574l-0.275,0.659h0.367L58.458,106.574"/>
		</g>
		<g enable-background="new    ">
			<g>
				<path fill="#FFFFFF" d="M43.95,90.611c0.435,0,0.731,0.35,0.666,0.784L44.2,94.141c-0.065,0.434-0.47,0.793-0.904,0.793H28.935
					l-1.276,8.437h10.681c0.434,0,0.738,0.358,0.673,0.793l-0.416,2.745c-0.065,0.434-0.478,0.784-0.912,0.784H27.004l-2.038,13.469
					c-0.065,0.435-0.47,0.793-0.913,0.793h-3.914c-0.434,0-0.729-0.358-0.664-0.793l4.504-29.766
					c0.066-0.435,0.469-0.784,0.903-0.784H43.95z"/>
			</g>
			<g>
				<path d="M44.16,89.217c1.202,0,2.031,0.977,1.849,2.178l-0.416,2.746c-0.182,1.201-1.306,2.179-2.508,2.179H30.118l-0.857,5.665
					h9.288c1.202,0,2.03,0.977,1.848,2.179l-0.416,2.745c-0.182,1.201-1.306,2.178-2.507,2.178h-9.288l-1.827,12.075
					c-0.182,1.201-1.314,2.178-2.516,2.178h-3.914c-1.201,0-2.03-0.977-1.848-2.178l4.415-29.178l0.089-0.589
					c0.182-1.201,1.306-2.178,2.507-2.178h0.589H44.16z M44.2,94.141l0.416-2.746c0.066-0.434-0.231-0.784-0.666-0.784H24.882
					c-0.434,0-0.837,0.351-0.903,0.784l-4.504,29.767c-0.066,0.434,0.23,0.792,0.664,0.792h3.914c0.442,0,0.847-0.358,0.912-0.792
					l2.038-13.469h10.682c0.434,0,0.846-0.351,0.911-0.784l0.416-2.745c0.065-0.435-0.239-0.794-0.672-0.794H27.658l1.276-8.436
					h14.361C43.73,94.934,44.134,94.573,44.2,94.141"/>
			</g>
			<g>
				<path d="M45.482,89.143c1.969,0,3.329,1.602,3.031,3.571l-0.416,2.745c-0.297,1.961-2.142,3.563-4.111,3.563H32.413
					l-0.436,2.879h7.902c1.969,0,3.329,1.603,3.031,3.572l-0.416,2.745c-0.298,1.97-2.143,3.571-4.112,3.571h-7.903l-1.617,10.689
					c-0.298,1.97-2.143,3.571-4.112,3.571h-3.914c-1.969,0-3.329-1.602-3.031-3.571l4.504-29.766c0.038-0.25,0.101-0.495,0.185-0.73
					l-4.415,29.178c-0.182,1.202,0.647,2.178,1.849,2.178h3.914c1.202,0,2.334-0.976,2.516-2.178l1.827-12.075h9.288
					c1.201,0,2.326-0.976,2.507-2.178l0.416-2.745c0.182-1.201-0.647-2.179-1.849-2.179h-9.288l0.857-5.665h12.967
					c1.202,0,2.326-0.978,2.508-2.179l0.416-2.745c0.182-1.202-0.646-2.178-1.849-2.178H25.682c0.243-0.05,0.491-0.075,0.741-0.075
					H45.482z"/>
			</g>
			<g>
				<path fill="#FFFFFF" d="M67.868,120.928c0.039,0.241-0.051,0.501-0.223,0.701c-0.182,0.208-0.433,0.324-0.683,0.324h-4.039
					c-0.35,0-0.624-0.233-0.673-0.567l-1.187-8.645H51.45l-3.854,8.645c-0.151,0.334-0.495,0.567-0.845,0.567h-3.513
					c-0.25,0-0.466-0.116-0.585-0.324c-0.111-0.2-0.122-0.46-0.012-0.693l13.635-29.774c0.149-0.325,0.492-0.551,0.842-0.551h5.416
					c0.342,0,0.618,0.226,0.668,0.551L67.868,120.928z M53.028,108.702h7.669l-0.852-6.342c-0.244-1.861-0.379-3.614-0.531-5.642
					l-0.163-2.07h-0.367c-1.19,3.122-2.086,5.35-3.096,7.67L53.028,108.702"/>
			</g>
			<g>
				<path d="M69.257,120.519c0.02,0.127,0.026,0.256,0.022,0.387c-0.047,0.173-0.074,0.349-0.08,0.521
					c-0.1,0.369-0.29,0.726-0.561,1.028c-0.493,0.56-1.202,0.885-1.886,0.885h-4.039c-0.968,0-1.731-0.644-1.857-1.569l-1.056-7.635
					h-7.527l-3.401,7.644c-0.406,0.917-1.362,1.561-2.331,1.561h-3.513c-0.684,0-1.294-0.325-1.62-0.876
					c-0.156-0.269-0.238-0.573-0.249-0.89c-0.012-0.344,0.061-0.704,0.216-1.047l13.633-29.766c0.424-0.926,1.352-1.544,2.32-1.544
					h0.574h4.841c0.96,0,1.709,0.618,1.846,1.536L69.257,120.519z M67.645,121.629c0.172-0.2,0.262-0.46,0.223-0.701l-4.666-29.767
					c-0.051-0.325-0.326-0.551-0.668-0.551h-5.416c-0.351,0-0.693,0.226-0.842,0.551l-13.635,29.774
					c-0.11,0.233-0.1,0.493,0.012,0.693c0.119,0.208,0.335,0.324,0.585,0.324h3.513c0.351,0,0.694-0.233,0.845-0.567l3.854-8.645
					h9.613l1.187,8.645c0.05,0.334,0.323,0.567,0.673,0.567h4.039C67.212,121.953,67.463,121.837,67.645,121.629"/>
			</g>
			<g>
				<path d="M59.314,96.719c0.152,2.027,0.288,3.78,0.531,5.642l0.852,6.342h-7.669l2.66-6.384c1.01-2.32,1.906-4.548,3.096-7.67
					h0.367L59.314,96.719z M55.042,107.309h4.022l-0.62-4.564c-0.122-0.96-0.215-1.886-0.298-2.829
					c-0.394,0.95-0.773,1.861-1.181,2.787L55.042,107.309"/>
			</g>
			<g>
				<path d="M82.931,90.318c-0.282-0.676-0.943-1.102-1.728-1.102h-3.745c0.244-0.05,0.49-0.074,0.736-0.074h4.339
					c1.286,0,2.365,0.692,2.83,1.811l2.518,6.043l-1.285,1.75L86.5,98.88l-0.03-0.075L82.931,90.318z"/>
			</g>
			<g>
				<path d="M79.744,106.775l-5.429-12.243c-0.37-0.826-0.349-1.808,0.023-2.714c0.01,0.241,0.061,0.477,0.158,0.695l5.931,13.359
					L79.744,106.775z"/>
			</g>
			<g>
				<path d="M64.59,90.753c-0.136-0.918-0.886-1.536-1.846-1.536h-4.841c0.246-0.05,0.496-0.074,0.748-0.074h5.416
					c1.577,0,2.801,1.009,3.031,2.52l4.133,26.358l-1.525,2.014c-0.201,0.271-0.344,0.567-0.426,0.871
					c0.004-0.131-0.002-0.26-0.022-0.387L64.59,90.753z"/>
			</g>
			<g>
				<path d="M69.146,124.231c0.174,0.429,0.442,0.795,0.777,1.085c-0.686,0.467-1.486,0.734-2.271,0.734h-4.039
					c-1.578,0-2.826-1.067-3.032-2.578l-0.924-6.634h-5.44l-2.958,6.643c-0.671,1.51-2.242,2.569-3.81,2.569h-3.514
					c-1.126,0-2.121-0.542-2.65-1.451c-0.508-0.861-0.557-1.982-0.126-3.026c0.011,0.316,0.093,0.621,0.249,0.89
					c0.326,0.551,0.936,0.876,1.62,0.876h3.513c0.968,0,1.924-0.644,2.331-1.561l3.401-7.644H59.8l1.056,7.635
					c0.126,0.926,0.889,1.569,1.857,1.569h4.039c0.684,0,1.393-0.325,1.886-0.885c0.271-0.303,0.461-0.659,0.561-1.028
					c-0.002,0.053-0.001,0.104,0,0.155C68.84,122.465,68.808,123.418,69.146,124.231z"/>
			</g>
			<g>
				<path fill="#FFFFFF" d="M98.5,90.611c0.284,0,0.528,0.15,0.624,0.4c0.104,0.25,0.049,0.559-0.138,0.801l-10.685,13.861
					l6.814,15.078c0.112,0.25,0.067,0.551-0.113,0.802c-0.17,0.241-0.461,0.4-0.745,0.4h-4.406c-0.284,0-0.52-0.15-0.625-0.393
					l-4.128-9.671c-0.129-0.301-0.245-0.584-0.353-0.868c-0.138-0.359-0.269-0.701-0.447-1.068c-0.458,0.65-0.874,1.252-1.336,1.937
					l-7.097,9.671c-0.178,0.242-0.46,0.393-0.743,0.393h-3.839c-0.284,0-0.527-0.159-0.624-0.4
					c-0.104-0.251-0.059-0.552,0.129-0.802l11.264-14.879l-6.248-14.077c-0.113-0.242-0.068-0.543,0.112-0.793
					c0.179-0.241,0.46-0.392,0.744-0.392h4.331c0.284,0,0.528,0.15,0.625,0.392l3.54,8.487c0.166,0.392,0.309,0.768,0.461,1.143
					c0.145,0.367,0.289,0.742,0.447,1.126c0.378-0.517,0.741-1.034,1.105-1.568l0.543-0.775l6.179-8.412
					c0.18-0.25,0.46-0.392,0.735-0.392H98.5z"/>
			</g>
			<g>
				<path d="M96.417,120.034c0.298,0.676,0.188,1.52-0.3,2.202c-0.496,0.686-1.285,1.103-2.07,1.103h-4.406
					c-0.776,0-1.44-0.409-1.722-1.085l-4.029-9.438l-6.929,9.446c-0.493,0.667-1.272,1.076-2.048,1.076h-3.839
					c-0.785,0-1.447-0.417-1.736-1.103c-0.084-0.206-0.13-0.428-0.139-0.655c-0.001-0.051-0.002-0.103,0-0.155
					c0.005-0.172,0.032-0.348,0.08-0.521c0.082-0.304,0.226-0.601,0.426-0.871l1.525-2.014l8.514-11.245l0.683-0.902l-5.931-13.359
					c-0.097-0.219-0.148-0.454-0.158-0.695c-0.021-0.508,0.144-1.042,0.473-1.5c0.486-0.676,1.276-1.102,2.061-1.102h0.585h3.745
					c0.784,0,1.445,0.426,1.728,1.102l3.54,8.486l0.125-0.059l1.285-1.75l4.916-6.694c0.485-0.667,1.274-1.085,2.042-1.085h0.591
					h3.281c0.785,0,1.454,0.426,1.733,1.118s0.135,1.535-0.384,2.212l-10.132,13.135L96.417,120.034z M95.003,121.554
					c0.179-0.251,0.225-0.552,0.112-0.802l-6.813-15.079l10.685-13.86c0.187-0.242,0.242-0.551,0.138-0.802
					c-0.096-0.25-0.34-0.4-0.624-0.4h-3.872c-0.275,0-0.556,0.143-0.735,0.393l-6.18,8.411l-0.543,0.776
					c-0.364,0.534-0.727,1.052-1.104,1.568c-0.159-0.384-0.303-0.759-0.447-1.126c-0.152-0.375-0.295-0.751-0.462-1.143
					l-3.539-8.487c-0.098-0.242-0.341-0.393-0.625-0.393h-4.331c-0.284,0-0.565,0.15-0.744,0.393
					c-0.179,0.25-0.225,0.551-0.111,0.793l6.248,14.077l-11.263,14.879c-0.188,0.25-0.234,0.551-0.13,0.802
					c0.097,0.241,0.34,0.399,0.624,0.399h3.839c0.283,0,0.565-0.149,0.743-0.392l7.096-9.672c0.462-0.684,0.879-1.285,1.336-1.936
					c0.178,0.367,0.309,0.709,0.447,1.067c0.107,0.284,0.222,0.568,0.353,0.868l4.128,9.672c0.105,0.242,0.341,0.392,0.625,0.392
					h4.406C94.542,121.953,94.832,121.795,95.003,121.554"/>
			</g>
			<g>
				<path d="M98.83,120.635c0.494,1.093,0.309,2.479-0.494,3.597c-0.795,1.118-2.095,1.819-3.38,1.819h-4.414
					c-1.268,0-2.349-0.685-2.817-1.785l-3.142-7.361l-5.404,7.368c-0.809,1.094-2.088,1.778-3.357,1.778h-3.847
					c-0.793,0-1.511-0.268-2.051-0.734c-0.335-0.29-0.603-0.656-0.777-1.085c-0.338-0.813-0.306-1.767,0.053-2.65
					c0.009,0.228,0.055,0.449,0.139,0.655c0.289,0.686,0.952,1.103,1.736,1.103h3.839c0.776,0,1.555-0.409,2.048-1.076l6.929-9.446
					l4.029,9.438c0.282,0.676,0.946,1.085,1.722,1.085h4.406c0.785,0,1.574-0.417,2.07-1.103c0.487-0.683,0.598-1.526,0.3-2.202
					l-6.49-14.353l10.132-13.135c0.52-0.677,0.664-1.52,0.384-2.212s-0.949-1.118-1.733-1.118h-3.281
					c0.245-0.05,0.493-0.074,0.739-0.074h3.864c1.293,0,2.381,0.7,2.844,1.827c0.454,1.136,0.211,2.52-0.632,3.621l-9.572,12.417
					L98.83,120.635z"/>
			</g>
		</g>
	</g>
</g>
<g>
	<g>
		<g>
			<polygon points="412.142,122.968 411.84,124.961 406.85,124.961 407.152,122.968 			"/>
		</g>
		<g>
			<path d="M422.593,115.883c0.185,0.601,0.063,1.285-0.316,1.869c-0.25,0.384-0.451,0.776-0.601,1.16l-0.119,0.292
				c-0.409,0.959-1.42,1.622-2.375,1.622c-0.166,0-0.331-0.02-0.49-0.062l-0.111-0.033c-0.067,0.384-0.134,0.825-0.213,1.344
				l-0.444,2.937c-0.35,2.312-0.59,4.015-0.713,5.049c-0.072,0.584-0.376,1.159-0.85,1.585c-0.481,0.426-1.086,0.669-1.67,0.669
				h-1.777c-1.026,0-1.787-0.711-1.866-1.67h-5.108c-0.373,0.977-1.351,1.703-2.385,1.703h-1.719c-0.584,0-1.115-0.243-1.461-0.66
				c-0.345-0.426-0.481-1.01-0.367-1.594c0.188-1.026,0.469-2.77,0.813-5.048l0.384-2.537c0.069-0.459,0.124-0.877,0.182-1.253
				c-0.099,0.014-0.194,0.02-0.289,0.02c-0.838,0-1.542-0.488-1.788-1.245l-0.06-0.209c-0.641,4.564-1.093,8.152-1.277,9.597
				l-0.089,0.701c-0.081,0.592-0.393,1.16-0.865,1.577c-0.462,0.408-1.066,0.651-1.65,0.651h-1.877c-0.584,0-1.115-0.243-1.461-0.66
				c-0.339-0.408-0.486-0.977-0.382-1.561l0.139-0.801c0.225-1.268,0.625-3.58,1.114-6.483c-0.125,0.167-0.243,0.333-0.366,0.491
				c-0.492,0.659-1.271,1.061-2.03,1.061l-0.232-0.009c-0.772-0.074-1.417-0.618-1.59-1.401c-0.108-0.442-0.236-0.868-0.403-1.252
				c-0.087-0.211-0.134-0.437-0.142-0.667c-0.022-0.582,0.196-1.199,0.624-1.694c1.437-1.64,2.688-3.381,3.778-5.259
				c0.502-0.866,0.97-1.76,1.405-2.686c-0.762,0.008-1.265,0.025-1.584,0.042c-0.659,0-1.161-0.217-1.511-0.609
				c-0.363-0.409-0.519-0.984-0.43-1.568l0.136-0.899l0.053-0.347l0.036-0.24c0.09-0.592,0.419-1.168,0.906-1.577
				c0.476-0.396,1.039-0.608,1.603-0.608l0.148,0.008c0.088,0.005,0.2,0.008,0.337,0.013c0.392,0.012,0.989,0.022,1.836,0.029
				l0.106-0.709c0.223-1.467,0.343-2.415,0.388-3.316c0.004-0.063,0.007-0.126,0.009-0.188c0.021-0.635,0.326-1.269,0.839-1.736
				c0.477-0.441,1.09-0.692,1.698-0.692l0.141,0.008c0.111,0.006,0.221,0.011,0.33,0.017c0.631,0.032,1.229,0.079,1.822,0.151
				c0.681,0.083,1.236,0.491,1.479,1.101c0.251,0.602,0.172,1.344-0.216,1.978c-0.133,0.209-0.342,1.595-0.496,2.612l-0.115,0.76
				c0.395-0.009,0.679-0.018,0.881-0.025l0.118-0.008c0.56,0,1.052,0.216,1.402,0.6c0.192-0.199,0.381-0.403,0.567-0.609
				c1.181-1.308,2.223-2.712,3.083-4.154c0.224-0.376,0.41-0.727,0.562-1.068c0.413-0.921,1.372-1.557,2.323-1.557
				c0.117,0,0.235,0.009,0.352,0.029c0.737,0.124,1.381,0.255,1.951,0.4c0.692,0.167,1.198,0.685,1.345,1.377
				c0.105,0.509,0.009,1.043-0.249,1.527h3.955c0.153-0.03,0.225-0.054,0.297-0.075c0.05-0.015,0.099-0.028,0.146-0.042
				c0.183-0.042,0.37-0.066,0.544-0.066c0.147,0,0.283,0.014,0.414,0.038c0.766,0.146,1.262,0.689,1.713,1.239
				c0.477,0.658,0.616,0.95,0.704,1.143c0.365,0.893,0,2.036-0.878,2.712l-0.197,0.142c-0.01,0.008-0.111,0.075-0.441,0.551
				c-1.146,1.678-2.438,3.213-3.902,4.665c1.536,0.935,3.276,1.677,5.207,2.211C421.965,114.849,422.417,115.29,422.593,115.883z
				 M421.126,117.135c0.141-0.209,0.178-0.459,0.111-0.677c-0.06-0.216-0.228-0.375-0.443-0.434
				c-2.627-0.726-4.931-1.827-6.852-3.254c1.937-1.711,3.568-3.563,4.993-5.642c0.445-0.625,0.68-0.851,0.91-1.001l0.093-0.059
				c0.313-0.25,0.45-0.659,0.309-0.984c-0.042-0.117-0.151-0.335-0.539-0.859c-0.512-0.644-0.805-0.852-1.181-0.852l-0.204,0.024
				l-0.168,0.059c-0.143,0.066-0.349,0.1-0.616,0.1h-6.207l0.623-1.033c0.188-0.301,0.336-0.51,0.478-0.669
				c0.199-0.216,0.282-0.491,0.229-0.742c-0.055-0.25-0.233-0.441-0.483-0.501c-0.571-0.142-1.194-0.267-1.861-0.384l-0.132-0.008
				c-0.343,0-0.686,0.226-0.836,0.559c-0.177,0.401-0.39,0.81-0.655,1.244c-1.515,2.562-3.585,4.99-5.973,7.043l0.191-1.269
				c0.031-0.209-0.021-0.418-0.155-0.568c-0.13-0.141-0.311-0.216-0.51-0.216c-0.455,0.024-1.168,0.05-2.395,0.05l0.328-2.17
				c0.327-2.161,0.443-2.763,0.709-3.196c0.143-0.226,0.175-0.492,0.084-0.717c-0.093-0.218-0.286-0.368-0.533-0.394
				c-0.663-0.083-1.332-0.133-2.103-0.166c-0.26,0-0.481,0.092-0.647,0.251c-0.184,0.166-0.293,0.392-0.303,0.625
				c-0.039,1.026-0.176,2.036-0.422,3.664l-0.318,2.103h-0.9c-1.469,0-2.314-0.034-2.771-0.05c-0.233,0-0.445,0.075-0.608,0.216
				c-0.182,0.15-0.305,0.359-0.337,0.576l-0.217,1.486c-0.031,0.208,0.02,0.417,0.156,0.566c0.12,0.143,0.309,0.217,0.509,0.217
				c0.503-0.016,1.351-0.041,2.819-0.041h0.7c-1.563,3.83-3.602,7.151-6.226,10.155c-0.222,0.25-0.289,0.584-0.179,0.852
				c0.189,0.451,0.342,0.935,0.464,1.451c0.058,0.284,0.286,0.484,0.591,0.51c0.342,0,0.622-0.142,0.8-0.376
				c1.441-1.919,2.683-3.997,3.69-6.191l0.188,0.024c-0.903,5.75-1.771,10.716-2.16,12.901l-0.137,0.793
				c-0.032,0.208,0.02,0.418,0.14,0.567c0.127,0.149,0.314,0.234,0.532,0.234h1.877c0.209,0,0.43-0.085,0.595-0.234
				c0.173-0.149,0.288-0.359,0.312-0.567l0.097-0.7c0.249-2.028,1.016-8.087,2.073-15.13l0.302-0.067
				c0.207,0.509,0.447,1.019,0.743,1.544c0.117,0.218,0.341,0.343,0.59,0.343c0.391-0.042,0.661-0.233,0.811-0.501
				c0.196-0.358,0.436-0.727,0.716-1.085c0.229-0.309,0.248-0.709,0.028-0.968c-0.872-1.018-1.6-2.22-2.174-3.555
				c0.526,0,0.95,0.008,1.292,0.016c0.215,0.01,0.396,0.018,0.539,0.018l0.279,0.025l0.153-0.018c-0.014,0.2,0.05,0.393,0.18,0.526
				c0.244,0.259,0.474,0.559,0.706,0.901l0.13,0.191c0.107,0.167,0.291,0.275,0.506,0.293c0.25,0,0.452-0.067,0.614-0.201
				l0.236-0.183c0.912-0.734,1.763-1.503,2.59-2.337c0.577,1.26,1.31,2.437,2.174,3.505c-2.485,1.644-5.275,2.987-8.307,3.996
				c-0.238,0.084-0.439,0.26-0.558,0.484c-0.107,0.217-0.121,0.468-0.027,0.676c0.171,0.359,0.29,0.734,0.356,1.068l0.026,0.101
				c0.026,0.1,0.065,0.225,0.1,0.333c0.09,0.284,0.35,0.451,0.641,0.451c0.092,0,0.186-0.008,0.273-0.042l0.371-0.134l1.062-0.4
				c-0.052,0.676-0.197,1.753-0.418,3.205l-0.384,2.537c-0.347,2.294-0.631,4.056-0.822,5.099c-0.039,0.208,0.013,0.416,0.139,0.575
				c0.12,0.149,0.315,0.234,0.524,0.234h1.719c0.434,0,0.838-0.352,0.903-0.785l0.139-0.918h7.777l-0.134,0.885
				c-0.065,0.435,0.24,0.784,0.674,0.784h1.777c0.209,0,0.43-0.084,0.604-0.242c0.165-0.15,0.279-0.358,0.303-0.566
				c0.126-1.053,0.367-2.763,0.721-5.1l0.444-2.937c0.207-1.369,0.365-2.245,0.468-2.755c0.04-0.208-0.012-0.416-0.138-0.576
				l-0.08-0.083l0.312,0.143c0.358,0.166,0.763,0.309,1.19,0.459l0.23,0.075l0.272,0.075l0.18,0.024
				c0.351,0,0.703-0.233,0.849-0.584l0.118-0.283C420.565,118.095,420.821,117.61,421.126,117.135 M403.354,113.38
				c0.077,0.316,0.066,0.659-0.019,1.001c1.285-0.551,2.515-1.177,3.686-1.861c-0.218-0.325-0.434-0.659-0.624-1.002
				c-0.425,0.385-0.854,0.744-1.302,1.103l-0.247,0.2C404.395,113.171,403.874,113.362,403.354,113.38"/>
		</g>
		<g enable-background="new    ">
			<g>
				<path fill="#FFFFFF" d="M331.377,112.786c-0.226,0-0.413-0.083-0.542-0.225c-0.127-0.149-0.18-0.351-0.156-0.567l0.211-1.394
					c0.033-0.217,0.155-0.417,0.328-0.567c0.172-0.143,0.376-0.226,0.584-0.226c1.021,0.042,2.336,0.059,3.938,0.059h6.108
					l0.041-0.267c0.185-1.219,0.283-2.095,0.323-2.854c0.009-0.226,0.128-0.459,0.312-0.626c0.172-0.15,0.395-0.242,0.604-0.242
					l0.057,0.009c0.685,0.05,1.368,0.117,2.155,0.208c0.246,0.025,0.449,0.176,0.54,0.4c0.093,0.218,0.06,0.484-0.083,0.719
					c-0.228,0.399-0.333,0.825-0.549,2.252l-0.061,0.401c1.644,0,2.617-0.033,3.128-0.051c0.235-0.008,0.415,0.075,0.543,0.218
					c0.128,0.15,0.189,0.351,0.156,0.567l-0.212,1.401c-0.031,0.209-0.147,0.418-0.319,0.568c-0.172,0.141-0.385,0.225-0.585,0.225
					c-0.532-0.017-1.487-0.042-3.146-0.059l-0.635,4.198c-0.146,0.968-0.236,1.727-0.324,2.47c-0.086,0.734-0.166,1.427-0.293,2.27
					c-0.199,1.318-0.584,1.986-1.485,2.537c-0.807,0.426-1.66,0.601-4.694,0.634c-0.175,0-0.342,0-0.467,0
					c-0.348-0.017-0.604-0.25-0.646-0.584c-0.016-0.117-0.024-0.283-0.043-0.434c-0.003-0.418-0.039-0.792-0.093-1.152
					c-0.047-0.241,0.045-0.517,0.242-0.717c0.179-0.192,0.421-0.301,0.663-0.301c0.621,0.034,1.194,0.05,1.845,0.05
					c0.935,0,1.273-0.25,1.392-1.035l1.201-7.936h-6.108C332.929,112.736,331.764,112.771,331.377,112.786z"/>
			</g>
			<g>
				<path d="M327.167,125.946l3.186-21.054h20.629l-3.186,21.054H327.167z M342.525,106.119c-0.184,0.167-0.303,0.4-0.312,0.626
					c-0.04,0.76-0.139,1.636-0.323,2.854l-0.041,0.267h-6.108c-1.602,0-2.917-0.017-3.913-0.059c-0.233,0-0.438,0.083-0.61,0.226
					c-0.173,0.15-0.295,0.351-0.328,0.567l-0.211,1.394c-0.024,0.217,0.029,0.418,0.156,0.567c0.129,0.142,0.316,0.225,0.517,0.225
					c0.412-0.016,1.577-0.05,3.955-0.05h6.108l-1.201,7.936c-0.119,0.785-0.458,1.035-1.392,1.035c-0.651,0-1.224-0.016-1.794-0.05
					c-0.292,0-0.534,0.108-0.713,0.301c-0.197,0.2-0.289,0.476-0.242,0.717c0.054,0.36,0.089,0.734,0.093,1.152
					c0.019,0.15,0.027,0.316,0.043,0.434c0.042,0.334,0.298,0.567,0.646,0.584c0.125,0,0.292,0,0.459,0
					c3.042-0.033,3.895-0.208,4.702-0.634c0.901-0.551,1.286-1.219,1.485-2.537c0.128-0.843,0.208-1.535,0.293-2.27
					c0.087-0.743,0.177-1.502,0.324-2.47l0.635-4.198c1.658,0.017,2.614,0.042,3.121,0.059c0.225,0,0.438-0.084,0.61-0.225
					c0.172-0.15,0.288-0.359,0.319-0.568l0.212-1.401c0.033-0.217-0.028-0.417-0.156-0.567c-0.128-0.143-0.308-0.226-0.516-0.226
					c-0.538,0.025-1.511,0.059-3.155,0.059l0.061-0.401c0.216-1.427,0.322-1.853,0.549-2.252c0.144-0.234,0.176-0.501,0.083-0.719
					c-0.091-0.225-0.294-0.375-0.54-0.4c-0.787-0.091-1.47-0.158-2.155-0.208l-0.057-0.009
					C342.92,105.877,342.698,105.969,342.525,106.119 M330.364,114.021l-1.595,10.54h6.033c-0.014-0.125-0.024-0.284-0.035-0.434
					c-0.013-0.409-0.039-0.734-0.092-1.044c-0.086-0.533,0.051-1.109,0.376-1.603c-0.089-0.016-0.178-0.033-0.268-0.05
					c-0.554-0.142-0.99-0.517-1.212-1.035c-0.514-1.234-1.198-2.452-1.924-3.445c-0.367-0.501-0.45-1.16-0.242-1.819
					c0.121-0.358,0.323-0.701,0.59-0.977c-0.385,0.009-0.637,0.017-0.779,0.017C330.892,114.172,330.608,114.122,330.364,114.021
					 M335.51,120.105c0.15,0,0.298-0.042,0.445-0.126l1.601-0.926c0.193-0.117,0.344-0.292,0.417-0.501
					c0.081-0.2,0.072-0.417-0.01-0.592c-0.735-1.485-1.584-2.821-2.394-3.756c-0.129-0.142-0.316-0.225-0.517-0.225
					c-0.133,0-0.272,0.033-0.399,0.1l-1.43,0.734c-0.226,0.117-0.408,0.325-0.485,0.559c-0.068,0.234-0.039,0.477,0.093,0.651
					c0.774,1.06,1.503,2.37,2.056,3.68c0.079,0.192,0.234,0.326,0.435,0.376L335.51,120.105 M346.611,124.562l1.58-10.439
					c-0.165,0.042-0.334,0.058-0.501,0.058c-0.383-0.008-0.932-0.016-1.756-0.033l-0.422,2.788c-0.144,0.95-0.231,1.693-0.316,2.419
					c-0.089,0.752-0.171,1.461-0.301,2.32c-0.144,0.951-0.417,1.986-1.271,2.888H346.611 M331.536,106.278l-0.347,2.294
					c0.266-0.1,0.548-0.15,0.824-0.15l0.166,0.01c0.873,0.024,2.172,0.041,3.774,0.041h4.707c0.077-0.617,0.129-1.127,0.148-1.585
					c0.014-0.201,0.053-0.409,0.117-0.609H331.536 M339.245,117.21l0.072,0.184l0.495-3.271h-2.403
					C338.051,115.007,338.684,116.066,339.245,117.21 M346.97,107.797c-0.035,0.066-0.084,0.225-0.168,0.667
					c0.794-0.008,1.331-0.024,1.667-0.042h0.009c0.209,0,0.396,0.025,0.566,0.067l0.334-2.211h-2.053
					C347.382,106.778,347.267,107.321,346.97,107.797 M339.018,119.371c-0.229,0.351-0.54,0.642-0.896,0.852l-0.138,0.083
					c0.291,0.008,0.582,0.017,0.89,0.017L339.018,119.371"/>
			</g>
			<g>
				<path fill="#FFFFFF" d="M337.973,118.553c-0.073,0.209-0.225,0.384-0.417,0.501l-1.601,0.926
					c-0.146,0.084-0.294,0.126-0.445,0.126l-0.188-0.025c-0.201-0.05-0.356-0.184-0.435-0.376c-0.553-1.31-1.281-2.62-2.056-3.68
					c-0.132-0.175-0.162-0.417-0.093-0.651c0.077-0.233,0.259-0.441,0.485-0.559l1.43-0.734c0.127-0.066,0.266-0.1,0.399-0.1
					c0.201,0,0.388,0.083,0.517,0.225c0.81,0.935,1.659,2.271,2.394,3.756C338.045,118.136,338.054,118.353,337.973,118.553z"/>
			</g>
			<g>
				<path d="M346.802,108.464c0.083-0.442,0.133-0.601,0.168-0.667c0.297-0.476,0.413-1.019,0.354-1.519h2.053l-0.334,2.211
					c-0.169-0.042-0.357-0.067-0.566-0.067h-0.009C348.132,108.439,347.596,108.456,346.802,108.464z"/>
			</g>
			<g>
				<path d="M355.13,110.066l-1.171,7.735c-0.603,3.98-1.406,9.347-1.812,12.358c-0.08,0.585-0.392,1.152-0.861,1.561
					c-0.474,0.426-1.076,0.659-1.652,0.659h-2.02c-1.102,0-1.888-0.817-1.879-1.869h-17.883c-0.295,1.069-1.339,1.902-2.449,1.902
					h-2.019c-0.584,0-1.117-0.233-1.454-0.65c-0.346-0.417-0.493-0.984-0.388-1.568c0.402-2.437,1.056-6.593,1.928-12.358
					l1.004-6.635c0.506-3.345,0.899-6.089,1.187-8.18c0.023-0.167,0.045-0.331,0.067-0.49c0.074-0.602,0.404-1.177,0.892-1.594
					c0.471-0.409,1.046-0.627,1.622-0.627h0.1c0.115,0.005,0.243,0.009,0.385,0.013c0.725,0.021,1.816,0.038,3.512,0.038h18.225
					c1.577,0,2.849-0.017,3.888-0.051h0.125c0.585,0,1.095,0.218,1.441,0.627c0.354,0.417,0.509,0.992,0.411,1.586
					C356.197,103.29,355.801,105.627,355.13,110.066z M350.75,130.186c0.41-3.037,1.215-8.411,1.815-12.384l1.171-7.735
					c0.669-4.423,1.068-6.784,1.202-7.561c0.033-0.217-0.019-0.426-0.146-0.576c-0.127-0.15-0.314-0.233-0.523-0.233
					c-1.083,0.042-2.396,0.059-4.014,0.059h-18.226c-2.078,0-3.266-0.033-3.971-0.059c-0.234,0-0.446,0.083-0.611,0.233
					c-0.181,0.15-0.296,0.359-0.329,0.576c-0.285,2.161-0.71,5.082-1.257,8.695l-1.004,6.635c-0.874,5.773-1.521,9.938-1.933,12.383
					c-0.033,0.217,0.021,0.417,0.139,0.567c0.127,0.15,0.315,0.233,0.533,0.233h2.019c0.434,0,0.837-0.35,0.903-0.783l0.169-1.119
					h20.628l-0.164,1.085c-0.065,0.434,0.232,0.784,0.674,0.784h2.02c0.208,0,0.421-0.083,0.594-0.233
					C350.612,130.603,350.718,130.395,350.75,130.186"/>
			</g>
			<g>
				<path d="M338.122,120.223c0.357-0.21,0.668-0.501,0.896-0.852l-0.144,0.951c-0.309,0-0.6-0.009-0.89-0.017L338.122,120.223z"/>
			</g>
			<g>
				<path d="M328.77,124.562l1.595-10.54c0.244,0.101,0.528,0.15,0.845,0.15c0.15,0,0.402-0.008,0.787-0.017
					c-0.267,0.275-0.469,0.618-0.59,0.977c-0.208,0.659-0.125,1.318,0.242,1.819c0.726,0.993,1.41,2.211,1.924,3.445
					c0.222,0.519,0.658,0.894,1.212,1.035c0.089,0.017,0.178,0.034,0.268,0.05c-0.325,0.493-0.462,1.069-0.376,1.603
					c0.053,0.31,0.08,0.635,0.092,1.044c0.011,0.149,0.021,0.309,0.035,0.434H328.77z M332.158,120.038l-0.672,4.439h2.879
					c-0.01-0.267,0.006-0.534,0.056-0.81c-0.463-0.309-0.823-0.742-1.043-1.268C333.034,121.582,332.614,120.772,332.158,120.038"/>
			</g>
			<g>
				<path d="M356.759,113.412c-0.023-0.108-0.041-0.219-0.054-0.329l0.074,0.416C356.773,113.47,356.766,113.441,356.759,113.412z"
					/>
			</g>
			<g>
				<path d="M360.655,107.463c-0.967-0.5-1.562-1.478-1.582-2.612c-0.012-0.506,0.09-1.017,0.288-1.5
					c0.037,0.671,0.392,1.25,0.965,1.55c1.015,0.519,2.071,1.253,3.132,2.188l0.209,0.158c-0.657,0.264-1.354,0.515-2.082,0.757
					C361.268,107.804,360.958,107.623,360.655,107.463z"/>
			</g>
			<g>
				<path fill="#FFFFFF" d="M361.117,103.642c-0.208-0.109-0.343-0.326-0.347-0.576c-0.004-0.251,0.11-0.51,0.322-0.692l1.162-1.01
					c0.173-0.15,0.386-0.233,0.594-0.233c0.109,0,0.214,0.024,0.307,0.074c1.184,0.56,2.535,1.395,3.709,2.287
					c0.173,0.125,0.261,0.325,0.259,0.55c-0.009,0.226-0.109,0.451-0.285,0.618l-1.263,1.235c-0.186,0.175-0.416,0.267-0.634,0.267
					c-0.175,0-0.333-0.059-0.458-0.167C363.347,105.001,362.216,104.208,361.117,103.642z"/>
			</g>
			<g>
				<path d="M367.823,102.339c-1.235-0.935-2.663-1.811-3.907-2.412c-0.139-0.064-0.287-0.112-0.439-0.142
					c0.306-0.076,0.615-0.114,0.92-0.114c0.491,0,0.969,0.1,1.397,0.307c1.307,0.626,2.805,1.544,4.1,2.521
					c0.016,0.012,0.03,0.024,0.045,0.036c-0.429,0.449-0.896,0.885-1.408,1.308C368.531,103.232,368.28,102.682,367.823,102.339z"/>
			</g>
			<g>
				<path fill="#FFFFFF" d="M359.313,113.246c-0.217-0.059-0.386-0.209-0.454-0.418c-0.161-0.476-0.318-1.034-0.469-1.702
					c-0.042-0.217,0.011-0.45,0.148-0.651c0.139-0.2,0.353-0.341,0.577-0.392c0.604-0.134,1.134-0.268,1.657-0.418
					c2.095-0.659,3.953-1.368,5.51-2.11c0.125-0.059,0.256-0.092,0.381-0.092s0.245,0.033,0.345,0.092
					c0.208,0.117,0.334,0.333,0.328,0.592c-0.005,0.251-0.002,0.51-0.005,0.752c0.016,0.225,0.026,0.426,0.032,0.559
					c-0.007,0.317-0.195,0.626-0.496,0.793c-0.118,0.066-0.308,0.159-0.479,0.25c-1.434,0.701-3.247,1.436-5.546,2.236
					c-0.37,0.134-0.663,0.25-0.851,0.376c-0.156,0.1-0.323,0.158-0.49,0.158L359.313,113.246z"/>
			</g>
			<g>
				<path d="M375.754,99.277c-0.45-0.109-0.935-0.218-1.479-0.309c0.301-0.077,0.613-0.117,0.927-0.117
					c0.226,0,0.448,0.016,0.666,0.066c0.537,0.092,1.055,0.199,1.528,0.316c1.144,0.276,1.967,1.127,2.21,2.278l0.021,0.142h5.46
					c-0.055,0.021-0.11,0.044-0.163,0.067c-0.068,0.008-0.144,0.008-0.252,0.008h-7.627c0.111-0.351,0.134-0.718,0.062-1.068
					C376.961,99.961,376.456,99.443,375.754,99.277z"/>
			</g>
			<g>
				<path d="M358.741,126.527c0.009-0.06,0.019-0.118,0.034-0.181c0.037-0.2,0.087-0.473,0.148-0.827l0.167,0.938
					C358.974,126.481,358.859,126.505,358.741,126.527z"/>
			</g>
			<g>
				<path d="M376.686,108.397c0.763,1.802,2.22,3.255,4.346,4.313l-0.092,0.275c-0.687,0.018-1.58,0.018-2.781,0.018h-8.152
					l0.005-0.2C373.107,111.868,375.295,110.417,376.686,108.397z M375.375,111.61h1.635c-0.242-0.267-0.468-0.542-0.676-0.827
					C376.031,111.076,375.713,111.352,375.375,111.61"/>
			</g>
			<g>
				<path fill="#FFFFFF" d="M387.7,111.493c0.093,0.217,0.07,0.476-0.064,0.701c-0.274,0.492-0.488,0.968-0.59,1.201
					c-0.042,0.109-0.104,0.251-0.164,0.368c-0.159,0.333-0.501,0.551-0.835,0.551l-0.131-0.018
					c-0.105-0.017-0.227-0.042-0.332-0.066c-0.82-0.15-1.631-0.359-2.537-0.659c-0.073,0.317-0.239,1.143-0.525,3.029l-0.863,5.708
					c-0.221,1.459-0.321,2.344-0.38,2.837c-0.024,0.226-0.14,0.434-0.314,0.593c-0.173,0.149-0.386,0.233-0.595,0.233
					c-0.397-0.017-1.436-0.051-3.388-0.059c-0.029,0.092-0.076,0.176-0.137,0.251c1.726,0.893,4.024,1.526,7.027,1.919
					c0.271,0.033,0.484,0.217,0.554,0.475c0.069,0.26-0.01,0.56-0.219,0.785c-0.261,0.292-0.536,0.618-0.824,0.977
					c-0.143,0.176-0.225,0.275-0.284,0.334c-0.179,0.192-0.421,0.301-0.663,0.301c-0.158,0-0.355-0.018-0.706-0.067
					c-2.555-0.384-5.613-1.452-7.79-2.737c-0.236-0.142-0.354-0.417-0.3-0.718c0.053-0.292,0.268-0.559,0.555-0.692l1.314-0.575
					c-0.038-0.075-0.06-0.159-0.063-0.243l-10.755-0.008c-2.078,0-3.211,0.042-3.58,0.059c-0.233,0-0.422-0.084-0.55-0.233
					c-0.135-0.159-0.187-0.367-0.144-0.593c0.1-0.493,0.26-1.386,0.479-2.837l0.864-5.708c0.22-1.452,0.329-2.346,0.378-2.837
					c0.033-0.218,0.14-0.426,0.322-0.585c0.173-0.149,0.387-0.233,0.595-0.233c1.079,0.041,2.353,0.059,3.922,0.059
					c-0.093-0.158-0.158-0.334-0.219-0.543c-0.056-0.124-0.149-0.334-0.272-0.567c-0.117-0.216-0.102-0.492,0.027-0.734
					c0.137-0.241,0.373-0.426,0.641-0.483c4.359-0.91,6.72-2.387,8.12-5.082h-2.803c-0.779,0.793-1.577,1.485-2.454,2.103
					l-0.261,0.175c-0.158,0.109-0.332,0.159-0.5,0.159c-0.226,0-0.437-0.092-0.559-0.275l-0.186-0.267
					c-0.141-0.176-0.312-0.367-0.503-0.535c-0.161-0.15-0.235-0.375-0.199-0.617c0.037-0.242,0.18-0.467,0.387-0.617
					c1.702-1.218,3.044-2.528,4.092-3.997c0.199-0.267,0.389-0.576,0.57-0.901c0.164-0.309,0.485-0.5,0.811-0.5l0.133,0.008
					c0.535,0.1,1.004,0.2,1.439,0.301c0.25,0.058,0.429,0.25,0.483,0.501c0.053,0.258-0.031,0.533-0.23,0.75
					c-0.149,0.159-0.286,0.351-0.451,0.609l-0.463,0.634h9.88c0.442,0,0.683-0.041,0.854-0.133c0.083-0.051,0.249-0.101,0.335-0.117
					l0.17-0.017c0.117,0,0.229,0.025,0.321,0.075c0.056,0.025,0.147,0.075,0.796,0.592c0.301,0.218,0.492,0.384,0.601,0.501
					c0.158,0.159,0.225,0.384,0.18,0.627c-0.043,0.233-0.194,0.459-0.407,0.6c-0.112,0.075-0.264,0.2-0.474,0.477
					c-0.676,0.884-1.259,1.543-1.883,2.245l-0.11,0.125c-0.12,0.124-0.26,0.274-0.366,0.375c-0.175,0.167-0.406,0.258-0.623,0.258
					c-0.092,0-0.174-0.008-0.253-0.041c-0.094-0.033-0.252-0.1-0.516-0.226c-0.226-0.107-0.443-0.217-0.665-0.3
					c-0.227-0.101-0.371-0.301-0.392-0.552c-0.029-0.249,0.078-0.517,0.283-0.709c0.478-0.459,0.924-0.926,1.241-1.31h-4.94
					c0.689,2.996,3.57,4.856,8.562,5.516C387.421,111.135,387.615,111.284,387.7,111.493z M380.94,112.986l0.092-0.275
					c-2.126-1.059-3.583-2.512-4.346-4.313c-1.391,2.02-3.579,3.471-6.675,4.406l-0.005,0.2h8.152
					C379.36,113.004,380.253,113.004,380.94,112.986 M378.233,123.543l0.217-1.435H364.13l-0.217,1.435H378.233 M378.748,120.139
					l0.213-1.402h-14.319l-0.212,1.402H378.748 M379.256,116.776l0.213-1.403H365.15l-0.212,1.403H379.256"/>
			</g>
			<g>
				<path d="M375.375,111.61c0.339-0.259,0.656-0.534,0.959-0.827c0.208,0.285,0.434,0.561,0.676,0.827H375.375z"/>
			</g>
			<g>
				<path d="M389.015,110.801c0.245,0.584,0.186,1.311-0.176,1.936c-0.237,0.41-0.416,0.818-0.507,1.027
					c-0.053,0.133-0.127,0.291-0.198,0.434c-0.421,0.888-1.342,1.504-2.28,1.504c-0.13,0-0.259-0.012-0.387-0.035
					c-0.114-0.018-0.253-0.042-0.374-0.067c-0.324-0.066-0.656-0.133-0.986-0.217c-0.06,0.342-0.121,0.751-0.192,1.219l-0.863,5.708
					c-0.216,1.427-0.323,2.303-0.371,2.787c-0.052,0.451-0.244,0.893-0.543,1.269c0.665,0.125,1.365,0.241,2.118,0.342
					c0.752,0.1,1.345,0.601,1.536,1.318c0.192,0.709-0.04,1.535-0.602,2.152c-0.24,0.268-0.486,0.568-0.743,0.894
					c-0.206,0.25-0.324,0.375-0.395,0.45c-0.479,0.519-1.151,0.827-1.828,0.827c-0.224-0.01-0.473-0.018-0.904-0.085
					c-2.701-0.399-5.935-1.534-8.224-2.896c-0.667-0.392-0.994-1.15-0.844-1.978l-3.627-0.083l-0.024,0.226
					c-0.118,0.835-0.729,1.61-1.544,1.978c-0.205,0.092-0.422,0.2-0.655,0.309c-2.499,1.186-5.504,2.07-8.482,2.512l-0.153,0.018
					c-0.247,0.032-0.425,0.05-0.56,0.058l-0.135,0.008c-0.717,0-1.34-0.358-1.658-0.95c-0.065-0.126-0.158-0.334-0.208-0.443
					c-0.108-0.274-0.23-0.517-0.357-0.734c-0.151-0.264-0.234-0.564-0.248-0.878c-0.019-0.419,0.089-0.86,0.323-1.266
					c0.073-0.127,0.157-0.247,0.25-0.359c0.421-0.51,1.022-0.862,1.658-0.951c0.658-0.086,1.297-0.188,1.909-0.303
					c0.165-0.032,0.328-0.064,0.488-0.099c-0.217-0.384-0.287-0.859-0.188-1.343c0.088-0.476,0.254-1.352,0.47-2.778l0.864-5.708
					c0.167-1.103,0.267-1.878,0.329-2.396c-0.475,0.305-0.958,0.449-1.419,0.449c-0.178,0-0.352-0.021-0.518-0.064
					c-0.596-0.143-1.049-0.568-1.254-1.145c-0.172-0.517-0.34-1.118-0.498-1.835c-0.024-0.116-0.039-0.234-0.043-0.354
					c-0.02-0.491,0.134-1.005,0.449-1.448c0.15-0.22,0.335-0.416,0.542-0.58c0.312-0.247,0.675-0.424,1.058-0.505
					c0.569-0.125,1.064-0.25,1.545-0.392c0.347-0.108,0.686-0.217,1.019-0.328c0.728-0.242,1.425-0.493,2.082-0.757l-0.209-0.158
					c-1.061-0.935-2.117-1.669-3.132-2.188c-0.573-0.3-0.928-0.879-0.965-1.55c-0.016-0.744,0.318-1.462,0.896-1.963l1.162-1.01
					c0.476-0.412,1.079-0.632,1.653-0.632c0.137,0,0.272,0.013,0.404,0.039c0.152,0.029,0.301,0.077,0.439,0.142
					c1.244,0.602,2.672,1.478,3.907,2.412c0.457,0.343,0.708,0.894,0.707,1.503c0.512-0.423,0.979-0.858,1.408-1.308
					c0.459-0.481,0.873-0.979,1.245-1.497c0.157-0.217,0.311-0.459,0.452-0.727c0.458-0.835,1.332-1.385,2.22-1.385
					c0.14,0,0.278,0.014,0.417,0.041c0.548,0.093,1.032,0.201,1.482,0.311c0.701,0.166,1.207,0.684,1.352,1.384
					c0.072,0.351,0.05,0.718-0.062,1.068h7.627c0.108,0,0.184,0,0.252-0.008c0.053-0.023,0.108-0.046,0.163-0.067
					c0.177-0.065,0.354-0.115,0.485-0.142c0.164-0.034,0.323-0.052,0.478-0.052c0.135,0,0.264,0.014,0.39,0.039
					c0.175,0.034,0.341,0.092,0.494,0.172c0.147,0.075,0.285,0.158,0.984,0.717c0.257,0.185,0.5,0.393,0.688,0.584
					c0.443,0.435,0.615,1.068,0.49,1.729c-0.116,0.658-0.524,1.26-1.119,1.66c-0.773,1.026-1.386,1.71-2.029,2.437l-0.11,0.125
					c-0.149,0.158-0.289,0.309-0.397,0.417c0.652,0.159,1.358,0.284,2.129,0.385C388.229,109.815,388.77,110.217,389.015,110.801z
					 M387.635,112.194c0.135-0.226,0.157-0.484,0.064-0.701c-0.085-0.209-0.278-0.358-0.525-0.384
					c-4.991-0.659-7.872-2.52-8.562-5.516h4.94c-0.317,0.384-0.764,0.851-1.241,1.31c-0.205,0.192-0.312,0.46-0.283,0.709
					c0.021,0.251,0.165,0.451,0.392,0.552c0.222,0.083,0.439,0.192,0.665,0.3c0.264,0.126,0.422,0.192,0.516,0.226
					c0.079,0.033,0.161,0.041,0.253,0.041c0.217,0,0.448-0.091,0.623-0.258c0.106-0.101,0.246-0.251,0.366-0.375l0.11-0.125
					c0.624-0.702,1.207-1.361,1.883-2.245c0.21-0.276,0.361-0.401,0.474-0.477c0.213-0.141,0.364-0.366,0.407-0.6
					c0.045-0.243-0.021-0.468-0.18-0.627c-0.108-0.117-0.3-0.283-0.601-0.501c-0.648-0.517-0.74-0.566-0.796-0.592
					c-0.092-0.05-0.204-0.075-0.321-0.075l-0.17,0.017c-0.086,0.017-0.252,0.066-0.335,0.117c-0.172,0.092-0.412,0.133-0.854,0.133
					h-9.88l0.463-0.634c0.165-0.259,0.302-0.45,0.451-0.609c0.199-0.217,0.283-0.492,0.23-0.75
					c-0.055-0.251-0.233-0.443-0.483-0.501c-0.436-0.101-0.904-0.201-1.439-0.301l-0.133-0.008c-0.325,0-0.646,0.191-0.811,0.5
					c-0.182,0.325-0.371,0.635-0.57,0.901c-1.048,1.469-2.39,2.779-4.092,3.997c-0.207,0.15-0.35,0.375-0.387,0.617
					c-0.036,0.242,0.038,0.467,0.199,0.617c0.191,0.168,0.362,0.359,0.503,0.535l0.186,0.267c0.122,0.184,0.333,0.275,0.559,0.275
					c0.168,0,0.342-0.05,0.5-0.159l0.261-0.175c0.877-0.617,1.675-1.31,2.454-2.103h2.803c-1.4,2.695-3.761,4.172-8.12,5.082
					c-0.268,0.058-0.504,0.242-0.641,0.483c-0.129,0.242-0.145,0.519-0.027,0.734c0.123,0.233,0.217,0.443,0.272,0.567
					c0.061,0.209,0.126,0.385,0.219,0.543c-1.569,0-2.843-0.018-3.896-0.059c-0.233,0-0.447,0.084-0.62,0.233
					c-0.183,0.159-0.289,0.367-0.322,0.585c-0.049,0.491-0.158,1.385-0.378,2.837l-0.864,5.708c-0.22,1.451-0.38,2.344-0.479,2.837
					c-0.043,0.226,0.009,0.434,0.144,0.593c0.128,0.149,0.316,0.233,0.524,0.233c0.395-0.017,1.527-0.059,3.605-0.059h10.756
					c0.003,0.092,0.024,0.176,0.062,0.251l-1.314,0.575c-0.287,0.134-0.502,0.4-0.555,0.692c-0.054,0.301,0.063,0.576,0.3,0.718
					c2.177,1.285,5.235,2.354,7.79,2.737c0.351,0.05,0.548,0.067,0.683,0.067c0.266,0,0.508-0.108,0.687-0.301
					c0.06-0.059,0.142-0.158,0.284-0.334c0.288-0.358,0.563-0.685,0.824-0.977c0.209-0.226,0.288-0.525,0.219-0.785
					c-0.069-0.258-0.283-0.441-0.554-0.475c-3.003-0.393-5.302-1.026-7.027-1.919c0.061-0.075,0.107-0.159,0.137-0.251
					c1.952,0.008,2.99,0.042,3.362,0.059c0.234,0,0.447-0.084,0.62-0.233c0.175-0.159,0.29-0.367,0.314-0.593
					c0.059-0.493,0.159-1.378,0.38-2.837l0.863-5.708c0.286-1.887,0.452-2.712,0.525-3.029c0.906,0.3,1.717,0.509,2.537,0.659
					c0.105,0.024,0.227,0.05,0.332,0.066l0.131,0.018c0.334,0,0.676-0.218,0.835-0.551c0.06-0.117,0.122-0.259,0.164-0.368
					C387.147,113.162,387.361,112.687,387.635,112.194 M366.646,128.258c0.304-0.134,0.522-0.417,0.56-0.718
					c0.047-0.309-0.087-0.584-0.351-0.717c-0.528-0.259-1.034-0.501-1.724-0.793c-0.087-0.034-0.184-0.059-0.284-0.059
					c-0.15,0-0.307,0.05-0.454,0.134c-0.496,0.3-0.959,0.492-1.332,0.643c-1.673,0.634-3.836,1.143-6.246,1.46
					c-0.281,0.042-0.551,0.225-0.697,0.476c-0.14,0.258-0.15,0.551-0.026,0.776c0.161,0.267,0.301,0.551,0.422,0.859
					c0.044,0.091,0.111,0.259,0.17,0.358c0.117,0.217,0.342,0.342,0.6,0.342c0.142,0,0.286-0.016,0.517-0.05l0.12-0.016
					c2.833-0.418,5.671-1.253,8.018-2.362C366.198,128.467,366.423,128.35,366.646,128.258 M360.842,112.736
					c2.299-0.801,4.112-1.535,5.546-2.236c0.172-0.091,0.361-0.184,0.479-0.25c0.301-0.167,0.489-0.476,0.496-0.793
					c-0.006-0.133-0.017-0.334-0.032-0.559c0.003-0.242,0-0.501,0.005-0.752c0.006-0.259-0.12-0.475-0.328-0.592
					c-0.1-0.059-0.22-0.092-0.345-0.092s-0.256,0.033-0.381,0.092c-1.557,0.742-3.415,1.451-5.51,2.11
					c-0.523,0.15-1.053,0.284-1.657,0.418c-0.225,0.051-0.438,0.191-0.577,0.392c-0.138,0.201-0.19,0.435-0.148,0.651
					c0.15,0.668,0.308,1.227,0.469,1.702c0.068,0.209,0.237,0.359,0.454,0.418l0.188,0.024c0.167,0,0.334-0.059,0.49-0.158
					C360.179,112.986,360.472,112.87,360.842,112.736 M361.117,103.642c1.1,0.566,2.23,1.359,3.366,2.353
					c0.125,0.108,0.283,0.167,0.458,0.167c0.218,0,0.448-0.092,0.634-0.267l1.263-1.235c0.176-0.167,0.276-0.393,0.285-0.618
					c0.002-0.225-0.086-0.425-0.259-0.55c-1.174-0.893-2.525-1.728-3.709-2.287c-0.093-0.05-0.197-0.074-0.307-0.074
					c-0.208,0-0.421,0.083-0.594,0.233l-1.162,1.01c-0.212,0.183-0.326,0.441-0.322,0.692
					C360.774,103.315,360.909,103.532,361.117,103.642"/>
			</g>
			<g>
				<path d="M360.091,117.919c0.03-0.2,0.059-0.384,0.085-0.559c-0.284,0-0.571-0.034-0.835-0.109
					c-0.973-0.241-1.722-0.926-2.053-1.878c-0.061-0.176-0.118-0.359-0.174-0.554c-0.117-0.397-0.227-0.835-0.335-1.32l-0.074-0.416
					c-0.072-0.603,0.02-1.231,0.267-1.827c0.004,0.12,0.019,0.238,0.043,0.354c0.158,0.717,0.326,1.318,0.498,1.835
					c0.205,0.576,0.658,1.002,1.254,1.144c0.166,0.045,0.34,0.065,0.518,0.065c0.461,0,0.944-0.145,1.347-0.416l0.072-0.033
					c-0.062,0.518-0.163,1.293-0.329,2.396l-0.864,5.708c-0.216,1.427-0.382,2.303-0.47,2.778c-0.099,0.483-0.028,0.959,0.188,1.343
					c-0.046,0.01-0.093,0.019-0.139,0.028l-0.167-0.938c0.081-0.475,0.184-1.096,0.305-1.893L360.091,117.919z"/>
			</g>
			<g>
				<path d="M391.525,113.732c-0.251-0.15-0.478-0.338-0.674-0.562c-0.593-0.659-0.851-1.603-0.704-2.57l0.083-0.547l0.142-0.938
					c0.037-0.245,0.099-0.487,0.185-0.724l-0.136,0.899c-0.089,0.584,0.066,1.159,0.43,1.568c0.35,0.393,0.852,0.609,1.501,0.609
					c0.329-0.017,0.832-0.034,1.594-0.042c-0.436,0.926-0.903,1.819-1.405,2.686C392.173,114.044,391.831,113.916,391.525,113.732z"
					/>
			</g>
			<g>
				<path d="M405.247,126.347l0.723-4.772h7.777l-0.723,4.772H405.247z M407.152,122.968l-0.302,1.993h4.99l0.302-1.993H407.152"/>
			</g>
			<g>
				<path fill="#FFFFFF" d="M421.238,116.458c0.066,0.218,0.029,0.468-0.111,0.677c-0.306,0.476-0.562,0.96-0.75,1.436l-0.118,0.283
					c-0.146,0.351-0.498,0.584-0.849,0.584l-0.18-0.024l-0.272-0.075l-0.23-0.075c-0.428-0.15-0.832-0.293-1.19-0.459l-0.312-0.143
					l0.08,0.083c0.126,0.16,0.178,0.368,0.138,0.576c-0.103,0.51-0.261,1.386-0.468,2.755l-0.444,2.937
					c-0.354,2.337-0.595,4.047-0.721,5.1c-0.023,0.208-0.138,0.416-0.303,0.566c-0.175,0.158-0.396,0.242-0.604,0.242h-1.777
					c-0.434,0-0.739-0.35-0.674-0.784l0.134-0.885h-7.777l-0.139,0.918c-0.065,0.434-0.47,0.785-0.903,0.785h-1.719
					c-0.209,0-0.404-0.085-0.524-0.234c-0.126-0.159-0.178-0.367-0.139-0.575c0.191-1.043,0.476-2.805,0.822-5.099l0.384-2.537
					c0.221-1.452,0.366-2.529,0.418-3.205l-1.062,0.4l-0.371,0.134c-0.088,0.034-0.182,0.042-0.273,0.042
					c-0.291,0-0.551-0.167-0.641-0.451c-0.034-0.108-0.073-0.233-0.1-0.333l-0.026-0.101c-0.066-0.334-0.186-0.709-0.356-1.068
					c-0.094-0.208-0.08-0.459,0.027-0.676c0.118-0.225,0.319-0.4,0.558-0.484c3.031-1.009,5.821-2.353,8.307-3.996
					c-0.864-1.068-1.597-2.245-2.174-3.505c-0.827,0.834-1.678,1.603-2.59,2.337l-0.236,0.183c-0.162,0.134-0.364,0.201-0.556,0.201
					c-0.273-0.018-0.457-0.126-0.564-0.293l-0.13-0.191c-0.232-0.343-0.462-0.643-0.706-0.901c-0.13-0.134-0.193-0.326-0.18-0.526
					l-0.153,0.018l-0.212-0.025c-0.21,0-0.392-0.008-0.606-0.018c-0.342-0.008-0.766-0.016-1.292-0.016
					c0.574,1.335,1.302,2.537,2.174,3.555c0.22,0.259,0.201,0.659-0.028,0.968c-0.28,0.358-0.52,0.727-0.716,1.085
					c-0.149,0.268-0.42,0.459-0.717,0.492c-0.343,0.009-0.566-0.116-0.684-0.334c-0.296-0.525-0.536-1.035-0.743-1.544l-0.302,0.067
					c-1.058,7.043-1.824,13.102-2.073,15.13l-0.097,0.7c-0.023,0.208-0.139,0.418-0.312,0.567c-0.165,0.149-0.386,0.234-0.595,0.234
					h-1.877c-0.218,0-0.405-0.085-0.532-0.234c-0.12-0.149-0.172-0.359-0.14-0.567l0.137-0.793c0.389-2.186,1.257-7.151,2.16-12.901
					l-0.188-0.024c-1.008,2.194-2.249,4.272-3.69,6.191c-0.178,0.234-0.458,0.376-0.733,0.376c-0.371-0.025-0.6-0.226-0.657-0.51
					c-0.122-0.517-0.274-1-0.464-1.451c-0.11-0.268-0.043-0.602,0.179-0.852c2.624-3.004,4.662-6.325,6.226-10.155h-0.7
					c-1.469,0-2.316,0.025-2.785,0.041c-0.234,0-0.423-0.074-0.543-0.217c-0.137-0.149-0.188-0.358-0.156-0.566l0.217-1.486
					c0.032-0.217,0.155-0.426,0.337-0.576c0.163-0.141,0.375-0.216,0.575-0.216c0.49,0.016,1.336,0.05,2.805,0.05h0.9l0.318-2.103
					c0.246-1.628,0.383-2.638,0.422-3.664c0.01-0.233,0.119-0.459,0.303-0.625c0.166-0.159,0.388-0.251,0.613-0.251
					c0.805,0.033,1.474,0.083,2.137,0.166c0.247,0.025,0.44,0.176,0.533,0.394c0.091,0.225,0.059,0.491-0.084,0.717
					c-0.266,0.434-0.382,1.035-0.709,3.196l-0.328,2.17c1.227,0,1.939-0.025,2.353-0.05c0.241,0,0.422,0.075,0.552,0.216
					c0.135,0.15,0.187,0.359,0.155,0.568l-0.191,1.269c2.388-2.053,4.458-4.481,5.973-7.043c0.266-0.435,0.479-0.843,0.655-1.244
					c0.15-0.333,0.493-0.559,0.836-0.559l0.132,0.008c0.667,0.117,1.29,0.242,1.861,0.384c0.25,0.06,0.429,0.251,0.483,0.501
					c0.054,0.251-0.029,0.526-0.229,0.742c-0.142,0.159-0.29,0.368-0.478,0.669l-0.623,1.033h6.207c0.268,0,0.474-0.033,0.616-0.1
					l0.168-0.059l0.204-0.024c0.376,0,0.669,0.208,1.181,0.852c0.388,0.524,0.497,0.742,0.539,0.859
					c0.142,0.325,0.005,0.734-0.309,0.984l-0.093,0.059c-0.23,0.15-0.465,0.376-0.91,1.001c-1.425,2.078-3.057,3.931-4.993,5.642
					c1.921,1.427,4.225,2.528,6.852,3.254C421.01,116.083,421.178,116.242,421.238,116.458z M416.773,118.503l0.131,0.017
					l-0.227-0.108l-0.175-0.05c-2.159-1.01-3.886-2.119-5.295-3.396c-1.712,1.227-3.633,2.336-5.706,3.296l0.025,0.275h7.744
					c1.311,0,2.205-0.008,2.808-0.025C416.42,118.511,416.623,118.503,416.773,118.503 M413.024,126.347l0.723-4.772h-7.777
					l-0.723,4.772H413.024 M409.16,106.662c0.58,1.461,1.448,2.837,2.584,4.105c1.627-1.386,2.967-2.846,3.994-4.339h-6.409
					L409.16,106.662"/>
			</g>
			<g>
				<path d="M411.397,107.813h1.569c-0.291,0.317-0.605,0.634-0.929,0.951C411.809,108.456,411.589,108.139,411.397,107.813z"/>
			</g>
			<g>
				<path d="M390.851,113.171c0.196,0.224,0.423,0.411,0.674,0.562c-0.088,0.293-0.211,0.581-0.371,0.857
					c-0.203,0.35-0.359,0.718-0.421,0.851c-0.065,0.158-0.151,0.343-0.227,0.501c-0.692,1.471-2.223,2.466-3.771,2.466
					c-0.129,0-0.259-0.007-0.388-0.021l-0.793,5.241c-0.211,1.394-0.315,2.253-0.36,2.72l-0.032,0.209
					c0.196,0.024,0.392,0.059,0.596,0.084c1.235,0.166,2.195,0.993,2.511,2.161s-0.064,2.52-0.984,3.529
					c-0.213,0.242-0.436,0.509-0.664,0.802c-0.267,0.325-0.406,0.476-0.495,0.567c-0.788,0.852-1.89,1.352-3,1.352
					c-0.29-0.009-0.581-0.017-1.096-0.092c-2.896-0.434-6.217-1.602-8.668-3.046c-0.712-0.426-1.185-1.109-1.356-1.902h-1.268
					c-0.444,0.893-1.209,1.644-2.149,2.069c-0.196,0.084-0.395,0.183-0.602,0.283c-2.669,1.261-5.832,2.195-8.948,2.654
					l-0.194,0.024c-0.264,0.033-0.46,0.059-0.611,0.067l-0.26,0.008c-1.177,0-2.19-0.584-2.711-1.552
					c-0.078-0.15-0.19-0.4-0.244-0.534c-0.105-0.242-0.193-0.434-0.301-0.608c-0.073-0.127-0.137-0.259-0.189-0.395
					c-0.317-0.802-0.288-1.743,0.072-2.621c0.014,0.313,0.097,0.614,0.248,0.878c0.127,0.218,0.249,0.46,0.357,0.734
					c0.05,0.109,0.143,0.317,0.208,0.443c0.318,0.592,0.941,0.95,1.658,0.95l0.135-0.008c0.135-0.008,0.312-0.025,0.56-0.058
					l0.153-0.018c2.979-0.441,5.983-1.326,8.482-2.512c0.233-0.108,0.45-0.217,0.655-0.309c0.815-0.367,1.426-1.143,1.544-1.978
					l0.024-0.226h3.647c-0.171,0.91,0.156,1.669,0.823,2.061c2.289,1.361,5.522,2.496,8.224,2.896
					c0.432,0.067,0.681,0.075,0.881,0.085c0.7,0,1.373-0.309,1.852-0.827c0.07-0.075,0.188-0.2,0.395-0.45
					c0.257-0.325,0.503-0.626,0.743-0.894c0.562-0.617,0.794-1.443,0.602-2.152c-0.191-0.718-0.784-1.219-1.536-1.318
					c-0.753-0.101-1.453-0.217-2.118-0.342c0.299-0.376,0.491-0.817,0.543-1.269c0.048-0.484,0.155-1.36,0.371-2.787l0.863-5.708
					c0.071-0.468,0.133-0.877,0.192-1.219c0.33,0.084,0.662,0.15,0.986,0.217c0.121,0.025,0.26,0.05,0.374,0.067
					c0.128,0.023,0.257,0.035,0.387,0.035c0.938,0,1.859-0.616,2.28-1.504c0.071-0.143,0.146-0.301,0.198-0.434
					c0.091-0.209,0.27-0.617,0.507-1.027c0.361-0.625,0.421-1.352,0.176-1.936s-0.786-0.985-1.447-1.076
					c-0.771-0.101-1.477-0.226-2.129-0.385c0.108-0.108,0.248-0.259,0.397-0.417l0.11-0.125c0.644-0.727,1.256-1.41,1.977-2.361
					c0.647-0.476,1.056-1.077,1.172-1.735c0.125-0.66-0.047-1.294-0.49-1.729c-0.188-0.191-0.431-0.399-0.688-0.584
					c-0.699-0.559-0.837-0.642-0.984-0.717c-0.153-0.08-0.319-0.138-0.494-0.172c0.074-0.02,0.132-0.031,0.168-0.037
					c0.262-0.052,0.517-0.077,0.761-0.077c0.54,0,1.033,0.123,1.476,0.353c0.24,0.116,0.452,0.259,1.168,0.826
					c0.262,0.2,0.551,0.442,0.783,0.668c0.717,0.718,1.004,1.752,0.798,2.837c-0.01,0.05-0.021,0.101-0.032,0.15
					c-0.496,0.417-0.825,0.993-0.915,1.585l-0.036,0.24c-0.176,0.199-0.372,0.385-0.585,0.553c-0.301,0.393-0.589,0.751-0.863,1.077
					c0.386,0.062,0.748,0.191,1.069,0.379l-0.083,0.547C390,111.568,390.258,112.512,390.851,113.171z"/>
			</g>
			<g>
				<path d="M411.744,110.768c-1.136-1.269-2.004-2.645-2.584-4.105l0.169-0.233h6.409
					C414.71,107.922,413.371,109.382,411.744,110.768z M412.966,107.813h-1.569c0.192,0.325,0.412,0.643,0.641,0.951
					C412.361,108.447,412.675,108.131,412.966,107.813"/>
			</g>
		</g>
		<g>
			<path d="M321.539,125.412c0.234,0.168,0.437,0.366,0.606,0.589c-0.309,1.984-0.568,3.613-0.773,4.87
				c-0.408,0.396-0.751,0.8-1.045,1.233l-0.065,0.101c-0.628,0.951-1.588,1.619-2.651,1.861c-0.264,0.062-0.535,0.091-0.804,0.091
				c-0.721,0-1.433-0.217-1.976-0.642l-0.179-0.143c-3.87-3.213-6.582-6.909-8.171-11.182c-3.253,4.623-7.579,8.612-12.469,11.374
				l-0.265,0.15c-0.575,0.325-1.255,0.517-1.931,0.517c-0.276,0-0.546-0.033-0.812-0.1c-0.885-0.217-1.613-0.81-1.973-1.627
				l-0.121-0.251c-0.157-0.342-0.371-0.692-0.619-0.984c-0.656-0.793-0.853-1.919-0.527-3.021c0.039-0.132,0.085-0.263,0.139-0.391
				c0.018,0.42,0.157,0.814,0.41,1.124c0.319,0.376,0.588,0.802,0.774,1.228l0.126,0.267c0.227,0.492,0.665,0.852,1.203,0.985
				c0.161,0.041,0.332,0.066,0.499,0.066c0.409,0,0.827-0.117,1.185-0.325l0.245-0.134c5.549-3.138,10.344-7.919,13.541-13.435
				c1.322,5.215,4.172,9.596,8.666,13.318l0.981-1.136l-0.877,1.219c0.331,0.274,0.776,0.416,1.232,0.416
				c0.167,0,0.335-0.02,0.499-0.058c0.639-0.142,1.227-0.55,1.614-1.126l0.079-0.134c0.385-0.56,0.822-1.077,1.357-1.578
				c0.498-0.475,0.787-1.117,0.798-1.743c0.013-0.643-0.261-1.202-0.743-1.544c-6.122-4.381-8.957-10.623-8.64-19.117
				c0.028-1.286,0.078-2.112,0.247-3.063c0.117-0.609-0.036-1.193-0.399-1.609c-0.347-0.41-0.814-0.627-1.531-0.635
				c-0.488,0.025-1.326,0.049-2.878,0.049h-4.272c-0.982,0-1.797-0.012-2.446-0.029c0.274-0.062,0.552-0.096,0.83-0.096h0.175
				c0.729,0.034,1.628,0.051,2.771,0.051h4.272c1.46,0,2.274-0.025,2.762-0.051h0.208c0.943,0,1.781,0.368,2.355,1.035
				c0.589,0.685,0.836,1.645,0.661,2.637c-0.165,0.869-0.202,1.611-0.24,2.854C313.072,115.357,315.749,121.273,321.539,125.412z"/>
		</g>
		<g>
			<path d="M296.709,108.84c-0.593-0.659-0.851-1.602-0.705-2.57l0.284-1.928c0.039-0.258,0.106-0.513,0.199-0.763l-0.209,1.381
				c-0.088,0.584,0.067,1.159,0.431,1.568c0.349,0.392,0.852,0.601,1.419,0.601h0.092c0.756-0.033,1.693-0.05,2.861-0.05h2.646
				c-0.227,0.92-0.496,1.823-0.802,2.703h-0.934c-1.126,0-2.031,0.018-2.753,0.051h-0.208
				C298.111,109.833,297.28,109.482,296.709,108.84z"/>
		</g>
		<g>
			<path d="M346.611,124.562h-2.987c0.854-0.901,1.127-1.937,1.271-2.888c0.13-0.859,0.212-1.568,0.301-2.32
				c0.084-0.726,0.172-1.469,0.316-2.419l0.422-2.788c0.824,0.018,1.373,0.025,1.756,0.033c0.167,0,0.336-0.016,0.501-0.058
				L346.611,124.562z"/>
		</g>
		<g>
			<path d="M339.812,114.122l-0.495,3.271l-0.072-0.184c-0.562-1.144-1.194-2.203-1.836-3.088H339.812z"/>
		</g>
		<g>
			<path d="M331.536,106.278h9.388c-0.063,0.2-0.103,0.408-0.117,0.609c-0.02,0.458-0.071,0.968-0.148,1.585h-4.707
				c-1.602,0-2.901-0.017-3.774-0.041l-0.166-0.01c-0.275,0-0.558,0.051-0.824,0.15L331.536,106.278z"/>
		</g>
		<g>
			<path fill="#FFFFFF" d="M309.015,102.238c0.242,0,0.431,0.076,0.559,0.226c0.128,0.15,0.187,0.368,0.146,0.584
				c-0.191,1.044-0.24,1.92-0.279,3.28c-0.322,8.912,2.662,15.496,9.124,20.111c0.173,0.125,0.268,0.325,0.266,0.559
				c0,0.226-0.111,0.459-0.288,0.635c-0.623,0.584-1.14,1.192-1.59,1.852l-0.098,0.15c-0.141,0.209-0.347,0.359-0.58,0.409
				l-0.187,0.025c-0.167,0-0.317-0.059-0.444-0.158l-0.111-0.093c-5.191-4.297-8.098-9.521-8.876-15.955l-0.316-0.008
				c-2.903,6.608-8.172,12.426-14.551,16.03l-0.229,0.133c-0.136,0.075-0.293,0.117-0.435,0.117l-0.18-0.024
				c-0.201-0.051-0.357-0.176-0.438-0.359l-0.126-0.268c-0.225-0.501-0.546-1.026-0.928-1.477c-0.141-0.175-0.186-0.426-0.117-0.668
				c0.079-0.241,0.253-0.459,0.488-0.575c8.09-4.105,13.784-11.791,15.605-21.07h-4.139c-1.186,0-2.139,0.016-2.92,0.05
				c-0.234,0-0.422-0.084-0.542-0.226c-0.137-0.143-0.188-0.351-0.165-0.567l0.292-1.928c0.033-0.217,0.155-0.417,0.328-0.567
				c0.171-0.142,0.383-0.218,0.583-0.218c0.805,0.034,1.753,0.051,2.938,0.051h4.272
				C307.64,102.289,308.504,102.256,309.015,102.238z"/>
		</g>
		<g>
			<path fill="#FFFFFF" d="M353.736,110.066l-1.171,7.735c-0.601,3.973-1.405,9.347-1.815,12.384
				c-0.031,0.209-0.138,0.417-0.311,0.567c-0.173,0.15-0.386,0.233-0.594,0.233h-2.02c-0.442,0-0.739-0.351-0.674-0.784l0.164-1.085
				h-20.628l-0.169,1.119c-0.066,0.434-0.469,0.783-0.903,0.783h-2.019c-0.218,0-0.405-0.083-0.533-0.233
				c-0.119-0.15-0.172-0.351-0.139-0.567c0.412-2.445,1.059-6.609,1.933-12.383l1.004-6.635c0.546-3.613,0.972-6.534,1.257-8.695
				c0.033-0.217,0.148-0.426,0.329-0.576c0.165-0.15,0.377-0.233,0.586-0.233c0.73,0.025,1.918,0.059,3.996,0.059h18.226
				c1.619,0,2.931-0.017,3.989-0.059c0.234,0,0.422,0.083,0.549,0.233c0.128,0.15,0.18,0.359,0.146,0.576
				C354.804,103.282,354.405,105.644,353.736,110.066z M347.795,125.946l3.186-21.054h-20.629l-3.186,21.054H347.795"/>
		</g>
		<g>
			<path d="M320.234,126.814c-0.012,0.626-0.301,1.269-0.798,1.743c-0.535,0.501-0.972,1.019-1.357,1.578L318,130.27
				c-0.387,0.576-0.975,0.984-1.614,1.126c-0.164,0.038-0.332,0.058-0.499,0.058c-0.456,0-0.901-0.142-1.232-0.416l0.877-1.219
				l0.111,0.093c0.127,0.1,0.276,0.158,0.443,0.158l0.188-0.025c0.233-0.05,0.439-0.2,0.58-0.409l0.098-0.15
				c0.45-0.659,0.968-1.268,1.59-1.852c0.177-0.176,0.287-0.409,0.288-0.635c0.002-0.233-0.093-0.434-0.266-0.559
				c-6.461-4.615-9.446-11.199-9.124-20.111c0.04-1.36,0.089-2.236,0.28-3.28c0.041-0.216-0.018-0.434-0.146-0.584
				c-0.127-0.149-0.316-0.226-0.525-0.226c-0.545,0.018-1.409,0.051-2.97,0.051h-4.272c-1.186,0-2.134-0.017-2.905-0.051
				c-0.234,0-0.446,0.076-0.617,0.218c-0.173,0.15-0.295,0.351-0.328,0.567l-0.292,1.927c-0.024,0.218,0.027,0.426,0.165,0.568
				c0.12,0.142,0.308,0.226,0.508,0.226c0.814-0.034,1.768-0.05,2.954-0.05h4.139c-1.821,9.279-7.516,16.965-15.605,21.07
				c-0.234,0.116-0.409,0.334-0.488,0.575c-0.069,0.242-0.024,0.493,0.116,0.668c0.382,0.45,0.704,0.976,0.928,1.477l0.126,0.267
				c0.081,0.185,0.237,0.31,0.438,0.36l0.18,0.024c0.142,0,0.298-0.042,0.435-0.117l0.229-0.133
				c6.378-3.604,11.648-9.422,14.551-16.03l0.316,0.008c0.779,6.435,3.685,11.658,8.876,15.955l-0.981,1.136
				c-4.494-3.723-7.344-8.104-8.666-13.318c-3.196,5.516-7.992,10.297-13.541,13.435l-0.245,0.134
				c-0.357,0.208-0.775,0.325-1.185,0.325c-0.167,0-0.338-0.025-0.499-0.066c-0.539-0.134-0.977-0.493-1.203-0.985l-0.126-0.267
				c-0.186-0.426-0.455-0.852-0.774-1.228c-0.252-0.31-0.392-0.704-0.41-1.124c-0.01-0.236,0.019-0.479,0.088-0.72
				c0.202-0.676,0.709-1.269,1.351-1.593c6.381-3.242,11.179-8.859,13.583-15.765c0.306-0.88,0.575-1.783,0.802-2.703h-2.646
				c-1.168,0-2.105,0.017-2.861,0.05c-0.659,0-1.162-0.209-1.511-0.601c-0.364-0.409-0.519-0.984-0.431-1.568l0.209-1.381
				l0.084-0.556c0.088-0.585,0.418-1.159,0.905-1.568c0.468-0.393,1.035-0.609,1.603-0.609l0.141,0.008
				c0.111,0.004,0.229,0.008,0.352,0.012c0.649,0.018,1.464,0.029,2.446,0.029h4.272c1.552,0,2.39-0.023,2.878-0.049
				c0.717,0.008,1.184,0.225,1.531,0.635c0.363,0.416,0.516,1,0.399,1.609c-0.169,0.951-0.219,1.777-0.247,3.063
				c-0.317,8.494,2.518,14.736,8.64,19.117C319.974,125.612,320.248,126.172,320.234,126.814z"/>
		</g>
		<g>
			<path fill="#FFFFFF" d="M366.855,126.823c0.264,0.133,0.397,0.408,0.351,0.717c-0.037,0.301-0.256,0.584-0.56,0.718
				c-0.223,0.092-0.448,0.209-0.709,0.334c-2.347,1.109-5.185,1.944-8.018,2.362l-0.12,0.016c-0.23,0.034-0.375,0.05-0.491,0.05
				c-0.283,0-0.508-0.125-0.625-0.342c-0.059-0.1-0.126-0.268-0.17-0.358c-0.121-0.309-0.261-0.593-0.422-0.859
				c-0.124-0.226-0.113-0.519,0.026-0.776c0.146-0.251,0.416-0.434,0.697-0.476c2.41-0.317,4.573-0.826,6.246-1.46
				c0.373-0.15,0.836-0.343,1.332-0.643c0.147-0.084,0.304-0.134,0.454-0.134c0.101,0,0.197,0.024,0.284,0.059
				C365.821,126.322,366.327,126.564,366.855,126.823z"/>
		</g>
		<g>
			<path d="M355.173,127.782c-0.093,0.112-0.177,0.232-0.25,0.359c-0.234,0.405-0.342,0.847-0.323,1.266
				c-0.36,0.878-0.39,1.819-0.072,2.621c-0.225,0.743-0.67,1.44-1.276,1.979c-0.781,0.692-1.766,1.076-2.717,1.076h-2.02
				c-1.351,0-2.413-0.759-2.854-1.869h-15.905c-0.772,1.135-2.082,1.902-3.451,1.902h-2.02c-0.951,0-1.819-0.384-2.383-1.067
				c-0.565-0.677-0.791-1.611-0.63-2.562c0.032-0.194,0.066-0.4,0.101-0.616c0.205-1.257,0.464-2.886,0.773-4.87
				c0.303-1.944,0.654-4.23,1.05-6.848l1.005-6.642c0.544-3.597,0.96-6.509,1.25-8.646c0.036-0.285,0.107-0.569,0.21-0.845
				c-0.287,2.091-0.68,4.835-1.187,8.18l-1.004,6.635c-0.873,5.766-1.526,9.922-1.928,12.358c-0.105,0.584,0.042,1.151,0.388,1.568
				c0.337,0.417,0.87,0.65,1.454,0.65h2.019c1.11,0,2.154-0.833,2.449-1.902h17.883c-0.009,1.052,0.777,1.869,1.879,1.869h2.02
				c0.576,0,1.178-0.233,1.652-0.659c0.47-0.408,0.781-0.976,0.861-1.561c0.406-3.012,1.21-8.378,1.812-12.358l1.171-7.735
				c0.671-4.439,1.066-6.776,1.199-7.543c0.098-0.594-0.057-1.169-0.411-1.586c-0.347-0.409-0.856-0.627-1.441-0.627h-0.125
				c-1.039,0.034-2.311,0.051-3.888,0.051h-18.225c-1.696,0-2.788-0.018-3.512-0.038c0.276-0.062,0.557-0.096,0.837-0.096l0.2,0.009
				c0.697,0.025,1.836,0.05,3.805,0.05h18.226c1.527,0,2.773-0.017,3.788-0.05l0.227-0.009c0.942,0,1.78,0.368,2.355,1.035
				c0.581,0.676,0.829,1.627,0.665,2.604c-0.109,0.632-0.395,2.316-0.866,5.361c-0.207,0.164-0.392,0.36-0.542,0.58
				c-0.315,0.443-0.469,0.957-0.449,1.448c-0.293,0.705-0.37,1.456-0.213,2.156c0.115,0.521,0.231,0.986,0.355,1.407l-0.651,4.301
				C356.064,121.762,355.576,125.015,355.173,127.782z"/>
		</g>
		<g>
			<path d="M395.582,104.96l-0.106,0.709c-0.847-0.007-1.444-0.018-1.836-0.029c0.276-0.063,0.556-0.096,0.836-0.096l0.183,0.008
				c0.183,0.008,0.432,0.017,0.748,0.017c0.169-1.118,0.254-1.895,0.283-2.645c0.018-0.436,0.114-0.868,0.28-1.28
				C395.924,102.545,395.804,103.493,395.582,104.96z"/>
		</g>
		<g>
			<path d="M402.287,100.303c-0.242-0.609-0.798-1.018-1.479-1.101c-0.594-0.072-1.191-0.119-1.822-0.151
				c0.282-0.065,0.567-0.1,0.852-0.1l0.249,0.008c0.746,0.033,1.471,0.093,2.21,0.176c1.114,0.133,2.021,0.81,2.422,1.803
				c0.385,0.935,0.288,2.069-0.264,3.07c-0.076,0.283-0.188,0.96-0.278,1.561c0.085,0.012,0.169,0.025,0.252,0.041
				c-0.187,0.206-0.375,0.41-0.567,0.609c-0.351-0.384-0.843-0.6-1.402-0.6l-0.118,0.008c-0.202,0.008-0.486,0.017-0.881,0.025
				l0.115-0.76c0.154-1.018,0.363-2.403,0.496-2.612C402.458,101.646,402.538,100.904,402.287,100.303z"/>
		</g>
		<g>
			<path d="M403.335,114.381c0.085-0.342,0.096-0.685,0.019-1.001c0.52-0.018,1.041-0.209,1.494-0.56l0.247-0.2
				c0.447-0.358,0.877-0.718,1.302-1.103c0.19,0.343,0.406,0.677,0.624,1.002C405.85,113.204,404.621,113.83,403.335,114.381z"/>
		</g>
		<g>
			<path d="M411.511,117.151h-1.227c0.222-0.142,0.444-0.292,0.666-0.435C411.13,116.859,411.316,117.01,411.511,117.151z"/>
		</g>
		<g>
			<path d="M414.044,100.637c-0.146-0.692-0.652-1.21-1.345-1.377c-0.57-0.146-1.214-0.276-1.894-0.391
				c0.301-0.076,0.608-0.117,0.916-0.117c0.194,0,0.387,0.017,0.58,0.049c0.732,0.125,1.421,0.259,2.04,0.417
				c1.134,0.275,1.958,1.118,2.193,2.263c0.045,0.199,0.065,0.399,0.066,0.608h1.445c-0.072,0.021-0.144,0.045-0.212,0.075h-0.085
				h-3.955C414.053,101.68,414.15,101.146,414.044,100.637z"/>
		</g>
		<g>
			<path d="M416.502,118.361l0.175,0.05l0.227,0.108l-0.131-0.017c-0.15,0-0.353,0.008-0.694,0.008
				c-0.603,0.018-1.497,0.025-2.808,0.025h-7.744l-0.025-0.275c2.073-0.96,3.994-2.069,5.706-3.296
				C412.617,116.242,414.343,117.352,416.502,118.361z M410.285,117.151h1.227c-0.195-0.142-0.381-0.292-0.561-0.435
				C410.729,116.859,410.506,117.01,410.285,117.151"/>
		</g>
		<g>
			<path d="M425.059,116.626c0.304,0.976,0.118,2.094-0.513,3.062c-0.187,0.291-0.348,0.584-0.457,0.867l-0.131,0.309
				c-0.551,1.327-1.768,2.312-3.095,2.587l-0.436,2.879c-0.348,2.295-0.586,3.98-0.706,4.999c-0.111,0.959-0.622,1.902-1.395,2.595
				c-0.782,0.701-1.775,1.094-2.735,1.094h-1.778c-1.268,0-2.284-0.668-2.768-1.67h-3.287c-0.788,1.019-2.02,1.703-3.305,1.703
				h-1.71c-0.96,0-1.835-0.393-2.397-1.085c-0.24-0.292-0.415-0.626-0.527-0.984c-0.222,0.366-0.508,0.709-0.836,1.001
				c-0.77,0.676-1.756,1.068-2.715,1.068h-1.878c-0.951,0-1.826-0.393-2.39-1.076c-0.559-0.668-0.793-1.603-0.633-2.554l0.148-0.81
				c0.14-0.818,0.358-2.044,0.617-3.588c-0.24,0.05-0.479,0.075-0.729,0.075l-0.382-0.018c-1.267-0.116-2.315-1.018-2.607-2.286
				c-0.084-0.384-0.196-0.742-0.332-1.06c-0.345-0.82-0.312-1.782,0.053-2.67c0.008,0.23,0.055,0.456,0.142,0.667
				c0.167,0.384,0.295,0.81,0.403,1.252c0.173,0.783,0.817,1.327,1.59,1.401l0.232,0.009c0.76,0,1.538-0.401,2.03-1.061
				c0.123-0.158,0.241-0.324,0.366-0.491c-0.489,2.903-0.89,5.216-1.114,6.483l-0.139,0.801c-0.104,0.584,0.043,1.152,0.382,1.561
				c0.346,0.417,0.877,0.66,1.461,0.66h1.877c0.584,0,1.188-0.243,1.65-0.651c0.473-0.417,0.784-0.985,0.865-1.577l0.089-0.701
				c0.185-1.444,0.637-5.032,1.277-9.597l0.06,0.209c0.246,0.757,0.95,1.245,1.788,1.245c0.095,0,0.19-0.006,0.289-0.02
				c-0.058,0.376-0.112,0.794-0.182,1.253l-0.384,2.537c-0.345,2.278-0.626,4.021-0.813,5.048c-0.114,0.584,0.022,1.168,0.367,1.594
				c0.346,0.417,0.877,0.66,1.461,0.66h1.719c1.034,0,2.012-0.727,2.385-1.703h5.108c0.079,0.959,0.84,1.67,1.866,1.67h1.777
				c0.584,0,1.188-0.243,1.67-0.669c0.474-0.426,0.777-1.001,0.85-1.585c0.123-1.034,0.363-2.736,0.713-5.049l0.444-2.937
				c0.079-0.519,0.146-0.96,0.213-1.344l0.111,0.033c0.159,0.042,0.324,0.062,0.49,0.062c0.955,0,1.966-0.663,2.375-1.622
				l0.119-0.292c0.149-0.384,0.351-0.776,0.601-1.16c0.38-0.584,0.501-1.269,0.316-1.869c-0.177-0.593-0.628-1.034-1.236-1.202
				c-1.931-0.534-3.671-1.276-5.207-2.211c1.464-1.452,2.756-2.987,3.902-4.665c0.33-0.476,0.432-0.543,0.441-0.551l0.197-0.142
				c0.878-0.676,1.243-1.819,0.878-2.712c-0.088-0.192-0.228-0.484-0.704-1.143c-0.451-0.55-0.947-1.094-1.713-1.239
				c0.327-0.08,0.633-0.113,0.916-0.113c1.678,0,2.578,1.109,3.055,1.711l0.069,0.091c0.415,0.568,0.649,0.952,0.802,1.318
				c0.613,1.469,0.013,3.339-1.432,4.449l-0.123,0.091c-0.042,0.059-0.095,0.134-0.158,0.226c-0.847,1.235-1.768,2.411-2.779,3.529
				c1.078,0.535,2.264,0.977,3.529,1.327C424.031,114.932,424.765,115.648,425.059,116.626z"/>
		</g>
		<g>
			<polygon points="364.938,116.776 365.15,115.373 379.469,115.373 379.256,116.776 			"/>
		</g>
		<g>
			<polygon points="364.429,120.139 364.641,118.736 378.96,118.736 378.748,120.139 			"/>
		</g>
		<g>
			<polygon points="363.914,123.543 364.13,122.108 378.45,122.108 378.233,123.543 			"/>
		</g>
	</g>
</g>
<g>
	<g>
		<g>
			<path d="M79.014,190.2c1.177,0,2.653,0.341,2.813,3.028h-6.75C75.709,191.635,76.869,190.2,79.014,190.2z M79.923,192.903
				c-0.242,0-0.667,0-1.123,0.25h2.103C80.583,192.903,80.198,192.903,79.923,192.903"/>
		</g>
		<g enable-background="new    ">
			<g>
				<path d="M67.17,175.213c1.202,0,2.029,0.983,1.847,2.186l-0.427,2.82c-0.182,1.202-1.305,2.179-2.507,2.179h-7.152
					l-3.748,24.768c-0.182,1.201-1.313,2.178-2.516,2.178h-3.914c-1.202,0-2.03-0.977-1.848-2.178l3.748-24.768h-7.068
					c-1.202,0-2.03-0.977-1.848-2.179l0.345-2.278l0.082-0.542c0.182-1.202,1.307-2.186,2.508-2.186h0.581H67.17z M67.198,180.219
					l0.427-2.82c0.067-0.442-0.23-0.793-0.665-0.793H44.462c-0.442,0-0.846,0.351-0.913,0.793l-0.427,2.82
					c-0.065,0.434,0.23,0.793,0.672,0.793h8.462L48.3,207.165c-0.065,0.434,0.231,0.784,0.666,0.784h3.914
					c0.442,0,0.846-0.351,0.912-0.784l3.957-26.153h8.545C66.727,181.012,67.132,180.652,67.198,180.219"/>
			</g>
			<g>
				<path fill="#FFFFFF" d="M66.96,176.606c0.434,0,0.732,0.351,0.665,0.792l-0.427,2.82c-0.065,0.435-0.47,0.794-0.904,0.794
					h-8.545l-3.958,26.152c-0.065,0.434-0.469,0.784-0.911,0.784h-3.914c-0.434,0-0.731-0.351-0.666-0.784l3.958-26.152h-8.462
					c-0.442,0-0.738-0.359-0.672-0.794l0.427-2.82c0.067-0.441,0.47-0.792,0.913-0.792H66.96z"/>
			</g>
			<g>
				<path d="M68.493,175.138c1.969,0,3.329,1.602,3.031,3.571l-0.428,2.828c-0.298,1.97-2.143,3.572-4.112,3.572h-5.758
					l-3.536,23.366c-0.298,1.969-2.143,3.571-4.112,3.571h-3.914c-1.969,0-3.329-1.603-3.031-3.571l3.536-23.366h-5.683
					c-1.969,0-3.329-1.603-3.031-3.572l0.428-2.828c0.04-0.264,0.107-0.521,0.199-0.768l-0.345,2.277
					c-0.182,1.202,0.647,2.179,1.849,2.179h7.068l-3.748,24.768c-0.182,1.201,0.646,2.178,1.848,2.178h3.914
					c1.202,0,2.334-0.977,2.516-2.178l3.748-24.768h7.151c1.202,0,2.326-0.977,2.508-2.179l0.427-2.82
					c0.182-1.201-0.645-2.186-1.847-2.186H45.253c0.244-0.05,0.491-0.075,0.742-0.075H68.493z"/>
			</g>
			<g>
				<path d="M79.225,188.806c2.044,0,4.387,1.011,3.969,5.816h-9.93C74.073,190.925,76.246,188.806,79.225,188.806z M75.076,193.229
					h6.75c-0.16-2.688-1.636-3.028-2.813-3.028C76.869,190.2,75.709,191.635,75.076,193.229"/>
			</g>
			<g>
				<path fill="#FFFFFF" d="M79.681,185.293c6.101,0,9.223,4.456,8.137,11.633l-0.039,0.258c-0.065,0.435-0.478,0.793-0.913,0.793
					H72.672c-0.63,4.44,1.02,6.985,4.517,6.985c2.154,0,3.84-1.169,4.993-3.489c0.165-0.316,0.497-0.525,0.831-0.525l0.211,0.034
					l2.912,0.885c0.208,0.058,0.361,0.208,0.431,0.408c0.07,0.2,0.042,0.434-0.072,0.643c-2.064,3.714-5.387,5.6-9.885,5.6
					c-6.575,0-9.854-4.307-8.765-11.508C68.922,189.891,73.573,185.293,79.681,185.293z M73.263,194.622h9.93
					c0.418-4.806-1.924-5.816-3.969-5.816C76.246,188.806,74.073,190.925,73.263,194.622"/>
			</g>
			<g>
				<path d="M90.987,200.195c-0.32,0.46-0.73,0.859-1.195,1.17c0.256,0.291,0.448,0.626,0.575,1.001
					c0.094,0.28,0.146,0.574,0.159,0.873l-0.208,1.372c-0.077,0.221-0.173,0.439-0.29,0.649c-1.86,3.355-5.577,7.353-12.728,7.353
					c-8.07,0-12.429-5.607-11.114-14.294c0.097-0.644,0.221-1.27,0.369-1.88c-0.034,0.188-0.066,0.378-0.095,0.569
					c-1.204,7.953,2.604,12.901,9.939,12.901c5.049,0,8.959-2.245,11.302-6.477c0.321-0.575,0.393-1.217,0.209-1.769
					c-0.184-0.551-0.621-0.968-1.179-1.143l-2.913-0.877c-0.185-0.058-0.379-0.086-0.576-0.086c-0.899,0-1.862,0.578-2.302,1.455
					c-0.209,0.416-0.425,0.767-0.645,1.06h-3.655c0.338,1.098,1.088,1.346,1.65,1.401c-0.312,0.073-0.612,0.093-0.891,0.093
					c-2.804,0-3.494-2.054-3.453-4.206h12.709c1.202,0,2.327-0.978,2.508-2.179l0.039-0.258c1.197-7.911-2.46-13.026-9.312-13.026
					c-0.065,0-0.13,0.001-0.195,0.002c0.498-0.051,1.003-0.077,1.517-0.077c6.373,0,10.296,3.873,10.711,10.168L90.987,200.195z"/>
			</g>
			<g>
				<path d="M89.165,197.184c-0.182,1.201-1.306,2.179-2.508,2.179H73.947c-0.042,2.152,0.649,4.206,3.453,4.206
					c0.279,0,0.58-0.02,0.891-0.093c0.647-0.148,1.345-0.521,2.005-1.401c0.22-0.293,0.436-0.644,0.645-1.06
					c0.44-0.877,1.403-1.455,2.302-1.455c0.197,0,0.391,0.028,0.576,0.086l2.913,0.877c0.558,0.175,0.996,0.592,1.179,1.143
					c0.183,0.552,0.111,1.193-0.209,1.769c-2.343,4.231-6.253,6.477-11.302,6.477c-7.335,0-11.143-4.948-9.939-12.901
					c0.029-0.191,0.062-0.381,0.095-0.569c1.344-7.454,6.55-12.441,13.143-12.538c0.064-0.001,0.129-0.002,0.195-0.002
					c6.852,0,10.508,5.115,9.312,13.026L89.165,197.184z M77.189,204.962c-3.497,0-5.147-2.545-4.517-6.985h14.193
					c0.435,0,0.848-0.358,0.913-0.793l0.039-0.258c1.086-7.177-2.036-11.633-8.137-11.633c-6.108,0-10.759,4.598-11.836,11.716
					c-1.089,7.201,2.189,11.508,8.765,11.508c4.498,0,7.821-1.886,9.885-5.6c0.114-0.209,0.142-0.442,0.072-0.643
					c-0.07-0.2-0.223-0.351-0.431-0.408l-2.912-0.885l-0.211-0.034c-0.333,0-0.666,0.209-0.831,0.525
					C81.029,203.793,79.343,204.962,77.189,204.962"/>
			</g>
			<g>
				<path d="M101.939,174.578c1.97,0,3.331,1.595,3.033,3.562l-4.59,30.335c-0.298,1.969-2.143,3.571-4.112,3.571h-3.504
					c-1.97,0-3.33-1.603-3.031-3.571l0.584-3.863l0.208-1.372l0.46-3.045l0.939-6.203l2.398-15.852
					c0.038-0.249,0.101-0.493,0.186-0.729l-4.502,29.753c-0.182,1.201,0.647,2.178,1.848,2.178h3.514
					c1.201,0,2.325-0.977,2.507-2.178l4.59-30.333c0.182-1.203-0.646-2.179-1.848-2.179h-2.927c0.244-0.049,0.492-0.075,0.743-0.075
					H101.939z"/>
			</g>
		</g>
		<g>
			<path d="M100.619,174.652c1.201,0,2.029,0.977,1.847,2.179l-4.59,30.334c-0.182,1.201-1.305,2.178-2.506,2.178h-3.514
				c-1.201,0-2.031-0.977-1.849-2.178l4.502-29.753l0.088-0.581c0.182-1.202,1.307-2.179,2.508-2.179h0.586H100.619z
				 M96.483,207.165l4.59-30.334c0.066-0.435-0.23-0.793-0.664-0.793h-3.513c-0.434,0-0.839,0.358-0.905,0.793l-4.59,30.334
				c-0.066,0.434,0.232,0.784,0.666,0.784h3.514C96.014,207.949,96.417,207.599,96.483,207.165"/>
		</g>
		<g>
			<path fill="#FFFFFF" d="M100.409,176.039c0.434,0,0.73,0.358,0.664,0.793l-4.59,30.333c-0.065,0.434-0.469,0.784-0.902,0.784
				h-3.514c-0.434,0-0.731-0.351-0.666-0.784l4.59-30.333c0.065-0.435,0.47-0.793,0.904-0.793H100.409z"/>
		</g>
	</g>
</g>
<text transform="matrix(1 0 0 1 52.9717 77.9082)" fill="#FFFFFF" font-family="'KozGoPr6N-Regular-83pv-RKSJ-H'" font-size="13">https://www.city.machida.tokyo.jp/kurashi/bouhan/bousai/syouboudan/syouboudanninnbosyu.html</text>
<text transform="matrix(1 0 0 1 45.0278 157.9082)" fill="#FFFFFF" font-family="'KozGoPr6N-Regular-83pv-RKSJ-H'" font-size="21">050-3085-6519</text>
<text transform="matrix(1 0 0 1 71.0278 231.9082)" fill="#FFFFFF" font-family="'KozGoPr6N-Regular-83pv-RKSJ-H'" font-size="21">042-724-2107</text>
<text transform="matrix(1 0 0 1 348.8921 157.9082)"><tspan x="0" y="0" fill="#FFFFFF" font-family="'KozGoPr6N-Regular-83pv-RKSJ-H'" font-size="14">・町田市に居住するもの</tspan><tspan x="0" y="24.5" fill="#FFFFFF" font-family="'KozGoPr6N-Regular-83pv-RKSJ-H'" font-size="14">・年</tspan><tspan x="28" y="24.5" fill="#FFFFFF" font-family="'KozGoPr6N-Regular-83pv-RKSJ-H'" font-size="14" letter-spacing="3">令</tspan><tspan x="45.5" y="24.5" fill="#FFFFFF" font-family="'KozGoPr6N-Regular-83pv-RKSJ-H'" font-size="14">1</tspan><tspan x="53.214" y="24.5" fill="#FFFFFF" font-family="'KozGoPr6N-Regular-83pv-RKSJ-H'" font-size="14" letter-spacing="3">8</tspan><tspan x="64.428" y="24.5" fill="#FFFFFF" font-family="'KozGoPr6N-Regular-83pv-RKSJ-H'" font-size="14">才以上のもの</tspan><tspan x="0" y="49" fill="#FFFFFF" font-family="'KozGoPr6N-Regular-83pv-RKSJ-H'" font-size="14">・志操堅固で身体強健なもの</tspan></text>
</svg>
