<?xml version="1.0" encoding="utf-8"?>
<!-- Generator: Adobe Illustrator 16.0.4, SVG Export Plug-In . SVG Version: 6.00 Build 0)  -->
<!DOCTYPE svg PUBLIC "-//W3C//DTD SVG 1.1//EN" "http://www.w3.org/Graphics/SVG/1.1/DTD/svg11.dtd">
<svg version="1.1" id="レイヤー_1" xmlns="http://www.w3.org/2000/svg" xmlns:xlink="http://www.w3.org/1999/xlink" x="0px"
	 y="0px" width="111.25px" height="63px" viewBox="0 0 111.25 63" enable-background="new 0 0 111.25 63" xml:space="preserve">
<path fill="none" d="M36.009,24.571c-1.425-0.179-2.332-0.129-2.909,0c-0.967,0.219-1.006,0.669-1.006,0.669
	c0.668,1.146,0.764,10.312,0.764,10.312c0,0.858,0.86,0.764,0.86,0.764l10.12-0.19c0-1.433-1.146-10.98-1.146-10.98L36.009,24.571z"
	/>
<path fill="none" d="M20.829,23.999c-1.912-0.478-6.303,0.286-6.303,0.286c0,0.764-2.482,9.739-2.482,9.739
	c-0.572,0.572-0.192,7.445-0.192,7.445c-0.572,1.624,1.816,1.91,1.816,1.91c2.577,0,3.055-1.623,3.055-1.623l2.959-3.627
	c0.574-1.528,2.482-2.005,2.482-2.005l6.109-0.19c0-1.146-0.856-11.458-0.856-11.458L20.829,23.999z"/>
<path fill="none" d="M24.148,56.285c-1.767,0-3.902,1.614-3.902,5.737c0,2.741,1.386,5.342,3.835,5.072
	c1.755-0.192,3.409-2.22,3.555-5.016C27.856,57.795,25.914,56.285,24.148,56.285z"/>
<path fill="#F1B230" d="M109.472,45.262c-0.146-1.364-0.021-2.763-0.251-4.124c-0.238-1.398-0.72-1.467-1.864-2.12
	c0,0-2.682-0.559-2.682,0.223l-0.11-21.326l-0.781-1.676l1.674,0.111l0.178-0.53c0.387,0.005,0.779,0.01,1.166,0.015
	c0.168,0.001,0.508-0.062,0.661,0.007c0.336,0.152,0.308,0.636,0.63,0.242c0.239-0.293,0.306-0.739,0.14-1.103
	c-0.286-0.626-0.835,0.264-1.118,0.202c-0.074-0.016-0.014-2.028-0.014-2.171c-0.006-1.019-0.007-2.038-0.016-3.056
	c0-0.097,0-0.193-0.002-0.288c0.227-0.013,0.385-0.06,0.542,0.101c0.179,0.185,0.081,0.41,0.44,0.416
	c0.355,0.006,0.453-0.272,0.455-0.574c0.004-0.497-0.713-1.257-1.178-0.718l-1.867-0.288l-0.17-0.201l-0.693,0.029
	c0,0-14.531-1.58-14.535-1.58c-1.732-0.184-3.468-0.369-5.201-0.553c-2.062-0.22-4.144-0.396-6.193-0.664
	c-0.025-0.129-0.063-0.263-0.07-0.396c-0.377-0.06-0.732-0.214-1.117-0.246c-0.187-0.018-0.332-0.003-0.508,0.05
	c-0.25,0.074-0.345,0.108-0.649,0.081c-1.341-0.115-2.682-0.23-4.024-0.347c-1.172-0.102-2.346-0.202-3.52-0.304
	c-0.496-0.042-0.989-0.085-1.484-0.128c-0.579-0.05-1.201-0.053-1.764-0.168c-0.187-0.037-0.379-0.062-0.561-0.096
	c-0.15-0.028-0.271-0.031-0.4-0.139c-0.174-0.146-0.245-0.22-0.473-0.301c-0.72-0.251-1.468-0.609-2.208-0.781
	c-0.358-0.083-0.759-0.059-1.078,0.151c-0.327,0.218-0.262,0.639-0.546,0.831c-0.299,0.202-1.037,0.123-1.399,0.123
	c-0.277,0-0.548,0.034-0.823,0.047c-0.131,0.006-0.266,0.006-0.392,0.019c-0.147,0.014-0.251,0.013-0.312,0.135
	c-0.1,0.201-0.004,0.706-0.006,0.927c-0.002,0.499-0.007,0.997-0.009,1.497c-0.003,0.67-0.007,1.34-0.011,2.012L69.26,9.366
	l-0.38,0.955l-3.626-0.478l-0.957,0.286l-2.431-0.175c-1.115-0.08-2.229-0.161-3.344-0.242c-0.449-0.033-0.897-0.065-1.346-0.097
	c-0.539-0.04-0.96,0.094-0.96-0.6c0-0.272,0.044-0.813-0.301-0.868c-0.054-0.322,0.133-0.286,0.258-0.475
	c0.196-0.297,0.344-0.627,0.428-0.972c0.192-0.792,0.19-1.803-0.337-2.478c-0.767-0.981-2.217-0.623-3.273-0.633
	c-0.323-0.005-0.649-0.017-0.973-0.046c-0.784-0.071-1.449-0.526-2.097,0.177c-0.742,0.806-0.827,1.957-0.393,2.929
	c0.122,0.276,0.336,0.496,0.583,0.665c0.288,0.195,0.704,0.161,1.043,0.111c0.329-0.047,0.713-0.069,0.639,0.417
	c-0.415,0.15-0.923,0.013-1.353,0.121c-0.271,0.067-0.21,0.163-0.234,0.421c-0.041,0.423-0.301,0.392-0.644,0.371
	c-0.356-0.023-0.71-0.045-1.067-0.065c-0.219-0.014-0.439-0.026-0.659-0.04c0.209-0.01,0.41-0.052,0.567-0.172
	c0.388-0.299,0.395-0.903,0.473-1.339c0.046-0.273,0.062-0.559,0.024-0.836c-0.028-0.211-0.052-0.598-0.183-0.777
	c-0.157-0.212-0.521-0.192-0.755-0.205c-0.227-0.012-0.559,0.034-0.771-0.019c-0.306-0.078-0.219-0.358-0.234-0.612
	c-0.015-0.32-0.083-0.646-0.116-0.971c-0.035-0.348-0.147-0.705-0.303-1.022c-0.068-0.137-0.167-0.247-0.282-0.346
	c-1.035-0.898-0.963-0.648-2.229-0.497C43.167,1.96,37.698,2.2,37.32,2.275c-0.388,0.074-0.513,0.46-0.903,0.5
	c-0.508,0.053-1.032,0.087-1.543,0.136c-0.665,0.062-1.275,0.142-1.94,0.096c-0.705-0.05-1.439-0.133-2.148-0.133
	c-0.929,0-5.528,0.084-6.226,0.787c-0.414,0.414-0.532,1.022-0.544,1.586c-0.004,0.203,0.044,0.402,0.05,0.605
	c0.005,0.212-0.05,0.194-0.12,0.348c-0.096,0.202-0.081,0.502,0.015,0.705c0.074,0.161,0.1,0.16,0.102,0.349
	c0.005,0.465-0.055,0.928-0.12,1.391c0,0-7.706,0.335-10.161,5.695c0,0-5.771,8.16-7.73,14.574
	c-0.083,0.013-0.149,0.021-0.175,0.022c-0.312,0.014-0.622,0.041-0.936,0.024c-0.264-0.014-0.57,0.045-0.827-0.016
	c-0.249-0.059-0.315-0.148-0.354-0.377c-0.169-1.015,0.51-0.874,0.51-0.874c0.815,0,0.564-1.017,0.564-1.017
	c0.141-0.649-0.367-4.516-0.367-4.516c-0.14-1.271-1.497-0.622-1.497-0.622c-0.537-0.169-0.479,1.807-0.479,1.807
	c0.039,0.655,0.077,1.311,0.114,1.966c0.03,0.49,0.057,0.979,0.085,1.469c0.026,0.424,0.011,0.688,0.224,1.042
	c0.068,0.111,0.084,0.038,0.131,0.189c0.033,0.114-0.019,0.311-0.015,0.434c0.007,0.204,0.029,0.413,0.096,0.607
	c0.323,0.977,1.425,0.8,2.247,0.76c0.151-0.007,0.292-0.012,0.428-0.007c-0.247,0.979-0.393,1.902-0.393,2.734L5.182,44.043
	c0,0-0.111,1.451,0.671,1.451c0,0-1.116,0.781-1.116,1.786c0,0-0.115,4.132,1.228,4.132l9.046,1.116c0,0,1.451,6.254,6.587,6.254
	c0,0,3.461,0.781,6.364-3.237c0,0,11.382,0.668,11.39,0.669c0.079,0.005,1.421,2.502,1.62,2.724
	c0.587,0.656,1.375,1.333,2.245,1.571c1.506,0.415,3.88,0.57,5.465,0.186c2.195-0.533,3.738-2.246,4.63-4.256l2.567,0.445
	l-0.113-2.792h1.119l0.78,0.448l23.562-2.123c0,0,1.002,0,1.004,0c-0.459,0,0.753,2.907,0.882,3.122
	c1.157,1.923,2.548,2.475,4.688,2.248c1.568-0.166,3.129-0.651,4.245-1.819c0.497-0.519,0.67-0.953,1.314-1.188
	c0.417-0.152,1.037-0.089,1.489-0.128c0,0,0.223-3.016,0.223-4.021c0-0.146,7.766-0.87,8.33-0.934
	c1.088-0.121,2.182-0.145,3.264-0.275c0.317-0.039,2.472-0.285,2.584-0.639C109.596,47.697,109.594,46.384,109.472,45.262z
	 M105.732,9.997l0.471,0.053v4.725l-0.524,0.104L105.732,9.997z M62.377,8.108l-4.356-0.105l0.052-1.731h4.304V8.108z M64.424,8.056
	l1.314-0.944l1.128,1.128L64.424,8.056z M34.069,6.238c0.277-0.027,1.436-0.078,1.722-0.064c-0.017,0.244,0.22,0.434,0.458,0.521
	c0.12-0.007,0.238-0.018,0.362-0.018c-0.124,0-0.242,0.011-0.362,0.018c0.091,0.031,0.181,0.051,0.26,0.05
	c-0.08,0.001-0.169-0.019-0.26-0.05c-0.273,0.017-0.543,0.04-0.823,0.05c-0.319,0.012-1.761,0.21-1.761-0.156
	C33.665,6.214,33.84,6.261,34.069,6.238z M5.798,44.114c-0.286-0.533,0.225-4.945,0.163-4.959c0.007,0,2.752,0.662,2.769,0.667
	c1.75,0.423,2.093,3.877,2.484,5.347C9.868,45.049,6.49,45.4,5.798,44.114z M34.507,46.696L22.096,46.22l0.954-3.343
	c0,0,0-2.004,3.247-2.004l8.21,0.096V46.696z M32.694,28.175c0,0-23.42-1.126-25.301-0.095c0,0,6.68-14.252,8.592-14.8l1.242-0.477
	c2.676-0.289,4.88-0.526,7.565-0.719c2.911-0.21,5.552-0.385,8.474,0.05c0.862,0.129,1.706,0.109,2.503,0.36
	c2.307,0.726-0.022,5.48-0.472,6.979C34.431,22.374,33.563,25.274,32.694,28.175z M52.106,52.793
	c-0.146,2.796-1.8,4.823-3.555,5.016c-2.449,0.27-3.835-2.331-3.835-5.072c0-4.123,2.135-5.737,3.902-5.737
	C50.384,46.999,52.326,48.509,52.106,52.793z M46.633,26.839c0,0-1.909,0.477-2.482,2.005l-2.959,3.627c0,0-0.478,1.623-3.055,1.623
	c0,0-2.388-0.286-1.816-1.91c0,0-0.38-6.873,0.192-7.445c0,0,2.482-8.976,2.482-9.739c0,0,4.391-0.764,6.303-0.286l6.587,0.478
	c0,0,0.856,10.312,0.856,11.458L46.633,26.839z M58.188,27.029c0,0-0.86,0.095-0.86-0.764c0,0-0.096-9.166-0.764-10.312
	c0,0,0.039-0.45,1.006-0.669c-0.7,0-1.198,0-1.198,0s0.498,0,1.198,0c0.578-0.129,1.484-0.179,2.909,0l6.684,0.573
	c0,0,1.146,9.548,1.146,10.98L58.188,27.029z M74.713,8.896h-1.261l0.054-1.207h1.312L74.713,8.896z M76.603,9.158h-0.315
	l0.054-1.05h0.419L76.603,9.158z M78.912,8.161h0.471l-0.051,1.102l-0.474,0.052L78.912,8.161z M80.435,11.31l-1.522,0.053v-0.631
	h1.574L80.435,11.31z M80.486,9.263L79.96,9.367l0.054-0.839l0.473,0.053V9.263z M90.615,9.631l-0.287,0.76l-0.499-0.497
	l-0.106-0.316L90.615,9.631z M88.412,9.683h0.315l0.05,0.367l-0.365,0.105V9.683z M88.465,11.521l0.578,0.052v0.682h-0.684
	L88.465,11.521z M86.103,9.001l0.943-0.105v1.05L86.103,9.42V9.001z M84.79,11.939h-0.419l0.05-0.735l0.528,0.105L84.79,11.939z
	 M85.525,11.362h2.047v0.788l-2.047-0.211V11.362z M89.387,55.377c-1.324,0-2.664-2.548-2.664-5.069s1.449-4.5,2.771-4.5
	s2.681,2.086,2.681,4.607S90.708,55.377,89.387,55.377z M92.873,12.412l-3.359-0.105L89.46,11.73l3.413,0.104V12.412z
	 M94.133,12.728v-0.525l2.363,0.262l0.05,0.474L94.133,12.728z M98.908,13.146h-0.996l-0.105-0.683l1.102-0.052V13.146z
	 M102.268,14.563l-1.521-0.051v-2.154l1.521,0.054V14.563z M102.425,11.466l-1.626-0.208l1.626-1.051V11.466z"/>
<g>
	<g>
		<path fill="none" stroke="#231815" stroke-width="5" d="M59.456,48.037c-0.13-0.001-0.244-0.091-0.274-0.218
			c-0.182-0.767-0.557-1.786-0.954-2.598c-0.044-0.09-0.038-0.195,0.017-0.279c0.052-0.081,0.142-0.129,0.238-0.129
			c0.003,0,0.006,0,0.01,0c0.868,0.03,1.69,0.056,2.358,0.056c2.52,0,2.52-0.041,2.52-0.72V25.694c0-0.078,0.032-0.152,0.088-0.206
			c0.053-0.05,0.123-0.078,0.195-0.078c0.005,0,3.362,0.172,3.362,0.172c0.134,0.007,0.245,0.107,0.266,0.24
			s-0.055,0.262-0.181,0.309c-0.091,0.034-0.203,0.066-0.348,0.092v17.961c0,3.136-1.249,3.856-6.682,3.856
			C60.07,48.041,59.456,48.037,59.456,48.037z M39.249,48c-0.157,0-0.284-0.127-0.284-0.283V26.399c0-0.157,0.127-0.284,0.284-0.284
			h12.499c0.157,0,0.284,0.127,0.284,0.284v18.109c0,3.176-1.723,3.479-6.281,3.49h0c-0.133,0-0.249-0.093-0.277-0.223
			c-0.147-0.672-0.476-1.573-0.839-2.297c-0.045-0.089-0.039-0.195,0.015-0.279c0.052-0.082,0.142-0.131,0.239-0.131
			c0.003,0,0.006,0,0.009,0c0.513,0.016,1.011,0.016,1.448,0.016c2.376,0,2.376-0.012,2.376-0.612v-4.14h-6.516v7.384
			c0,0.156-0.127,0.283-0.284,0.283H39.249z M48.72,37.742v-3.131h-6.516v3.131H48.72z M48.72,32.019v-2.987h-6.516v2.987H48.72z
			 M55.698,41.377c-0.157,0-0.284-0.127-0.284-0.283V26.775c0-0.078,0.032-0.152,0.088-0.206c0.053-0.05,0.123-0.078,0.195-0.078
			c0.005,0,3.266,0.171,3.266,0.171c0.135,0.007,0.247,0.109,0.266,0.243c0.019,0.134-0.059,0.263-0.187,0.308
			c-0.09,0.031-0.205,0.062-0.353,0.09v13.791c0,0.156-0.127,0.283-0.284,0.283H55.698z M36.909,23.165
			c-0.157,0-0.284-0.127-0.284-0.284v-2.528c0-0.157,0.127-0.284,0.284-0.284h8.716l0,0c-0.745-1.229-2.082-2.867-3.407-4.172
			c-0.066-0.066-0.097-0.161-0.08-0.253c0.017-0.092,0.078-0.17,0.164-0.208l2.541-1.123c0.037-0.016,0.076-0.024,0.115-0.024
			c0.07,0,0.139,0.026,0.192,0.076c1.298,1.2,3.041,3.075,4.006,4.561c0.045,0.069,0.058,0.155,0.034,0.235
			c-0.024,0.08-0.081,0.145-0.157,0.179l-1.436,0.638l0.02,0.093h10.914l0.019-0.091l-1.26-0.543
			c-0.083-0.036-0.145-0.11-0.165-0.199s0.005-0.182,0.065-0.25c1.019-1.138,2.556-3.048,3.538-4.686
			c0.052-0.088,0.146-0.138,0.243-0.138c0.034,0,0.069,0.006,0.102,0.019l3.34,1.289c0.12,0.046,0.193,0.168,0.18,0.296
			c-0.015,0.128-0.113,0.23-0.24,0.249c-0.112,0.017-0.229,0.023-0.336,0.023c-0.914,1.207-2.36,2.827-3.6,4.032h8.607
			c0.156,0,0.283,0.127,0.283,0.284v2.528c0,0.157-0.127,0.284-0.283,0.284H36.909z"/>
		<path fill="none" stroke="#231815" stroke-width="5" d="M103.197,42.586c-0.071,0-0.14-0.026-0.192-0.075
			c-4.991-4.621-10.691-11.34-12.526-13.696l-0.727-0.904c-2.14-2.666-3.115-3.883-4.385-3.883c-1.233,0-2.308,1.192-4.428,3.672
			l-5.327,6.083c0,0.361-0.072,0.647-0.222,0.875c-0.049,0.075-0.131,0.123-0.221,0.128c-0.006,0-0.011,0-0.017,0
			c-0.084,0-0.164-0.038-0.218-0.103l-2.646-3.181c-0.096-0.114-0.086-0.283,0.021-0.386c2.1-2.007,6.07-6.234,7.296-7.557
			c2.391-2.53,3.862-3.384,5.831-3.384c2.245,0,3.771,1.066,6.804,4.752c2.555,3.121,8.446,9.649,13.55,14.391
			c0.111,0.104,0.121,0.278,0.021,0.394l-2.401,2.775c-0.051,0.058-0.122,0.094-0.199,0.098
			C103.208,42.586,103.202,42.586,103.197,42.586z"/>
	</g>
	<g>
		<path fill="none" stroke="#231815" stroke-width="2" d="M58.039,46.62c-0.13-0.001-0.244-0.091-0.274-0.218
			c-0.182-0.767-0.557-1.786-0.954-2.598c-0.044-0.09-0.038-0.195,0.017-0.279c0.052-0.081,0.142-0.129,0.238-0.129
			c0.003,0,0.006,0,0.01,0c0.868,0.03,1.69,0.056,2.358,0.056c2.52,0,2.52-0.041,2.52-0.72V24.277c0-0.078,0.032-0.152,0.088-0.206
			c0.053-0.05,0.123-0.078,0.195-0.078c0.005,0,3.363,0.172,3.363,0.172c0.134,0.007,0.245,0.107,0.266,0.24
			s-0.055,0.262-0.181,0.309c-0.091,0.034-0.203,0.066-0.348,0.092v17.961c0,3.136-1.249,3.856-6.683,3.856
			C58.653,46.624,58.039,46.62,58.039,46.62z M37.831,46.583c-0.157,0-0.284-0.127-0.284-0.283V24.982
			c0-0.157,0.127-0.284,0.284-0.284H50.33c0.157,0,0.284,0.127,0.284,0.284v18.11c0,3.176-1.723,3.479-6.281,3.49h0
			c-0.133,0-0.249-0.093-0.277-0.223c-0.147-0.672-0.476-1.573-0.839-2.297c-0.045-0.089-0.039-0.195,0.015-0.279
			c0.052-0.082,0.142-0.131,0.239-0.131c0.003,0,0.006,0,0.009,0c0.513,0.016,1.011,0.016,1.448,0.016
			c2.376,0,2.376-0.012,2.376-0.612v-4.14h-6.516V46.3c0,0.156-0.127,0.283-0.284,0.283H37.831z M47.302,36.325v-3.132h-6.516v3.132
			H47.302z M47.302,30.602v-2.987h-6.516v2.987H47.302z M54.281,39.96c-0.157,0-0.284-0.127-0.284-0.283V25.357
			c0-0.078,0.032-0.152,0.088-0.206c0.053-0.05,0.123-0.078,0.195-0.078c0.005,0,3.266,0.171,3.266,0.171
			c0.135,0.007,0.247,0.109,0.266,0.243c0.019,0.134-0.059,0.263-0.187,0.308c-0.09,0.031-0.205,0.062-0.353,0.09v13.791
			c0,0.156-0.127,0.283-0.284,0.283H54.281z M35.491,21.747c-0.157,0-0.284-0.127-0.284-0.284v-2.528
			c0-0.157,0.127-0.284,0.284-0.284h8.716l0,0c-0.745-1.229-2.082-2.867-3.407-4.172c-0.066-0.066-0.097-0.161-0.08-0.253
			c0.017-0.092,0.078-0.17,0.164-0.208l2.541-1.123c0.037-0.016,0.076-0.024,0.115-0.024c0.07,0,0.139,0.026,0.192,0.076
			c1.298,1.2,3.041,3.075,4.006,4.561c0.045,0.069,0.058,0.155,0.034,0.235c-0.024,0.08-0.081,0.145-0.157,0.179l-1.436,0.638
			l0.02,0.093h10.914l0.019-0.091l-1.26-0.543c-0.083-0.036-0.145-0.11-0.165-0.199s0.005-0.182,0.065-0.25
			c1.019-1.138,2.556-3.048,3.538-4.686c0.052-0.088,0.146-0.138,0.243-0.138c0.034,0,0.069,0.006,0.102,0.019l3.34,1.289
			c0.12,0.046,0.194,0.168,0.18,0.296s-0.113,0.23-0.24,0.249c-0.112,0.017-0.229,0.023-0.336,0.023
			c-0.914,1.207-2.36,2.827-3.6,4.032h8.608c0.156,0,0.283,0.127,0.283,0.284v2.528c0,0.157-0.127,0.284-0.283,0.284H35.491z"/>
		<path fill="none" stroke="#231815" stroke-width="2" d="M101.78,41.169c-0.071,0-0.14-0.026-0.192-0.075
			c-4.991-4.621-10.691-11.34-12.526-13.696l-0.727-0.904c-2.14-2.666-3.115-3.883-4.385-3.883c-1.233,0-2.308,1.192-4.428,3.672
			l-5.327,6.083c0,0.361-0.072,0.647-0.222,0.875c-0.049,0.075-0.131,0.123-0.221,0.128c-0.006,0-0.011,0-0.017,0
			c-0.084,0-0.164-0.038-0.218-0.103l-2.646-3.181c-0.096-0.114-0.086-0.283,0.021-0.386c2.1-2.007,6.07-6.234,7.296-7.557
			c2.391-2.53,3.862-3.384,5.831-3.384c2.245,0,3.771,1.066,6.804,4.752c2.555,3.121,8.446,9.649,13.55,14.392
			c0.111,0.104,0.121,0.278,0.021,0.394l-2.401,2.775c-0.051,0.058-0.122,0.094-0.199,0.098
			C101.791,41.169,101.785,41.169,101.78,41.169z"/>
	</g>
	<g>
		<path fill="#FFFFFF" d="M58.039,46.62c-0.13-0.001-0.244-0.091-0.274-0.218c-0.182-0.767-0.557-1.786-0.954-2.598
			c-0.044-0.09-0.038-0.195,0.017-0.279c0.052-0.081,0.142-0.129,0.238-0.129c0.003,0,0.006,0,0.01,0
			c0.868,0.03,1.69,0.056,2.358,0.056c2.52,0,2.52-0.041,2.52-0.72V24.277c0-0.078,0.032-0.152,0.088-0.206
			c0.053-0.05,0.123-0.078,0.195-0.078c0.005,0,3.363,0.172,3.363,0.172c0.134,0.007,0.245,0.107,0.266,0.24
			s-0.055,0.262-0.181,0.309c-0.091,0.034-0.203,0.066-0.348,0.092v17.961c0,3.136-1.249,3.856-6.683,3.856
			C58.653,46.624,58.039,46.62,58.039,46.62z M37.831,46.583c-0.157,0-0.284-0.127-0.284-0.283V24.982
			c0-0.157,0.127-0.284,0.284-0.284H50.33c0.157,0,0.284,0.127,0.284,0.284v18.11c0,3.176-1.723,3.479-6.281,3.49h0
			c-0.133,0-0.249-0.093-0.277-0.223c-0.147-0.672-0.476-1.573-0.839-2.297c-0.045-0.089-0.039-0.195,0.015-0.279
			c0.052-0.082,0.142-0.131,0.239-0.131c0.003,0,0.006,0,0.009,0c0.513,0.016,1.011,0.016,1.448,0.016
			c2.376,0,2.376-0.012,2.376-0.612v-4.14h-6.516V46.3c0,0.156-0.127,0.283-0.284,0.283H37.831z M47.302,36.325v-3.132h-6.516v3.132
			H47.302z M47.302,30.602v-2.987h-6.516v2.987H47.302z M54.281,39.96c-0.157,0-0.284-0.127-0.284-0.283V25.357
			c0-0.078,0.032-0.152,0.088-0.206c0.053-0.05,0.123-0.078,0.195-0.078c0.005,0,3.266,0.171,3.266,0.171
			c0.135,0.007,0.247,0.109,0.266,0.243c0.019,0.134-0.059,0.263-0.187,0.308c-0.09,0.031-0.205,0.062-0.353,0.09v13.791
			c0,0.156-0.127,0.283-0.284,0.283H54.281z M35.491,21.747c-0.157,0-0.284-0.127-0.284-0.284v-2.528
			c0-0.157,0.127-0.284,0.284-0.284h8.716l0,0c-0.745-1.229-2.082-2.867-3.407-4.172c-0.066-0.066-0.097-0.161-0.08-0.253
			c0.017-0.092,0.078-0.17,0.164-0.208l2.541-1.123c0.037-0.016,0.076-0.024,0.115-0.024c0.07,0,0.139,0.026,0.192,0.076
			c1.298,1.2,3.041,3.075,4.006,4.561c0.045,0.069,0.058,0.155,0.034,0.235c-0.024,0.08-0.081,0.145-0.157,0.179l-1.436,0.638
			l0.02,0.093h10.914l0.019-0.091l-1.26-0.543c-0.083-0.036-0.145-0.11-0.165-0.199s0.005-0.182,0.065-0.25
			c1.019-1.138,2.556-3.048,3.538-4.686c0.052-0.088,0.146-0.138,0.243-0.138c0.034,0,0.069,0.006,0.102,0.019l3.34,1.289
			c0.12,0.046,0.194,0.168,0.18,0.296s-0.113,0.23-0.24,0.249c-0.112,0.017-0.229,0.023-0.336,0.023
			c-0.914,1.207-2.36,2.827-3.6,4.032h8.608c0.156,0,0.283,0.127,0.283,0.284v2.528c0,0.157-0.127,0.284-0.283,0.284H35.491z"/>
		<path fill="#FFFFFF" d="M101.78,41.169c-0.071,0-0.14-0.026-0.192-0.075c-4.991-4.621-10.691-11.34-12.526-13.696l-0.727-0.904
			c-2.14-2.666-3.115-3.883-4.385-3.883c-1.233,0-2.308,1.192-4.428,3.672l-5.327,6.083c0,0.361-0.072,0.647-0.222,0.875
			c-0.049,0.075-0.131,0.123-0.221,0.128c-0.006,0-0.011,0-0.017,0c-0.084,0-0.164-0.038-0.218-0.103l-2.646-3.181
			c-0.096-0.114-0.086-0.283,0.021-0.386c2.1-2.007,6.07-6.234,7.296-7.557c2.391-2.53,3.862-3.384,5.831-3.384
			c2.245,0,3.771,1.066,6.804,4.752c2.555,3.121,8.446,9.649,13.55,14.392c0.111,0.104,0.121,0.278,0.021,0.394l-2.401,2.775
			c-0.051,0.058-0.122,0.094-0.199,0.098C101.791,41.169,101.785,41.169,101.78,41.169z"/>
	</g>
</g>
</svg>
