<?xml version="1.0" encoding="utf-8"?>
<!-- Generator: Adobe Illustrator 16.0.4, SVG Export Plug-In . SVG Version: 6.00 Build 0)  -->
<!DOCTYPE svg PUBLIC "-//W3C//DTD SVG 1.1//EN" "http://www.w3.org/Graphics/SVG/1.1/DTD/svg11.dtd">
<svg version="1.1" id="レイヤー_1" xmlns="http://www.w3.org/2000/svg" xmlns:xlink="http://www.w3.org/1999/xlink" x="0px"
	 y="0px" width="750px" height="99px" viewBox="0 0 750 99" enable-background="new 0 0 750 99" xml:space="preserve">
<path fill="#242658" d="M737.322,27.569c4.208-0.302,6.003-1.479-0.08-0.713c-1.701,0.128-3.416,0.257-5.141,0.387
	c-1.708,0.123-3.535,0.3-5.011,0.31c-3.104,0.109-6.235,0.219-9.37,0.329l-2.345,0.097l-2.528,0.052
	c-1.693,0.036-3.387,0.071-5.073,0.107c-3.375,0.088-6.729,0.176-10.039,0.263c-6.709,0.088-13.229,0.245-19.384,0.477
	c-6.199,0.155-12.021,0.404-17.271,0.772c-6.06-1.38-13.429-1.884-20.159-2.325c-6.729-0.439-12.889-0.98-16.566-2.556
	c1.9-0.152,4.835-0.005,4.904-0.705c-47.59-2.013-97.546-4.611-148.203-7.07c-50.66-2.456-102.032-4.718-152.617-6.357
	C227.272,7.364,129.27,6.779,46.291,12.108c9.871,4.551-13.86,7.068-13.08,13.009c20.029,3.628-1.643,8.229,4.296,12.486
	c-1.74-1.271,5.083-2.868,5.024-1.179c-1.959,7.438-22.378,10.083-13.334,17.317c-5.034-1.093-11.87,0.493-5.031,1.175
	c0.697,4.09-12.547,9.07-15.791,15.725C35.07,73.8,62.127,82.342,84.739,84.749c3.969,0.42,11.161-0.188,14.913,0.03
	c65.903,3.753,145.63,5.271,223.387,5.052c77.756-0.209,153.536-2.166,211.526-4.964c-2.505-0.053-3.101-1.322,0.028-1.436
	c28.354-1.625,58.119-1.51,82.193-6.129c0.387,0.852-0.439,2.045,2.484,2.17c0.311-1.593,10.562-0.267,14.944-0.683
	c0.179-3.058,12.758-3.774,28.058-4.188c15.302-0.431,33.35-0.59,44.354-2.213c-0.387-0.972-4.198-0.873-8.512-0.906
	c-4.31-0.053-9.144-0.146-11.607-1.272c2.826-0.344,7.703-0.16,11.615-0.226c3.916-0.08,6.876-0.486,5.812-1.793
	c-3.351,0.187-6.943,0.429-10.601,0.676c-3.657,0.254-7.379,0.52-10.969,0.667c-7.179,0.274-13.811-0.043-18.338-1.767
	c3.213,0.008,10.288-0.232,18.001-0.707c3.854-0.275,7.868-0.562,11.636-0.83c1.882-0.149,3.702-0.295,5.409-0.431
	c1.709-0.155,3.308-0.333,4.739-0.485c-3.776-0.852-12.186-0.396-20.135-0.008c-7.946,0.377-15.404,0.414-17.215-1.176
	c4.681,1.062,14.785-0.709,17.329-2.488c-10.994,0.299-29.324-0.188-22.364-3.193c-10.695,0.074-16.998-0.065-22.114-0.329
	c-5.117-0.269-9.054-0.79-15.02-1.673c7.354-1.492,23.463,1.482,32.154-0.811c-25.271,0.047-55.052-3.931-66.769-3.736
	c6.816-1.309,16.479-1.887,27.01-2.45c5.268-0.237,10.755-0.484,16.223-0.731c5.46-0.281,10.895-0.588,16.061-0.964
	c-5.31-0.618-10.235-0.507-16.615-0.29c-6.385,0.177-14.222,0.479-25.333,0.285c3.433-2.881-5.346-2.329-4.912-4.366
	c6.812,0.559,5.634,0.183,9.862,2.227c0.28-0.878,0.752-1.703,4.94-1.426c1.809-3.145-4.904,0.564-4.926-1.454
	c6.859-1.562,15.094-1.603,23.341-1.713c8.234-0.153,16.509-0.282,23.407-1.971c-3.562-0.339-12.69,0.916-12.282-0.64
	c10.939-0.872,25.509-0.975,31.808-3.263c-5.329-0.149-12.234,0.192-18.637,0.377c-6.407,0.174-12.342,0.101-15.648-0.699
	c5.04,0.127,9.764,0.185,14.219,0.127c4.446-0.08,8.642-0.229,12.653-0.428c8.049-0.354,15.272-1.106,22.38-1.826
	C706.992,31.096,720.213,29.559,737.322,27.569z M589.63,56.939c8.288-1.816,15.151-0.525,27.245-1.953
	c-0.916,1.222,1.923,1.361,4.944,1.453C607.843,57.827,606.438,56.135,589.63,56.939z M587.257,47.557
	c-3.023-2.359,8.002-0.473,4.972-2.832c3.735-1.504,0.71,2.981,9.869,0.818C601.306,49.077,593.828,46.414,587.257,47.557z"/>
<text transform="matrix(1 0 0 1 72.2119 68.4541)" fill="#FFFFFF" font-family="'YuGo-Bold-83pv-RKSJ-H'" font-size="48">3</text>
<text transform="matrix(1 0 0 1 99.7158 68.4541)" fill="#FFFFFF" font-family="'YuGo-Bold-83pv-RKSJ-H'" font-size="48" letter-spacing="12">.</text>
<text transform="matrix(1 0 0 1 125.1079 64.3965)" fill="#FFFFFF" font-family="'YuGo-Bold-83pv-RKSJ-H'" font-size="48">お問い合わせ</text>
</svg>
