<?xml version="1.0" encoding="utf-8"?>
<!-- Generator: Adobe Illustrator 16.0.4, SVG Export Plug-In . SVG Version: 6.00 Build 0)  -->
<!DOCTYPE svg PUBLIC "-//W3C//DTD SVG 1.1//EN" "http://www.w3.org/Graphics/SVG/1.1/DTD/svg11.dtd">
<svg version="1.1" id="レイヤー_1" xmlns="http://www.w3.org/2000/svg" xmlns:xlink="http://www.w3.org/1999/xlink" x="0px"
	 y="0px" width="182.75px" height="55.5px" viewBox="0 0 182.75 55.5" enable-background="new 0 0 182.75 55.5"
	 xml:space="preserve">
<path fill="none" d="M34.643,118.122l-0.954,3.343l12.411,0.477v-5.728l-8.21-0.096C34.643,116.118,34.643,118.122,34.643,118.122z"
	/>
<g>
	<g>
		<g>
			<path fill="#F1B230" d="M4.434,27.807c0,12.439,10.084,22.523,22.524,22.523h128.329c12.439,0,22.523-10.084,22.523-22.523
				c0-12.44-10.084-22.524-22.523-22.524H26.958C14.518,5.282,4.434,15.367,4.434,27.807C4.434,27.807,4.434,15.367,4.434,27.807z"
				/>
		</g>
		<g>
			<path fill="none" stroke="#231815" stroke-width="6" d="M63.635,45.192c-0.157,0-0.284-0.127-0.284-0.283v-3.424
				c-4.031,0.504-7.991,1.008-10.655,1.367l0,0c-0.015,0.123-0.072,0.235-0.165,0.325c-0.053,0.052-0.124,0.079-0.197,0.079
				c-0.023,0-0.047-0.003-0.071-0.009c-0.095-0.024-0.171-0.097-0.2-0.19l-0.846-2.743c-0.025-0.083-0.012-0.173,0.037-0.244
				c0.048-0.071,0.127-0.116,0.213-0.123l0.47-0.034c0.784-0.056,1.607-0.114,2.486-0.191V28.131h-2.92
				c-0.157,0-0.284-0.127-0.284-0.284v-2.204c0-0.157,0.127-0.284,0.284-0.284h32.296c0.157,0,0.284,0.127,0.284,0.284v2.204
				c0,0.157-0.127,0.284-0.284,0.284H66.627v16.778c0,0.156-0.127,0.283-0.284,0.283H63.635z M57.556,39.433l1.797-0.173
				c1.302-0.126,2.65-0.255,3.998-0.403v-1.799h-5.795V39.433z M63.352,34.61v-2.052h-5.795v2.052H63.352z M63.352,30.111v-1.98
				h-5.795v1.98H63.352z M69.024,45.155c-0.1,0-0.196-0.053-0.247-0.145c-0.32-0.57-0.893-1.461-1.453-2.096
				c-0.062-0.07-0.086-0.168-0.062-0.259c0.024-0.092,0.092-0.165,0.181-0.196c1.921-0.673,3.778-1.703,5.52-3.062l0,0
				c-1.542-1.68-2.808-3.65-3.761-5.856c-0.033-0.075-0.031-0.161,0.004-0.234c0.036-0.074,0.101-0.129,0.18-0.151l1.394-0.388
				l-0.009-0.066h-2.96c-0.157,0-0.284-0.127-0.284-0.284v-2.096c0-0.157,0.127-0.284,0.284-0.284h12.099l0.46-0.093
				c0.018-0.003,0.036-0.005,0.053-0.005c0.035,0,0.07,0.007,0.103,0.02l1.732,0.675c0.087,0.034,0.151,0.108,0.172,0.199
				c0.021,0.09-0.003,0.187-0.065,0.256c-0.01,0.011-0.085,0.096-0.115,0.136c-0.916,3.053-2.517,5.855-4.715,8.243l0,0
				c1.894,1.308,4.053,2.294,6.417,2.932c0.097,0.025,0.173,0.102,0.2,0.198c0.026,0.097,0,0.2-0.07,0.272
				c-0.55,0.566-1.17,1.4-1.581,2.123c-0.051,0.091-0.146,0.144-0.247,0.144c-0.027,0-0.055-0.004-0.083-0.012
				c-2.548-0.774-4.871-1.964-6.905-3.534h0c-1.75,1.421-3.815,2.612-6.136,3.542C69.095,45.149,69.06,45.155,69.024,45.155z
				 M71.918,32.702c0.721,1.649,1.799,3.235,3.204,4.716h0c1.376-1.492,2.412-3.034,3.167-4.716H71.918z M56.22,23.56
				c-0.157,0-0.284-0.127-0.284-0.284V13.189c0-0.157,0.127-0.284,0.284-0.284h22.866c0.157,0,0.284,0.127,0.284,0.284v10.087
				c0,0.157-0.127,0.284-0.284,0.284H56.22z M75.95,21.256v-1.943H59.212v1.943H75.95z M75.95,17.116v-1.907H59.212v1.907H75.95z"/>
			<path fill="none" stroke="#231815" stroke-width="6" d="M92.651,45.228c-0.156,0-0.283-0.127-0.283-0.283V32.379
				c-1.384,1.491-2.717,2.748-3.959,3.734c-0.051,0.04-0.113,0.062-0.176,0.062c-0.021,0-0.043-0.002-0.065-0.008
				c-0.084-0.02-0.155-0.077-0.192-0.156c-0.365-0.782-0.994-1.893-1.489-2.506c-0.049-0.061-0.071-0.139-0.061-0.216
				c0.01-0.077,0.052-0.147,0.115-0.192c3.733-2.691,7.603-7.368,9.859-11.913h-8.823c-0.157,0-0.284-0.127-0.284-0.284v-2.527
				c0-0.157,0.127-0.284,0.284-0.284h4.792v-6.287c0-0.078,0.032-0.153,0.089-0.207c0.053-0.049,0.122-0.077,0.194-0.077
				c0.006,0,3.34,0.201,3.34,0.201c0.134,0.008,0.243,0.108,0.264,0.239c0.021,0.132-0.054,0.26-0.178,0.308
				c-0.092,0.036-0.209,0.07-0.361,0.098v5.724h2.52l0.418-0.143c0.027-0.008,0.056-0.013,0.084-0.013
				c0.051,0,0.102,0.014,0.146,0.041l1.884,1.136c0.085,0.051,0.137,0.143,0.137,0.242s-0.051,0.191-0.136,0.243
				c-0.077,0.047-0.167,0.085-0.266,0.113v0.001c-1.035,2.62-2.578,5.42-4.463,8.099v0c0.324,0.287,0.72,0.647,1.151,1.079
				c0.919-1.157,1.927-2.586,2.568-3.642c0.042-0.07,0.113-0.119,0.194-0.132c0.016-0.003,0.032-0.004,0.048-0.004
				c0.064,0,0.128,0.022,0.18,0.064l1.95,1.592c0.093,0.076,0.128,0.202,0.087,0.315c-0.04,0.113-0.146,0.188-0.267,0.188
				c-0.096,0-0.198-0.003-0.296-0.036h-0.001c-0.627,0.823-1.758,2.081-2.881,3.203l0,0c1.021,1.021,1.991,1.992,2.495,2.521
				c0.098,0.102,0.104,0.26,0.018,0.371l-1.662,2.101c-0.054,0.068-0.136,0.108-0.223,0.108c-0.002,0-0.005,0-0.007,0
				c-0.09-0.002-0.173-0.046-0.225-0.119c-0.877-1.233-2.359-3.028-3.455-4.297v13.825c0,0.156-0.127,0.283-0.283,0.283H92.651z
				 M100.313,45.14c-0.076-0.012-0.144-0.054-0.188-0.116c-0.533-0.753-1.359-1.6-2.106-2.159c-0.072-0.054-0.114-0.139-0.113-0.229
				c0.001-0.09,0.044-0.174,0.117-0.228c7.243-5.22,8.048-14.601,8.275-24.571h-5.512c-0.156,0-0.283-0.127-0.283-0.284V14.88
				c0-0.157,0.127-0.284,0.283-0.284h17.103l1.634,0.093c0.155,0.009,0.274,0.142,0.267,0.297l-0.004,0.102
				c-0.014,0.319-0.024,0.584-0.024,0.804c-0.39,18.627-0.756,25.147-2.16,27.067c-0.934,1.368-1.767,2.016-5.327,2.016
				c-0.856,0-1.743-0.029-2.659-0.062c-0.143-0.005-0.259-0.114-0.272-0.256c-0.064-0.67-0.317-1.813-0.818-2.832
				c-0.045-0.091-0.038-0.199,0.019-0.283c0.053-0.079,0.142-0.125,0.235-0.125c0.007,0,0.014,0,0.021,0
				c1.906,0.14,3.573,0.14,4.375,0.14c0.597,0,0.914-0.164,1.26-0.648c1.046-1.186,1.463-6.571,1.801-23.073h-6.516
				c-0.32,10.937-1.264,21.249-9.19,27.249c-0.05,0.038-0.109,0.058-0.171,0.058C100.342,45.143,100.327,45.142,100.313,45.14z"/>
			<path fill="none" stroke="#231815" stroke-width="6" d="M153.865,39.813c-0.071,0-0.14-0.026-0.192-0.075
				c-4.982-4.611-10.688-11.336-12.526-13.695l-0.727-0.904c-2.14-2.666-3.115-3.883-4.385-3.883c-1.233,0-2.308,1.192-4.428,3.672
				l-5.327,6.083c0,0.361-0.072,0.647-0.222,0.875c-0.049,0.075-0.131,0.123-0.221,0.128c-0.006,0-0.011,0-0.017,0
				c-0.084,0-0.164-0.038-0.218-0.103l-2.646-3.181c-0.096-0.114-0.086-0.283,0.021-0.386c2.1-2.007,6.07-6.234,7.296-7.557
				c2.391-2.53,3.862-3.384,5.831-3.384c2.245,0,3.771,1.066,6.804,4.752c2.555,3.121,8.446,9.649,13.55,14.392
				c0.111,0.104,0.121,0.278,0.021,0.394l-2.401,2.774c-0.051,0.058-0.122,0.094-0.199,0.098
				C153.876,39.813,153.87,39.813,153.865,39.813z"/>
		</g>
		<g>
			<path fill="none" stroke="#231815" stroke-width="2" d="M62.218,43.775c-0.157,0-0.284-0.127-0.284-0.283v-3.424
				c-4.031,0.504-7.991,1.008-10.655,1.367l0,0c-0.015,0.123-0.072,0.235-0.165,0.325c-0.053,0.052-0.124,0.079-0.197,0.079
				c-0.023,0-0.047-0.003-0.071-0.009c-0.095-0.024-0.171-0.097-0.2-0.19L49.8,38.897c-0.025-0.083-0.012-0.173,0.037-0.244
				c0.048-0.071,0.127-0.116,0.213-0.123l0.47-0.034c0.784-0.056,1.607-0.114,2.486-0.191V26.713h-2.92
				c-0.157,0-0.284-0.127-0.284-0.284v-2.204c0-0.157,0.127-0.284,0.284-0.284h32.296c0.157,0,0.284,0.127,0.284,0.284v2.204
				c0,0.157-0.127,0.284-0.284,0.284H65.209v16.779c0,0.156-0.127,0.283-0.284,0.283H62.218z M56.139,38.016l1.797-0.173
				c1.302-0.126,2.65-0.255,3.998-0.403V35.64h-5.795V38.016z M61.934,33.193v-2.052h-5.795v2.052H61.934z M61.934,28.694v-1.98
				h-5.795v1.98H61.934z M67.607,43.738c-0.1,0-0.196-0.053-0.247-0.145c-0.32-0.57-0.893-1.461-1.453-2.096
				c-0.062-0.07-0.086-0.168-0.062-0.259c0.024-0.092,0.092-0.165,0.181-0.196c1.921-0.673,3.778-1.703,5.52-3.062l0,0
				c-1.542-1.68-2.808-3.65-3.761-5.857c-0.033-0.075-0.031-0.161,0.004-0.234c0.036-0.074,0.101-0.129,0.18-0.151l1.394-0.388
				l-0.009-0.066h-2.96c-0.157,0-0.284-0.127-0.284-0.284v-2.096c0-0.157,0.127-0.284,0.284-0.284h12.099l0.46-0.093
				c0.018-0.003,0.036-0.005,0.053-0.005c0.035,0,0.07,0.007,0.103,0.02l1.732,0.675c0.087,0.034,0.151,0.108,0.172,0.199
				c0.021,0.09-0.003,0.187-0.065,0.256c-0.01,0.011-0.085,0.096-0.115,0.136c-0.916,3.053-2.517,5.856-4.715,8.244l0,0
				c1.894,1.308,4.053,2.294,6.417,2.932c0.097,0.025,0.173,0.102,0.2,0.198c0.026,0.097,0,0.2-0.07,0.272
				c-0.55,0.566-1.17,1.4-1.581,2.123c-0.051,0.091-0.146,0.144-0.247,0.144c-0.027,0-0.055-0.004-0.083-0.012
				c-2.548-0.774-4.871-1.964-6.905-3.534h0c-1.75,1.421-3.815,2.612-6.136,3.542C67.678,43.732,67.642,43.738,67.607,43.738z
				 M70.501,31.285C71.222,32.934,72.3,34.52,73.705,36h0c1.376-1.492,2.412-3.034,3.167-4.716H70.501z M54.803,22.142
				c-0.157,0-0.284-0.127-0.284-0.284V11.771c0-0.157,0.127-0.284,0.284-0.284h22.866c0.157,0,0.284,0.127,0.284,0.284v10.087
				c0,0.157-0.127,0.284-0.284,0.284H54.803z M74.532,19.838v-1.943H57.794v1.943H74.532z M74.532,15.699v-1.907H57.794v1.907
				H74.532z"/>
			<path fill="none" stroke="#231815" stroke-width="2" d="M91.234,43.811c-0.157,0-0.284-0.127-0.284-0.283V30.961
				c-1.384,1.491-2.717,2.748-3.959,3.734c-0.051,0.04-0.113,0.062-0.176,0.062c-0.021,0-0.043-0.002-0.065-0.008
				c-0.084-0.02-0.155-0.077-0.192-0.156c-0.365-0.782-0.994-1.893-1.489-2.506c-0.049-0.061-0.071-0.139-0.061-0.216
				c0.01-0.077,0.052-0.147,0.115-0.192c3.733-2.691,7.604-7.368,9.859-11.913h-8.823c-0.157,0-0.284-0.127-0.284-0.284v-2.527
				c0-0.157,0.127-0.284,0.284-0.284h4.792v-6.287c0-0.078,0.032-0.153,0.089-0.207c0.053-0.049,0.122-0.077,0.194-0.077
				c0.006,0,3.34,0.201,3.34,0.201c0.134,0.008,0.243,0.108,0.264,0.239c0.021,0.132-0.054,0.26-0.178,0.308
				c-0.092,0.036-0.209,0.07-0.361,0.098v5.724h2.52l0.418-0.143c0.027-0.008,0.056-0.013,0.084-0.013
				c0.051,0,0.102,0.014,0.146,0.041l1.884,1.136c0.085,0.051,0.137,0.143,0.137,0.242s-0.051,0.191-0.136,0.243
				c-0.077,0.047-0.167,0.085-0.266,0.113v0.001c-1.035,2.62-2.578,5.42-4.463,8.099v0c0.324,0.287,0.72,0.647,1.151,1.079
				c0.919-1.157,1.927-2.586,2.568-3.642c0.042-0.07,0.113-0.119,0.194-0.132c0.016-0.003,0.032-0.004,0.048-0.004
				c0.064,0,0.128,0.022,0.18,0.064l1.95,1.592c0.093,0.076,0.128,0.202,0.087,0.315c-0.04,0.113-0.146,0.188-0.267,0.188
				c-0.096,0-0.198-0.003-0.296-0.036h-0.001c-0.627,0.823-1.758,2.081-2.881,3.203l0,0c1.021,1.021,1.991,1.992,2.495,2.521
				c0.098,0.102,0.104,0.26,0.018,0.371l-1.662,2.101c-0.054,0.068-0.136,0.108-0.223,0.108c-0.002,0-0.005,0-0.007,0
				c-0.09-0.002-0.173-0.046-0.225-0.119c-0.877-1.233-2.359-3.028-3.455-4.297v13.826c0,0.156-0.127,0.283-0.283,0.283H91.234z
				 M98.896,43.723c-0.076-0.012-0.144-0.054-0.188-0.116c-0.533-0.753-1.359-1.6-2.106-2.159c-0.072-0.054-0.114-0.139-0.113-0.229
				c0.001-0.09,0.044-0.174,0.117-0.228c7.243-5.22,8.048-14.602,8.275-24.572h-5.512c-0.156,0-0.283-0.127-0.283-0.284v-2.672
				c0-0.157,0.127-0.284,0.283-0.284h17.103l1.634,0.093c0.155,0.009,0.274,0.142,0.267,0.297l-0.004,0.102
				c-0.014,0.319-0.024,0.584-0.024,0.804c-0.39,18.627-0.756,25.148-2.16,27.068c-0.934,1.368-1.767,2.016-5.327,2.016
				c-0.856,0-1.743-0.029-2.659-0.062c-0.143-0.005-0.259-0.114-0.272-0.256c-0.064-0.67-0.317-1.813-0.818-2.832
				c-0.045-0.091-0.038-0.199,0.019-0.283c0.053-0.079,0.142-0.125,0.235-0.125c0.007,0,0.014,0,0.021,0
				c1.906,0.14,3.573,0.14,4.375,0.14c0.597,0,0.914-0.164,1.26-0.648c1.046-1.186,1.463-6.572,1.801-23.074h-6.516
				c-0.32,10.937-1.264,21.25-9.19,27.25c-0.05,0.038-0.109,0.058-0.171,0.058C98.925,43.726,98.91,43.725,98.896,43.723z"/>
			<path fill="none" stroke="#231815" stroke-width="2" d="M152.448,38.396c-0.071,0-0.14-0.026-0.192-0.075
				c-4.982-4.612-10.688-11.336-12.526-13.696l-0.727-0.904c-2.14-2.666-3.115-3.883-4.385-3.883c-1.233,0-2.308,1.192-4.428,3.672
				l-5.327,6.083c0,0.361-0.072,0.647-0.222,0.875c-0.049,0.075-0.131,0.123-0.221,0.128c-0.006,0-0.011,0-0.017,0
				c-0.084,0-0.164-0.038-0.218-0.103l-2.646-3.181c-0.096-0.114-0.086-0.283,0.021-0.386c2.1-2.007,6.07-6.234,7.296-7.557
				c2.391-2.53,3.862-3.384,5.831-3.384c2.245,0,3.771,1.066,6.804,4.752c2.555,3.121,8.446,9.649,13.55,14.392
				c0.111,0.104,0.121,0.278,0.021,0.393l-2.401,2.775c-0.051,0.058-0.122,0.094-0.199,0.098
				C152.459,38.396,152.453,38.396,152.448,38.396z"/>
		</g>
		<g>
			<path fill="#FFFFFF" d="M62.218,43.775c-0.157,0-0.284-0.127-0.284-0.283v-3.424c-4.031,0.504-7.991,1.008-10.655,1.367l0,0
				c-0.015,0.123-0.072,0.235-0.165,0.325c-0.053,0.052-0.124,0.079-0.197,0.079c-0.023,0-0.047-0.003-0.071-0.009
				c-0.095-0.024-0.171-0.097-0.2-0.19L49.8,38.897c-0.025-0.083-0.012-0.173,0.037-0.244c0.048-0.071,0.127-0.116,0.213-0.123
				l0.47-0.034c0.784-0.056,1.607-0.114,2.486-0.191V26.713h-2.92c-0.157,0-0.284-0.127-0.284-0.284v-2.204
				c0-0.157,0.127-0.284,0.284-0.284h32.296c0.157,0,0.284,0.127,0.284,0.284v2.204c0,0.157-0.127,0.284-0.284,0.284H65.209v16.779
				c0,0.156-0.127,0.283-0.284,0.283H62.218z M56.139,38.016l1.797-0.173c1.302-0.126,2.65-0.255,3.998-0.403V35.64h-5.795V38.016z
				 M61.934,33.193v-2.052h-5.795v2.052H61.934z M61.934,28.694v-1.98h-5.795v1.98H61.934z M67.607,43.738
				c-0.1,0-0.196-0.053-0.247-0.145c-0.32-0.57-0.893-1.461-1.453-2.096c-0.062-0.07-0.086-0.168-0.062-0.259
				c0.024-0.092,0.092-0.165,0.181-0.196c1.921-0.673,3.778-1.703,5.52-3.062l0,0c-1.542-1.68-2.808-3.65-3.761-5.857
				c-0.033-0.075-0.031-0.161,0.004-0.234c0.036-0.074,0.101-0.129,0.18-0.151l1.394-0.388l-0.009-0.066h-2.96
				c-0.157,0-0.284-0.127-0.284-0.284v-2.096c0-0.157,0.127-0.284,0.284-0.284h12.099l0.46-0.093
				c0.018-0.003,0.036-0.005,0.053-0.005c0.035,0,0.07,0.007,0.103,0.02l1.732,0.675c0.087,0.034,0.151,0.108,0.172,0.199
				c0.021,0.09-0.003,0.187-0.065,0.256c-0.01,0.011-0.085,0.096-0.115,0.136c-0.916,3.053-2.517,5.856-4.715,8.244l0,0
				c1.894,1.308,4.053,2.294,6.417,2.932c0.097,0.025,0.173,0.102,0.2,0.198c0.026,0.097,0,0.2-0.07,0.272
				c-0.55,0.566-1.17,1.4-1.581,2.123c-0.051,0.091-0.146,0.144-0.247,0.144c-0.027,0-0.055-0.004-0.083-0.012
				c-2.548-0.774-4.871-1.964-6.905-3.534h0c-1.75,1.421-3.815,2.612-6.136,3.542C67.678,43.732,67.642,43.738,67.607,43.738z
				 M70.501,31.285C71.222,32.934,72.3,34.52,73.705,36h0c1.376-1.492,2.412-3.034,3.167-4.716H70.501z M54.803,22.142
				c-0.157,0-0.284-0.127-0.284-0.284V11.771c0-0.157,0.127-0.284,0.284-0.284h22.866c0.157,0,0.284,0.127,0.284,0.284v10.087
				c0,0.157-0.127,0.284-0.284,0.284H54.803z M74.532,19.838v-1.943H57.794v1.943H74.532z M74.532,15.699v-1.907H57.794v1.907
				H74.532z"/>
			<path fill="#FFFFFF" d="M91.234,43.811c-0.157,0-0.284-0.127-0.284-0.283V30.961c-1.384,1.491-2.717,2.748-3.959,3.734
				c-0.051,0.04-0.113,0.062-0.176,0.062c-0.021,0-0.043-0.002-0.065-0.008c-0.084-0.02-0.155-0.077-0.192-0.156
				c-0.365-0.782-0.994-1.893-1.489-2.506c-0.049-0.061-0.071-0.139-0.061-0.216c0.01-0.077,0.052-0.147,0.115-0.192
				c3.733-2.691,7.604-7.368,9.859-11.913h-8.823c-0.157,0-0.284-0.127-0.284-0.284v-2.527c0-0.157,0.127-0.284,0.284-0.284h4.792
				v-6.287c0-0.078,0.032-0.153,0.089-0.207c0.053-0.049,0.122-0.077,0.194-0.077c0.006,0,3.34,0.201,3.34,0.201
				c0.134,0.008,0.243,0.108,0.264,0.239c0.021,0.132-0.054,0.26-0.178,0.308c-0.092,0.036-0.209,0.07-0.361,0.098v5.724h2.52
				l0.418-0.143c0.027-0.008,0.056-0.013,0.084-0.013c0.051,0,0.102,0.014,0.146,0.041l1.884,1.136
				c0.085,0.051,0.137,0.143,0.137,0.242s-0.051,0.191-0.136,0.243c-0.077,0.047-0.167,0.085-0.266,0.113v0.001
				c-1.035,2.62-2.578,5.42-4.463,8.099v0c0.324,0.287,0.72,0.647,1.151,1.079c0.919-1.157,1.927-2.586,2.568-3.642
				c0.042-0.07,0.113-0.119,0.194-0.132c0.016-0.003,0.032-0.004,0.048-0.004c0.064,0,0.128,0.022,0.18,0.064l1.95,1.592
				c0.093,0.076,0.128,0.202,0.087,0.315c-0.04,0.113-0.146,0.188-0.267,0.188c-0.096,0-0.198-0.003-0.296-0.036h-0.001
				c-0.627,0.823-1.758,2.081-2.881,3.203l0,0c1.021,1.021,1.991,1.992,2.495,2.521c0.098,0.102,0.104,0.26,0.018,0.371
				l-1.662,2.101c-0.054,0.068-0.136,0.108-0.223,0.108c-0.002,0-0.005,0-0.007,0c-0.09-0.002-0.173-0.046-0.225-0.119
				c-0.877-1.233-2.359-3.028-3.455-4.297v13.826c0,0.156-0.127,0.283-0.283,0.283H91.234z M98.896,43.723
				c-0.076-0.012-0.144-0.054-0.188-0.116c-0.533-0.753-1.359-1.6-2.106-2.159c-0.072-0.054-0.114-0.139-0.113-0.229
				c0.001-0.09,0.044-0.174,0.117-0.228c7.243-5.22,8.048-14.602,8.275-24.572h-5.512c-0.156,0-0.283-0.127-0.283-0.284v-2.672
				c0-0.157,0.127-0.284,0.283-0.284h17.103l1.634,0.093c0.155,0.009,0.274,0.142,0.267,0.297l-0.004,0.102
				c-0.014,0.319-0.024,0.584-0.024,0.804c-0.39,18.627-0.756,25.148-2.16,27.068c-0.934,1.368-1.767,2.016-5.327,2.016
				c-0.856,0-1.743-0.029-2.659-0.062c-0.143-0.005-0.259-0.114-0.272-0.256c-0.064-0.67-0.317-1.813-0.818-2.832
				c-0.045-0.091-0.038-0.199,0.019-0.283c0.053-0.079,0.142-0.125,0.235-0.125c0.007,0,0.014,0,0.021,0
				c1.906,0.14,3.573,0.14,4.375,0.14c0.597,0,0.914-0.164,1.26-0.648c1.046-1.186,1.463-6.572,1.801-23.074h-6.516
				c-0.32,10.937-1.264,21.25-9.19,27.25c-0.05,0.038-0.109,0.058-0.171,0.058C98.925,43.726,98.91,43.725,98.896,43.723z"/>
			<path fill="#FFFFFF" d="M152.448,38.396c-0.071,0-0.14-0.026-0.192-0.075c-4.982-4.612-10.688-11.336-12.526-13.696l-0.727-0.904
				c-2.14-2.666-3.115-3.883-4.385-3.883c-1.233,0-2.308,1.192-4.428,3.672l-5.327,6.083c0,0.361-0.072,0.647-0.222,0.875
				c-0.049,0.075-0.131,0.123-0.221,0.128c-0.006,0-0.011,0-0.017,0c-0.084,0-0.164-0.038-0.218-0.103l-2.646-3.181
				c-0.096-0.114-0.086-0.283,0.021-0.386c2.1-2.007,6.07-6.234,7.296-7.557c2.391-2.53,3.862-3.384,5.831-3.384
				c2.245,0,3.771,1.066,6.804,4.752c2.555,3.121,8.446,9.649,13.55,14.392c0.111,0.104,0.121,0.278,0.021,0.393l-2.401,2.775
				c-0.051,0.058-0.122,0.094-0.199,0.098C152.459,38.396,152.453,38.396,152.448,38.396z"/>
		</g>
	</g>
	<circle fill="#FFFFFF" cx="27.522" cy="27.693" r="17.492"/>
	<polygon fill="#F1B230" points="17.515,34.274 27.522,16.941 37.53,34.274 	"/>
</g>
</svg>
