<?xml version="1.0" encoding="utf-8"?>
<!-- Generator: Adobe Illustrator 16.0.4, SVG Export Plug-In . SVG Version: 6.00 Build 0)  -->
<!DOCTYPE svg PUBLIC "-//W3C//DTD SVG 1.1//EN" "http://www.w3.org/Graphics/SVG/1.1/DTD/svg11.dtd">
<svg version="1.1" id="レイヤー_1" xmlns="http://www.w3.org/2000/svg" xmlns:xlink="http://www.w3.org/1999/xlink" x="0px"
	 y="0px" width="232.5px" height="124px" viewBox="0 0 232.5 124" enable-background="new 0 0 232.5 124" xml:space="preserve">
<g>
	<g>
		<polygon fill="#D32F1A" points="177.554,58.335 183.63,52.578 177.554,46.821 181.773,39.592 174.318,35.786 176.316,27.657 
			168.09,26.111 167.726,17.749 159.395,18.571 156.693,10.647 148.936,13.788 144.1,6.955 137.543,12.161 130.986,6.955 
			126.151,13.788 118.393,10.647 115.691,18.57 107.361,17.748 106.997,26.11 100.793,27.276 99.835,19.641 90.621,19.8 
			86.95,11.346 78.154,14.1 72.24,7.033 64.579,12.161 56.919,7.033 51.004,14.1 42.209,11.346 38.539,19.799 29.325,19.64 
			28.177,28.785 19.287,31.216 20.754,40.314 12.912,45.156 16.898,53.466 10.745,60.326 16.898,67.186 12.912,75.496 
			20.754,80.337 19.286,89.436 28.176,91.867 29.324,101.011 38.538,100.852 42.208,109.306 51.003,106.553 56.919,113.62 
			64.579,108.492 72.239,113.62 78.155,106.553 86.949,109.307 90.62,100.853 99.834,101.012 100.981,91.867 109.871,89.437 
			109.51,87.196 115.691,86.586 118.393,94.509 126.15,91.369 130.986,98.201 137.543,92.996 144.1,98.201 148.935,91.369 
			156.693,94.509 159.395,86.586 167.725,87.409 168.09,79.046 176.317,77.499 174.318,69.371 181.773,65.565 		"/>
	</g>
</g>
<g>
	<g>
		<path fill="none" stroke="#000000" stroke-width="6" d="M17.969,83.736c-0.105,0-0.211-0.02-0.312-0.06
			c-0.24-0.095-0.424-0.293-0.5-0.54c-0.166-0.535-0.351-1.185-0.537-1.89c-0.065-0.246-0.017-0.508,0.132-0.715
			s0.382-0.335,0.636-0.352c1.001-0.063,1.831-0.169,2.733-0.29l0.385-0.053c1.171-0.162,2.372-0.328,3.647-0.56l-0.167-2.082
			l-2.117,0.17c-1.586,0.127-2.858,0.247-3.888,0.367c-0.033,0.004-0.066,0.006-0.099,0.006c-0.196,0-0.387-0.068-0.54-0.193
			c-0.178-0.146-0.29-0.359-0.308-0.589l-0.095-1.178c-0.019-0.23,0.057-0.458,0.21-0.631c0.153-0.173,0.37-0.277,0.6-0.287
			c1.037-0.045,2.312-0.13,3.898-0.257l2.117-0.17l-0.124-1.543l-1.435,0.115c-2.314,0.185-3.458,0.319-3.834,0.363
			c-0.033,0.004-0.066,0.006-0.099,0.006c-0.203,0-0.399-0.072-0.555-0.206c-0.18-0.155-0.287-0.378-0.295-0.616
			c-0.016-0.467-0.049-1.248-0.147-2.474l-0.308-3.839c-0.097-1.206-0.186-1.973-0.244-2.431c-0.03-0.236,0.041-0.474,0.194-0.655
			s0.375-0.291,0.613-0.301c1.023-0.044,2.279-0.126,3.84-0.251l1.435-0.115l-0.126-1.579l-2.655,0.213
			c-1.671,0.134-3.002,0.259-4.068,0.382c-0.033,0.004-0.065,0.006-0.098,0.006c-0.196,0-0.387-0.068-0.54-0.193
			c-0.178-0.146-0.29-0.359-0.308-0.588l-0.096-1.18c-0.019-0.23,0.057-0.458,0.209-0.631c0.153-0.173,0.369-0.277,0.6-0.288
			c0.4-0.018,1.619-0.074,4.079-0.271l2.655-0.213l-0.13-1.615c-1.508,0.263-3.067,0.535-4.6,0.73
			c-0.171,0.026-0.305,0.047-0.415,0.059c-0.03,0.003-0.061,0.005-0.091,0.005c-0.326,0-0.627-0.188-0.769-0.487l-0.117-0.26
			c-0.118-0.257-0.252-0.499-0.392-0.719c-0.156-0.247-0.175-0.556-0.05-0.819c0.125-0.264,0.376-0.445,0.666-0.48
			c4.296-0.525,7.72-1.206,11.102-2.21c0.523-0.164,1.015-0.349,1.488-0.562c0.111-0.05,0.23-0.075,0.348-0.075
			c0.178,0,0.354,0.056,0.502,0.165c0.552,0.404,1.031,0.794,1.424,1.158c0.234,0.216,0.327,0.545,0.242,0.852
			s-0.335,0.54-0.647,0.604c-0.269,0.056-0.553,0.137-0.847,0.22l-0.358,0.1c-1.611,0.459-2.976,0.799-4.289,1.067l0.161,2.01
			l2.081-0.167c1.616-0.13,2.96-0.256,3.997-0.375c0.033-0.004,0.065-0.006,0.098-0.006c0.196,0,0.387,0.068,0.54,0.193
			c0.178,0.146,0.29,0.359,0.308,0.588l0.095,1.176c0.019,0.23-0.057,0.458-0.209,0.63c-0.152,0.173-0.369,0.277-0.599,0.288
			c-0.659,0.031-1.89,0.098-4.008,0.268l-2.081,0.167l0.127,1.579l1.543-0.124c1.518-0.122,2.759-0.239,3.795-0.36
			c0.033-0.004,0.065-0.006,0.098-0.006c0.203,0,0.4,0.073,0.555,0.206c0.18,0.155,0.287,0.378,0.295,0.616
			c0.015,0.461,0.049,1.234,0.146,2.438l0.308,3.839c0.098,1.213,0.19,2,0.249,2.467c0.03,0.235-0.041,0.473-0.194,0.654
			c-0.153,0.182-0.375,0.291-0.612,0.301c-0.384,0.017-1.554,0.069-3.807,0.25l-1.543,0.124l0.124,1.543l1.327-0.106
			c1.58-0.127,2.852-0.247,3.888-0.368c0.033-0.004,0.065-0.006,0.098-0.006c0.196,0,0.387,0.068,0.539,0.193
			c0.179,0.146,0.29,0.359,0.309,0.589l0.096,1.179c0.019,0.23-0.057,0.458-0.21,0.631s-0.369,0.277-0.6,0.287
			c-0.388,0.017-1.569,0.07-3.897,0.257l-1.329,0.106l0.139,1.723c1.556-0.3,3.18-0.654,4.827-1.052
			c0.066-0.016,0.133-0.024,0.2-0.024c0.202,0,0.399,0.072,0.556,0.207c0.208,0.179,0.316,0.448,0.292,0.721
			c-0.015,0.161-0.026,0.319-0.034,0.473l-0.047,0.56c-0.003,0.036-0.008,0.072-0.016,0.107l0.008-0.01
			c1.67-2.273,2.766-4.931,3.446-8.365c0.386-2.154,0.547-5.443,0.45-9.245h0c-1.373,0.133-2.186,0.222-2.635,0.272
			c-0.032,0.003-0.063,0.005-0.094,0.005c-0.196,0-0.388-0.068-0.541-0.194c-0.177-0.146-0.288-0.358-0.307-0.587l-0.136-1.683
			c-0.019-0.232,0.058-0.461,0.212-0.634c0.155-0.174,0.374-0.276,0.605-0.285c0.47-0.016,1.336-0.055,2.778-0.17l0,0
			c-0.036-0.442-0.063-0.886-0.091-1.337c-0.033-0.543-0.063-1.031-0.104-1.536c-0.139-1.736-0.25-2.844-0.472-4.083
			c-0.043-0.243,0.021-0.493,0.177-0.685s0.387-0.307,0.634-0.314c0.407-0.012,0.799-0.019,1.197-0.019
			c0.353,0,0.71,0.005,1.083,0.015c0.25,0.007,0.486,0.124,0.642,0.32c0.156,0.196,0.218,0.452,0.169,0.698
			c-0.001,0.006-0.058,0.229-0.058,0.229c-0.117,0.379-0.086,1.6,0.08,3.669c0.081,1.011,0.15,1.887,0.186,2.766l2.045-0.164
			c1.387-0.111,2.509-0.219,3.43-0.329c0.034-0.004,0.067-0.006,0.101-0.006c0.202,0,0.398,0.072,0.553,0.204
			c0.181,0.154,0.288,0.377,0.297,0.615c0.038,1.028,0.111,1.942,0.188,2.904c0.529,7.065,0.618,12.324,0.279,16.554
			c-0.253,2.771-1.561,4.098-4.24,4.312c-0.744,0.06-1.352,0.073-1.958,0.086c-0.001,0-0.121,0-0.125,0
			c-0.405,0-0.761-0.285-0.84-0.684c-0.027-0.137-0.058-0.311-0.087-0.483c-0.098-0.402-0.211-0.79-0.339-1.144
			c-0.096-0.265-0.054-0.561,0.112-0.789c0.16-0.22,0.416-0.35,0.688-0.35c0.009,0,0.019,0,0.029,0
			c0.193,0.007,0.381,0.01,0.568,0.01c0.348,0,0.685-0.012,1.03-0.04c1.122-0.089,1.647-0.812,1.757-2.416
			c0.295-3.548,0.193-8.39-0.32-15.25l-3.014,0.242c0.083,4.115-0.09,7.713-0.502,10.404c-0.667,4.107-2.22,7.788-4.491,10.651
			l-0.139,0.161c-0.168,0.188-0.401,0.285-0.636,0.285c-0.197,0-0.396-0.068-0.556-0.208c0,0-0.13-0.113-0.145-0.127
			c-0.408-0.401-0.871-0.748-1.376-1.033c-0.212-0.119-0.363-0.324-0.414-0.562c-0.051-0.238,0.002-0.486,0.146-0.682l0.316-0.431
			c-0.034,0.019-0.07,0.037-0.107,0.051c-0.129,0.051-0.346,0.105-0.566,0.152c-3.587,1.014-8.234,2.092-12.374,2.87l-0.146,0.031
			c-0.467,0.1-0.949,0.203-1.135,0.309C18.26,83.699,18.115,83.736,17.969,83.736z M20.478,70.833l2.979-0.239l-0.152-1.902
			l-2.979,0.239L20.478,70.833z M26.685,70.336l3.122-0.25l-0.152-1.902l-3.122,0.25L26.685,70.336z M20.159,66.851l2.979-0.239
			l-0.149-1.866l-2.979,0.239L20.159,66.851z M26.366,66.353l3.122-0.25l-0.149-1.866l-3.122,0.25L26.366,66.353z"/>
		<path fill="none" stroke="#000000" stroke-width="6" d="M54.79,82.127c-0.204,0-0.403-0.074-0.558-0.209
			c-0.172-0.15-0.277-0.363-0.291-0.592c-0.043-0.731-0.173-2.956-0.466-6.603l-0.94-11.733c-0.142-1.776-0.286-3.111-0.44-4.083
			c-0.039-0.243,0.03-0.491,0.188-0.68c0.158-0.188,0.39-0.299,0.636-0.304c0.349-0.007,0.68-0.011,1.002-0.011
			c0.481,0,0.944,0.009,1.422,0.027c0.278,0.011,0.534,0.157,0.684,0.391s0.176,0.527,0.069,0.784l-0.041,0.098
			c-0.2,0.404-0.089,1.999,0.051,3.743L57.208,76.7L80.1,74.864l-1.107-13.813c-0.145-1.797-0.296-3.191-0.462-4.264
			c-0.038-0.243,0.03-0.49,0.188-0.678s0.39-0.298,0.635-0.303c0.381-0.008,0.745-0.012,1.103-0.012
			c0.462,0,0.912,0.008,1.364,0.025c0.287,0.011,0.549,0.167,0.696,0.413c0.148,0.247,0.161,0.552,0.034,0.81
			c-0.166,0.34-0.157,1.393,0.032,3.756l0.918,11.446c0.296,3.687,0.522,5.927,0.597,6.663c0.023,0.227-0.046,0.454-0.192,0.63
			c-0.146,0.175-0.357,0.285-0.585,0.303c0,0-2.001,0.161-2.024,0.161c-0.438,0-0.811-0.337-0.847-0.782l-0.08-0.983l-22.89,1.835
			l0.079,0.981c0.038,0.468-0.311,0.877-0.779,0.916C56.778,81.969,54.813,82.127,54.79,82.127z M60.523,73.816
			c-0.201,0-0.397-0.072-0.552-0.204c-0.179-0.153-0.287-0.375-0.297-0.61c-0.025-0.591-0.078-1.66-0.216-3.38l-0.653-8.145
			c-0.142-1.772-0.262-2.834-0.329-3.407c-0.027-0.234,0.044-0.47,0.197-0.65c0.153-0.18,0.374-0.288,0.609-0.299
			c0.401-0.018,1.621-0.074,4.028-0.267l2.009-0.161l-0.281-3.516L56.031,53.9c-1.661,0.133-2.992,0.258-4.069,0.382
			c-0.032,0.004-0.065,0.006-0.097,0.006c-0.196,0-0.387-0.068-0.54-0.193c-0.178-0.146-0.289-0.359-0.308-0.589l-0.147-1.826
			c-0.019-0.23,0.057-0.458,0.209-0.63c0.153-0.173,0.369-0.277,0.6-0.288c1.086-0.049,2.42-0.138,4.079-0.271l21.528-1.726
			c1.684-0.135,3.015-0.26,4.07-0.382c0.032-0.004,0.065-0.006,0.098-0.006c0.196,0,0.387,0.068,0.54,0.194
			c0.179,0.146,0.289,0.359,0.308,0.589l0.146,1.825c0.019,0.229-0.058,0.457-0.21,0.63c-0.152,0.173-0.369,0.277-0.6,0.287
			c-1.061,0.048-2.396,0.137-4.078,0.271l-9.186,0.736l0.281,3.516l2.19-0.175c1.665-0.134,2.991-0.258,4.053-0.381
			c0.032-0.004,0.065-0.006,0.098-0.006c0.201,0,0.397,0.072,0.552,0.204c0.18,0.153,0.288,0.375,0.298,0.61
			c0.024,0.561,0.076,1.652,0.218,3.416l0.653,8.145c0.138,1.71,0.259,2.8,0.325,3.372c0.027,0.234-0.044,0.47-0.197,0.65
			c-0.153,0.18-0.374,0.288-0.609,0.298c-1.06,0.047-2.388,0.135-4.062,0.269l-7.535,0.604c-2.399,0.192-3.618,0.332-4.018,0.378
			C60.588,73.814,60.555,73.816,60.523,73.816z M62.788,70.619l3.66-0.293L66.117,66.2l-3.66,0.293L62.788,70.619z M69.712,70.064
			l3.839-0.308L73.22,65.63l-3.839,0.308L69.712,70.064z M62.236,63.73l3.659-0.293l-0.305-3.803l-3.66,0.293L62.236,63.73z
			 M69.16,63.175l3.839-0.308l-0.306-3.803l-3.839,0.308L69.16,63.175z"/>
		<path fill="none" stroke="#000000" stroke-width="6" d="M92.374,77.874c-0.081,0-0.162-0.012-0.242-0.035
			c-0.25-0.075-0.453-0.26-0.549-0.503c-0.278-0.705-0.558-1.562-0.83-2.55c-0.067-0.245-0.021-0.507,0.124-0.714
			s0.377-0.339,0.63-0.359c0.891-0.07,1.866-0.176,3.068-0.333c0.166-0.014,0.332-0.036,0.498-0.058
			c0.193-0.025,0.351-0.046,0.502-0.058c1.661-4.561,3.009-8.934,3.697-11.997c0.269-1.127,0.47-2.06,0.584-2.98
			c0.028-0.228,0.146-0.434,0.329-0.573c0.149-0.113,0.33-0.173,0.515-0.173c0.042,0,0.083,0.003,0.125,0.009
			c1.057,0.151,2.003,0.286,2.94,0.479c0.282,0.058,0.516,0.256,0.62,0.524c0.105,0.269,0.066,0.572-0.103,0.806
			c-0.253,0.35-0.437,0.781-0.729,1.708c-1.273,4.449-2.485,8.227-3.698,11.528l0,0c3.727-0.595,7.52-1.261,10.968-1.926l0,0
			c-1.364-1.798-2.552-3.266-3.736-4.621c-0.158-0.181-0.232-0.419-0.205-0.657c0.027-0.238,0.154-0.454,0.349-0.594l1.736-1.247
			c0.149-0.107,0.323-0.16,0.496-0.16c0.228,0,0.453,0.091,0.619,0.267c2.797,2.968,5.294,6.14,8.095,10.285
			c0.263,0.387,0.162,0.914-0.224,1.178l-2.153,1.475c-0.143,0.098-0.311,0.149-0.48,0.149c-0.061,0-0.121-0.007-0.182-0.02
			c-0.229-0.05-0.427-0.192-0.548-0.393c-0.552-0.92-1.11-1.793-1.652-2.64l-0.076-0.117c-5.611,1.3-11.903,2.534-18.7,3.666
			c-0.584,0.106-0.975,0.249-1.295,0.477C92.721,77.82,92.549,77.874,92.374,77.874z M89.525,64.504
			c-0.243-0.025-0.464-0.154-0.605-0.353l0.693-0.493l-0.73,0.44c-0.493-0.684-0.979-1.24-1.442-1.663
			c-0.185-0.167-0.286-0.408-0.277-0.657c0.008-0.249,0.125-0.481,0.319-0.637c3.832-3.058,6.868-7.294,8.549-11.93
			c0.189-0.496,0.314-0.952,0.425-1.538c0.043-0.226,0.175-0.425,0.366-0.552c0.141-0.093,0.304-0.142,0.47-0.142
			c0.061,0,0.122,0.007,0.182,0.02c1.017,0.223,1.883,0.463,2.575,0.715c0.266,0.097,0.467,0.319,0.535,0.593
			c0.068,0.274-0.004,0.564-0.192,0.775c-0.269,0.298-0.423,0.651-0.569,1.017c-2.27,5.75-5.374,10.347-9.491,14.049l-0.142,0.134
			c-0.157,0.146-0.363,0.226-0.576,0.226C89.584,64.509,89.555,64.508,89.525,64.504z M117.867,62.014
			c-0.17,0-0.339-0.051-0.482-0.148l0.479-0.703l-0.488,0.697c-5.333-3.422-9.744-8.112-12.763-13.568
			c-0.111-0.201-0.137-0.439-0.069-0.659c0.066-0.22,0.22-0.404,0.424-0.509l1.851-0.953c0.125-0.064,0.258-0.095,0.389-0.095
			c0.302,0,0.593,0.161,0.747,0.443c2.619,4.789,6.851,8.99,11.609,11.524c0.215,0.114,0.371,0.315,0.428,0.552
			s0.009,0.486-0.131,0.686c-0.486,0.696-0.895,1.52-1.151,2.088l-0.064,0.145c-0.103,0.229-0.305,0.4-0.547,0.468
			C118.021,62.004,117.944,62.014,117.867,62.014z"/>
		<path fill="none" stroke="#000000" stroke-width="6" d="M126.564,76.446c-0.204,0-0.402-0.074-0.558-0.208
			c-0.172-0.149-0.277-0.362-0.291-0.591c-0.055-0.895-0.198-3.271-0.521-7.286l-1.248-15.572c-0.223-2.77-0.441-5.237-0.651-7.333
			c-0.023-0.232,0.05-0.464,0.202-0.641c0.152-0.176,0.37-0.283,0.604-0.294c0.645-0.03,1.886-0.093,3.785-0.245l4.987-0.4
			c1.553-0.125,2.524-0.233,3.08-0.299c0.033-0.004,0.067-0.006,0.101-0.006c0.201,0,0.396,0.071,0.552,0.203
			c0.18,0.153,0.288,0.375,0.298,0.612c0.022,0.534,0.064,1.472,0.183,2.944l0.34,4.234c0.116,1.448,0.222,2.375,0.285,2.899
			c0.027,0.235-0.044,0.472-0.197,0.652c-0.153,0.18-0.375,0.289-0.612,0.298c-0.56,0.023-1.535,0.071-3.088,0.196l-5.884,0.472
			l0.96,11.984c0.224,2.781,0.441,5.228,0.646,7.274c0.023,0.227-0.046,0.454-0.192,0.629c-0.146,0.176-0.357,0.285-0.585,0.303
			C128.76,76.271,126.587,76.446,126.564,76.446z M127.727,53.533l6.278-0.503l-0.167-2.082l-6.278,0.503L127.727,53.533z
			 M127.366,49.048l6.279-0.503l-0.164-2.045l-6.279,0.503L127.366,49.048z M134.316,74.96c-0.2,0-0.4-0.07-0.562-0.211
			l-0.229-0.199c-0.297-0.251-0.691-0.523-1.136-0.78c-0.231-0.133-0.387-0.368-0.419-0.633c-0.033-0.265,0.062-0.53,0.254-0.716
			c1.358-1.307,2.17-2.873,2.482-4.787l0.02-0.652c-1.833,0.171-2.886,0.279-3.433,0.337c-0.029,0.003-0.06,0.005-0.089,0.005
			c-0.197,0-0.39-0.069-0.543-0.196c-0.177-0.146-0.286-0.358-0.305-0.586l-0.101-1.256c-0.019-0.23,0.058-0.458,0.211-0.631
			c0.153-0.173,0.37-0.276,0.602-0.286c0.945-0.04,2.16-0.119,3.609-0.235c-0.036-0.9-0.089-2.015-0.189-3.271l0,0
			c-1.409,0.136-2.249,0.228-2.71,0.278c-0.031,0.003-0.062,0.005-0.093,0.005c-0.196,0-0.389-0.068-0.542-0.195
			c-0.177-0.146-0.287-0.358-0.306-0.587l-0.102-1.257c-0.019-0.23,0.058-0.458,0.21-0.631c0.153-0.173,0.369-0.277,0.601-0.287
			c0.393-0.017,1.588-0.07,4.041-0.267l7.679-0.616c1.651-0.132,2.958-0.255,3.995-0.376c0.033-0.004,0.066-0.006,0.099-0.006
			c0.195,0,0.387,0.068,0.539,0.193c0.179,0.146,0.29,0.359,0.309,0.589l0.102,1.256c0.019,0.229-0.057,0.456-0.208,0.628
			s-0.366,0.277-0.595,0.289c-0.493,0.026-1.38,0.074-2.829,0.167l0.263,3.265c1.431-0.115,2.642-0.23,3.599-0.344
			c0.033-0.004,0.066-0.006,0.1-0.006c0.195,0,0.386,0.067,0.539,0.192c0.179,0.146,0.29,0.359,0.309,0.589l0.102,1.249
			c0.019,0.23-0.058,0.458-0.21,0.632c-0.153,0.173-0.371,0.277-0.602,0.287c-0.962,0.041-2.177,0.12-3.609,0.235l0.268,3.337
			c0.14,1.743,0.266,2.859,0.331,3.421c0.026,0.229-0.041,0.46-0.188,0.638c-0.146,0.179-0.358,0.29-0.589,0.309
			c0,0-1.767,0.142-1.789,0.142c-0.207,0-0.407-0.076-0.563-0.213c-0.173-0.153-0.276-0.37-0.286-0.601
			c-0.025-0.585-0.076-1.679-0.218-3.431l-0.268-3.337l-3.768,0.302c-0.026,0.605-0.059,1.102-0.127,1.562
			c-0.312,2.345-1.298,4.469-2.926,6.301l-0.128,0.136C134.753,74.877,134.535,74.96,134.316,74.96z M137.897,60.59
			c0.098,1.22,0.151,2.334,0.189,3.271l3.553-0.284l-0.262-3.265L137.897,60.59z M149.689,74.191c-0.378,0-0.713-0.25-0.817-0.616
			c-0.039-0.137-0.082-0.31-0.109-0.424c-0.122-0.488-0.265-0.932-0.434-1.351c-0.105-0.26-0.076-0.555,0.079-0.789
			s0.415-0.376,0.695-0.38c0.443-0.007,0.854-0.031,1.259-0.063c0.58-0.046,0.968-0.177,1.153-0.388
			c0.179-0.203,0.248-0.583,0.204-1.129l-1.186-14.783l-5.884,0.472c-1.407,0.113-2.543,0.221-3.472,0.332
			c-0.033,0.004-0.067,0.006-0.101,0.006c-0.202,0-0.398-0.072-0.554-0.205c-0.181-0.155-0.288-0.378-0.296-0.616
			c-0.017-0.469-0.054-1.281-0.16-2.617l-0.386-4.808c-0.108-1.351-0.204-2.17-0.263-2.647c-0.029-0.236,0.042-0.473,0.195-0.654
			s0.376-0.29,0.613-0.299c0.936-0.039,2.074-0.112,3.482-0.225l5.272-0.423c1.41-0.113,2.549-0.222,3.481-0.333
			c0.034-0.004,0.067-0.006,0.101-0.006c0.2,0,0.395,0.07,0.549,0.201c0.18,0.152,0.289,0.372,0.301,0.607
			c0.035,0.693,0.111,2.134,0.295,4.425l1.234,15.392c0.109,1.367,0.256,2.667,0.39,3.85c0.112,0.992,0.215,1.903,0.279,2.705
			c0.146,1.815-0.043,2.637-0.775,3.385c-0.795,0.811-1.884,1.126-4.658,1.348C149.951,74.176,149.701,74.191,149.689,74.191z
			 M143.657,52.256l6.673-0.535l-0.167-2.082l-6.673,0.535L143.657,52.256z M143.297,47.771l6.674-0.535l-0.164-2.045l-6.674,0.535
			L143.297,47.771z"/>
		<path fill="none" stroke="#000000" stroke-width="6" d="M175.261,72.542c-0.204,0-0.403-0.074-0.559-0.209
			c-0.173-0.15-0.277-0.364-0.29-0.592c-0.039-0.669-0.156-2.706-0.428-6.099l-0.36-4.485l-7.93,0.636l0.099,1.231
			c0.038,0.468-0.312,0.878-0.779,0.916c0,0-2.177,0.175-2.199,0.175c-0.206,0-0.405-0.075-0.561-0.211
			c-0.174-0.152-0.277-0.367-0.289-0.597c-0.062-1.271-0.225-3.55-0.469-6.593l-0.296-3.695c-0.152-1.897-0.294-3.419-0.419-4.523
			c-0.026-0.234,0.045-0.468,0.197-0.647c0.152-0.179,0.372-0.288,0.606-0.299c0.441-0.021,1.783-0.085,4.389-0.294l6.494-0.521
			l-0.192-2.404c-0.128-1.589-0.26-2.667-0.441-3.605c-0.047-0.244,0.015-0.496,0.169-0.69c0.153-0.194,0.385-0.312,0.633-0.321
			c0.684-0.027,1.315-0.041,1.888-0.041c0.287,0,0.568,0.004,0.84,0.011c0.267,0.007,0.514,0.138,0.669,0.354s0.2,0.493,0.122,0.747
			c-0.169,0.545-0.187,1.4-0.062,2.95l0.216,2.691l6.961-0.558c2.62-0.21,3.943-0.359,4.378-0.409
			c0.032-0.003,0.064-0.005,0.096-0.005c0.201,0,0.397,0.072,0.552,0.204c0.18,0.153,0.287,0.373,0.298,0.608
			c0.019,0.402,0.074,1.625,0.262,3.957l0.334,4.163c0.24,3.004,0.436,5.196,0.58,6.513c0.024,0.228-0.044,0.457-0.19,0.634
			c-0.146,0.177-0.357,0.288-0.587,0.306c0,0-2.175,0.175-2.198,0.175c-0.438,0-0.811-0.337-0.847-0.782l-0.086-1.054l-8.396,0.673
			l0.354,4.413c0.187,2.315,0.378,4.445,0.556,6.159c0.023,0.228-0.046,0.455-0.191,0.631c-0.146,0.176-0.357,0.286-0.586,0.304
			C177.596,72.356,175.283,72.542,175.261,72.542z M165.416,58.312l7.93-0.636l-0.599-7.463l-7.93,0.636L165.416,58.312z
			 M177.185,57.368l8.396-0.673l-0.599-7.463l-8.396,0.673L177.185,57.368z"/>
		<path fill="none" stroke="#000000" stroke-width="6" d="M207.975,67.175c-0.438,0-0.811-0.337-0.847-0.783l-0.253-3.149
			c-0.019-0.225,0.054-0.447,0.2-0.619s0.354-0.278,0.579-0.296c0,0,3.446-0.275,3.469-0.275c0.201,0,0.397,0.072,0.552,0.203
			c0.171,0.146,0.278,0.355,0.296,0.58l0.252,3.149c0.037,0.468-0.312,0.878-0.779,0.916
			C211.443,66.899,207.997,67.175,207.975,67.175z M208.032,59.334c-0.425,0-0.79-0.317-0.843-0.747l-2.26-18.298
			c-0.028-0.23,0.038-0.461,0.185-0.641s0.36-0.292,0.591-0.311c0,0,3.861-0.309,3.884-0.309c0.209,0,0.412,0.078,0.569,0.219
			c0.174,0.156,0.275,0.377,0.281,0.611l0.454,18.443c0.011,0.451-0.333,0.833-0.782,0.869
			C210.111,59.17,208.055,59.334,208.032,59.334z"/>
		<path fill="none" stroke="#000000" stroke-width="6" d="M220.893,66.139c-0.438,0-0.811-0.337-0.847-0.783l-0.253-3.149
			c-0.019-0.225,0.054-0.447,0.2-0.619s0.354-0.278,0.579-0.296c0,0,3.446-0.275,3.469-0.275c0.201,0,0.397,0.072,0.552,0.203
			c0.171,0.146,0.278,0.355,0.296,0.58l0.252,3.149c0.037,0.468-0.312,0.878-0.779,0.916
			C224.361,65.864,220.915,66.139,220.893,66.139z M220.95,58.298c-0.425,0-0.79-0.317-0.843-0.747l-2.26-18.298
			c-0.028-0.23,0.038-0.461,0.185-0.641s0.36-0.292,0.591-0.311c0,0,3.861-0.309,3.884-0.309c0.209,0,0.412,0.078,0.569,0.219
			c0.174,0.156,0.275,0.377,0.281,0.611l0.454,18.443c0.011,0.451-0.333,0.833-0.782,0.869
			C223.029,58.134,220.973,58.298,220.95,58.298z"/>
	</g>
	<g>
		<path fill="none" stroke="#000000" stroke-width="3" d="M16.551,82.319c-0.105,0-0.211-0.02-0.312-0.06
			c-0.24-0.095-0.424-0.293-0.5-0.54c-0.166-0.535-0.351-1.185-0.537-1.89c-0.065-0.246-0.017-0.508,0.132-0.715
			s0.382-0.335,0.636-0.352c1.001-0.063,1.831-0.169,2.733-0.29l0.385-0.053c1.171-0.162,2.372-0.328,3.647-0.56l-0.167-2.082
			l-2.117,0.17c-1.586,0.127-2.858,0.247-3.888,0.367c-0.033,0.004-0.066,0.006-0.099,0.006c-0.196,0-0.387-0.068-0.54-0.193
			c-0.178-0.146-0.29-0.359-0.308-0.589l-0.095-1.178c-0.019-0.23,0.057-0.458,0.21-0.631c0.153-0.173,0.37-0.277,0.6-0.287
			c1.037-0.045,2.312-0.13,3.898-0.257l2.117-0.17l-0.124-1.543l-1.435,0.115c-2.314,0.185-3.458,0.319-3.834,0.363
			c-0.033,0.004-0.066,0.006-0.099,0.006c-0.203,0-0.399-0.072-0.555-0.206c-0.18-0.155-0.287-0.378-0.295-0.616
			c-0.016-0.467-0.049-1.248-0.147-2.474l-0.308-3.839c-0.097-1.206-0.186-1.973-0.244-2.431c-0.03-0.236,0.041-0.474,0.194-0.655
			s0.375-0.291,0.613-0.301c1.023-0.044,2.279-0.126,3.84-0.251l1.435-0.115l-0.126-1.579l-2.655,0.213
			c-1.671,0.134-3.002,0.259-4.068,0.382c-0.033,0.004-0.065,0.006-0.098,0.006c-0.196,0-0.387-0.068-0.54-0.193
			c-0.178-0.146-0.29-0.359-0.308-0.588l-0.096-1.18c-0.019-0.23,0.057-0.458,0.209-0.631c0.153-0.173,0.369-0.277,0.6-0.288
			c0.4-0.018,1.619-0.074,4.079-0.271l2.655-0.213l-0.13-1.615c-1.508,0.263-3.067,0.535-4.6,0.73
			c-0.171,0.026-0.305,0.047-0.415,0.059c-0.03,0.003-0.061,0.005-0.091,0.005c-0.326,0-0.627-0.188-0.769-0.487l-0.117-0.26
			c-0.118-0.257-0.252-0.499-0.392-0.719c-0.156-0.247-0.175-0.556-0.05-0.819c0.125-0.264,0.376-0.445,0.666-0.48
			c4.296-0.525,7.72-1.206,11.102-2.21c0.523-0.164,1.015-0.349,1.488-0.562c0.111-0.05,0.23-0.075,0.348-0.075
			c0.178,0,0.354,0.056,0.502,0.165c0.552,0.404,1.031,0.794,1.424,1.158c0.234,0.216,0.327,0.545,0.242,0.852
			s-0.335,0.54-0.647,0.604c-0.269,0.056-0.553,0.137-0.847,0.22l-0.358,0.1c-1.611,0.459-2.976,0.799-4.289,1.067l0.161,2.01
			l2.081-0.167c1.616-0.13,2.96-0.256,3.997-0.375c0.033-0.004,0.065-0.006,0.098-0.006c0.196,0,0.387,0.068,0.54,0.193
			c0.178,0.146,0.29,0.359,0.308,0.588l0.095,1.176c0.019,0.23-0.057,0.458-0.209,0.63c-0.152,0.173-0.369,0.277-0.599,0.288
			c-0.659,0.031-1.89,0.098-4.008,0.268l-2.081,0.167l0.127,1.579l1.543-0.124c1.518-0.122,2.759-0.239,3.795-0.36
			c0.033-0.004,0.065-0.006,0.098-0.006c0.203,0,0.4,0.073,0.555,0.206c0.18,0.155,0.287,0.378,0.295,0.616
			c0.015,0.461,0.049,1.234,0.146,2.438l0.308,3.839c0.098,1.213,0.19,2,0.249,2.467c0.03,0.235-0.041,0.473-0.194,0.654
			c-0.153,0.182-0.375,0.291-0.612,0.301c-0.384,0.017-1.554,0.069-3.807,0.25l-1.543,0.124l0.124,1.543l1.327-0.106
			c1.58-0.127,2.852-0.247,3.888-0.368c0.033-0.004,0.065-0.006,0.098-0.006c0.196,0,0.387,0.068,0.539,0.193
			c0.179,0.146,0.29,0.359,0.309,0.589l0.096,1.179c0.019,0.23-0.057,0.458-0.21,0.631s-0.369,0.277-0.6,0.287
			c-0.388,0.017-1.569,0.07-3.897,0.257l-1.329,0.106l0.139,1.723c1.556-0.3,3.18-0.654,4.827-1.052
			c0.066-0.016,0.133-0.024,0.2-0.024c0.202,0,0.399,0.072,0.556,0.207c0.208,0.179,0.316,0.448,0.292,0.721
			c-0.015,0.161-0.026,0.319-0.034,0.473l-0.047,0.56c-0.003,0.036-0.008,0.072-0.016,0.107l0.008-0.01
			c1.67-2.273,2.766-4.931,3.446-8.365c0.386-2.154,0.547-5.443,0.45-9.245h0c-1.373,0.133-2.186,0.222-2.635,0.272
			c-0.032,0.003-0.063,0.005-0.094,0.005c-0.196,0-0.388-0.068-0.541-0.194c-0.177-0.146-0.288-0.358-0.307-0.587l-0.136-1.683
			c-0.019-0.232,0.058-0.461,0.212-0.634c0.155-0.174,0.374-0.276,0.605-0.285c0.47-0.016,1.336-0.055,2.778-0.17l0,0
			c-0.036-0.442-0.063-0.886-0.091-1.337c-0.033-0.543-0.063-1.031-0.104-1.536c-0.139-1.736-0.25-2.844-0.472-4.083
			c-0.043-0.243,0.021-0.493,0.177-0.685s0.387-0.307,0.634-0.314c0.407-0.012,0.799-0.019,1.197-0.019
			c0.353,0,0.71,0.005,1.083,0.015c0.25,0.007,0.486,0.124,0.642,0.32c0.156,0.196,0.218,0.452,0.169,0.698
			c-0.001,0.006-0.058,0.229-0.058,0.229c-0.117,0.379-0.086,1.6,0.08,3.669c0.081,1.011,0.15,1.887,0.186,2.766l2.045-0.164
			c1.387-0.111,2.509-0.219,3.43-0.329c0.034-0.004,0.067-0.006,0.101-0.006c0.202,0,0.398,0.072,0.553,0.204
			c0.181,0.154,0.288,0.377,0.297,0.615c0.038,1.028,0.111,1.942,0.188,2.904c0.529,7.065,0.618,12.324,0.279,16.554
			c-0.253,2.771-1.561,4.098-4.24,4.312c-0.744,0.06-1.352,0.073-1.958,0.086c-0.001,0-0.121,0-0.125,0
			c-0.405,0-0.761-0.285-0.84-0.684c-0.027-0.137-0.058-0.311-0.087-0.483c-0.098-0.402-0.211-0.79-0.339-1.144
			c-0.096-0.265-0.054-0.561,0.112-0.789c0.16-0.22,0.416-0.35,0.688-0.35c0.009,0,0.019,0,0.029,0
			c0.193,0.007,0.381,0.01,0.568,0.01c0.348,0,0.685-0.012,1.03-0.04c1.122-0.089,1.647-0.812,1.757-2.416
			c0.295-3.548,0.193-8.39-0.32-15.25l-3.014,0.242c0.083,4.115-0.09,7.713-0.502,10.404c-0.667,4.107-2.22,7.788-4.491,10.651
			l-0.139,0.161c-0.168,0.188-0.401,0.285-0.636,0.285c-0.197,0-0.396-0.068-0.556-0.208c0,0-0.13-0.113-0.145-0.127
			c-0.408-0.401-0.871-0.748-1.376-1.033c-0.212-0.119-0.363-0.324-0.414-0.562c-0.051-0.238,0.002-0.486,0.146-0.682l0.316-0.431
			c-0.034,0.019-0.07,0.037-0.107,0.051c-0.129,0.051-0.346,0.105-0.566,0.152c-3.587,1.014-8.234,2.092-12.374,2.87l-0.146,0.031
			c-0.467,0.1-0.949,0.203-1.135,0.309C16.843,82.281,16.697,82.319,16.551,82.319z M19.061,69.416l2.979-0.239l-0.152-1.902
			l-2.979,0.239L19.061,69.416z M25.268,68.918l3.122-0.25l-0.152-1.902l-3.122,0.25L25.268,68.918z M18.741,65.433l2.979-0.239
			l-0.149-1.866l-2.979,0.239L18.741,65.433z M24.948,64.936l3.122-0.25l-0.149-1.866l-3.122,0.25L24.948,64.936z"/>
		<path fill="none" stroke="#000000" stroke-width="3" d="M53.373,80.71c-0.204,0-0.403-0.074-0.558-0.209
			c-0.172-0.15-0.277-0.363-0.291-0.592c-0.043-0.731-0.173-2.956-0.466-6.603l-0.94-11.733c-0.142-1.776-0.286-3.111-0.44-4.083
			c-0.039-0.243,0.03-0.491,0.188-0.68c0.158-0.188,0.39-0.299,0.636-0.304c0.349-0.007,0.68-0.011,1.002-0.011
			c0.481,0,0.944,0.009,1.422,0.027c0.278,0.011,0.534,0.157,0.684,0.391s0.176,0.527,0.069,0.784l-0.041,0.098
			c-0.2,0.404-0.089,1.999,0.051,3.743l1.102,13.742l22.892-1.835l-1.107-13.813c-0.145-1.797-0.296-3.191-0.462-4.264
			c-0.038-0.243,0.03-0.49,0.188-0.678s0.39-0.298,0.635-0.303c0.381-0.008,0.745-0.012,1.103-0.012
			c0.462,0,0.912,0.008,1.364,0.025c0.287,0.011,0.549,0.167,0.696,0.413c0.148,0.247,0.161,0.552,0.034,0.81
			c-0.166,0.34-0.157,1.393,0.032,3.756l0.918,11.446c0.296,3.687,0.522,5.927,0.597,6.663c0.023,0.227-0.046,0.454-0.192,0.63
			c-0.146,0.175-0.357,0.285-0.585,0.303c0,0-2.001,0.161-2.024,0.161c-0.438,0-0.811-0.337-0.847-0.782l-0.08-0.983l-22.891,1.835
			l0.079,0.981c0.038,0.468-0.311,0.877-0.779,0.916C55.361,80.552,53.396,80.71,53.373,80.71z M59.105,72.398
			c-0.201,0-0.397-0.072-0.552-0.204c-0.179-0.153-0.287-0.375-0.297-0.61c-0.025-0.591-0.078-1.66-0.216-3.38l-0.653-8.145
			c-0.142-1.772-0.262-2.834-0.329-3.407c-0.027-0.234,0.044-0.47,0.197-0.65c0.153-0.18,0.374-0.288,0.609-0.299
			c0.401-0.018,1.621-0.074,4.028-0.267l2.009-0.161l-0.281-3.516l-9.006,0.722c-1.661,0.133-2.992,0.258-4.069,0.382
			c-0.032,0.004-0.065,0.006-0.097,0.006c-0.196,0-0.387-0.068-0.54-0.193c-0.178-0.146-0.289-0.359-0.308-0.589l-0.147-1.826
			c-0.019-0.23,0.057-0.458,0.209-0.63c0.153-0.173,0.369-0.277,0.6-0.288c1.086-0.049,2.42-0.138,4.079-0.271l21.528-1.726
			c1.684-0.135,3.015-0.26,4.07-0.382c0.032-0.004,0.065-0.006,0.098-0.006c0.196,0,0.387,0.068,0.54,0.194
			c0.179,0.146,0.289,0.359,0.308,0.589l0.146,1.825c0.019,0.229-0.058,0.457-0.21,0.63c-0.152,0.173-0.369,0.277-0.6,0.287
			c-1.061,0.048-2.396,0.137-4.078,0.271l-9.186,0.736l0.281,3.516l2.19-0.175c1.665-0.134,2.991-0.258,4.053-0.381
			c0.032-0.004,0.065-0.006,0.098-0.006c0.201,0,0.397,0.072,0.552,0.204c0.18,0.153,0.288,0.375,0.298,0.61
			c0.024,0.561,0.076,1.652,0.218,3.416l0.653,8.145c0.138,1.71,0.259,2.8,0.325,3.372c0.027,0.234-0.044,0.47-0.197,0.65
			c-0.153,0.18-0.374,0.288-0.609,0.298c-1.06,0.047-2.388,0.135-4.062,0.269l-7.535,0.604c-2.399,0.192-3.618,0.332-4.018,0.378
			C59.17,72.396,59.138,72.398,59.105,72.398z M61.37,69.202l3.66-0.293l-0.331-4.126l-3.66,0.293L61.37,69.202z M68.295,68.646
			l3.839-0.308l-0.331-4.126l-3.839,0.308L68.295,68.646z M60.818,62.312l3.659-0.293l-0.305-3.803l-3.66,0.293L60.818,62.312z
			 M67.743,61.757l3.839-0.308l-0.306-3.803l-3.839,0.308L67.743,61.757z"/>
		<path fill="none" stroke="#000000" stroke-width="3" d="M90.957,76.457c-0.081,0-0.162-0.012-0.242-0.035
			c-0.25-0.075-0.453-0.26-0.549-0.503c-0.278-0.705-0.558-1.562-0.83-2.55c-0.067-0.245-0.021-0.507,0.124-0.714
			s0.377-0.339,0.63-0.359c0.891-0.07,1.866-0.176,3.068-0.333c0.166-0.014,0.332-0.036,0.498-0.058
			c0.193-0.025,0.351-0.046,0.502-0.058c1.661-4.561,3.009-8.934,3.697-11.997c0.269-1.127,0.47-2.06,0.584-2.98
			c0.028-0.228,0.146-0.434,0.329-0.573c0.149-0.113,0.33-0.173,0.515-0.173c0.042,0,0.083,0.003,0.125,0.009
			c1.057,0.151,2.003,0.286,2.94,0.479c0.282,0.058,0.516,0.256,0.62,0.524c0.105,0.269,0.066,0.572-0.103,0.806
			c-0.253,0.35-0.437,0.781-0.729,1.708c-1.273,4.449-2.485,8.227-3.698,11.528l0,0c3.727-0.595,7.52-1.261,10.968-1.926l0,0
			c-1.364-1.798-2.552-3.266-3.736-4.621c-0.158-0.181-0.232-0.419-0.205-0.657c0.027-0.238,0.154-0.454,0.349-0.594l1.736-1.247
			c0.149-0.107,0.323-0.16,0.496-0.16c0.228,0,0.453,0.091,0.619,0.267c2.797,2.968,5.294,6.14,8.095,10.285
			c0.263,0.387,0.162,0.914-0.224,1.178l-2.153,1.475c-0.143,0.098-0.311,0.149-0.48,0.149c-0.061,0-0.121-0.007-0.182-0.02
			c-0.229-0.05-0.427-0.192-0.548-0.393c-0.552-0.92-1.11-1.793-1.652-2.64l-0.076-0.117c-5.611,1.3-11.903,2.534-18.7,3.666
			c-0.584,0.106-0.975,0.249-1.295,0.477C91.304,76.403,91.132,76.457,90.957,76.457z M88.108,63.087
			c-0.243-0.025-0.464-0.154-0.605-0.353l0.693-0.493l-0.73,0.44c-0.493-0.684-0.979-1.24-1.442-1.663
			c-0.185-0.167-0.286-0.408-0.277-0.657c0.008-0.249,0.125-0.481,0.319-0.637c3.832-3.058,6.868-7.294,8.549-11.93
			c0.189-0.496,0.314-0.952,0.425-1.538c0.043-0.226,0.175-0.425,0.366-0.552c0.141-0.093,0.304-0.142,0.47-0.142
			c0.061,0,0.122,0.007,0.182,0.02c1.017,0.223,1.883,0.463,2.575,0.715c0.266,0.097,0.467,0.319,0.535,0.593
			c0.068,0.274-0.004,0.564-0.192,0.775c-0.269,0.298-0.423,0.651-0.569,1.017c-2.27,5.75-5.374,10.347-9.491,14.049l-0.142,0.134
			c-0.157,0.146-0.363,0.226-0.576,0.226C88.167,63.092,88.138,63.09,88.108,63.087z M116.45,60.597
			c-0.17,0-0.339-0.051-0.482-0.148l0.479-0.703l-0.488,0.697c-5.333-3.422-9.744-8.112-12.763-13.568
			c-0.111-0.201-0.137-0.439-0.069-0.659c0.066-0.22,0.22-0.404,0.424-0.509l1.851-0.953c0.125-0.064,0.258-0.095,0.389-0.095
			c0.302,0,0.593,0.161,0.747,0.443c2.619,4.789,6.851,8.99,11.609,11.524c0.215,0.114,0.371,0.315,0.428,0.552
			s0.009,0.486-0.131,0.686c-0.486,0.696-0.895,1.52-1.151,2.088l-0.064,0.145c-0.103,0.229-0.305,0.4-0.547,0.468
			C116.604,60.586,116.527,60.597,116.45,60.597z"/>
		<path fill="none" stroke="#000000" stroke-width="3" d="M125.147,75.028c-0.204,0-0.402-0.074-0.558-0.208
			c-0.172-0.149-0.277-0.362-0.291-0.591c-0.055-0.895-0.198-3.271-0.521-7.286l-1.248-15.572c-0.223-2.77-0.441-5.237-0.651-7.333
			c-0.023-0.232,0.05-0.464,0.202-0.641c0.152-0.176,0.37-0.283,0.604-0.294c0.645-0.03,1.886-0.093,3.785-0.245l4.987-0.4
			c1.553-0.125,2.524-0.233,3.08-0.299c0.033-0.004,0.067-0.006,0.101-0.006c0.201,0,0.396,0.071,0.552,0.203
			c0.18,0.153,0.288,0.375,0.298,0.612c0.022,0.534,0.064,1.472,0.183,2.944l0.34,4.234c0.116,1.448,0.222,2.375,0.285,2.899
			c0.027,0.235-0.044,0.472-0.197,0.652c-0.153,0.18-0.375,0.289-0.612,0.298c-0.56,0.023-1.535,0.071-3.088,0.196l-5.884,0.472
			l0.96,11.984c0.224,2.781,0.441,5.228,0.646,7.274c0.023,0.227-0.046,0.454-0.192,0.629c-0.146,0.176-0.357,0.285-0.585,0.303
			C127.343,74.854,125.17,75.028,125.147,75.028z M126.31,52.116l6.278-0.503l-0.167-2.082l-6.278,0.503L126.31,52.116z
			 M125.949,47.63l6.279-0.503l-0.164-2.045l-6.279,0.503L125.949,47.63z M132.899,73.543c-0.2,0-0.4-0.07-0.562-0.211l-0.229-0.199
			c-0.297-0.251-0.691-0.523-1.136-0.78c-0.231-0.133-0.387-0.368-0.419-0.633c-0.033-0.265,0.062-0.53,0.254-0.716
			c1.358-1.307,2.17-2.873,2.482-4.787l0.02-0.652c-1.833,0.171-2.886,0.279-3.433,0.337c-0.029,0.003-0.06,0.005-0.089,0.005
			c-0.197,0-0.39-0.069-0.543-0.196c-0.177-0.146-0.286-0.358-0.305-0.586l-0.101-1.256c-0.019-0.23,0.058-0.458,0.211-0.631
			c0.153-0.173,0.37-0.276,0.602-0.286c0.945-0.04,2.16-0.119,3.609-0.235c-0.036-0.9-0.089-2.015-0.189-3.271l0,0
			c-1.409,0.136-2.249,0.228-2.71,0.278c-0.031,0.003-0.062,0.005-0.093,0.005c-0.196,0-0.389-0.068-0.542-0.195
			c-0.177-0.146-0.287-0.358-0.306-0.587l-0.102-1.257c-0.019-0.23,0.058-0.458,0.21-0.631c0.153-0.173,0.369-0.277,0.601-0.287
			c0.393-0.017,1.588-0.07,4.041-0.267l7.679-0.616c1.651-0.132,2.958-0.255,3.995-0.376c0.033-0.004,0.066-0.006,0.099-0.006
			c0.195,0,0.387,0.068,0.539,0.193c0.179,0.146,0.29,0.359,0.309,0.589l0.102,1.256c0.019,0.229-0.057,0.456-0.208,0.628
			s-0.366,0.277-0.595,0.289c-0.493,0.026-1.38,0.074-2.829,0.167l0.263,3.265c1.431-0.115,2.642-0.23,3.599-0.344
			c0.033-0.004,0.066-0.006,0.1-0.006c0.195,0,0.386,0.067,0.539,0.192c0.179,0.146,0.29,0.359,0.309,0.589l0.102,1.249
			c0.019,0.23-0.058,0.458-0.21,0.632c-0.153,0.173-0.371,0.277-0.602,0.287c-0.962,0.041-2.177,0.12-3.609,0.235l0.268,3.337
			c0.14,1.743,0.266,2.859,0.331,3.421c0.026,0.229-0.041,0.46-0.188,0.638c-0.146,0.179-0.358,0.29-0.589,0.309
			c0,0-1.767,0.142-1.789,0.142c-0.207,0-0.407-0.076-0.563-0.213c-0.173-0.153-0.276-0.37-0.286-0.601
			c-0.025-0.585-0.076-1.679-0.218-3.431l-0.268-3.337l-3.768,0.302c-0.026,0.605-0.059,1.102-0.127,1.562
			c-0.312,2.345-1.298,4.469-2.926,6.301l-0.128,0.136C133.336,73.459,133.118,73.543,132.899,73.543z M136.48,59.172
			c0.098,1.22,0.151,2.334,0.189,3.271l3.553-0.284l-0.262-3.265L136.48,59.172z M148.272,72.773c-0.378,0-0.713-0.25-0.817-0.616
			c-0.039-0.137-0.082-0.31-0.109-0.424c-0.122-0.488-0.265-0.932-0.434-1.351c-0.105-0.26-0.076-0.555,0.079-0.789
			s0.415-0.376,0.695-0.38c0.443-0.007,0.854-0.031,1.259-0.063c0.58-0.046,0.968-0.177,1.153-0.388
			c0.179-0.203,0.248-0.583,0.204-1.129l-1.186-14.783l-5.884,0.472c-1.407,0.113-2.543,0.221-3.472,0.332
			c-0.033,0.004-0.067,0.006-0.101,0.006c-0.202,0-0.398-0.072-0.554-0.205c-0.181-0.155-0.288-0.378-0.296-0.616
			c-0.017-0.469-0.054-1.281-0.16-2.617l-0.386-4.808c-0.108-1.351-0.204-2.17-0.263-2.647c-0.029-0.236,0.042-0.473,0.195-0.654
			s0.376-0.29,0.613-0.299c0.936-0.039,2.074-0.112,3.482-0.225l5.272-0.423c1.41-0.113,2.549-0.222,3.481-0.333
			c0.034-0.004,0.067-0.006,0.101-0.006c0.2,0,0.395,0.07,0.549,0.201c0.18,0.152,0.289,0.372,0.301,0.607
			c0.035,0.693,0.111,2.134,0.295,4.425l1.234,15.392c0.109,1.367,0.256,2.667,0.39,3.85c0.112,0.992,0.215,1.903,0.279,2.705
			c0.146,1.815-0.043,2.637-0.775,3.385c-0.795,0.811-1.884,1.126-4.658,1.348C148.534,72.759,148.284,72.773,148.272,72.773z
			 M142.24,50.838l6.673-0.535l-0.167-2.082l-6.673,0.535L142.24,50.838z M141.88,46.353l6.674-0.535l-0.164-2.045l-6.674,0.535
			L141.88,46.353z"/>
		<path fill="none" stroke="#000000" stroke-width="3" d="M173.844,71.124c-0.204,0-0.403-0.074-0.559-0.209
			c-0.173-0.15-0.277-0.364-0.29-0.592c-0.039-0.669-0.156-2.706-0.428-6.099l-0.36-4.485l-7.93,0.636l0.099,1.231
			c0.038,0.468-0.312,0.878-0.779,0.916c0,0-2.177,0.175-2.199,0.175c-0.206,0-0.405-0.075-0.561-0.211
			c-0.174-0.152-0.277-0.367-0.289-0.597c-0.062-1.271-0.225-3.55-0.469-6.593l-0.296-3.695c-0.152-1.897-0.294-3.419-0.419-4.523
			c-0.026-0.234,0.045-0.468,0.197-0.647c0.152-0.179,0.372-0.288,0.606-0.299c0.441-0.021,1.783-0.085,4.389-0.294l6.494-0.521
			l-0.192-2.404c-0.128-1.589-0.26-2.667-0.441-3.605c-0.047-0.244,0.015-0.496,0.169-0.69c0.153-0.194,0.385-0.312,0.633-0.321
			c0.684-0.027,1.315-0.041,1.888-0.041c0.287,0,0.568,0.004,0.84,0.011c0.267,0.007,0.514,0.138,0.669,0.354s0.2,0.493,0.122,0.747
			c-0.169,0.545-0.187,1.4-0.062,2.95l0.216,2.691l6.961-0.558c2.62-0.21,3.943-0.359,4.378-0.409
			c0.032-0.003,0.064-0.005,0.096-0.005c0.201,0,0.397,0.072,0.552,0.204c0.18,0.153,0.287,0.373,0.298,0.608
			c0.019,0.402,0.074,1.625,0.262,3.957l0.334,4.163c0.24,3.004,0.436,5.196,0.58,6.513c0.024,0.228-0.044,0.457-0.19,0.634
			c-0.146,0.177-0.357,0.288-0.587,0.306c0,0-2.175,0.175-2.198,0.175c-0.438,0-0.811-0.337-0.847-0.782l-0.086-1.054l-8.396,0.673
			l0.354,4.413c0.187,2.315,0.378,4.445,0.556,6.159c0.023,0.228-0.046,0.455-0.191,0.631c-0.146,0.176-0.357,0.286-0.586,0.304
			C176.179,70.938,173.866,71.124,173.844,71.124z M163.999,56.894l7.93-0.636l-0.599-7.463l-7.93,0.636L163.999,56.894z
			 M175.768,55.951l8.396-0.673l-0.599-7.463l-8.396,0.673L175.768,55.951z"/>
		<path fill="none" stroke="#000000" stroke-width="3" d="M206.558,65.757c-0.438,0-0.811-0.337-0.847-0.783l-0.253-3.149
			c-0.019-0.225,0.054-0.447,0.2-0.619s0.354-0.278,0.579-0.296c0,0,3.446-0.275,3.469-0.275c0.201,0,0.397,0.072,0.552,0.203
			c0.171,0.146,0.278,0.355,0.296,0.58l0.252,3.149c0.037,0.468-0.312,0.878-0.779,0.916
			C210.026,65.482,206.58,65.757,206.558,65.757z M206.615,57.917c-0.425,0-0.79-0.317-0.843-0.747l-2.26-18.298
			c-0.028-0.23,0.038-0.461,0.185-0.641s0.36-0.292,0.591-0.311c0,0,3.861-0.309,3.884-0.309c0.209,0,0.412,0.078,0.569,0.219
			c0.174,0.156,0.275,0.377,0.281,0.611l0.454,18.443c0.011,0.451-0.333,0.833-0.782,0.869
			C208.694,57.752,206.638,57.917,206.615,57.917z"/>
		<path fill="none" stroke="#000000" stroke-width="3" d="M219.476,64.722c-0.438,0-0.811-0.337-0.847-0.783l-0.253-3.149
			c-0.019-0.225,0.054-0.447,0.2-0.619s0.354-0.278,0.579-0.296c0,0,3.446-0.275,3.469-0.275c0.201,0,0.397,0.072,0.552,0.203
			c0.171,0.146,0.278,0.355,0.296,0.58l0.252,3.149c0.037,0.468-0.312,0.878-0.779,0.916
			C222.944,64.446,219.498,64.722,219.476,64.722z M219.533,56.881c-0.425,0-0.79-0.317-0.843-0.747l-2.26-18.298
			c-0.028-0.23,0.038-0.461,0.185-0.641s0.36-0.292,0.591-0.311c0,0,3.861-0.309,3.884-0.309c0.209,0,0.412,0.078,0.569,0.219
			c0.174,0.156,0.275,0.377,0.281,0.611l0.454,18.443c0.011,0.451-0.333,0.833-0.782,0.869
			C221.612,56.717,219.556,56.881,219.533,56.881z"/>
	</g>
	<g>
		<path fill="#FFFFFF" d="M16.551,82.319c-0.105,0-0.211-0.02-0.312-0.06c-0.24-0.095-0.424-0.293-0.5-0.54
			c-0.166-0.535-0.351-1.185-0.537-1.89c-0.065-0.246-0.017-0.508,0.132-0.715s0.382-0.335,0.636-0.352
			c1.001-0.063,1.831-0.169,2.733-0.29l0.385-0.053c1.171-0.162,2.372-0.328,3.647-0.56l-0.167-2.082l-2.117,0.17
			c-1.586,0.127-2.858,0.247-3.888,0.367c-0.033,0.004-0.066,0.006-0.099,0.006c-0.196,0-0.387-0.068-0.54-0.193
			c-0.178-0.146-0.29-0.359-0.308-0.589l-0.095-1.178c-0.019-0.23,0.057-0.458,0.21-0.631c0.153-0.173,0.37-0.277,0.6-0.287
			c1.037-0.045,2.312-0.13,3.898-0.257l2.117-0.17l-0.124-1.543l-1.435,0.115c-2.314,0.185-3.458,0.319-3.834,0.363
			c-0.033,0.004-0.066,0.006-0.099,0.006c-0.203,0-0.399-0.072-0.555-0.206c-0.18-0.155-0.287-0.378-0.295-0.616
			c-0.016-0.467-0.049-1.248-0.147-2.474l-0.308-3.839c-0.097-1.206-0.186-1.973-0.244-2.431c-0.03-0.236,0.041-0.474,0.194-0.655
			s0.375-0.291,0.613-0.301c1.023-0.044,2.279-0.126,3.84-0.251l1.435-0.115l-0.126-1.579l-2.655,0.213
			c-1.671,0.134-3.002,0.259-4.068,0.382c-0.033,0.004-0.065,0.006-0.098,0.006c-0.196,0-0.387-0.068-0.54-0.193
			c-0.178-0.146-0.29-0.359-0.308-0.588l-0.096-1.18c-0.019-0.23,0.057-0.458,0.209-0.631c0.153-0.173,0.369-0.277,0.6-0.288
			c0.4-0.018,1.619-0.074,4.079-0.271l2.655-0.213l-0.13-1.615c-1.508,0.263-3.067,0.535-4.6,0.73
			c-0.171,0.026-0.305,0.047-0.415,0.059c-0.03,0.003-0.061,0.005-0.091,0.005c-0.326,0-0.627-0.188-0.769-0.487l-0.117-0.26
			c-0.118-0.257-0.252-0.499-0.392-0.719c-0.156-0.247-0.175-0.556-0.05-0.819c0.125-0.264,0.376-0.445,0.666-0.48
			c4.296-0.525,7.72-1.206,11.102-2.21c0.523-0.164,1.015-0.349,1.488-0.562c0.111-0.05,0.23-0.075,0.348-0.075
			c0.178,0,0.354,0.056,0.502,0.165c0.552,0.404,1.031,0.794,1.424,1.158c0.234,0.216,0.327,0.545,0.242,0.852
			s-0.335,0.54-0.647,0.604c-0.269,0.056-0.553,0.137-0.847,0.22l-0.358,0.1c-1.611,0.459-2.976,0.799-4.289,1.067l0.161,2.01
			l2.081-0.167c1.616-0.13,2.96-0.256,3.997-0.375c0.033-0.004,0.065-0.006,0.098-0.006c0.196,0,0.387,0.068,0.54,0.193
			c0.178,0.146,0.29,0.359,0.308,0.588l0.095,1.176c0.019,0.23-0.057,0.458-0.209,0.63c-0.152,0.173-0.369,0.277-0.599,0.288
			c-0.659,0.031-1.89,0.098-4.008,0.268l-2.081,0.167l0.127,1.579l1.543-0.124c1.518-0.122,2.759-0.239,3.795-0.36
			c0.033-0.004,0.065-0.006,0.098-0.006c0.203,0,0.4,0.073,0.555,0.206c0.18,0.155,0.287,0.378,0.295,0.616
			c0.015,0.461,0.049,1.234,0.146,2.438l0.308,3.839c0.098,1.213,0.19,2,0.249,2.467c0.03,0.235-0.041,0.473-0.194,0.654
			c-0.153,0.182-0.375,0.291-0.612,0.301c-0.384,0.017-1.554,0.069-3.807,0.25l-1.543,0.124l0.124,1.543l1.327-0.106
			c1.58-0.127,2.852-0.247,3.888-0.368c0.033-0.004,0.065-0.006,0.098-0.006c0.196,0,0.387,0.068,0.539,0.193
			c0.179,0.146,0.29,0.359,0.309,0.589l0.096,1.179c0.019,0.23-0.057,0.458-0.21,0.631s-0.369,0.277-0.6,0.287
			c-0.388,0.017-1.569,0.07-3.897,0.257l-1.329,0.106l0.139,1.723c1.556-0.3,3.18-0.654,4.827-1.052
			c0.066-0.016,0.133-0.024,0.2-0.024c0.202,0,0.399,0.072,0.556,0.207c0.208,0.179,0.316,0.448,0.292,0.721
			c-0.015,0.161-0.026,0.319-0.034,0.473l-0.047,0.56c-0.003,0.036-0.008,0.072-0.016,0.107l0.008-0.01
			c1.67-2.273,2.766-4.931,3.446-8.365c0.386-2.154,0.547-5.443,0.45-9.245h0c-1.373,0.133-2.186,0.222-2.635,0.272
			c-0.032,0.003-0.063,0.005-0.094,0.005c-0.196,0-0.388-0.068-0.541-0.194c-0.177-0.146-0.288-0.358-0.307-0.587l-0.136-1.683
			c-0.019-0.232,0.058-0.461,0.212-0.634c0.155-0.174,0.374-0.276,0.605-0.285c0.47-0.016,1.336-0.055,2.778-0.17l0,0
			c-0.036-0.442-0.063-0.886-0.091-1.337c-0.033-0.543-0.063-1.031-0.104-1.536c-0.139-1.736-0.25-2.844-0.472-4.083
			c-0.043-0.243,0.021-0.493,0.177-0.685s0.387-0.307,0.634-0.314c0.407-0.012,0.799-0.019,1.197-0.019
			c0.353,0,0.71,0.005,1.083,0.015c0.25,0.007,0.486,0.124,0.642,0.32c0.156,0.196,0.218,0.452,0.169,0.698
			c-0.001,0.006-0.058,0.229-0.058,0.229c-0.117,0.379-0.086,1.6,0.08,3.669c0.081,1.011,0.15,1.887,0.186,2.766l2.045-0.164
			c1.387-0.111,2.509-0.219,3.43-0.329c0.034-0.004,0.067-0.006,0.101-0.006c0.202,0,0.398,0.072,0.553,0.204
			c0.181,0.154,0.288,0.377,0.297,0.615c0.038,1.028,0.111,1.942,0.188,2.904c0.529,7.065,0.618,12.324,0.279,16.554
			c-0.253,2.771-1.561,4.098-4.24,4.312c-0.744,0.06-1.352,0.073-1.958,0.086c-0.001,0-0.121,0-0.125,0
			c-0.405,0-0.761-0.285-0.84-0.684c-0.027-0.137-0.058-0.311-0.087-0.483c-0.098-0.402-0.211-0.79-0.339-1.144
			c-0.096-0.265-0.054-0.561,0.112-0.789c0.16-0.22,0.416-0.35,0.688-0.35c0.009,0,0.019,0,0.029,0
			c0.193,0.007,0.381,0.01,0.568,0.01c0.348,0,0.685-0.012,1.03-0.04c1.122-0.089,1.647-0.812,1.757-2.416
			c0.295-3.548,0.193-8.39-0.32-15.25l-3.014,0.242c0.083,4.115-0.09,7.713-0.502,10.404c-0.667,4.107-2.22,7.788-4.491,10.651
			l-0.139,0.161c-0.168,0.188-0.401,0.285-0.636,0.285c-0.197,0-0.396-0.068-0.556-0.208c0,0-0.13-0.113-0.145-0.127
			c-0.408-0.401-0.871-0.748-1.376-1.033c-0.212-0.119-0.363-0.324-0.414-0.562c-0.051-0.238,0.002-0.486,0.146-0.682l0.316-0.431
			c-0.034,0.019-0.07,0.037-0.107,0.051c-0.129,0.051-0.346,0.105-0.566,0.152c-3.587,1.014-8.234,2.092-12.374,2.87l-0.146,0.031
			c-0.467,0.1-0.949,0.203-1.135,0.309C16.843,82.281,16.697,82.319,16.551,82.319z M19.061,69.416l2.979-0.239l-0.152-1.902
			l-2.979,0.239L19.061,69.416z M25.268,68.918l3.122-0.25l-0.152-1.902l-3.122,0.25L25.268,68.918z M18.741,65.433l2.979-0.239
			l-0.149-1.866l-2.979,0.239L18.741,65.433z M24.948,64.936l3.122-0.25l-0.149-1.866l-3.122,0.25L24.948,64.936z"/>
		<path fill="#FFFFFF" d="M53.373,80.71c-0.204,0-0.403-0.074-0.558-0.209c-0.172-0.15-0.277-0.363-0.291-0.592
			c-0.043-0.731-0.173-2.956-0.466-6.603l-0.94-11.733c-0.142-1.776-0.286-3.111-0.44-4.083c-0.039-0.243,0.03-0.491,0.188-0.68
			c0.158-0.188,0.39-0.299,0.636-0.304c0.349-0.007,0.68-0.011,1.002-0.011c0.481,0,0.944,0.009,1.422,0.027
			c0.278,0.011,0.534,0.157,0.684,0.391s0.176,0.527,0.069,0.784l-0.041,0.098c-0.2,0.404-0.089,1.999,0.051,3.743l1.102,13.742
			l22.892-1.835l-1.107-13.813c-0.145-1.797-0.296-3.191-0.462-4.264c-0.038-0.243,0.03-0.49,0.188-0.678s0.39-0.298,0.635-0.303
			c0.381-0.008,0.745-0.012,1.103-0.012c0.462,0,0.912,0.008,1.364,0.025c0.287,0.011,0.549,0.167,0.696,0.413
			c0.148,0.247,0.161,0.552,0.034,0.81c-0.166,0.34-0.157,1.393,0.032,3.756l0.918,11.446c0.296,3.687,0.522,5.927,0.597,6.663
			c0.023,0.227-0.046,0.454-0.192,0.63c-0.146,0.175-0.357,0.285-0.585,0.303c0,0-2.001,0.161-2.024,0.161
			c-0.438,0-0.811-0.337-0.847-0.782l-0.08-0.983l-22.891,1.835l0.079,0.981c0.038,0.468-0.311,0.877-0.779,0.916
			C55.361,80.552,53.396,80.71,53.373,80.71z M59.105,72.398c-0.201,0-0.397-0.072-0.552-0.204c-0.179-0.153-0.287-0.375-0.297-0.61
			c-0.025-0.591-0.078-1.66-0.216-3.38l-0.653-8.145c-0.142-1.772-0.262-2.834-0.329-3.407c-0.027-0.234,0.044-0.47,0.197-0.65
			c0.153-0.18,0.374-0.288,0.609-0.299c0.401-0.018,1.621-0.074,4.028-0.267l2.009-0.161l-0.281-3.516l-9.006,0.722
			c-1.661,0.133-2.992,0.258-4.069,0.382c-0.032,0.004-0.065,0.006-0.097,0.006c-0.196,0-0.387-0.068-0.54-0.193
			c-0.178-0.146-0.289-0.359-0.308-0.589l-0.147-1.826c-0.019-0.23,0.057-0.458,0.209-0.63c0.153-0.173,0.369-0.277,0.6-0.288
			c1.086-0.049,2.42-0.138,4.079-0.271l21.528-1.726c1.684-0.135,3.015-0.26,4.07-0.382c0.032-0.004,0.065-0.006,0.098-0.006
			c0.196,0,0.387,0.068,0.54,0.194c0.179,0.146,0.289,0.359,0.308,0.589l0.146,1.825c0.019,0.229-0.058,0.457-0.21,0.63
			c-0.152,0.173-0.369,0.277-0.6,0.287c-1.061,0.048-2.396,0.137-4.078,0.271l-9.186,0.736l0.281,3.516l2.19-0.175
			c1.665-0.134,2.991-0.258,4.053-0.381c0.032-0.004,0.065-0.006,0.098-0.006c0.201,0,0.397,0.072,0.552,0.204
			c0.18,0.153,0.288,0.375,0.298,0.61c0.024,0.561,0.076,1.652,0.218,3.416l0.653,8.145c0.138,1.71,0.259,2.8,0.325,3.372
			c0.027,0.234-0.044,0.47-0.197,0.65c-0.153,0.18-0.374,0.288-0.609,0.298c-1.06,0.047-2.388,0.135-4.062,0.269l-7.535,0.604
			c-2.399,0.192-3.618,0.332-4.018,0.378C59.17,72.396,59.138,72.398,59.105,72.398z M61.37,69.202l3.66-0.293l-0.331-4.126
			l-3.66,0.293L61.37,69.202z M68.295,68.646l3.839-0.308l-0.331-4.126l-3.839,0.308L68.295,68.646z M60.818,62.312l3.659-0.293
			l-0.305-3.803l-3.66,0.293L60.818,62.312z M67.743,61.757l3.839-0.308l-0.306-3.803l-3.839,0.308L67.743,61.757z"/>
		<path fill="#FFFFFF" d="M90.957,76.457c-0.081,0-0.162-0.012-0.242-0.035c-0.25-0.075-0.453-0.26-0.549-0.503
			c-0.278-0.705-0.558-1.562-0.83-2.55c-0.067-0.245-0.021-0.507,0.124-0.714s0.377-0.339,0.63-0.359
			c0.891-0.07,1.866-0.176,3.068-0.333c0.166-0.014,0.332-0.036,0.498-0.058c0.193-0.025,0.351-0.046,0.502-0.058
			c1.661-4.561,3.009-8.934,3.697-11.997c0.269-1.127,0.47-2.06,0.584-2.98c0.028-0.228,0.146-0.434,0.329-0.573
			c0.149-0.113,0.33-0.173,0.515-0.173c0.042,0,0.083,0.003,0.125,0.009c1.057,0.151,2.003,0.286,2.94,0.479
			c0.282,0.058,0.516,0.256,0.62,0.524c0.105,0.269,0.066,0.572-0.103,0.806c-0.253,0.35-0.437,0.781-0.729,1.708
			c-1.273,4.449-2.485,8.227-3.698,11.528l0,0c3.727-0.595,7.52-1.261,10.968-1.926l0,0c-1.364-1.798-2.552-3.266-3.736-4.621
			c-0.158-0.181-0.232-0.419-0.205-0.657c0.027-0.238,0.154-0.454,0.349-0.594l1.736-1.247c0.149-0.107,0.323-0.16,0.496-0.16
			c0.228,0,0.453,0.091,0.619,0.267c2.797,2.968,5.294,6.14,8.095,10.285c0.263,0.387,0.162,0.914-0.224,1.178l-2.153,1.475
			c-0.143,0.098-0.311,0.149-0.48,0.149c-0.061,0-0.121-0.007-0.182-0.02c-0.229-0.05-0.427-0.192-0.548-0.393
			c-0.552-0.92-1.11-1.793-1.652-2.64l-0.076-0.117c-5.611,1.3-11.903,2.534-18.7,3.666c-0.584,0.106-0.975,0.249-1.295,0.477
			C91.304,76.403,91.132,76.457,90.957,76.457z M88.108,63.087c-0.243-0.025-0.464-0.154-0.605-0.353l0.693-0.493l-0.73,0.44
			c-0.493-0.684-0.979-1.24-1.442-1.663c-0.185-0.167-0.286-0.408-0.277-0.657c0.008-0.249,0.125-0.481,0.319-0.637
			c3.832-3.058,6.868-7.294,8.549-11.93c0.189-0.496,0.314-0.952,0.425-1.538c0.043-0.226,0.175-0.425,0.366-0.552
			c0.141-0.093,0.304-0.142,0.47-0.142c0.061,0,0.122,0.007,0.182,0.02c1.017,0.223,1.883,0.463,2.575,0.715
			c0.266,0.097,0.467,0.319,0.535,0.593c0.068,0.274-0.004,0.564-0.192,0.775c-0.269,0.298-0.423,0.651-0.569,1.017
			c-2.27,5.75-5.374,10.347-9.491,14.049l-0.142,0.134c-0.157,0.146-0.363,0.226-0.576,0.226
			C88.167,63.092,88.138,63.09,88.108,63.087z M116.45,60.597c-0.17,0-0.339-0.051-0.482-0.148l0.479-0.703l-0.488,0.697
			c-5.333-3.422-9.744-8.112-12.763-13.568c-0.111-0.201-0.137-0.439-0.069-0.659c0.066-0.22,0.22-0.404,0.424-0.509l1.851-0.953
			c0.125-0.064,0.258-0.095,0.389-0.095c0.302,0,0.593,0.161,0.747,0.443c2.619,4.789,6.851,8.99,11.609,11.524
			c0.215,0.114,0.371,0.315,0.428,0.552s0.009,0.486-0.131,0.686c-0.486,0.696-0.895,1.52-1.151,2.088l-0.064,0.145
			c-0.103,0.229-0.305,0.4-0.547,0.468C116.604,60.586,116.527,60.597,116.45,60.597z"/>
		<path fill="#FFFFFF" d="M125.147,75.028c-0.204,0-0.402-0.074-0.558-0.208c-0.172-0.149-0.277-0.362-0.291-0.591
			c-0.055-0.895-0.198-3.271-0.521-7.286l-1.248-15.572c-0.223-2.77-0.441-5.237-0.651-7.333c-0.023-0.232,0.05-0.464,0.202-0.641
			c0.152-0.176,0.37-0.283,0.604-0.294c0.645-0.03,1.886-0.093,3.785-0.245l4.987-0.4c1.553-0.125,2.524-0.233,3.08-0.299
			c0.033-0.004,0.067-0.006,0.101-0.006c0.201,0,0.396,0.071,0.552,0.203c0.18,0.153,0.288,0.375,0.298,0.612
			c0.022,0.534,0.064,1.472,0.183,2.944l0.34,4.234c0.116,1.448,0.222,2.375,0.285,2.899c0.027,0.235-0.044,0.472-0.197,0.652
			c-0.153,0.18-0.375,0.289-0.612,0.298c-0.56,0.023-1.535,0.071-3.088,0.196l-5.884,0.472l0.96,11.984
			c0.224,2.781,0.441,5.228,0.646,7.274c0.023,0.227-0.046,0.454-0.192,0.629c-0.146,0.176-0.357,0.285-0.585,0.303
			C127.343,74.854,125.17,75.028,125.147,75.028z M126.31,52.116l6.278-0.503l-0.167-2.082l-6.278,0.503L126.31,52.116z
			 M125.949,47.63l6.279-0.503l-0.164-2.045l-6.279,0.503L125.949,47.63z M132.899,73.543c-0.2,0-0.4-0.07-0.562-0.211l-0.229-0.199
			c-0.297-0.251-0.691-0.523-1.136-0.78c-0.231-0.133-0.387-0.368-0.419-0.633c-0.033-0.265,0.062-0.53,0.254-0.716
			c1.358-1.307,2.17-2.873,2.482-4.787l0.02-0.652c-1.833,0.171-2.886,0.279-3.433,0.337c-0.029,0.003-0.06,0.005-0.089,0.005
			c-0.197,0-0.39-0.069-0.543-0.196c-0.177-0.146-0.286-0.358-0.305-0.586l-0.101-1.256c-0.019-0.23,0.058-0.458,0.211-0.631
			c0.153-0.173,0.37-0.276,0.602-0.286c0.945-0.04,2.16-0.119,3.609-0.235c-0.036-0.9-0.089-2.015-0.189-3.271l0,0
			c-1.409,0.136-2.249,0.228-2.71,0.278c-0.031,0.003-0.062,0.005-0.093,0.005c-0.196,0-0.389-0.068-0.542-0.195
			c-0.177-0.146-0.287-0.358-0.306-0.587l-0.102-1.257c-0.019-0.23,0.058-0.458,0.21-0.631c0.153-0.173,0.369-0.277,0.601-0.287
			c0.393-0.017,1.588-0.07,4.041-0.267l7.679-0.616c1.651-0.132,2.958-0.255,3.995-0.376c0.033-0.004,0.066-0.006,0.099-0.006
			c0.195,0,0.387,0.068,0.539,0.193c0.179,0.146,0.29,0.359,0.309,0.589l0.102,1.256c0.019,0.229-0.057,0.456-0.208,0.628
			s-0.366,0.277-0.595,0.289c-0.493,0.026-1.38,0.074-2.829,0.167l0.263,3.265c1.431-0.115,2.642-0.23,3.599-0.344
			c0.033-0.004,0.066-0.006,0.1-0.006c0.195,0,0.386,0.067,0.539,0.192c0.179,0.146,0.29,0.359,0.309,0.589l0.102,1.249
			c0.019,0.23-0.058,0.458-0.21,0.632c-0.153,0.173-0.371,0.277-0.602,0.287c-0.962,0.041-2.177,0.12-3.609,0.235l0.268,3.337
			c0.14,1.743,0.266,2.859,0.331,3.421c0.026,0.229-0.041,0.46-0.188,0.638c-0.146,0.179-0.358,0.29-0.589,0.309
			c0,0-1.767,0.142-1.789,0.142c-0.207,0-0.407-0.076-0.563-0.213c-0.173-0.153-0.276-0.37-0.286-0.601
			c-0.025-0.585-0.076-1.679-0.218-3.431l-0.268-3.337l-3.768,0.302c-0.026,0.605-0.059,1.102-0.127,1.562
			c-0.312,2.345-1.298,4.469-2.926,6.301l-0.128,0.136C133.336,73.459,133.118,73.543,132.899,73.543z M136.48,59.172
			c0.098,1.22,0.151,2.334,0.189,3.271l3.553-0.284l-0.262-3.265L136.48,59.172z M148.272,72.773c-0.378,0-0.713-0.25-0.817-0.616
			c-0.039-0.137-0.082-0.31-0.109-0.424c-0.122-0.488-0.265-0.932-0.434-1.351c-0.105-0.26-0.076-0.555,0.079-0.789
			s0.415-0.376,0.695-0.38c0.443-0.007,0.854-0.031,1.259-0.063c0.58-0.046,0.968-0.177,1.153-0.388
			c0.179-0.203,0.248-0.583,0.204-1.129l-1.186-14.783l-5.884,0.472c-1.407,0.113-2.543,0.221-3.472,0.332
			c-0.033,0.004-0.067,0.006-0.101,0.006c-0.202,0-0.398-0.072-0.554-0.205c-0.181-0.155-0.288-0.378-0.296-0.616
			c-0.017-0.469-0.054-1.281-0.16-2.617l-0.386-4.808c-0.108-1.351-0.204-2.17-0.263-2.647c-0.029-0.236,0.042-0.473,0.195-0.654
			s0.376-0.29,0.613-0.299c0.936-0.039,2.074-0.112,3.482-0.225l5.272-0.423c1.41-0.113,2.549-0.222,3.481-0.333
			c0.034-0.004,0.067-0.006,0.101-0.006c0.2,0,0.395,0.07,0.549,0.201c0.18,0.152,0.289,0.372,0.301,0.607
			c0.035,0.693,0.111,2.134,0.295,4.425l1.234,15.392c0.109,1.367,0.256,2.667,0.39,3.85c0.112,0.992,0.215,1.903,0.279,2.705
			c0.146,1.815-0.043,2.637-0.775,3.385c-0.795,0.811-1.884,1.126-4.658,1.348C148.534,72.759,148.284,72.773,148.272,72.773z
			 M142.24,50.838l6.673-0.535l-0.167-2.082l-6.673,0.535L142.24,50.838z M141.88,46.353l6.674-0.535l-0.164-2.045l-6.674,0.535
			L141.88,46.353z"/>
		<path fill="#FFFFFF" d="M173.844,71.124c-0.204,0-0.403-0.074-0.559-0.209c-0.173-0.15-0.277-0.364-0.29-0.592
			c-0.039-0.669-0.156-2.706-0.428-6.099l-0.36-4.485l-7.93,0.636l0.099,1.231c0.038,0.468-0.312,0.878-0.779,0.916
			c0,0-2.177,0.175-2.199,0.175c-0.206,0-0.405-0.075-0.561-0.211c-0.174-0.152-0.277-0.367-0.289-0.597
			c-0.062-1.271-0.225-3.55-0.469-6.593l-0.296-3.695c-0.152-1.897-0.294-3.419-0.419-4.523c-0.026-0.234,0.045-0.468,0.197-0.647
			c0.152-0.179,0.372-0.288,0.606-0.299c0.441-0.021,1.783-0.085,4.389-0.294l6.494-0.521l-0.192-2.404
			c-0.128-1.589-0.26-2.667-0.441-3.605c-0.047-0.244,0.015-0.496,0.169-0.69c0.153-0.194,0.385-0.312,0.633-0.321
			c0.684-0.027,1.315-0.041,1.888-0.041c0.287,0,0.568,0.004,0.84,0.011c0.267,0.007,0.514,0.138,0.669,0.354s0.2,0.493,0.122,0.747
			c-0.169,0.545-0.187,1.4-0.062,2.95l0.216,2.691l6.961-0.558c2.62-0.21,3.943-0.359,4.378-0.409
			c0.032-0.003,0.064-0.005,0.096-0.005c0.201,0,0.397,0.072,0.552,0.204c0.18,0.153,0.287,0.373,0.298,0.608
			c0.019,0.402,0.074,1.625,0.262,3.957l0.334,4.163c0.24,3.004,0.436,5.196,0.58,6.513c0.024,0.228-0.044,0.457-0.19,0.634
			c-0.146,0.177-0.357,0.288-0.587,0.306c0,0-2.175,0.175-2.198,0.175c-0.438,0-0.811-0.337-0.847-0.782l-0.086-1.054l-8.396,0.673
			l0.354,4.413c0.187,2.315,0.378,4.445,0.556,6.159c0.023,0.228-0.046,0.455-0.191,0.631c-0.146,0.176-0.357,0.286-0.586,0.304
			C176.179,70.938,173.866,71.124,173.844,71.124z M163.999,56.894l7.93-0.636l-0.599-7.463l-7.93,0.636L163.999,56.894z
			 M175.768,55.951l8.396-0.673l-0.599-7.463l-8.396,0.673L175.768,55.951z"/>
		<path fill="#FFFFFF" d="M206.558,65.757c-0.438,0-0.811-0.337-0.847-0.783l-0.253-3.149c-0.019-0.225,0.054-0.447,0.2-0.619
			s0.354-0.278,0.579-0.296c0,0,3.446-0.275,3.469-0.275c0.201,0,0.397,0.072,0.552,0.203c0.171,0.146,0.278,0.355,0.296,0.58
			l0.252,3.149c0.037,0.468-0.312,0.878-0.779,0.916C210.026,65.482,206.58,65.757,206.558,65.757z M206.615,57.917
			c-0.425,0-0.79-0.317-0.843-0.747l-2.26-18.298c-0.028-0.23,0.038-0.461,0.185-0.641s0.36-0.292,0.591-0.311
			c0,0,3.861-0.309,3.884-0.309c0.209,0,0.412,0.078,0.569,0.219c0.174,0.156,0.275,0.377,0.281,0.611l0.454,18.443
			c0.011,0.451-0.333,0.833-0.782,0.869C208.694,57.752,206.638,57.917,206.615,57.917z"/>
		<path fill="#FFFFFF" d="M219.476,64.722c-0.438,0-0.811-0.337-0.847-0.783l-0.253-3.149c-0.019-0.225,0.054-0.447,0.2-0.619
			s0.354-0.278,0.579-0.296c0,0,3.446-0.275,3.469-0.275c0.201,0,0.397,0.072,0.552,0.203c0.171,0.146,0.278,0.355,0.296,0.58
			l0.252,3.149c0.037,0.468-0.312,0.878-0.779,0.916C222.944,64.446,219.498,64.722,219.476,64.722z M219.533,56.881
			c-0.425,0-0.79-0.317-0.843-0.747l-2.26-18.298c-0.028-0.23,0.038-0.461,0.185-0.641s0.36-0.292,0.591-0.311
			c0,0,3.861-0.309,3.884-0.309c0.209,0,0.412,0.078,0.569,0.219c0.174,0.156,0.275,0.377,0.281,0.611l0.454,18.443
			c0.011,0.451-0.333,0.833-0.782,0.869C221.612,56.717,219.556,56.881,219.533,56.881z"/>
	</g>
</g>
<path fill="none" d="M-291.241,475.858c-0.017-0.005-2.761-0.667-2.769-0.667c0.062,0.014-0.449,4.426-0.163,4.959
	c0.692,1.286,4.07,0.935,5.416,1.055C-289.147,479.735-289.491,476.281-291.241,475.858z"/>
<path fill="none" d="M-264.201,448.531c-0.797-0.251-1.641-0.231-2.503-0.36c-2.921-0.435-5.563-0.26-8.474-0.05
	c-2.686,0.192-4.89,0.43-7.565,0.719l-1.242,0.477c-1.913,0.548-8.592,14.8-8.592,14.8c1.881-1.031,25.301,0.095,25.301,0.095
	c0.87-2.9,1.737-5.801,2.603-8.701C-264.223,454.012-261.894,449.257-264.201,448.531z"/>
<path fill="none" d="M-276.92,478.913l-0.954,3.343l12.411,0.477v-5.728l-8.21-0.096C-276.92,476.909-276.92,478.913-276.92,478.913
	z"/>
</svg>
