<?xml version="1.0" encoding="utf-8"?>
<!-- Generator: Adobe Illustrator 16.0.4, SVG Export Plug-In . SVG Version: 6.00 Build 0)  -->
<!DOCTYPE svg PUBLIC "-//W3C//DTD SVG 1.1//EN" "http://www.w3.org/Graphics/SVG/1.1/DTD/svg11.dtd">
<svg version="1.1" id="レイヤー_1" xmlns="http://www.w3.org/2000/svg" xmlns:xlink="http://www.w3.org/1999/xlink" x="0px"
	 y="0px" width="111.25px" height="63px" viewBox="0 0 111.25 63" enable-background="new 0 0 111.25 63" xml:space="preserve">
<path fill="none" d="M24.148,56.285c-1.767,0-3.902,1.614-3.902,5.737c0,2.741,1.386,5.342,3.835,5.072
	c1.755-0.192,3.409-2.22,3.555-5.016C27.856,57.795,25.914,56.285,24.148,56.285z"/>
<path fill="none" d="M7.143,118.122l-0.954,3.343l12.411,0.477v-5.728l-8.21-0.096C7.143,116.118,7.143,118.122,7.143,118.122z"/>
<g>
	<path fill="none" d="M20.438,24.189c-1.912-0.478-6.303,0.286-6.303,0.286c0,0.764-2.482,9.739-2.482,9.739
		c-0.572,0.572-0.192,7.445-0.192,7.445c-0.572,1.624,1.816,1.91,1.816,1.91c2.577,0,3.055-1.623,3.055-1.623l2.959-3.627
		c0.574-1.528,2.482-2.005,2.482-2.005l6.109-0.19c0-1.146-0.856-11.458-0.856-11.458L20.438,24.189z"/>
	<path fill="#F1B230" d="M2.391,48.973c0.113,0.354,2.267,0.6,2.584,0.639c1.082,0.131,2.176,0.154,3.264,0.275
		c0.565,0.063,8.33,0.788,8.33,0.934c0,1.005,0.223,4.021,0.223,4.021c0.452,0.039,1.072-0.024,1.489,0.128
		c0.645,0.235,0.818,0.67,1.314,1.188c1.117,1.168,2.676,1.653,4.245,1.819c2.141,0.227,3.531-0.325,4.688-2.248
		c0.129-0.215,1.341-3.122,0.882-3.122c0.002,0,1.004,0,1.004,0l23.561,2.123l0.78-0.448h1.119l-0.113,2.792l2.567-0.445
		c0.892,2.01,2.435,3.723,4.63,4.256c1.585,0.385,3.959,0.229,5.465-0.186c0.869-0.238,1.657-0.915,2.244-1.571
		c0.199-0.222,1.541-2.719,1.621-2.724c0.008-0.001,11.39-0.669,11.39-0.669c2.903,4.019,6.364,3.237,6.364,3.237
		c5.137,0,6.588-6.254,6.588-6.254l9.045-1.116c1.343,0,1.229-4.132,1.229-4.132c0-1.005-1.117-1.786-1.117-1.786
		c0.783,0,0.672-1.451,0.672-1.451l-0.223-11.501c0-0.832-0.146-1.756-0.394-2.734c0.136-0.005,0.276,0,0.428,0.007
		c0.821,0.04,1.923,0.217,2.247-0.76c0.066-0.194,0.088-0.403,0.096-0.607c0.004-0.123-0.049-0.319-0.016-0.434
		c0.047-0.151,0.063-0.078,0.131-0.189c0.213-0.354,0.198-0.618,0.225-1.042c0.027-0.49,0.055-0.979,0.084-1.469
		c0.037-0.655,0.076-1.311,0.115-1.966c0,0,0.057-1.976-0.48-1.807c0,0-1.356-0.649-1.496,0.622c0,0-0.508,3.866-0.367,4.516
		c0,0-0.252,1.017,0.564,1.017c0,0,0.679-0.141,0.51,0.874c-0.039,0.229-0.105,0.318-0.355,0.377
		c-0.256,0.061-0.562,0.002-0.826,0.016c-0.314,0.017-0.625-0.011-0.936-0.024c-0.026-0.001-0.093-0.01-0.176-0.022
		c-1.959-6.414-7.73-14.574-7.73-14.574C95.405,9.169,87.7,8.834,87.7,8.834c-0.064-0.463-0.125-0.926-0.12-1.391
		c0.001-0.188,0.027-0.188,0.102-0.349c0.096-0.203,0.11-0.503,0.015-0.705c-0.07-0.153-0.125-0.136-0.12-0.348
		c0.005-0.203,0.054-0.402,0.05-0.605c-0.013-0.563-0.131-1.172-0.545-1.586c-0.697-0.703-5.297-0.787-6.225-0.787
		c-0.709,0-1.443,0.083-2.148,0.133c-0.665,0.046-1.275-0.033-1.94-0.096c-0.511-0.049-1.035-0.083-1.543-0.136
		c-0.39-0.04-0.515-0.426-0.903-0.5c-0.377-0.075-5.847-0.315-6.705-0.419c-1.266-0.151-1.194-0.401-2.229,0.497
		c-0.114,0.099-0.214,0.209-0.282,0.346c-0.155,0.317-0.268,0.675-0.303,1.022c-0.033,0.324-0.102,0.65-0.116,0.971
		c-0.015,0.254,0.071,0.534-0.234,0.612c-0.212,0.053-0.545,0.007-0.771,0.019c-0.234,0.013-0.599-0.007-0.755,0.205
		c-0.131,0.18-0.155,0.566-0.184,0.777c-0.038,0.277-0.021,0.562,0.024,0.836c0.077,0.436,0.085,1.04,0.473,1.339
		c0.157,0.12,0.358,0.162,0.567,0.172c-0.221,0.014-0.44,0.026-0.66,0.04c-0.355,0.021-0.711,0.042-1.066,0.065
		C61.735,8.968,61.476,9,61.435,8.577c-0.023-0.258,0.037-0.354-0.234-0.421c-0.43-0.108-0.938,0.029-1.353-0.121
		c-0.074-0.486,0.31-0.464,0.639-0.417c0.339,0.05,0.755,0.084,1.043-0.111c0.247-0.169,0.461-0.389,0.583-0.665
		c0.434-0.972,0.349-2.123-0.393-2.929c-0.648-0.703-1.312-0.248-2.098-0.177c-0.322,0.029-0.649,0.041-0.973,0.046
		c-1.055,0.01-2.506-0.349-3.272,0.633C54.85,5.089,54.848,6.1,55.04,6.892c0.084,0.345,0.232,0.675,0.428,0.972
		c0.125,0.188,0.312,0.152,0.258,0.475c-0.345,0.055-0.3,0.596-0.3,0.868c0,0.693-0.421,0.56-0.96,0.6
		c-0.448,0.031-0.897,0.063-1.346,0.097c-1.115,0.081-2.229,0.162-3.344,0.242l-2.431,0.175l-0.957-0.286l-3.626,0.478l-0.38-0.955
		l11.933-0.763c-0.004-0.672-0.007-1.342-0.011-2.012c-0.002-0.5-0.007-0.998-0.009-1.497c-0.002-0.221,0.094-0.726-0.006-0.927
		c-0.061-0.122-0.164-0.121-0.312-0.135c-0.125-0.013-0.26-0.013-0.392-0.019c-0.275-0.013-0.546-0.047-0.823-0.047
		c-0.362,0-1.1,0.079-1.399-0.123c-0.284-0.192-0.22-0.613-0.546-0.831c-0.319-0.21-0.72-0.234-1.078-0.151
		c-0.74,0.172-1.487,0.53-2.208,0.781c-0.229,0.081-0.299,0.155-0.473,0.301c-0.129,0.107-0.251,0.11-0.4,0.139
		c-0.183,0.034-0.375,0.059-0.561,0.096c-0.563,0.115-1.185,0.118-1.764,0.168c-0.495,0.043-0.988,0.086-1.484,0.128
		c-1.174,0.102-2.348,0.202-3.52,0.304c-1.342,0.116-2.684,0.231-4.024,0.347C35,5.342,34.906,5.308,34.655,5.234
		c-0.175-0.053-0.321-0.067-0.507-0.05c-0.384,0.032-0.74,0.187-1.117,0.246c-0.007,0.133-0.046,0.267-0.07,0.396
		c-2.05,0.269-4.132,0.444-6.194,0.664c-1.733,0.184-3.468,0.369-5.202,0.553c-0.004,0-14.535,1.58-14.535,1.58L6.337,8.593
		l-0.17,0.201L4.3,9.083C3.834,8.543,3.119,9.303,3.123,9.8c0.001,0.302,0.099,0.58,0.454,0.574c0.36-0.006,0.262-0.231,0.441-0.416
		c0.157-0.16,0.315-0.113,0.542-0.101c-0.002,0.095-0.002,0.191-0.002,0.288c-0.009,1.018-0.011,2.037-0.017,3.056
		c0,0.143,0.061,2.155-0.013,2.171c-0.284,0.062-0.833-0.828-1.119-0.202c-0.166,0.363-0.1,0.81,0.14,1.103
		c0.321,0.394,0.293-0.09,0.629-0.242c0.153-0.069,0.493-0.006,0.661-0.007c0.388-0.005,0.779-0.01,1.167-0.015l0.177,0.53
		l1.674-0.111l-0.781,1.676L6.967,39.43c0-0.781-2.682-0.223-2.682-0.223c-1.145,0.653-1.626,0.722-1.864,2.12
		c-0.23,1.361-0.105,2.76-0.251,4.124C2.048,46.573,2.046,47.887,2.391,48.973z M5.963,15.069l-0.524-0.104V10.24l0.471-0.053
		L5.963,15.069z M49.264,6.461h4.304l0.052,1.731l-4.356,0.105V6.461z M44.775,8.429l1.127-1.128l1.314,0.944L44.775,8.429z
		 M77.977,6.778c0,0.366-1.442,0.168-1.761,0.156c-0.28-0.01-0.551-0.033-0.823-0.05c-0.091,0.031-0.181,0.051-0.261,0.05
		c0.08,0.001,0.17-0.019,0.261-0.05c-0.12-0.007-0.238-0.018-0.362-0.018c0.124,0,0.242,0.011,0.362,0.018
		c0.237-0.087,0.474-0.276,0.458-0.521c0.285-0.014,1.445,0.037,1.722,0.064C77.802,6.451,77.977,6.404,77.977,6.778z
		 M100.429,45.358c0.391-1.47,0.734-4.924,2.484-5.347c0.016-0.005,2.761-0.667,2.768-0.667c-0.062,0.014,0.449,4.426,0.163,4.959
		C105.151,45.59,101.774,45.238,100.429,45.358z M77.135,41.158l8.21-0.096c3.247,0,3.247,2.004,3.247,2.004l0.954,3.343
		l-12.411,0.477V41.158z M76.345,19.664c-0.45-1.498-2.779-6.253-0.473-6.979c0.797-0.251,1.642-0.231,2.504-0.36
		c2.921-0.435,5.562-0.26,8.473-0.05c2.686,0.192,4.891,0.43,7.566,0.719l1.242,0.477c1.912,0.548,8.592,14.8,8.592,14.8
		c-1.881-1.031-25.301,0.095-25.301,0.095C78.078,25.464,77.21,22.564,76.345,19.664z M63.024,47.188
		c1.766,0,3.901,1.614,3.901,5.737c0,2.741-1.386,5.342-3.835,5.072c-1.756-0.192-3.409-2.22-3.555-5.016
		C59.315,48.698,61.258,47.188,63.024,47.188z M58.899,26.838c0-1.146,0.855-11.458,0.855-11.458l6.588-0.478
		c1.912-0.478,6.303,0.286,6.303,0.286c0,0.764,2.482,9.739,2.482,9.739c0.572,0.572,0.192,7.445,0.192,7.445
		c0.572,1.624-1.815,1.91-1.815,1.91c-2.577,0-3.055-1.623-3.055-1.623l-2.959-3.627c-0.574-1.528-2.482-2.005-2.482-2.005
		L58.899,26.838z M43.334,27.029c0-1.433,1.146-10.98,1.146-10.98l6.683-0.573c1.425-0.179,2.332-0.129,2.909,0
		c0.7,0,1.198,0,1.198,0s-0.498,0-1.198,0c0.967,0.219,1.006,0.669,1.006,0.669c-0.668,1.146-0.764,10.312-0.764,10.312
		c0,0.858-0.86,0.764-0.86,0.764L43.334,27.029z M36.824,7.878h1.312l0.053,1.207h-1.261L36.824,7.878z M34.882,8.298h0.418
		l0.054,1.05h-0.315L34.882,8.298z M32.783,9.504l-0.474-0.052l-0.05-1.102h0.471L32.783,9.504z M31.155,10.921h1.575v0.631
		L31.207,11.5L31.155,10.921z M31.155,8.771l0.473-0.053l0.054,0.839l-0.526-0.104V8.771z M21.919,9.767l-0.107,0.316l-0.499,0.497
		l-0.288-0.76L21.919,9.767z M23.23,10.345l-0.366-0.105l0.05-0.367h0.316V10.345z M23.282,12.444h-0.683v-0.682l0.578-0.052
		L23.282,12.444z M25.539,9.61l-0.943,0.525v-1.05l0.943,0.105V9.61z M26.692,11.5l0.528-0.105l0.05,0.735h-0.419L26.692,11.5z
		 M26.117,12.129L24.07,12.34v-0.788h2.047V12.129z M19.468,50.604c0-2.521,1.358-4.607,2.68-4.607c1.321,0,2.771,1.979,2.771,4.5
		s-1.34,5.069-2.664,5.069C20.934,55.566,19.468,53.126,19.468,50.604z M18.769,12.025l3.413-0.104l-0.054,0.576l-3.359,0.105
		V12.025z M15.096,13.127l0.05-0.474l2.363-0.262v0.525L15.096,13.127z M12.733,12.602l1.102,0.052l-0.105,0.683h-0.997V12.602z
		 M9.374,12.602l1.521-0.054v2.154l-1.521,0.051V12.602z M9.217,10.397l1.626,1.051l-1.626,0.208V10.397z"/>
	<g>
		<g>
			<path fill="none" stroke="#231815" stroke-width="5" d="M45.654,48.074c-0.042,0-0.083-0.009-0.123-0.028
				c-6.656-3.211-10.096-9.982-10.785-13.749h-0.033l-0.015,0.04c-0.631,3.141-3.996,10.107-12.127,13.712
				c-0.037,0.017-0.076,0.024-0.115,0.024c-0.1,0-0.195-0.053-0.247-0.145c-0.381-0.679-1.145-1.682-1.702-2.32
				c-0.06-0.069-0.083-0.162-0.062-0.251c0.021-0.089,0.083-0.162,0.167-0.197c9.708-4.036,12.297-12.483,12.297-16.839v-3.924
				h-3.312c-1.196,2.975-2.569,5.526-3.972,7.378c-0.056,0.074-0.14,0.113-0.226,0.113c-0.055,0-0.111-0.016-0.16-0.049
				c-0.668-0.454-1.699-1.038-2.424-1.416c-0.075-0.039-0.128-0.109-0.146-0.191c-0.018-0.083,0.002-0.169,0.054-0.235
				c2.526-3.219,4.832-8.92,6.167-15.25c0.016-0.075,0.061-0.14,0.125-0.181c0.045-0.029,0.099-0.044,0.152-0.044
				c0.021,0,0.043,0.002,0.065,0.008l3.404,0.799c0.128,0.03,0.218,0.144,0.219,0.275c0,0.131-0.09,0.246-0.218,0.276
				c-0.081,0.019-0.173,0.029-0.274,0.029l-0.138-0.006c-0.417,1.777-0.889,3.497-1.404,5.111h13.354l0.403-0.188
				c0.038-0.018,0.079-0.027,0.12-0.027c0.051,0,0.102,0.014,0.147,0.042l2.222,1.35c0.086,0.052,0.138,0.147,0.136,0.248
				c-0.002,0.101-0.058,0.193-0.146,0.242c-0.097,0.054-0.209,0.099-0.326,0.132v0c-0.616,2.856-1.866,6.59-3.185,9.513
				c-0.032,0.071-0.092,0.126-0.167,0.151c-0.03,0.01-0.061,0.016-0.092,0.016c-0.046,0-0.091-0.011-0.132-0.033
				c-0.704-0.372-1.687-0.844-2.389-1.149c-0.143-0.062-0.209-0.229-0.148-0.372c0.692-1.616,1.497-4.062,2.154-6.543h-5.399
				c-0.116,0.231-0.431,0.402-0.864,0.469v3.419c0.043,4.316,2.435,12.68,11.119,16.629c0.079,0.035,0.137,0.105,0.158,0.188
				c0.021,0.084,0.003,0.173-0.05,0.241c-0.56,0.732-1.347,1.819-1.843,2.6C45.84,48.027,45.749,48.074,45.654,48.074z
				 M15.808,42.599c-0.103-0.004-0.196-0.063-0.243-0.155l-1.563-3.097c-0.035-0.069-0.04-0.148-0.015-0.222
				c0.025-0.072,0.079-0.132,0.149-0.164c2.458-1.129,6.33-3.06,10.624-5.298c0.041-0.021,0.086-0.032,0.131-0.032
				c0.037,0,0.075,0.007,0.11,0.022c0.078,0.033,0.137,0.099,0.162,0.179l0.771,2.552c0.038,0.127-0.016,0.263-0.13,0.328
				c-3.458,1.987-7.239,4.091-9.631,5.358l0,0c0,0.136-0.038,0.267-0.111,0.39c-0.051,0.086-0.144,0.138-0.243,0.138
				C15.815,42.599,15.812,42.599,15.808,42.599z M22.288,24.091c-0.059,0-0.117-0.019-0.166-0.054
				c-1.644-1.188-4.751-2.829-7.39-3.901c-0.079-0.032-0.139-0.098-0.164-0.179c-0.025-0.082-0.012-0.17,0.035-0.241l1.482-2.224
				c0.054-0.081,0.143-0.126,0.236-0.126c0.033,0,0.066,0.006,0.098,0.018c2.366,0.869,5.745,2.404,7.625,3.655
				c0.128,0.085,0.165,0.257,0.083,0.387l-1.599,2.533c-0.042,0.066-0.109,0.112-0.186,0.127
				C22.324,24.089,22.306,24.091,22.288,24.091z"/>
			<path fill="none" stroke="#231815" stroke-width="5" d="M80.981,42.775c-0.071,0-0.14-0.026-0.192-0.075
				C75.8,38.08,70.098,31.361,68.263,29.005l-0.726-0.903c-2.139-2.667-3.115-3.884-4.385-3.884c-1.233,0-2.308,1.192-4.428,3.672
				l-5.327,6.083c0,0.36-0.073,0.647-0.222,0.875c-0.049,0.076-0.131,0.123-0.221,0.128c-0.006,0-0.011,0-0.017,0
				c-0.084,0-0.164-0.038-0.218-0.103l-2.645-3.181c-0.095-0.114-0.086-0.283,0.022-0.386c1.959-1.874,5.761-5.901,7.295-7.557
				c2.392-2.53,3.863-3.384,5.832-3.384c2.244,0,3.771,1.066,6.803,4.752c2.554,3.12,8.445,9.647,13.55,14.392
				c0.111,0.104,0.121,0.278,0.021,0.394l-2.402,2.774c-0.05,0.058-0.121,0.094-0.198,0.098
				C80.992,42.775,80.986,42.775,80.981,42.775z"/>
		</g>
		<g>
			<path fill="none" stroke="#231815" stroke-width="2" d="M44.237,46.657c-0.042,0-0.083-0.009-0.123-0.028
				c-6.656-3.211-10.096-9.982-10.785-13.75h-0.033l-0.015,0.04c-0.631,3.141-3.996,10.108-12.127,13.712
				c-0.037,0.017-0.076,0.024-0.115,0.024c-0.1,0-0.195-0.053-0.247-0.145c-0.381-0.679-1.145-1.682-1.702-2.32
				c-0.06-0.069-0.083-0.162-0.062-0.251c0.021-0.089,0.083-0.162,0.167-0.197c9.708-4.036,12.297-12.484,12.297-16.839V22.98
				h-3.312c-1.196,2.975-2.569,5.526-3.972,7.378c-0.056,0.074-0.14,0.113-0.226,0.113c-0.055,0-0.111-0.016-0.16-0.049
				c-0.668-0.454-1.699-1.038-2.424-1.416c-0.075-0.039-0.128-0.109-0.146-0.191c-0.018-0.083,0.002-0.169,0.054-0.235
				c2.526-3.219,4.832-8.92,6.167-15.25c0.016-0.075,0.061-0.14,0.125-0.181c0.045-0.029,0.099-0.044,0.152-0.044
				c0.021,0,0.043,0.002,0.065,0.008l3.404,0.799c0.128,0.03,0.218,0.144,0.219,0.275c0,0.131-0.09,0.246-0.218,0.276
				c-0.081,0.019-0.173,0.029-0.274,0.029l-0.138-0.006c-0.417,1.777-0.889,3.497-1.404,5.111H42.76l0.403-0.188
				c0.038-0.018,0.079-0.027,0.12-0.027c0.051,0,0.102,0.014,0.147,0.042l2.222,1.35c0.086,0.052,0.138,0.147,0.136,0.248
				c-0.002,0.101-0.058,0.193-0.146,0.242c-0.097,0.054-0.209,0.099-0.326,0.132v0c-0.616,2.856-1.866,6.59-3.185,9.513
				c-0.032,0.071-0.092,0.126-0.167,0.151c-0.03,0.01-0.061,0.016-0.092,0.016c-0.046,0-0.091-0.011-0.132-0.033
				c-0.704-0.372-1.687-0.844-2.389-1.149c-0.143-0.062-0.209-0.229-0.148-0.372c0.692-1.616,1.497-4.062,2.154-6.543h-5.399
				c-0.116,0.231-0.431,0.402-0.864,0.469v3.419c0.043,4.316,2.435,12.68,11.119,16.629c0.079,0.035,0.137,0.105,0.158,0.188
				c0.021,0.084,0.003,0.173-0.05,0.241c-0.56,0.732-1.347,1.819-1.843,2.6C44.422,46.61,44.331,46.657,44.237,46.657z
				 M14.391,41.182c-0.103-0.004-0.196-0.063-0.243-0.155l-1.563-3.097c-0.035-0.069-0.04-0.148-0.015-0.222
				c0.025-0.072,0.079-0.132,0.149-0.164c2.458-1.129,6.33-3.06,10.624-5.298c0.041-0.021,0.086-0.032,0.131-0.032
				c0.037,0,0.075,0.007,0.11,0.022c0.078,0.033,0.137,0.099,0.162,0.179l0.771,2.553c0.038,0.126-0.016,0.262-0.13,0.328
				c-3.458,1.988-7.239,4.091-9.631,5.359l0,0c0,0.136-0.038,0.267-0.111,0.39c-0.051,0.086-0.144,0.138-0.243,0.138
				C14.397,41.182,14.394,41.182,14.391,41.182z M20.87,22.674c-0.059,0-0.117-0.019-0.166-0.054
				c-1.644-1.188-4.751-2.829-7.39-3.901c-0.079-0.032-0.139-0.098-0.164-0.179c-0.025-0.082-0.012-0.17,0.035-0.241l1.482-2.224
				c0.054-0.081,0.143-0.126,0.236-0.126c0.033,0,0.066,0.006,0.098,0.018c2.366,0.869,5.745,2.404,7.625,3.655
				c0.128,0.085,0.165,0.257,0.083,0.387l-1.599,2.533c-0.042,0.066-0.109,0.112-0.186,0.127
				C20.906,22.672,20.888,22.674,20.87,22.674z"/>
			<path fill="none" stroke="#231815" stroke-width="2" d="M79.564,41.358c-0.071,0-0.14-0.026-0.192-0.075
				c-4.989-4.62-10.691-11.34-12.526-13.696l-0.726-0.903c-2.139-2.667-3.116-3.884-4.386-3.884c-1.233,0-2.308,1.192-4.428,3.672
				l-5.327,6.083c0,0.36-0.073,0.647-0.222,0.875c-0.049,0.076-0.131,0.123-0.221,0.128c-0.006,0-0.011,0-0.017,0
				c-0.084,0-0.164-0.038-0.218-0.103l-2.645-3.181c-0.095-0.114-0.086-0.283,0.022-0.386c1.959-1.874,5.761-5.901,7.295-7.557
				c2.392-2.53,3.863-3.384,5.832-3.384c2.245,0,3.771,1.066,6.803,4.752c2.554,3.12,8.445,9.647,13.55,14.392
				c0.111,0.104,0.121,0.278,0.021,0.394l-2.402,2.774c-0.05,0.058-0.121,0.094-0.198,0.098
				C79.575,41.358,79.569,41.358,79.564,41.358z"/>
		</g>
		<g>
			<path fill="#FFFFFF" d="M44.237,46.657c-0.042,0-0.083-0.009-0.123-0.028c-6.656-3.211-10.096-9.982-10.785-13.75h-0.033
				l-0.015,0.04c-0.631,3.141-3.996,10.108-12.127,13.712c-0.037,0.017-0.076,0.024-0.115,0.024c-0.1,0-0.195-0.053-0.247-0.145
				c-0.381-0.679-1.145-1.682-1.702-2.32c-0.06-0.069-0.083-0.162-0.062-0.251c0.021-0.089,0.083-0.162,0.167-0.197
				c9.708-4.036,12.297-12.484,12.297-16.839V22.98h-3.312c-1.196,2.975-2.569,5.526-3.972,7.378
				c-0.056,0.074-0.14,0.113-0.226,0.113c-0.055,0-0.111-0.016-0.16-0.049c-0.668-0.454-1.699-1.038-2.424-1.416
				c-0.075-0.039-0.128-0.109-0.146-0.191c-0.018-0.083,0.002-0.169,0.054-0.235c2.526-3.219,4.832-8.92,6.167-15.25
				c0.016-0.075,0.061-0.14,0.125-0.181c0.045-0.029,0.099-0.044,0.152-0.044c0.021,0,0.043,0.002,0.065,0.008l3.404,0.799
				c0.128,0.03,0.218,0.144,0.219,0.275c0,0.131-0.09,0.246-0.218,0.276c-0.081,0.019-0.173,0.029-0.274,0.029l-0.138-0.006
				c-0.417,1.777-0.889,3.497-1.404,5.111H42.76l0.403-0.188c0.038-0.018,0.079-0.027,0.12-0.027c0.051,0,0.102,0.014,0.147,0.042
				l2.222,1.35c0.086,0.052,0.138,0.147,0.136,0.248c-0.002,0.101-0.058,0.193-0.146,0.242c-0.097,0.054-0.209,0.099-0.326,0.132v0
				c-0.616,2.856-1.866,6.59-3.185,9.513c-0.032,0.071-0.092,0.126-0.167,0.151c-0.03,0.01-0.061,0.016-0.092,0.016
				c-0.046,0-0.091-0.011-0.132-0.033c-0.704-0.372-1.687-0.844-2.389-1.149c-0.143-0.062-0.209-0.229-0.148-0.372
				c0.692-1.616,1.497-4.062,2.154-6.543h-5.399c-0.116,0.231-0.431,0.402-0.864,0.469v3.419c0.043,4.316,2.435,12.68,11.119,16.629
				c0.079,0.035,0.137,0.105,0.158,0.188c0.021,0.084,0.003,0.173-0.05,0.241c-0.56,0.732-1.347,1.819-1.843,2.6
				C44.422,46.61,44.331,46.657,44.237,46.657z M14.391,41.182c-0.103-0.004-0.196-0.063-0.243-0.155l-1.563-3.097
				c-0.035-0.069-0.04-0.148-0.015-0.222c0.025-0.072,0.079-0.132,0.149-0.164c2.458-1.129,6.33-3.06,10.624-5.298
				c0.041-0.021,0.086-0.032,0.131-0.032c0.037,0,0.075,0.007,0.11,0.022c0.078,0.033,0.137,0.099,0.162,0.179l0.771,2.553
				c0.038,0.126-0.016,0.262-0.13,0.328c-3.458,1.988-7.239,4.091-9.631,5.359l0,0c0,0.136-0.038,0.267-0.111,0.39
				c-0.051,0.086-0.144,0.138-0.243,0.138C14.397,41.182,14.394,41.182,14.391,41.182z M20.87,22.674
				c-0.059,0-0.117-0.019-0.166-0.054c-1.644-1.188-4.751-2.829-7.39-3.901c-0.079-0.032-0.139-0.098-0.164-0.179
				c-0.025-0.082-0.012-0.17,0.035-0.241l1.482-2.224c0.054-0.081,0.143-0.126,0.236-0.126c0.033,0,0.066,0.006,0.098,0.018
				c2.366,0.869,5.745,2.404,7.625,3.655c0.128,0.085,0.165,0.257,0.083,0.387l-1.599,2.533c-0.042,0.066-0.109,0.112-0.186,0.127
				C20.906,22.672,20.888,22.674,20.87,22.674z"/>
			<path fill="#FFFFFF" d="M79.564,41.358c-0.071,0-0.14-0.026-0.192-0.075c-4.989-4.62-10.691-11.34-12.526-13.696l-0.726-0.903
				c-2.139-2.667-3.116-3.884-4.386-3.884c-1.233,0-2.308,1.192-4.428,3.672l-5.327,6.083c0,0.36-0.073,0.647-0.222,0.875
				c-0.049,0.076-0.131,0.123-0.221,0.128c-0.006,0-0.011,0-0.017,0c-0.084,0-0.164-0.038-0.218-0.103l-2.645-3.181
				c-0.095-0.114-0.086-0.283,0.022-0.386c1.959-1.874,5.761-5.901,7.295-7.557c2.392-2.53,3.863-3.384,5.832-3.384
				c2.245,0,3.771,1.066,6.803,4.752c2.554,3.12,8.445,9.647,13.55,14.392c0.111,0.104,0.121,0.278,0.021,0.394l-2.402,2.774
				c-0.05,0.058-0.121,0.094-0.198,0.098C79.575,41.358,79.569,41.358,79.564,41.358z"/>
		</g>
	</g>
</g>
</svg>
